<?xml version="1.0" encoding="utf-8"?>
<!-- Generator: Adobe Illustrator 21.0.2, SVG Export Plug-In . SVG Version: 6.00 Build 0)  -->
<svg version="1.1" id="Capa_1" xmlns="http://www.w3.org/2000/svg" xmlns:xlink="http://www.w3.org/1999/xlink" x="0px" y="0px"
	 viewBox="0 0 400 400" style="enable-background:new 0 0 400 400;" xml:space="preserve">
<style type="text/css">
	.st0{fill:#FFFFFF;stroke:#FFFFFF;stroke-width:20;stroke-miterlimit:10;}
	.st1{fill:#27557C;}
</style>
<g>
	<g>
		<g>
			<path class="st0" d="M357.5,340.1c5.9,4,10.4,8.8,12.6,15c1.4,3.8,2.2,7.9,2.6,12c0.5,3.6-1.6,5.7-4.7,5.8
				c-3.1,0.1-5.1-1.9-5.3-5.4C362.2,357,357,350,347.6,347c-9.7-3-20.8-0.3-26.2,7.6c-2.5,3.6-3.5,8.3-4.5,12.6
				c-0.8,4-1.8,5.7-5,5.6c-3.2,0-4.7-1.6-4.9-5.7c-0.6-9.8-5.3-16.7-14.6-19.9c-9.1-3.1-17.6-1.6-24.9,4.9c-4.3,3.9-6.2,9-6.4,14.7
				c-0.1,4-1.8,5.9-5,6c-3.3,0-5-1.8-5.1-5.9c-0.5-15.7-15.1-23.6-28.6-20.5c-10.9,2.5-16.2,9.1-17.4,20.9c-0.3,2.8-1.1,4.9-4.2,5.4
				c-3.2,0.5-5.4-1.2-5.7-4.8c-0.5-5.8-1.6-11.1-5.9-15.3c-7.5-7.1-16.2-8.7-25.7-5.4c-9.3,3.2-14,10.2-14.4,20
				c-0.2,3.7-2,5.6-5.2,5.5c-3.1-0.1-4.8-2.1-4.9-5.8c-0.5-11.2-7.9-19.5-18.9-21c-12.4-1.7-22.9,4.5-26.2,15.5
				c-0.7,2.3-0.9,4.7-1.1,7.1c-0.2,2.8-1.8,4.1-4.4,4.2c-2.7,0.2-4.3-1.1-4.9-3.8c-0.3-1.6-0.5-3.2-0.7-4.7
				c-2.2-13.2-15-21.2-28.3-17.9c-10.8,2.7-16.7,9.7-17.4,20.9c-0.2,3.8-2.3,5.8-5.5,5.5c-3-0.2-4.6-2.4-4.5-6
				c0.3-10.3,4.7-18.1,15.2-26.8c-1.3-1.1-2.6-2.1-3.9-3.2c-11.7-10.5-14.6-26.3-7.5-40.3c0.8-1.7,1.4-3.9,1.4-5.8
				c0.1-37,0.1-73.9,0.1-110.9c0-42.8,0.2-85.6-0.1-128.4c-0.1-14.3,11.4-24.3,24.1-24.2c45.2,0.3,90.5,0.1,135.6,0.1
				c49.9,0,99.7,0.1,149.6,0c9,0,16,2.9,21.2,10.3c2.9,4.2,3.9,9,3.9,14c-0.1,29.4-0.2,58.9-0.2,88.2c0,38.5,0.1,76.9,0.2,115.4
				c0,11.8,0,23.6,0.1,35.4c0,1.5,0.4,3.2,1.1,4.4c8.7,14.4,5.5,32.4-7.7,42.9C359.5,338.4,358.7,339,357.5,340.1z"/>
		</g>
	</g>
	<g>
		<g>
			<path class="st1" d="M357.5,340.1c5.9,4,10.4,8.8,12.6,15c1.4,3.8,2.2,7.9,2.6,12c0.5,3.6-1.6,5.7-4.7,5.8
				c-3.1,0.1-5.1-1.9-5.3-5.4C362.2,357,357,350,347.6,347c-9.7-3-20.8-0.3-26.2,7.6c-2.5,3.6-3.5,8.3-4.5,12.6
				c-0.8,4-1.8,5.7-5,5.6c-3.2,0-4.7-1.6-4.9-5.7c-0.6-9.8-5.3-16.7-14.6-19.9c-9.1-3.1-17.6-1.6-24.9,4.9c-4.3,3.9-6.2,9-6.4,14.7
				c-0.1,4-1.8,5.9-5,6c-3.3,0-5-1.8-5.1-5.9c-0.5-15.7-15.1-23.6-28.6-20.5c-10.9,2.5-16.2,9.1-17.4,20.9c-0.3,2.8-1.1,4.9-4.2,5.4
				c-3.2,0.5-5.4-1.2-5.7-4.8c-0.5-5.8-1.6-11.1-5.9-15.3c-7.5-7.1-16.2-8.7-25.7-5.4c-9.3,3.2-14,10.2-14.4,20
				c-0.2,3.7-2,5.6-5.2,5.5c-3.1-0.1-4.8-2.1-4.9-5.8c-0.5-11.2-7.9-19.5-18.9-21c-12.4-1.7-22.9,4.5-26.2,15.5
				c-0.7,2.3-0.9,4.7-1.1,7.1c-0.2,2.8-1.8,4.1-4.4,4.2c-2.7,0.2-4.3-1.1-4.9-3.8c-0.3-1.6-0.5-3.2-0.7-4.7
				c-2.2-13.2-15-21.2-28.3-17.9c-10.8,2.7-16.7,9.7-17.4,20.9c-0.2,3.8-2.3,5.8-5.5,5.5c-3-0.2-4.6-2.4-4.5-6
				c0.3-10.3,4.7-18.1,15.2-26.8c-1.3-1.1-2.6-2.1-3.9-3.2c-11.7-10.5-14.6-26.3-7.5-40.3c0.8-1.7,1.4-3.9,1.4-5.8
				c0.1-37,0.1-73.9,0.1-110.9c0-42.8,0.2-85.6-0.1-128.4c-0.1-14.3,11.4-24.3,24.1-24.2c45.2,0.3,90.5,0.1,135.6,0.1
				c49.9,0,99.7,0.1,149.6,0c9,0,16,2.9,21.2,10.3c2.9,4.2,3.9,9,3.9,14c-0.1,29.4-0.2,58.9-0.2,88.2c0,38.5,0.1,76.9,0.2,115.4
				c0,11.8,0,23.6,0.1,35.4c0,1.5,0.4,3.2,1.1,4.4c8.7,14.4,5.5,32.4-7.7,42.9C359.5,338.4,358.7,339,357.5,340.1z M86.3,136.1
				c0.2,0,0.5-0.1,0.7-0.1c0-4.3-0.1-8.7,0-13c0.1-4,1.2-5.5,5.2-5.8c3.9-0.3,7.7,0.1,11.6,0.1c17.5-0.1,35-0.3,52.5-0.4
				c4.4,0,6.2,1.8,6.3,6.2c0,5.9,0,11.9,0,17.8c0,5.4-1.6,7.7-5.1,7.6c-3.4-0.1-4.8-2.3-4.8-7.5c0-4.6,0-9.2,0-14.1
				c-19.1,0-37.5,0-55.9,0c0,35.5,0,70.6,0,105.9c1.3,0.1,2.4,0.2,3.4,0.2c16.2,0,32.5-0.1,48.8,0.1c3.3,0,4-1.1,3.9-4.2
				c-0.1-19-0.1-37.9,0-57c0-1.3-0.1-3.3,0.7-3.9c1.5-1.2,3.7-2.5,5.5-2.3c3,0.2,3.8,2.7,3.8,5.6c-0.1,19.3-0.2,38.7-0.3,58
				c0,2.5,0.8,3.9,3.8,3.9c22.7-0.1,45.6-0.2,68.3-0.2c0.9,0,2,0,3,0c0.1-1.2,0.1-2,0.1-2.7c0-25.9-0.2-52,0-77.9
				c0-3.8-1.2-5.6-4.3-7.4c-29.3-16.4-58.6-33-87.8-49.5c-17.6-9.9-35.2-19.8-53-29.9c-6.8,6.9-13.6,13.6-20.1,20.5
				c-0.7,0.8-0.8,2.5-0.5,3.6c3.6,12.2,7.3,24.2,11,36.3C83.9,129.5,85.1,132.8,86.3,136.1z M303.4,127.2c-1.4-0.1-2.5-0.2-3.5-0.2
				c-16.2,0-32.5,0.1-48.8-0.1c-3,0-3.9,0.8-3.9,3.9c0.1,31.7,0.1,63.4,0.1,95.1c0,7.2,0,7.2,7.3,7.5c3.6,0.2,5.5,2,5.2,5.3
				c-0.2,3.1-1.8,4.4-5.7,4.4c-10.8,0-21.5,0-32.3,0c-40.2,0-80.3,0-120.4,0c-1.5,0-3.1,0-4.6,0c0,14.3,0,28,0,42.3
				c8.1-5.4,16.5-7.1,25.6-5.4c9.2,1.7,16.1,7,21.6,14.6c7.1-9.8,16.1-15.3,28.1-15.2c11.8,0.1,20.8,5.6,27.8,15.1
				c7.1-9.6,16.1-15.1,27.9-15.2c12,0,21.1,5.6,27.9,15c13.2-16.2,28.9-19.2,47-9.6c0-14,0-27.6,0-41.7c-7.5,0-14.6,0-21.8,0
				c-5.2,0-7.1-1.2-7.1-4.8c0-3.5,2-5,7-5c6.5,0,13-0.1,19.5,0c2.2,0,3.1-0.7,3-2.9c-0.2-2.8-0.1-5.8-0.1-8.6
				c0.1-18.8,0.3-37.5,0.4-56.3c0-9.1-0.3-18-0.4-27.1C303.3,134.7,303.4,131.1,303.4,127.2z M112.7,64.8c-0.1,0.3-0.1,0.6-0.2,0.8
				c0.8,0.5,1.4,1,2.3,1.5c25.7,14.5,51.6,29.1,77.2,43.6c1.9,1,3.3,1.2,5.3,0.2c24.6-12.6,49.2-25.2,73.9-37.7
				c4.9-2.5,9.8-5,15-7.6c-0.7-0.4-0.8-0.7-1-0.7c-14.8-0.1-29.7-0.1-44.5-0.1c-8.8,0-17.6,0.1-26.4,0c-3.5,0-5.2-1.9-5.2-5
				s1.9-4.8,5.3-4.8c4.2,0,8.2,0,12.4,0c2.3,0,4.6,0,7.8,0c-5.4-5.7-10-10.8-14.9-15.5c-1.4-1.3-3.7-2.4-5.7-2.4
				c-9.1-0.2-18,0-27.1-0.1c-2.7,0-4.9,0.6-6.9,2.8c-3.9,4.4-8,8.5-12.1,12.6c-0.6,0.6-0.9,1.3-1.8,2.5c1.5,0,2.4,0,3.3,0
				c6.3,0,12.6-0.3,18.9,0.1c1.6,0.1,4,1.8,4.4,3.3s-0.4,4.2-1.5,5.4c-1,1-3.4,1-5.1,1.1c-23.2,0.1-46.4,0-69.6,0
				C115.1,64.8,113.9,64.8,112.7,64.8z M313.2,134.1c0.3,0,0.5,0,0.8,0c0.2-0.3,0.5-0.6,0.6-0.8c4.6-14.4,9.2-28.9,13.7-43.4
				c0.4-1.1-0.5-3.1-1.4-4.1c-5.4-5.6-11.1-10.8-16.3-16.6c-2.5-2.8-4.5-2.5-7.5-1c-30.9,15.9-62,31.7-93,47.5
				c-1.3,0.7-2.6,1.5-4.4,2.5c10.9,6.1,21.1,11.9,32.1,18c0-4.2,0-7.5,0-10.8c0-7.3,1.1-8.4,8.3-8.4c19.9,0,39.8,0,59.7,0
				c1.1,0,2.3,0,3.4,0.2c2.9,0.6,4.6,2.2,4.4,5.5C313.1,126.3,313.2,130.2,313.2,134.1z M86.1,290.2c0-0.3,0.1-1.1,0.1-1.9
				c0.2-37.7,0.4-75.5,0.5-113.2c0-2-0.3-4.2-0.8-6c-3.4-11.6-6.9-23.1-10.5-34.7c-1.4-4.5-3-9-4.5-13.4C70,130,70,139,70,148
				c0.1,31.1,0.1,62.3,0.2,93.3c0,12.3,0,24.4,0.1,36.7c0,1,0.4,2.6,1.2,3.1C76.2,284.2,81.1,287.2,86.1,290.2z M313.3,291.2
				c4.5-3.1,9-6.3,13.6-9.2c1.7-1,2.5-1.9,2.5-3.9c0.1-47.2,0.2-94.2,0.4-141.4c0-4.8,0-9.6,0-14.4c-0.4,0-0.8,0-1.1-0.1
				c-0.4,0.9-0.8,1.9-1,2.8c-3.9,12.1-7.5,24.1-11.5,36.2c-2.1,6.2-2.8,12.5-2.8,19.1c0.2,36.3,0,72.5,0,108.8
				C313.2,290.1,313.3,290.9,313.3,291.2z M55.9,334.2c3.4-14.4,12.5-23.1,26.5-26.7c-2.1-10.9-12.4-19-23-18.4
				c-11.9,0.7-21.5,9.8-22.2,21.2C36.5,322,44.2,332.1,55.9,334.2z M344.9,334c10.7-1.7,18.6-12.2,17.9-23.6
				c-0.7-11.3-10.4-20.8-22.2-21.3c-10.8-0.6-21.3,7.8-22.9,18.1C336.2,314.7,338.9,317.4,344.9,334z M334.3,78.9
				c6.7-6.7,13.6-13,19.8-20c4.7-5.2,3.5-12.8-2-17.8c-5.7-5.2-12.9-5.3-18.2-0.2c-3.9,3.7-7.6,7.6-11.4,11.4
				c-2.5,2.5-4.9,5-7.3,7.4C321.8,66.3,328,72.5,334.3,78.9z M65.1,78.4c6.1-6.1,12.5-12.4,19.2-19.1c-2.1-1.9-4.2-3.7-6.2-5.7
				c-4.4-4.3-8.6-8.9-13.2-13c-5.3-4.8-12.3-4.4-17.6,0.6C42,46,40.6,53.8,45.1,58.7C51.4,65.6,58.4,71.9,65.1,78.4z M228,322.1
				c3.4-3.2,6.4-6.6,10-9.1c3.7-2.5,8-4,12.2-5.9c-1.4-9.9-11.9-18.3-22.6-17.9c-12.5,0.4-21.4,10.7-21.5,18.4
				C215.4,309.5,222.7,314.5,228,322.1z M149.8,306.9c4.4,2.1,8.9,3.5,12.5,5.9c3.8,2.5,6.9,6,10.4,9.2c5.1-7.7,12.5-12.3,21.5-14.5
				c-2.4-10.9-11.9-18.6-22.4-18.4C161.1,289.3,151.7,297,149.8,306.9z M116,322c3.6-3.2,6.5-6.6,10.2-9.1c3.6-2.5,7.9-3.9,12-5.8
				c-0.7-9-10.5-17.3-21.4-17.9c-10.7-0.7-21,7.6-23,18.4C103.1,309.3,110.6,314.2,116,322z M261.7,307.6
				c9.6,1.8,16.9,6.9,22.5,14.9c5.6-8,12.9-12.9,22.1-14.9c-2.1-10.8-11.9-18.7-22.6-18.5C273,289.3,263.1,297.5,261.7,307.6z
				 M166.2,335.4c0-9.1-10.8-18.1-21.6-18.2c-11.1-0.1-22,8.8-22.2,18.3c8.9,2.3,16.2,6.9,21.6,14.9
				C149.5,342.3,157,337.3,166.2,335.4z M256.1,350.3c5.4-8.2,13-12.8,22.2-14.9c-0.5-9.7-11.8-18.6-22.8-18.1
				c-10.7,0.5-21.5,9.8-20.9,18.2C245,338.7,247.9,340.7,256.1,350.3z M110.8,335.4c-2.7-11.2-12.5-18.6-23.2-18.1
				c-10.6,0.5-19.7,8.3-21.3,18.2c9.1,2.1,16.4,6.9,21.9,14.9C93.8,342,101.2,337.3,110.8,335.4z M312,350.4
				c5.7-8.5,13.2-13.2,22.4-15.2c-1.4-10.2-11.6-18.3-22.4-18.1c-10.8,0.2-20.7,8.4-21.8,18.3C299.1,337.5,306.4,342.3,312,350.4z
				 M222.4,335.4c-1-10.3-12.1-18.8-23.2-18.1c-10.8,0.7-20.8,9.4-20.8,17.6c4.2,2.1,8.4,3.6,12.1,6c3.6,2.5,6.6,5.8,10,9
				C205.7,342.1,213.1,337.3,222.4,335.4z M77,37.3c-0.2,0.4-0.5,0.7-0.7,1c3.3,3.1,7.1,5.8,9.8,9.4c4.7,6,10.5,8.4,17.8,7.1
				c1.8-0.3,3.8-0.9,5-2.2c4.5-4.3,8.8-9,13.1-13.6c0.4-0.4,0.6-1,1-1.8C107.5,37.3,92.2,37.3,77,37.3z M355.8,118.3
				c0.3-0.1,0.6-0.3,0.8-0.4c0-15.5,0-30.9,0-46.3c-0.3-0.2-0.5-0.4-0.8-0.6c-3.2,3.4-6.3,6.8-9.6,10.1c-7.5,7.5-7.5,7.5-7,18.1
				c0,0.9,0.2,2.2,0.8,2.8C345.3,107.6,350.5,112.9,355.8,118.3z M168.7,37.1c-10.6,0-20.1,0-29.5,0.1c-0.9,0-2.1,0.8-2.8,1.6
				c-4.5,4.5-8.9,9.1-13.3,13.9c-0.5,0.5-0.8,1.1-1.5,2.3c10,0,19.4,0,29,0c0.7,0,1.4-0.3,1.9-0.8C157.6,48.7,162.7,43.3,168.7,37.1
				z M232.5,37.1c-0.1,0.3-0.3,0.6-0.4,0.8c4.5,4.7,9.2,9.3,13.6,14.2c1.9,2.1,3.8,2.8,6.5,2.7c7.7-0.2,15.6-0.1,23.3-0.1
				c0.8,0,1.7-0.2,3.3-0.4c-5.7-5.9-10.8-11.3-16.1-16.6c-0.5-0.5-1.4-0.8-2.2-0.8C251.2,37.1,241.9,37.1,232.5,37.1z M276.2,37.3
				c5.7,5.9,10.8,11.2,15.8,16.5c0.4,0.4,0.9,0.9,1.4,0.8c5.8-0.4,12.1,2.4,16.7-3.9c2.5-3.4,5.9-6,8.9-9.1c1.3-1.3,2.5-2.7,4.1-4.5
				C307.2,37.3,292.2,37.3,276.2,37.3z M339.8,160.1c-0.4,0.8-0.7,1-0.7,1.3c0,9.2,0.1,18.5,0.2,27.7c0,0.8,0.3,1.6,0.8,2.2
				c5.3,5.5,10.6,10.9,15.8,16.4c0.4-0.2,0.8-0.4,1-0.6c0-5.8-0.6-11.6,0.1-17.3c1.1-9-1.8-15.6-8.8-20.9
				C345.2,166.5,342.7,163.2,339.8,160.1z M355.4,163.4c0.4-0.3,0.8-0.6,1.2-0.9c0.1-0.3,0.4-0.6,0.4-0.9c0-9,0-18-0.1-27
				c0-1-0.8-2.4-1.6-3.1c-4.2-4.3-8.6-8.6-12.7-12.9c-0.9-0.9-1.6-2.2-2.5-3.3c-0.3,0.3-0.7,0.5-0.9,0.8c0,9.3,0,18.7,0,28
				c0,0.8,0.2,1.9,0.8,2.5C345.1,152.3,350.3,157.8,355.4,163.4z M356,252.3c0.3-0.1,0.6-0.3,0.9-0.4c0-9.4,0.1-18.9-0.1-28.4
				c0-0.9-0.9-2-1.7-2.7c-4.5-4.6-9.1-9.2-13.8-13.9c-0.5-0.5-1.1-0.8-2.1-1.5c0,9.9,0,19.3,0,28.7c0,0.8,0.4,1.6,0.8,2.1
				C345.4,241.5,350.7,246.9,356,252.3z M42.6,118.1c0.4,0.3,0.8,0.6,1.1,0.8c2.9-3.2,5.7-6.4,8.7-9.4c7.8-7.8,7.9-7.8,7.5-18.9
				c-0.1-1.4-0.8-3.1-1.8-4.2c-4.3-4.7-8.9-9.1-13.4-13.7c-0.5-0.5-1.2-0.8-2.1-1.3C42.6,87.3,42.6,102.7,42.6,118.1z M42.3,207.5
				c0.5,0.3,1,0.7,1.5,0.9c2.5-2.8,4.7-6.2,7.7-8.5c7.2-5.4,9.6-12.2,8.7-21c-0.7-5.7-0.1-11.5-0.1-17.9c-6,5.8-11.5,11-16.9,16.3
				c-0.5,0.5-0.8,1.4-0.8,2.2C42.3,188.8,42.3,198.1,42.3,207.5z M60,206.5c-0.3-0.2-0.6-0.3-0.8-0.5c-4.9,5-10,9.9-14.8,15.1
				c-1,1.1-1.8,2.9-1.8,4.4c-0.2,8.1-0.1,16.2-0.1,24.3c0,0.8,0.2,1.7,0.4,3.3c5.8-5.8,11-11.1,16.3-16.5c0.5-0.5,0.8-1.4,0.8-2.1
				C60,225.2,60,215.9,60,206.5z M42.5,162.7c0.5,0.3,0.9,0.6,1.4,0.8c5.2-5.5,10.4-10.8,15.5-16.4c0.6-0.7,0.7-1.9,0.7-2.8
				c0-8.5,0-16.9,0-25.4c0-0.7-0.3-1.4-0.6-3.1c-5.8,6-10.9,11.3-16,16.7c-0.5,0.6-0.8,1.4-0.8,2.1
				C42.5,144.1,42.5,153.4,42.5,162.7z M356.9,283c0-3.2-0.3-6.9,0.1-10.5c0.4-3.9-0.9-6.6-3.8-9.2c-4.5-4.2-8.7-9-12.9-13.4
				c-0.3,0.2-0.6,0.4-0.8,0.7c0,9.4,0,19,0,27.9C345.3,280,350.8,281.4,356.9,283z M42.5,283.3c6-1.7,11.6-3.2,17.3-4.8
				c0-9,0-18.3,0-27.5c-0.3-0.2-0.6-0.4-0.8-0.6c-5.2,5.4-10.5,10.8-15.6,16.2c-0.5,0.6-0.8,1.4-0.8,2.2
				C42.5,273.7,42.5,278.5,42.5,283.3z"/>
			<path class="st1" d="M143.6,205.9c0,10.5-8.6,19.1-19.1,19.1c-10.6,0.1-19.2-8.5-19.2-19.1c0-10.7,8.4-19.1,19.1-19.1
				C135,186.8,143.6,195.2,143.6,205.9z M124.5,197c-4.9,0-9,4-9,8.9c0,4.8,4.2,9.1,8.9,9.1c4.6,0,9-4.3,9-9.1
				C133.4,201.1,129.4,197,124.5,197z"/>
			<path class="st1" d="M124.5,139.9c10.8,0,19.1,8.4,19.1,19.1c-0.1,10.7-8.6,18.8-19.4,18.8c-10.6-0.1-19-8.4-18.9-19
				C105.3,148.1,113.8,139.8,124.5,139.9z M124.5,167.9c4.7,0,9-4.4,9-9.1c0-4.7-4.4-9.1-9.1-9.1c-4.7,0.1-8.9,4.3-8.9,9.1
				C115.6,163.8,119.7,167.9,124.5,167.9z"/>
			<path class="st1" d="M256.1,205.9c0-10.6,8.4-19,18.9-19c10.8,0,19.4,8.5,19.3,19c-0.1,10.8-8.8,19.4-19.4,19.2
				C264.6,224.9,256.1,216.3,256.1,205.9z M266.4,205.4c0,5.3,3.8,9.4,8.7,9.5c4.7,0.1,9-4.1,9.1-9s-3.9-9.1-8.8-9.1
				C270.6,196.9,266.4,200.9,266.4,205.4z"/>
			<path class="st1" d="M275.4,139.8c10.6,0,19,8.3,19,18.9c0.1,11-8.1,19.1-19.3,19.1c-10.7,0-18.8-8.2-18.8-19
				C256.2,148,264.5,139.8,275.4,139.8z M266.4,158.9c0,5,4,9.1,8.8,9.1c4.8,0,8.9-4.2,8.9-9.1c0-5.1-4.2-9.2-9.1-9.1
				C270.4,149.9,266.4,154.1,266.4,158.9z"/>
		</g>
	</g>
</g>
</svg>
