<?xml version="1.0" encoding="utf-8"?>
<!-- Generator: Adobe Illustrator 21.0.2, SVG Export Plug-In . SVG Version: 6.00 Build 0)  -->
<svg version="1.1" id="Capa_1" xmlns="http://www.w3.org/2000/svg" xmlns:xlink="http://www.w3.org/1999/xlink" x="0px" y="0px"
	 viewBox="0 0 641 248" style="enable-background:new 0 0 641 248;" xml:space="preserve">
<style type="text/css">
	.st0{fill:#252525;}
	.st1{fill:#666666;}
</style>
<g>
	<g>
		<g>
			<g>
				<path class="st0" d="M129,54.7c-11.8-1.9-21.9-8-23.9-8.8c-6.5,7.4-10.7,19.7-13.6,26.3c6.2,0.8,15,0.8,19.2,0.6
					c3.5-0.2,3.4,1.2,0.2,2c-3.6,0.9-15.4,1.1-20.6,0.5c-7,19.1-18,44.7-51,44.7c-23.8,0-39.1-17.9-31.8-40.2
					c1.8-5.8,7.6-9.7,10.6-10.6c3.3-1,1.1,0.5-1.9,2.7c-2.5,1.8-6.6,4.9-7.9,11.8c-3.6,20,14.9,30.9,29.8,31.5
					c22.6,1,38.8-17.9,48.5-40.2c-3.9,0-17.4-1.5-22.2,5.4c-1.2,1.6-2.1,0.2-1.6-0.9c4.7-10.4,15.5-10,25.3-8.3
					c4.8-11.7,12.8-24.5,14.8-26.7c-8.7-4.3-17.7-8.3-27.7-9.7c-27.8-4.2-40.8,21.4-31.5,27.2c10.3,6.4,21.4-3.3,21.3-6.1
					c0.1-2.2,3-4.1,1.7-0.4c-3,9.9-15.8,13.6-24,8.9c-16.9-9.6,0.6-42.9,34.2-33.4c11.2,3.1,21,7.9,27.3,11.8c1.1-1.2,4-4.5,8.6-3.2
					c2.7,0.8,2.2,5,0,2.4c-2.3-0.9-4.7,0.6-6.1,1.9c6.8,3.6,29.6,12.1,33.4,3.9c1.4-3.3,2.4-2,1.8,0.5
					C141.3,52.7,135.9,55.8,129,54.7z"/>
				<path class="st0" d="M120.4,107.3c-5.1,0-9.7-3.4-9.8-9.8c-0.1-6.1,3.4-13.8,7.9-19.1c5.2-6.1,12.9-10,17.4-6.6
					c3.9,3,0.9,9.9-5.6,14.9c-3.2,2.3-9.8,4.5-12.5,4.5c-1.5,3.7-3.3,14,3.5,14c9,0,14.5-12,16.8-17.4c0.8-1.8,2.9-2,1.8,0.1
					C136.1,95.9,131.7,107.3,120.4,107.3z M124.6,79.8c-2.7,3.3-5.2,7.7-6.1,9.6c1.8,0,7.1-1.4,10.8-4.5
					C137.7,77.9,137.1,64.6,124.6,79.8z"/>
				<path class="st0" d="M144.7,106.2c-1.4,0.6-2.9,1-4.2,1c-12.3,0-10-14.2-5.1-14.4c2.8-5.2,6.1-11.8,8.8-17.6
					c1.8-4,4.9-8.3,8.5-8.8c1.5-0.2,2.8,0,3.8,0.5c1.8,0.9,1.4,2.7-0.4,1.7c-1-0.4-2.2-0.6-3.3-0.1c-4.7,2.2-3.7,9.3-2.1,12.9
					c1.6,3.9,3.9,7.5,3.7,12c-0.2,4-3.3,8.7-7.2,11.3l0.7,0.1c3.5,0.5,6.6-1.6,9.2-4.7c2.3-2.9,5.5-9.2,7.6-13.4
					c0.5-1,2-0.4,1.5,0.6C162.3,96,156.2,109.7,144.7,106.2z M137.8,97.5c-3.3,3.3-1.9,8.1,2,8.1c0.7,0,1.4-0.1,2-0.4
					C139.7,103.8,138,101.3,137.8,97.5z M146.7,74.2c-2.8,5.5-7.1,14.4-9.6,18.9c0,0,2.2-0.1,2.1,3.3c-0.2,3.9,1.9,6.7,4.3,7.9
					c2.2-1.7,4.2-5.2,4.5-10.6C148.4,87.2,145.9,78.8,146.7,74.2z"/>
				<path class="st0" d="M189.3,70.3h-5.9c-3.5,5.9-7.5,11.3-13.6,16.8c-0.9,2.7-2.3,10.4-2.3,10.4c-1.5,6.8,3.2,7.7,6.5,5.3
					c4.7-3.5,8.1-9.9,10.8-15.4c0.8-1.8,2.3-1.4,1.3,0.6c-4.5,9.4-6.2,12.1-10,15.9c-5.5,5.3-15.6,3.6-14.1-7.6c0.9-6.9,4.7-18,8-26
					h-5.3c-1.1,0-0.9-2.2,0.2-2.2h6.1c2.3-5.1,4.9-10.1,7.4-14.5c7-12.3,18-10.6,10.5,5.7c-1.4,3.1-2.9,5.9-4.4,8.8h4.9
					C190.6,68.1,190.4,70.3,189.3,70.3z M176.3,70.3c-2.1,5-4.1,10-5.5,13.6c3.9-4,7.3-8.7,10.3-13.6H176.3z M184.5,53.2
					c-2.4,3.5-4.7,9.1-7.2,14.9h5.1c1.9-3.5,3.7-7,5.1-10.4C189.4,53.4,190.9,44.3,184.5,53.2z"/>
				<path class="st0" d="M188.3,104.6c1.5,0.2,3.5-0.9,4.6-1.9c3.4-3.4,6.7-9.7,9.6-15.4c0.8-1.8,2.2-1.1,1.3,0.9
					c-2.7,5.7-8.5,18.7-16,18.7c-7.6,0-7.6-8-5.5-13.3l6.5-16.6c0.8-1.9-0.6-3.8-1-4.3l5.6-0.1c3.3,0,3.3,1.1,2.1,3.6l-8.2,19.1
					c0,0-1,2.2-1.2,3C185.3,101.5,185.5,104.4,188.3,104.6z M195.7,68.4c-2.3,0-3.9-1.8-3.6-4.2c0.4-2.3,2.7-4.2,4.9-4.2
					c2.3,0,4,1.8,3.6,4.2C200.1,66.6,198,68.4,195.7,68.4z"/>
				<path class="st0" d="M229.2,73.1c-2.3,7.3-10.9,37.1-25,34.3c-6.1-1.2-3.6-10.4-0.7-18.3c-1.1,1.7-2.4,1.1-1.8-0.3l1.8-3.5
					c2-4,3.1-11.9,0.3-12.6c0,0,4.2-0.7,5-0.8c3-0.3,3.9-0.8,3.7,4.2c-0.1,3.4-1.6,9-3,12.3c-2.5,6.7-5.1,14.3-2.4,15.5
					c4.9,2.1,10.4-6.4,14.5-16.5c-1.4-3.2-1.7-7.4-0.8-10.2c2.9-9.1,10.6-9.1,8.7-4.6C229.3,72.7,229.2,72.9,229.2,73.1z"/>
				<path class="st0" d="M251,107c-3.4,0.2-8.2-2.4-5.1-13.2c-1.6,2.7-4.4,6.7-7.3,9.6c-11.7,11.2-19.5-6.6-4.1-25.1
					c6.1-7.2,17.8-11,23.7-4.7c1.4,1.5,0.6,3.3-1.1,3c-1.1-3.8-4.9-4.6-8.7-2.5c-4.6,2.5-9.9,8.6-13.6,14.6
					c-0.8,1.4-3.6,6.4-4.2,10.3c-1,7.1,4.6,6.3,9.4,0.6c3.6-4.3,6.4-9.3,9.1-14.3c2.2-4.3,3.7-6.7,6.9-6.5c1.3,0.1,2.9,0.7,4.3,0.4
					c-2.1,2.1-8.2,12.8-9.5,19.1c-0.8,4.2-0.3,6.1,1,6.1c4.3,0.2,11-12.7,13.2-17.1c0.9-1.8,2.4-1.2,1.4,0.8
					C263.4,94.3,257.1,106.5,251,107z"/>
				<path class="st0" d="M270.6,87.2c-0.5,1.7-1.5,4.2-2.1,6.7c-3.1,12.2,5.1,14,10.5,6.4c3.4-4.8,6.2-10.3,7.5-12.9
					c0.9-1.7,2.4-1.5,1.5,0.5c-2.5,5.4-7.9,19.2-18.1,19.2c-11.4,0-6.5-14-4.8-20.1c3.2-11.4,9.6-26.1,15.5-36
					c7.2-12.1,18.3-10.7,10.9,5.6C286.8,67.1,280.6,78.1,270.6,87.2z M287.5,50.5c-5,7-12.9,25.3-16.1,33.4
					C278.7,76.6,286,64.5,290,55C292,50.4,293,42.6,287.5,50.5z"/>
				<path class="st0" d="M384.5,99.1c-10.1,8-27.4,13.4-44.2,13.4c-41.1,0-39.2-36.7-5.8-46.7c3.5-1,7-1.6,10.3-1.7
					c-5.7-2-12.7-6.7-12.2-12.7c1.5-17.5,31.4-28,47.6-26.2c23.8,2.8,18.5,20.8-2.1,25.4c-5.8,1.3-4.9-1.3-0.3-1.8
					c9.4-1,20.7-19.2,2-21.1c-15.9-1.5-37.1,8.2-39.5,21.2c-2.8,16,22.9,10.9,21.4,18.1c-1.2,4.1-13.9-0.5-26.8,3.2
					c-21.3,5.9-29.3,40.2,5.8,40.2c15.7,0,30.9-7,39.7-13.9c7.5-5.9,11.2-13.1,5.6-14.4c-4.7-1.1-1.2-3,2.1-1.3
					C395.5,84.4,393.5,92.1,384.5,99.1z"/>
				<path class="st0" d="M414.9,107.3c-3.6,0-8.5-2.4-5.4-11.9c0.8-2.7,2.8-6.1,5.6-10.7c2.4-4,0.6-6.7-7.2,0.6
					c-3.5,3.2-8.5,8.9-14.2,20.2c-0.8,1.4-1.7,1.5-3.9,1.5c-1.5,0.1-2.4,0-3.5,0.6c4.9-9.7,9.1-19.4,14.1-28.5
					c2.7-4.9,4-6.6,7.2-6.4c1.3,0.1,2.9,0.7,4.3,0.4c-3.1,1.6-8.7,11.8-12.3,19.2c2-2.5,5.3-6.4,8.5-9.2c4.9-4.4,15.4-10.8,18.9-9.6
					c0,0-10.9,19.2-12.2,26.3c-0.8,4.2,0.3,5.1,1.6,5.1c5.3,0,11.8-13.4,14-17.6c0.8-1.8,2.4-1.1,1.4,0.9
					C428.6,94.3,422.7,107.3,414.9,107.3z"/>
				<path class="st0" d="M438.6,107.3c-16.1,0-10.8-18.4-3.5-28.2c3.8-5.1,8.8-8.1,13.7-8.1c5.1,0,7.5,2.9,7,7
					c-0.4,3.4-4.6,7.6-6.8,5.4c1.1-1.3,2.7-3.4,3.2-5.2c0.9-3.6-0.1-5-2-5c-3.7,0-8.1,4.7-10.9,8.8c-1.8,2.7-5.6,9.7-5.6,15.6
					c0,4.1,1.6,7.9,6,7.9c8.9,0,13.8-9.9,17.8-17.9c0.9-1.8,2.3-1.3,1.4,0.7C453.9,98.8,449.8,107.3,438.6,107.3z"/>
				<path class="st0" d="M478.4,106.7c-4.6,0-7.3-4.8-4.7-13.1c-3.5,6.1-8.8,13.1-13.8,13.1c-2,0-5.6-0.7-6.4-4.6
					c-0.9-4.4,1.6-8.2,3.5-11.8c-0.6,0-1.5-0.3-0.9-1.6l1.8-3.6c2-3.9,4.2-8.1,5.7-11.2c0.8-1.6,2-2.1,4-2.1h6.2
					c-2.3,1.7-3.8,3-6.5,8.6c0,0-4.6,9.3-6.4,13.2c-4.9,10.6-0.6,14.7,6,7c5.7-6.6,11.3-18.6,15.2-26.6c0.8-1.6,2-2.1,4-2.1h5.5
					c-3,2.3-4,3.8-7,10.1c-2.9,5.7-6.2,12.7-6.8,16.2c-0.9,4.4,0.5,6,1.9,6.1c5,0,10.1-9.7,13.6-17c0.8-1.8,2.4-1.1,1.4,0.9
					C491.3,95,485.8,106.7,478.4,106.7z"/>
				<path class="st0" d="M500.3,107.3c-5.1,0-9.7-3.4-9.8-9.8c-0.1-6.1,3.4-13.8,7.9-19.1c5.2-6.1,12.9-10,17.4-6.6
					c3.9,3,0.9,9.9-5.6,14.9c-3.2,2.3-9.8,4.5-12.5,4.5c-1.5,3.7-3.3,14,3.5,14c9,0,14.5-12,16.8-17.4c0.8-1.8,2.9-2,1.8,0.1
					C516,95.9,511.6,107.3,500.3,107.3z M504.5,79.8c-2.7,3.3-5.2,7.7-6.1,9.6c1.8,0,7.1-1.4,10.8-4.5
					C517.5,77.9,517,64.6,504.5,79.8z"/>
				<path class="st0" d="M537,107.3c-3.6,0-8.5-2.4-5.4-11.9c0.8-2.7,2.8-6.1,5.6-10.7c2.4-4,0.6-6.7-7.2,0.6
					c-3.5,3.2-8.5,8.9-14.2,20.2c-0.8,1.4-1.7,1.5-3.9,1.5c-1.5,0.1-2.4,0-3.5,0.6c4.9-9.7,9.1-19.4,14.1-28.5
					c2.7-4.9,4-6.6,7.2-6.4c1.3,0.1,2.9,0.7,4.3,0.4c-3.1,1.6-8.7,11.8-12.3,19.2c2-2.5,5.3-6.4,8.5-9.2c4.9-4.4,15.4-10.8,18.9-9.6
					c0,0-10.9,19.2-12.2,26.3c-0.8,4.2,0.3,5.1,1.6,5.1c5.3,0,11.8-13.4,14-17.6c0.8-1.8,2.4-1.1,1.4,0.9
					C550.8,94.3,544.9,107.3,537,107.3z"/>
				<path class="st0" d="M577.3,70.3h-5.9c-3.5,5.9-7.5,11.3-13.6,16.8c-0.9,2.7-2.3,10.4-2.3,10.4c-1.5,6.8,3.2,7.7,6.5,5.3
					c4.7-3.5,8.1-9.9,10.8-15.4c0.8-1.8,2.3-1.4,1.3,0.6c-4.5,9.4-6.2,12.1-10,15.9c-5.5,5.3-15.6,3.6-14.1-7.6c0.9-6.9,4.7-18,8-26
					h-5.3c-1.1,0-0.9-2.2,0.2-2.2h6.1c2.3-5.1,4.9-10.1,7.4-14.5c7-12.3,18-10.6,10.5,5.7c-1.4,3.1-2.9,5.9-4.4,8.8h4.9
					C578.5,68.1,578.3,70.3,577.3,70.3z M564.2,70.3c-2.1,5-4.1,10-5.5,13.6c3.9-4,7.3-8.7,10.3-13.6H564.2z M572.5,53.2
					c-2.4,3.5-4.7,9.1-7.2,14.9h5.1c1.9-3.5,3.7-7,5.1-10.4C577.4,53.4,578.8,44.3,572.5,53.2z"/>
				<path class="st0" d="M585.8,106.7c-3.5,0.8-9.7-2.2-5.6-12.8c1.5-4.2,5.2-9.5,6.3-12c1.4-3.4-2.1-4.7-7.9-4.8l-1.2,3.3
					c-2.4,6.4-7.3,17.7-12.3,22.5c-0.8,0.7-1.4-0.4-0.8-1.3c8.1-10.6,13.7-26,15.7-37.4c1-5.7,7.6-3.2,6.2,3.7
					c-0.6,2.9-3.9,5.6-5.6,6.8c3.8,0.2,9.1,0.1,14.1-0.4c0.7,1.4-0.9,5.3-2.1,7.9c-1.5,3.2-11.9,21.8-5.8,22.1
					c4.2,0.1,10.5-12.6,12.6-17c0.9-1.7,2.2-1,1.2,1C597.7,94.3,592.5,105.1,585.8,106.7z"/>
				<path class="st0" d="M619.1,106c-3.1,0-5.2-1.1-6.5-2.7c-2.9,2.1-5.9,3.6-8.9,3.5c-7.7-0.2-8.9-9.5-5-18.6
					c4-9.4,12.4-17.3,19.4-17.1c7.7,0.1,8.9,9.5,5,18.6c-1.5,3.6-4.7,8.4-8.6,12c0.8,1.5,2.3,2.5,4.8,2.5c6.5,0,11.8-12.6,14.3-17.5
					c0.5-1,2.2-0.6,1.5,0.9C633.3,91.5,627.6,106,619.1,106z M605.7,87.9c-4,8.4-4.9,15.5-1.2,16.6c1.9,0.5,4.5-0.5,6.9-2.5
					c-1.1-1.6-1.6-3.5-1.6-5c0.1-2.3,1-4.4,3.6-4.4c1.7,0,3.1,1.4,3.1,3.1c0,0.4-0.1,0.7-0.2,1.1c1.1-1.6,2.2-3.6,3.2-5.5
					c4-8.4,4.5-15.6,0.8-16.7C615.8,73.3,609.5,79.8,605.7,87.9z"/>
			</g>
		</g>
		<g>
			<path class="st1" d="M59.3,163.4c-5.6,0-10.1-1.9-13.6-5.6c-3.3-3.6-4.9-8.1-4.9-13.4c0-4.4,1.2-8.3,3.5-11.6
				c3.4-4.7,8.3-7.1,14.7-7.1c1.9,0,3.9,0.2,5.7,0.7c2.8,0.7,4.8,1.7,6,2.9c0-1.1,0.1-1.9,0.2-2.4c0.2-0.6,0.7-0.9,1.6-0.9l0.2,11.2
				h-1.5c-0.3-0.9-0.6-1.8-1-2.6c-2.3-4.8-5.9-7.2-11-7.2c-2.2,0-4.3,0.6-6.1,1.7c-4.2,2.7-6.3,7.9-6.3,15.5c0,3.5,0.5,6.6,1.4,9.2
				c1.9,5.3,5.5,8,10.8,8c6.2,0,10.3-3.4,12.4-10.1h1.5v11.5c-0.5,0-0.9-0.1-1.2-0.2c-0.5-0.2-0.7-1.2-0.7-2.9
				C67.3,162.2,63.4,163.3,59.3,163.4z"/>
			<path class="st1" d="M76.2,126.3h14.9v1.6h-4.8v20.9c0,2.6,0.3,4.9,0.9,6.7c1.3,4.2,4.4,6.3,9.4,6.3c0.5,0,1,0,1.5-0.1
				c5.8-0.6,8.8-4.8,8.8-12.7v-21.1h-4.9v-1.6h11.9v1.6h-4.9v20.7c0,2.3-0.2,4.3-0.7,6.1c-1.5,5.8-5.8,8.8-13,8.8
				c-9.4,0-14.1-4.8-14.2-14.3v-21.2h-4.9V126.3z"/>
			<path class="st1" d="M143.7,137.2l-0.9-2.9c0-0.2-0.1-0.4-0.2-0.6c-1.3-3.9-3.3-5.9-6.3-5.9h-9.7v15.2h12.5v1.8h-12.5v16.4h9.7
				c0.7,0,1.3-0.1,1.9-0.3c2-0.7,3.5-2.8,4.5-6.2l0.9-2.9h1.2l-0.3,11h-28.1v-1.6h4.9v-33.4h-4.9v-1.6h28.1l0.3,11H143.7z"/>
			<path class="st1" d="M150.4,162.8v-1.6h4.9v-33.4h-4.9v-1.6h18c3.2,0,5.8,0.7,8,2.2c2.6,1.8,4,4.3,4,7.3c0,1.3-0.3,2.5-0.8,3.7
				c-1.4,3.1-4.1,5.1-7.9,6l9.8,15.7h2.3c0.3,0,0.5,0,0.7,0.1c0.5,0.1,0.7,0.6,0.7,1.5H176l-9.7-16.7h-5.8v15.2h4.8v1.6H150.4z
				 M160.5,127.8v16.4h6.3c1.8,0,3.4-0.5,4.8-1.6c2-1.6,3-3.9,3-6.8c0-1.3-0.3-2.5-0.8-3.7c-1.3-2.8-3.8-4.3-7.2-4.3H160.5z"/>
			<path class="st1" d="M204.6,126.3c4.1,0,7.8,1,10.9,2.9c5.1,3.2,7.7,8.4,7.7,15.3c0,5.4-1.7,9.8-5.2,13.1
				c-3.5,3.4-8,5.1-13.5,5.1h-16.8v-1.6h4.9v-33.4h-4.9v-1.6H204.6z M197.7,127.8v33.4h6.9c0.8,0,1.6-0.1,2.4-0.2
				c6.9-1.1,10.3-6.6,10.3-16.7c0-3-0.3-5.5-0.9-7.7c-1.6-5.8-5.6-8.8-12-8.8H197.7z"/>
			<path class="st1" d="M250.7,162.8v-1.6h4l-4.6-11.8h-12.7l-4.6,11.8h3c0.2,0,0.4,0,0.6,0.1c0.6,0.1,1,0.6,1,1.5h-10.8v-1.6h3.8
				l13.6-34.9h2.3l13.9,34.9h2.1c0.2,0,0.4,0,0.6,0.1c0.6,0.1,1,0.6,1,1.5H250.7z M243.7,132.9l-5.7,14.7h11.4L243.7,132.9z"/>
			<path class="st1" d="M290.8,159.6c-2.6,2.5-6.2,3.8-10.8,3.8c-4,0-7.5-1-10.7-3.1c0,0.9,0,1.4-0.1,1.8c-0.2,0.6-0.7,0.9-1.7,0.9
				v-12.6h1.8c0.7,7.5,4.1,11.3,10.3,11.4c1.6,0,3-0.3,4.3-0.9c2.8-1.3,4.1-3.3,4.1-6.1c0-1.1-0.3-2.1-0.8-3c-1-1.7-3.3-3.3-6.9-4.9
				c-3.9-1.7-6.2-2.7-6.9-3.1c-3.8-2.1-5.7-4.9-5.7-8.3c0-2.3,0.8-4.3,2.4-6c2.4-2.4,5.8-3.7,10.2-3.7c3.6,0,6.9,0.8,9.7,2.4
				c0-0.5,0-0.9,0.1-1.2c0.2-0.6,0.7-0.9,1.7-0.9v10.7h-1.8c0-2.3-0.5-4.2-1.7-5.8c-1.8-2.3-4.4-3.5-7.8-3.5c-1.4,0-2.6,0.2-3.8,0.7
				c-2.6,1.1-4,2.9-4,5.7c0,1,0.2,2,0.7,2.9c0.9,1.6,3.2,3.2,6.8,4.7c4,1.7,6.3,2.8,7.1,3.2c3.9,2.2,5.8,5.1,5.8,8.7
				C293.4,155.7,292.5,157.8,290.8,159.6z"/>
			<path class="st1" d="M310.7,162.8v-1.6h4.9v-33.4h-4.9v-1.6h28.1l0.3,11h-1.2l-0.9-2.9c0-0.2-0.1-0.4-0.2-0.6
				c-1.3-3.9-3.3-5.9-6.3-5.9h-9.7v15.2h12.5v1.8h-12.5v16.4h7.3v1.6H310.7z"/>
			<path class="st1" d="M342.1,162.8v-1.6h4.9v-33.4h-4.9v-1.6h18c3.2,0,5.8,0.7,8,2.2c2.6,1.8,4,4.3,4,7.3c0,1.3-0.3,2.5-0.8,3.7
				c-1.4,3.1-4.1,5.1-7.9,6l9.8,15.7h2.3c0.3,0,0.5,0,0.7,0.1c0.5,0.1,0.7,0.6,0.7,1.5h-9.2L358,146h-5.8v15.2h4.8v1.6H342.1z
				 M352.2,127.8v16.4h6.3c1.8,0,3.4-0.5,4.8-1.6c2-1.6,3-3.9,3-6.8c0-1.3-0.3-2.5-0.8-3.7c-1.3-2.8-3.8-4.3-7.2-4.3H352.2z"/>
			<path class="st1" d="M409.5,129.2c4.7,3.5,7,8.6,7,15.3c0,5.7-1.9,10.4-5.8,14c-3.4,3.2-7.6,4.9-12.4,4.9c-4.3,0-8-1.3-11.3-3.9
				c-4.5-3.6-6.8-8.6-6.8-15.2c0-5.7,1.9-10.3,5.7-13.8c3.5-3.2,7.7-4.8,12.5-4.8C402.7,125.7,406.3,126.8,409.5,129.2z
				 M403.1,160.8c4.9-2.2,7.4-7.6,7.4-16.5c0-11.2-4.1-16.8-12.1-16.9c-1.1,0-2.2,0.1-3.2,0.4c-5.8,1.5-8.8,7.1-8.8,16.8
				c0,2.9,0.3,5.5,0.9,7.7c1.7,6.3,5.4,9.4,11.3,9.4C400.2,161.7,401.7,161.4,403.1,160.8z"/>
			<path class="st1" d="M428.8,162.8v-1.6h5.8v-33.4h-3.3c-3.1,0.2-5.3,2.4-6.6,6.3l-1,4.1H422l0.3-12h30.1l0.3,12h-1.7l-1-4.1
				c0-0.1-0.1-0.2-0.1-0.4c-1.1-4-3.3-6-6.6-6h-3.5v33.4h4.1c0.2,0,0.4,0,0.6,0.1c0.6,0.1,1,0.6,1,1.5H428.8z"/>
			<path class="st1" d="M478.9,162.8v-1.6h4l-4.6-11.8h-12.7l-4.6,11.8h3c0.2,0,0.4,0,0.6,0.1c0.6,0.1,1,0.6,1,1.5h-10.8v-1.6h3.8
				l13.6-34.9h2.3l13.9,34.9h2.1c0.2,0,0.4,0,0.6,0.1c0.6,0.1,1,0.6,1,1.5H478.9z M471.9,132.9l-5.7,14.7h11.4L471.9,132.9z"/>
			<path class="st1" d="M511.5,126.3c4.1,0,7.8,1,10.9,2.9c5.1,3.2,7.7,8.4,7.7,15.3c0,5.4-1.7,9.8-5.2,13.1
				c-3.5,3.4-8,5.1-13.5,5.1h-16.8v-1.6h4.9v-33.4h-4.9v-1.6H511.5z M504.6,127.8v33.4h6.9c0.8,0,1.6-0.1,2.4-0.2
				c6.9-1.1,10.3-6.6,10.3-16.7c0-3-0.3-5.5-0.9-7.7c-1.6-5.8-5.6-8.8-12-8.8H504.6z"/>
			<path class="st1" d="M557.6,162.8v-1.6h4l-4.6-11.8h-12.7l-4.6,11.8h3c0.2,0,0.4,0,0.6,0.1c0.6,0.1,1,0.6,1,1.5h-10.8v-1.6h3.8
				l13.6-34.9h2.3l13.9,34.9h2.1c0.2,0,0.4,0,0.6,0.1c0.6,0.1,1,0.6,1,1.5H557.6z M550.6,132.9l-5.7,14.7h11.4L550.6,132.9z"/>
			<path class="st1" d="M597.7,159.6c-2.6,2.5-6.2,3.8-10.8,3.8c-4,0-7.5-1-10.7-3.1c0,0.9,0,1.4-0.1,1.8c-0.2,0.6-0.7,0.9-1.7,0.9
				v-12.6h1.8c0.7,7.5,4.1,11.3,10.3,11.4c1.6,0,3-0.3,4.3-0.9c2.8-1.3,4.1-3.3,4.1-6.1c0-1.1-0.3-2.1-0.8-3c-1-1.7-3.3-3.3-6.9-4.9
				c-3.9-1.7-6.2-2.7-6.9-3.1c-3.8-2.1-5.7-4.9-5.7-8.3c0-2.3,0.8-4.3,2.4-6c2.4-2.4,5.8-3.7,10.2-3.7c3.6,0,6.9,0.8,9.7,2.4
				c0-0.5,0-0.9,0.1-1.2c0.2-0.6,0.7-0.9,1.7-0.9v10.7H597c0-2.3-0.5-4.2-1.7-5.8c-1.8-2.3-4.4-3.5-7.8-3.5c-1.4,0-2.6,0.2-3.8,0.7
				c-2.6,1.1-4,2.9-4,5.7c0,1,0.2,2,0.7,2.9c0.9,1.6,3.2,3.2,6.8,4.7c4,1.7,6.3,2.8,7.1,3.2c3.9,2.2,5.8,5.1,5.8,8.7
				C600.3,155.7,599.4,157.8,597.7,159.6z"/>
		</g>
	</g>
	<g>
		<g>
			<g>
				<path class="st0" d="M161.6,205.6c-4.6,1.1-9.6,1.6-12.6,1.4c-2.5,3.7-5.2,7.1-8.4,10.2c-4.8,4.5-10.5,6.5-16.5,5.8
					c-11.5-1.4-7.7-14.5,5.1-10.2c1.2,0.5,0.8,1.1-0.2,0.7c-9-3.4-11.3,7.5-3.5,7.9c5,0.2,9.2-2.2,12.9-5.9
					c7.4-7.3,11.6-22.2,21.2-33c1.1-1.1,2-2.2,3-3.2c-6.4-1-13.8-0.5-18.5,0.4c-7.1,1.3-18.8,5.6-20.1,14c-0.6,3.9,2.1,7,5.5,7.1
					c3.5,0.1,7.1-3,8.4-6.8c0.2-0.8,0.8-0.7,0.8,0.1c-0.1,5.1-5,8-9.3,7.9c-4.4-0.2-8.6-3-8.3-8.7c0.5-10.1,14.8-14.2,22.8-15.4
					c6.2-0.9,13.6-1.3,20.3,0.1c1.2-1,2.5-1.7,4.2-2.4c1.8-0.7,1.9,0,0.6,0.8c-0.6,0.4-1.6,1.1-2.5,2.1c2.4,0.6,4.6,1.5,6.5,2.7
					C187.1,189.7,172.8,202.9,161.6,205.6z M165.3,179.9c-5.7,8-10,17.4-15.5,25.8c2.9,0.1,6.5-0.5,10-1.5
					c12.2-3.7,20.6-15.9,11.8-21.8C169.9,181.4,167.7,180.5,165.3,179.9z"/>
				<path class="st0" d="M180.9,221.1c-1.9,0.1-4.5-1.4-2.8-7.3c-0.9,1.5-2.4,3.7-4.1,5.3c-6.5,6.2-10.7-3.7-2.2-13.8
					c3.4-4,9.8-6.1,13.1-2.6c0.8,0.8,0.3,1.8-0.6,1.6c-0.6-2.1-2.7-2.5-4.8-1.4c-2.5,1.4-5.5,4.7-7.5,8c-0.5,0.8-2,3.5-2.3,5.7
					c-0.6,3.9,2.5,3.5,5.2,0.3c2-2.4,3.5-5.1,5-7.9c1.2-2.4,2-3.7,3.8-3.6c0.7,0.1,1.6,0.4,2.4,0.2c-1.2,1.2-4.5,7.1-5.2,10.5
					c-0.5,2.3-0.2,3.4,0.6,3.4c2.4,0.1,6.1-7,7.3-9.5c0.5-1,1.4-0.7,0.8,0.5C187.7,214,184.3,220.8,180.9,221.1z"/>
				<path class="st0" d="M195.8,220.9c-1.9,0.5-5.3-1.2-3.1-7.1c0.8-2.3,2.9-5.2,3.5-6.6c0.8-1.9-1.2-2.6-4.3-2.6l-0.7,1.8
					c-1.4,3.5-4.1,9.8-6.8,12.4c-0.5,0.4-0.8-0.2-0.5-0.7c4.4-5.9,7.5-14.3,8.7-20.6c0.6-3.2,4.2-1.7,3.4,2
					c-0.3,1.6-2.1,3.1-3.1,3.8c2.1,0.1,5,0.1,7.8-0.2c0.4,0.8-0.5,2.9-1.2,4.3c-0.8,1.7-6.6,12-3.2,12.2c2.3,0.1,5.8-7,7-9.4
					c0.5-1,1.2-0.6,0.7,0.6C202.3,214,199.5,220,195.8,220.9z"/>
				<path class="st0" d="M217,200.8h-3.3c-1.9,3.3-4.2,6.2-7.5,9.3c-0.5,1.5-1.3,5.7-1.3,5.7c-0.8,3.8,1.7,4.3,3.6,2.9
					c2.6-1.9,4.4-5.5,6-8.5c0.5-1,1.3-0.8,0.7,0.3c-2.5,5.2-3.4,6.7-5.5,8.8c-3,2.9-8.6,2-7.8-4.2c0.5-3.8,2.6-10,4.4-14.3h-2.9
					c-0.6,0-0.5-1.2,0.1-1.2h3.4c1.3-2.8,2.7-5.6,4.1-8c3.9-6.8,10-5.9,5.8,3.2c-0.8,1.7-1.6,3.3-2.4,4.8h2.7
					C217.6,199.6,217.5,200.8,217,200.8z M209.8,200.8c-1.2,2.8-2.3,5.5-3,7.5c2.1-2.2,4.1-4.8,5.7-7.5H209.8z M214.3,191.4
					c-1.4,1.9-2.6,5-4,8.2h2.8c1.1-1.9,2-3.9,2.8-5.7C217,191.5,217.8,186.5,214.3,191.4z"/>
				<path class="st0" d="M226.5,221.1c-1.9,0.1-4.5-1.4-2.8-7.3c-0.9,1.5-2.4,3.7-4.1,5.3c-6.5,6.2-10.7-3.7-2.3-13.8
					c3.4-4,9.8-6.1,13.1-2.6c0.8,0.8,0.3,1.8-0.6,1.6c-0.6-2.1-2.7-2.5-4.8-1.4c-2.5,1.4-5.5,4.7-7.5,8c-0.5,0.8-2,3.5-2.3,5.7
					c-0.6,3.9,2.5,3.5,5.2,0.3c2-2.4,3.5-5.1,5-7.9c1.2-2.4,2-3.7,3.8-3.6c0.7,0.1,1.6,0.4,2.4,0.2c-1.2,1.2-4.5,7.1-5.2,10.5
					c-0.4,2.3-0.2,3.4,0.6,3.4c2.4,0.1,6.1-7,7.3-9.5c0.5-1,1.4-0.7,0.8,0.5C233.3,214,229.8,220.8,226.5,221.1z"/>
				<path class="st0" d="M254.2,221.2c-2,0-4.7-1.4-3-6.6c0.5-1.5,1.5-3.4,3.1-5.9c1.4-2.2,0.3-3.7-4,0.3c-2.4,2.3-7.2,8.6-7.9,11.9
					c-1.3,0-2.1-1.5-1.8-3.1c0.4-2.5,1.4-4.3,2.4-6.4c1.9-3.8,3.7-7.9-2.2-2.4c-1.9,1.7-4.6,4.8-7.8,11c-0.4,0.8-0.9,0.9-2.1,0.9
					c-0.8,0.1-1.3,0-1.9,0.3c2.7-5.3,4.9-10.6,7.7-15.6c1.5-2.7,2.2-3.7,4-3.5c0.7,0.1,1.6,0.4,2.4,0.2c-1.7,0.9-4.8,6.5-6.8,10.6
					c1.1-1.4,2.9-3.5,4.7-5.1c2.7-2.4,6.3-6,8.2-5.3c1,0.4,1.4,1.4,0.8,2.5c-1,2.4-2.8,5.1-4.1,7.9c1.1-1.4,3-3.5,4.7-5.1
					c2.7-2.4,8.6-6,10.4-5.3c0,0-6,10.6-6.8,14.5c-0.4,2.3,0.2,2.8,1,2.8c2.9,0,6.5-7.1,7.7-9.7c0.5-1,1.4-0.6,0.8,0.5
					C261.8,214,258.5,221.2,254.2,221.2z"/>
				<path class="st0" d="M273.6,220.5c-1.7,0-2.9-0.6-3.6-1.5c-1.6,1.2-3.3,2-4.9,1.9c-4.3-0.1-4.9-5.2-2.8-10.2
					c2.2-5.2,6.9-9.6,10.7-9.5c4.3,0.1,4.9,5.2,2.8,10.2c-0.8,2-2.6,4.6-4.7,6.6c0.5,0.8,1.3,1.4,2.6,1.4c3.6,0,6.5-7,7.9-9.7
					c0.3-0.6,1.2-0.3,0.8,0.5C281.5,212.5,278.3,220.5,273.6,220.5z M266.2,210.5c-2.2,4.6-2.7,8.6-0.7,9.2c1.1,0.3,2.5-0.3,3.8-1.4
					c-0.6-0.9-0.9-1.9-0.9-2.8c0.1-1.3,0.6-2.4,2-2.4c1,0,1.7,0.8,1.7,1.7c0,0.2-0.1,0.4-0.1,0.6c0.6-0.9,1.2-2,1.7-3
					c2.2-4.6,2.5-8.6,0.5-9.2C271.8,202.5,268.3,206.1,266.2,210.5z"/>
				<path class="st0" d="M285,220.6c-0.8,0.3-1.6,0.6-2.3,0.6c-6.8,0-5.5-7.8-2.8-7.9c1.5-2.9,3.4-6.5,4.8-9.7
					c1-2.2,2.7-4.6,4.7-4.8c0.8-0.1,1.5,0,2.1,0.3c1,0.5,0.8,1.5-0.2,1c-0.6-0.2-1.2-0.3-1.8-0.1c-2.6,1.2-2,5.1-1.2,7.1
					c0.9,2.1,2.1,4.2,2,6.6c-0.1,2.2-1.8,4.8-4,6.2l0.4,0.1c1.9,0.3,3.7-0.9,5.1-2.6c1.3-1.6,3-5.1,4.2-7.4c0.3-0.6,1.1-0.2,0.8,0.3
					C294.8,215,291.4,222.5,285,220.6z M281.2,215.8c-1.8,1.8-1.1,4.4,1.1,4.4c0.4,0,0.8-0.1,1.1-0.2
					C282.3,219.3,281.3,217.9,281.2,215.8z M286.2,203c-1.5,3-3.9,7.9-5.3,10.4c0,0,1.2-0.1,1.2,1.8c-0.1,2.1,1.1,3.7,2.4,4.3
					c1.2-1,2.3-2.9,2.5-5.9C287.1,210.1,285.7,205.5,286.2,203z"/>
				<path class="st0" d="M323.5,213.5c-0.6,1.3-2.3,6,0.3,6c2.8,0,6.1-7,7.3-9.3c0.4-1,1.3-0.8,0.8,0.3c-1.4,3.2-4.6,10.5-9.1,10.5
					c-0.9,0-1.8-0.5-2.5-1.5c-0.6-1-1.1-2.6-0.5-5c-1.7,2.8-4.3,7.3-8.2,6.2c-5.3-1.5-2.2-10.5,1.9-15.5c3.2-3.7,8-5.6,12.1-3.3
					c2.7-5.1,5.2-10.3,6.5-13.3c1.1-2.5,2-3.1,3.8-2.9c0.7,0.1,1.6,0.3,2.4,0.2C336.7,187.5,326.8,205.7,323.5,213.5z M313.2,211.9
					c-3.7,7-0.3,10.5,4.4,3.7c2.1-2.9,4.9-7.8,7.5-12.7C322.3,200.1,316.2,206.4,313.2,211.9z"/>
				<path class="st0" d="M335.1,221.2c-2.8,0-5.3-1.9-5.4-5.4c-0.1-3.4,1.9-7.6,4.3-10.5c2.9-3.4,7.1-5.5,9.6-3.7
					c2.1,1.6,0.5,5.5-3.1,8.2c-1.7,1.3-5.4,2.5-6.9,2.5c-0.8,2-1.8,7.7,1.9,7.7c5,0,8-6.6,9.3-9.6c0.5-1,1.6-1.1,1,0.1
					C343.8,214.9,341.4,221.2,335.1,221.2z M337.4,206.1c-1.5,1.8-2.9,4.3-3.4,5.3c1,0,3.9-0.8,6-2.5
					C344.6,205,344.3,197.7,337.4,206.1z"/>
				<path class="st0" d="M362.7,210.1c-0.3,1-0.8,2.3-1.2,3.7c-1.7,6.8,2.8,7.7,5.8,3.5c1.9-2.6,3.4-5.7,4.2-7.1
					c0.5-1,1.4-0.8,0.8,0.3c-1.4,3-4.3,10.6-10,10.6c-6.3,0-3.6-7.7-2.6-11.1c1.7-6.3,5.3-14.4,8.6-19.9c4-6.7,10.1-5.9,6,3.1
					C371.6,199,368.2,205.1,362.7,210.1z M372,189.9c-2.8,3.9-7.1,14-8.9,18.5c4-4.1,8-10.7,10.2-15.9
					C374.5,189.8,375.1,185.5,372,189.9z"/>
				<path class="st0" d="M382.4,220.5c-1.7,0-2.9-0.6-3.6-1.5c-1.6,1.2-3.3,2-4.9,1.9c-4.3-0.1-4.9-5.2-2.8-10.2
					c2.2-5.2,6.9-9.6,10.7-9.5c4.3,0.1,4.9,5.2,2.8,10.2c-0.8,2-2.6,4.6-4.7,6.6c0.5,0.8,1.3,1.4,2.6,1.4c3.6,0,6.5-7,7.9-9.7
					c0.3-0.6,1.2-0.3,0.8,0.5C390.3,212.5,387.2,220.5,382.4,220.5z M375.1,210.5c-2.2,4.6-2.7,8.6-0.7,9.2c1.1,0.3,2.5-0.3,3.8-1.4
					c-0.6-0.9-0.9-1.9-0.9-2.8c0.1-1.3,0.6-2.4,2-2.4c1,0,1.7,0.8,1.7,1.7c0,0.2-0.1,0.4-0.1,0.6c0.6-0.9,1.2-2,1.7-3
					c2.2-4.6,2.5-8.6,0.5-9.2C380.6,202.5,377.1,206.1,375.1,210.5z"/>
				<path class="st0" d="M415.3,221.2c-2,0-4.7-1.4-3-6.6c0.5-1.5,1.5-3.4,3.1-5.9c1.3-2.2,0.3-3.7-4,0.3c-1.9,1.7-4.7,4.9-7.8,11.1
					c-0.5,0.8-1,0.8-2.1,0.8c-0.8,0.1-1.3,0-1.9,0.3c2.7-5.3,5-10.7,7.8-15.8c1.5-2.7,2.2-3.7,4-3.5c0.7,0.1,1.6,0.4,2.4,0.2
					c-1.7,0.9-4.8,6.5-6.8,10.6c1.1-1.4,2.9-3.5,4.7-5.1c2.7-2.4,8.5-6,10.4-5.3c0,0-6,10.6-6.8,14.5c-0.4,2.3,0.2,2.8,0.9,2.8
					c2.9,0,6.5-7.4,7.7-9.7c0.5-1,1.4-0.6,0.8,0.5C422.9,214,419.6,221.2,415.3,221.2z"/>
				<path class="st0" d="M435.7,220.9c-2.5,0-4.1-2.6-2.6-7.2c-1.9,3.4-4.8,7.2-7.6,7.2c-1.1,0-3.1-0.4-3.5-2.5
					c-0.5-2.4,0.9-4.5,1.9-6.5c-0.3,0-0.8-0.2-0.5-0.9l1-2c1.1-2.1,2.3-4.4,3.1-6.2c0.5-0.9,1.1-1.2,2.2-1.2h3.4
					c-1.3,1-2.1,1.6-3.6,4.7c0,0-2.5,5.1-3.5,7.3c-2.7,5.9-0.3,8.1,3.3,3.9c3.2-3.7,6.2-10.2,8.4-14.7c0.4-0.9,1.1-1.2,2.2-1.2h3
					c-1.6,1.3-2.2,2.1-3.9,5.6c-1.6,3.2-3.4,7-3.8,8.9c-0.5,2.4,0.3,3.3,1.1,3.4c2.8,0,5.6-5.3,7.5-9.4c0.5-1,1.4-0.6,0.8,0.5
					C442.9,214.4,439.8,220.9,435.7,220.9z"/>
				<path class="st0" d="M447.8,221.2c-2.8,0-5.3-1.9-5.4-5.4c-0.1-3.4,1.9-7.6,4.3-10.5c2.9-3.4,7.1-5.5,9.6-3.7
					c2.1,1.6,0.5,5.5-3.1,8.2c-1.7,1.3-5.4,2.5-6.9,2.5c-0.8,2-1.8,7.7,1.9,7.7c5,0,8-6.6,9.3-9.6c0.5-1,1.6-1.1,1,0.1
					C456.5,214.9,454.1,221.2,447.8,221.2z M450.1,206.1c-1.5,1.8-2.9,4.3-3.4,5.3c1,0,3.9-0.8,6-2.5
					C457.3,205,457,197.7,450.1,206.1z"/>
				<path class="st0" d="M461.2,220.6c-0.8,0.3-1.6,0.6-2.3,0.6c-6.8,0-5.5-7.8-2.8-7.9c1.5-2.9,3.4-6.5,4.8-9.7
					c1-2.2,2.7-4.6,4.7-4.8c0.8-0.1,1.5,0,2.1,0.3c1,0.5,0.8,1.5-0.2,1c-0.6-0.2-1.2-0.3-1.8-0.1c-2.6,1.2-2,5.1-1.2,7.1
					c0.9,2.1,2.1,4.2,2,6.6c-0.1,2.2-1.8,4.8-4,6.2l0.4,0.1c1.9,0.3,3.7-0.9,5.1-2.6c1.3-1.6,3-5.1,4.2-7.4c0.3-0.6,1.1-0.2,0.8,0.3
					C470.9,215,467.6,222.5,461.2,220.6z M457.4,215.8c-1.8,1.8-1.1,4.4,1.1,4.4c0.4,0,0.8-0.1,1.1-0.2
					C458.4,219.3,457.5,217.9,457.4,215.8z M462.3,203c-1.5,3-3.9,7.9-5.3,10.4c0,0,1.2-0.1,1.2,1.8c-0.1,2.1,1.1,3.7,2.4,4.3
					c1.2-1,2.3-2.9,2.5-5.9C463.2,210.1,461.9,205.5,462.3,203z"/>
				<path class="st0" d="M485.8,200.8h-3.3c-1.9,3.3-4.2,6.2-7.5,9.3c-0.5,1.5-1.3,5.7-1.3,5.7c-0.8,3.8,1.7,4.3,3.6,2.9
					c2.6-1.9,4.4-5.5,6-8.5c0.4-1,1.3-0.8,0.7,0.3c-2.5,5.2-3.4,6.7-5.5,8.8c-3,2.9-8.6,2-7.8-4.2c0.5-3.8,2.6-10,4.4-14.3h-2.9
					c-0.6,0-0.5-1.2,0.1-1.2h3.4c1.3-2.8,2.7-5.6,4.1-8c3.9-6.8,10-5.9,5.8,3.2c-0.8,1.7-1.6,3.3-2.4,4.8h2.7
					C486.5,199.6,486.4,200.8,485.8,200.8z M478.6,200.8c-1.2,2.8-2.2,5.5-3,7.5c2.1-2.2,4.1-4.8,5.7-7.5H478.6z M483.2,191.4
					c-1.3,1.9-2.6,5-4,8.2h2.8c1.1-1.9,2-3.9,2.8-5.7C485.9,191.5,486.7,186.5,483.2,191.4z"/>
				<path class="st0" d="M490.6,220.9c-1.9,0.5-5.3-1.2-3.1-7.1c0.8-2.3,2.9-5.2,3.5-6.6c0.8-1.9-1.2-2.6-4.3-2.6l-0.7,1.8
					c-1.4,3.5-4.1,9.8-6.8,12.4c-0.4,0.4-0.8-0.2-0.4-0.7c4.4-5.9,7.5-14.3,8.7-20.6c0.6-3.2,4.2-1.7,3.4,2
					c-0.3,1.6-2.1,3.1-3.1,3.8c2.1,0.1,5,0.1,7.8-0.2c0.4,0.8-0.5,2.9-1.2,4.3c-0.8,1.7-6.6,12-3.2,12.2c2.3,0.1,5.8-7,7-9.4
					c0.5-1,1.2-0.6,0.7,0.6C497.1,214,494.2,220,490.6,220.9z"/>
				<path class="st0" d="M508.9,220.5c-1.7,0-2.9-0.6-3.6-1.5c-1.6,1.2-3.3,2-4.9,1.9c-4.3-0.1-4.9-5.2-2.8-10.2
					c2.2-5.2,6.9-9.6,10.7-9.5c4.3,0.1,4.9,5.2,2.8,10.2c-0.8,2-2.6,4.6-4.7,6.6c0.5,0.8,1.3,1.4,2.6,1.4c3.6,0,6.5-7,7.9-9.7
					c0.3-0.6,1.2-0.3,0.8,0.5C516.8,212.5,513.6,220.5,508.9,220.5z M501.5,210.5c-2.2,4.6-2.7,8.6-0.7,9.2c1.1,0.3,2.5-0.3,3.8-1.4
					c-0.6-0.9-0.9-1.9-0.9-2.8c0.1-1.3,0.6-2.4,2-2.4c1,0,1.7,0.8,1.7,1.7c0,0.2-0.1,0.4-0.1,0.6c0.6-0.9,1.2-2,1.7-3
					c2.2-4.6,2.5-8.6,0.5-9.2C507.1,202.5,503.6,206.1,501.5,210.5z"/>
				<path class="st0" d="M522.3,221.8c-1.3,0-2.1-1-1.9-2.3c0.2-1.3,1.4-2.3,2.7-2.3c1.2,0,2.1,1,1.9,2.3
					C524.8,220.7,523.6,221.8,522.3,221.8z M525.2,214.9l-0.6-0.1l0.1-0.4l14.3-27.2c0.8-1.5,3.2-1.1,4.7-1.1l0.3,0.1l0.1,0.3
					C543.4,188.3,527.3,211.8,525.2,214.9z"/>
			</g>
		</g>
		<g>
			<path class="st0" d="M114,191.6l0.6,0l0,0.4L102,220.1c-0.7,1.6-3.1,1.3-4.6,1.4l-0.3-0.1l-0.1-0.3
				C97.5,219.4,112.1,194.9,114,191.6z M116.4,184.6c1.3-0.1,2.2,0.9,2.1,2.2c-0.1,1.3-1.3,2.4-2.5,2.5c-1.2,0.1-2.2-0.9-2.1-2.2
				C114,185.8,115.1,184.7,116.4,184.6z"/>
		</g>
	</g>
</g>
</svg>
