<?xml version="1.0" encoding="utf-8"?>
<!-- Generator: Adobe Illustrator 21.0.2, SVG Export Plug-In . SVG Version: 6.00 Build 0)  -->
<svg version="1.1" id="Capa_1" xmlns="http://www.w3.org/2000/svg" xmlns:xlink="http://www.w3.org/1999/xlink" x="0px" y="0px"
	 viewBox="0 0 400 400" style="enable-background:new 0 0 400 400;" xml:space="preserve">
<style type="text/css">
	.st0{fill:#27557C;}
	.st1{fill:#FFFFFF;}
	.st2{fill:#FFFFFF;stroke:#FFFFFF;stroke-width:20;stroke-miterlimit:10;}
</style>
<g>
	<g>
		<g>
			<path class="st0" d="M940.1,304.3c-0.4,0-0.7-0.1-1.1-0.2c-40.1-18.9-53.7-62.4-61.1-98.1c-8.9-43.3-2.3-82.1,19.8-115.3
				c25.5-38.4,72-67.4,124.4-77.7c12.1-2.4,24.1-3.6,35.7-3.6c46.1,0,87.8,19.2,124,57c0.9,1,0.9,2.5,0,3.5l-24.7,26
				c-54.8,57.7-106.6,112.2-159.5,167.8c-1.6,1.7-3.5,2.9-5.3,4.2c-0.6,0.4-1.2,0.8-1.8,1.2c-11.5,8.2-23,16.4-35.7,25.4l-13.2,9.4
				C941.1,304.2,940.6,304.3,940.1,304.3z M942.5,166.5c-7.3,0-15.1,3.6-21.3,9.8s-9.7,14-9.7,21.3c0.1,16.5,13.5,30.4,30,31
				c0.3,0,0.7,0,1,0c16.3,0,30.8-14.3,31.2-30.6c0.3-14.9-14.9-30.9-30.2-31.6C943.1,166.5,942.8,166.5,942.5,166.5z M979.2,67.5
				c-16.4,0-30.8,14.4-30.9,30.9c0,7.6,3.5,15.5,9.6,21.7c6.1,6.1,13.8,9.6,21.2,9.6l0,0c0.3,0,0.5,0,0.8,0
				c16.6-0.5,29.2-13.9,29.2-31.1c0-17.5-12.2-30.6-29-31.1C979.7,67.5,979.5,67.5,979.2,67.5z M1093.8,42.2
				c-7.5,0-15.3,3.6-21.5,9.8c-6.2,6.3-9.7,14.1-9.7,21.6c0.1,16.1,13.9,29.6,30.7,30.1c0.3,0,0.6,0,0.9,0
				c16.7,0,29.4-12.2,30.3-29.1c0.4-7.8-2.7-15.9-8.6-22.2s-13.7-10.1-21.6-10.2C1094.2,42.2,1094,42.2,1093.8,42.2z"/>
			<path class="st1" d="M1057.7,12c46.7,0,87.3,19.7,122.3,56.2c-62.4,65.6-123.3,129.7-184.2,193.8c-1.9,2-4.4,3.4-6.7,5.1
				c-15.4,11-30.8,21.9-48.9,34.8c-36.8-17.3-51.2-55.2-59.7-96.3c-23.3-112.4,65.2-175,142-190.1C1034.6,13.1,1046.4,12,1057.7,12
				 M1094.3,106.3c17.9,0,31.8-13.3,32.8-31.5c0.9-17.8-14.8-34.7-32.6-35.1c-0.2,0-0.4,0-0.6,0c-17,0-33.8,16.9-33.7,34
				c0.2,17.5,15,32.1,33.1,32.6C1093.6,106.3,1094,106.3,1094.3,106.3 M979.1,132.2c0.3,0,0.6,0,0.8,0c17.9-0.6,31.6-15.1,31.6-33.6
				c0-19-13.1-33-31.5-33.6c-0.3,0-0.6,0-0.9,0c-17.6,0-33.3,15.6-33.4,33.4C945.7,115.6,962.1,132.2,979.1,132.2 M942.5,231.1
				c17.7,0,33.3-15.2,33.7-33c0.3-16.3-16-33.4-32.6-34.1c-0.4,0-0.7,0-1.1,0c-16.7,0-33.6,16.7-33.5,33.6
				c0.1,17.8,14.7,32.8,32.4,33.5C941.8,231.1,942.1,231.1,942.5,231.1 M1057.7,7v5V7c-11.7,0-23.9,1.2-36.1,3.6
				c-24.4,4.8-48.4,13.9-69.4,26.4c-23.9,14.1-42.9,31.7-56.6,52.4c-10.6,16-17.8,33.6-21.4,52.3c-3.9,20.3-3.4,42.2,1.2,64.9
				c5.1,24.7,11.4,43.3,19.8,58.5c10.7,19.3,24.7,32.9,42.7,41.4c0.7,0.3,1.4,0.5,2.1,0.5c1,0,2-0.3,2.9-0.9l13.3-9.4
				c12.7-9,24.2-17.2,35.7-25.4c0.6-0.4,1.2-0.8,1.7-1.2c1.8-1.2,3.9-2.6,5.7-4.5c53-55.8,104.8-110.4,159.7-168.1l24.6-25.9
				c1.8-1.9,1.8-5,0-6.9C1146.8,26.4,1104.5,7,1057.7,7L1057.7,7z M1094.3,101.3c-0.3,0-0.6,0-0.9,0c-15.5-0.4-28.2-12.8-28.3-27.6
				c-0.1-6.8,3.2-14.1,8.9-19.9s12.9-9.1,19.7-9.1c0.2,0,0.3,0,0.5,0c7.2,0.2,14.4,3.6,19.8,9.4s8.3,13.3,8,20.4
				C1121.3,90.1,1109.6,101.3,1094.3,101.3L1094.3,101.3z M979.1,127.2c-6.7,0-13.8-3.2-19.4-8.9c-5.7-5.7-8.9-13-8.9-19.9
				c0-7.2,3.2-14.4,8.7-19.9c5.5-5.4,12.6-8.6,19.7-8.6c0.2,0,0.5,0,0.7,0c15.7,0.5,26.7,12.2,26.6,28.5c0,15.8-11.6,28.1-26.8,28.6
				C979.5,127.2,979.3,127.2,979.1,127.2L979.1,127.2z M942.5,226.1c-0.3,0-0.6,0-0.9,0c-15.2-0.5-27.6-13.3-27.6-28.5
				c0-6.7,3.2-13.8,9-19.6c5.7-5.7,13-9.1,19.5-9.1c0.3,0,0.6,0,0.9,0c6.6,0.3,13.7,3.8,19.2,9.7c5.6,5.8,8.7,12.9,8.6,19.3
				C970.9,213,957.5,226.1,942.5,226.1L942.5,226.1z"/>
		</g>
		<g>
			<path class="st0" d="M1186.5,390.5c-2.4,0-4.9-0.1-7.4-0.4c-10.2-1.1-19.8-7.2-29-13.1c-2.1-1.4-4.1-2.6-6.1-3.9
				c-5.3-3.3-9-9.8-11.4-14.5c-15.2-30.5-39.2-44.1-77.8-44.1c-8.2,0-17.2,0.6-28.5,1.8c-2.5,0.3-5,0.6-8.6,1
				c-2,0.2-4.3,0.5-7.2,0.9c-0.1,0-0.2,0-0.3,0c-0.8,0-1.6-0.4-2.1-1.2c-0.5-0.8-0.5-1.8,0-2.7c2-3.2,3.6-6.2,5.2-9.2
				c3.3-6,6.1-11.2,10.3-15.3c47.9-46.3,96.9-93.1,144.3-138.4c11.6-11,23.1-22.1,34.7-33.1c1.1-1.1,2.3-2,3.8-3.2
				c0.8-0.6,1.6-1.3,2.5-2c0.5-0.4,1-0.6,1.6-0.6c0.2,0,0.4,0,0.6,0.1c0.8,0.2,1.4,0.7,1.7,1.4c35,77.8,47.5,144.5,39.1,209.7
				C1246.6,364.4,1221,390.5,1186.5,390.5z M1194.5,286.8c-7.3,0-13.9,2.8-18.7,7.7c-4.5,4.7-6.9,11.1-6.7,17.8
				c0.4,13.4,12,24.8,25.2,24.9h0.1c6.7,0,12.9-2.6,17.6-7.3c4.9-5,7.5-11.7,7.4-19C1219.2,296.9,1208.7,286.8,1194.5,286.8
				L1194.5,286.8z M1193.6,162.7c-16.5,0.4-30.4,14.3-30.3,30.4c0.1,16.7,14.2,30.3,31.4,30.3h0.6c16.4-0.3,30.3-14.2,30.3-30.3
				c0-7.7-3.4-15.5-9.4-21.3s-13.9-9.1-21.8-9.1C1194.1,162.7,1193.9,162.7,1193.6,162.7z"/>
			<path class="st1" d="M1210.4,115.2c30.2,67,48.3,135.2,38.9,208.4c-5,39.4-29.6,64.5-62.8,64.5c-2.4,0-4.7-0.1-7.2-0.4
				c-11.9-1.2-23.3-10-34.1-16.6c-4.6-2.8-7.9-8.4-10.4-13.5c-18.2-36.5-47.3-45.5-80-45.5c-9.4,0-19,0.7-28.8,1.8
				c-4,0.4-7.9,0.9-15.8,1.9c5.9-9.6,9.2-18.2,15.1-24c59.4-57.4,119.2-114.4,178.9-171.5C1205.8,118.7,1207.6,117.4,1210.4,115.2
				 M1194.7,225.9c0.2,0,0.4,0,0.6,0c17.7-0.3,32.7-15.4,32.7-32.8c0-17.6-15.8-32.9-33.7-32.9c-0.3,0-0.5,0-0.8,0
				c-17.8,0.4-32.8,15.6-32.7,32.9C1160.9,211.1,1176.3,225.9,1194.7,225.9 M1194.4,339.7c15.5,0,27.7-12.8,27.4-28.8
				c-0.3-15.4-11.8-26.6-27.3-26.6h-0.1c-16.2,0.1-28.4,12.4-27.9,28.1c0.5,14.7,13.3,27.2,27.7,27.3
				C1194.3,339.7,1194.4,339.7,1194.4,339.7 M1210.4,110.2c-1.1,0-2.3,0.4-3.2,1.1c-0.9,0.8-1.8,1.4-2.5,2c-1.5,1.2-2.7,2.2-3.9,3.3
				c-11.5,11-23.1,22-34.6,33c-47.4,45.3-96.4,92.1-144.4,138.5c-4.5,4.4-7.5,10-10.8,15.9c-1.6,2.9-3.2,5.9-5.1,9
				c-1,1.6-1,3.7,0,5.3c0.9,1.5,2.5,2.3,4.2,2.3c0.2,0,0.4,0,0.6,0c2.9-0.3,5.2-0.6,7.2-0.9c3.5-0.4,6-0.7,8.5-1
				c11.2-1.2,20.2-1.7,28.2-1.7c17.8,0,31.6,2.7,43.2,8.5c13.7,6.8,24.3,18,32.3,34.2c2.5,4.9,6.4,11.9,12.3,15.5
				c2,1.2,4,2.5,6.1,3.8c9.5,6.1,19.3,12.3,30.1,13.5c2.6,0.3,5.2,0.4,7.7,0.4c35.8,0,62.5-27,67.8-68.8
				c8.4-65.7-4.1-132.8-39.3-211.1c-0.6-1.4-1.9-2.5-3.4-2.8C1211.1,110.2,1210.8,110.2,1210.4,110.2L1210.4,110.2z M1194.7,220.9
				c-7.6,0-14.9-2.9-20.4-8.2s-8.5-12.2-8.5-19.6c0-7,2.9-13.9,8.2-19.2s12.4-8.5,19.6-8.6c0.2,0,0.4,0,0.7,0
				c7.3,0,14.6,3.1,20.1,8.4c5.5,5.3,8.6,12.4,8.6,19.5s-2.9,14-8.3,19.3c-5.4,5.4-12.3,8.4-19.5,8.5
				C1195,220.9,1194.9,220.9,1194.7,220.9L1194.7,220.9z M1194.4,334.7L1194.4,334.7c-11.8-0.1-22.5-10.5-22.9-22.5
				c-0.2-6.1,1.9-11.8,6-16c4.3-4.4,10.3-6.9,16.9-6.9h0.1c12.7,0,22.1,9.1,22.3,21.7c0.1,6.6-2.3,12.7-6.7,17.2
				C1206,332.3,1200.4,334.7,1194.4,334.7L1194.4,334.7z"/>
		</g>
		<g>
			<path class="st0" d="M1088.1,223.2c-0.1,0-0.2,0-0.2,0c-0.7-0.1-1.4-0.5-1.8-1.1l-17.4-24.7l-5.2-1.6c-0.8-0.3-1.5-0.9-1.7-1.8
				c-0.2-0.9,0.1-1.8,0.7-2.4c11.9-11.5,23.8-23.1,35.8-34.6c31.7-30.6,64.4-62.3,96.5-93.5c8-7.8,16-16,23.8-23.9
				c3.4-3.5,6.8-6.9,10.2-10.4c5.5-5.6,11.2-8.4,16.8-8.4c4.9,0,9.5,2.1,13.9,6.4s6.6,9,6.6,13.9c0,5.6-2.9,11.3-8.5,16.8
				c-43.2,42.5-86.4,84.9-129.2,126.9l-38.4,37.7C1089.4,222.9,1088.7,223.2,1088.1,223.2z"/>
			<path class="st1" d="M1245.5,23.3c4,0,8.1,1.7,12.1,5.7c9.2,9.1,6.7,18.7-1.9,27.1c-56.2,55.2-112.4,110.4-167.6,164.6
				c-5.5-7.8-11.7-16.6-17.9-25.4c-2-0.6-4-1.3-6-1.9c44.1-42.7,88.3-85.3,132.3-128.1c11.5-11.2,22.7-22.8,34-34.3
				C1235.2,26.2,1240.3,23.3,1245.5,23.3 M1245.5,18.3L1245.5,18.3c-6.3,0-12.6,3.1-18.6,9.2c-3.4,3.5-6.8,6.9-10.2,10.4
				c-7.7,7.9-15.7,16-23.7,23.8c-32,31.1-64.7,62.7-96.3,93.3c-12,11.6-24,23.2-36,34.8c-1.3,1.2-1.8,3-1.4,4.8
				c0.4,1.7,1.7,3.1,3.4,3.6l2.5,0.8l2,0.6l0.7,1l16.2,23.1c0.8,1.2,2.2,2,3.6,2.1c0.2,0,0.3,0,0.5,0c1.3,0,2.6-0.5,3.5-1.4
				l40.8-40.1c42-41.2,84.4-82.9,126.8-124.5c6.1-6,9.3-12.3,9.3-18.6c0-5.6-2.5-10.9-7.3-15.7C1256.3,20.7,1251,18.3,1245.5,18.3
				L1245.5,18.3z"/>
		</g>
		<g>
			<path class="st0" d="M941.3,354.3c-0.7,0-1.4-0.3-1.9-0.8c-0.6-0.6-0.8-1.5-0.5-2.3c0.9-3.2,1.8-6.4,2.7-9.4
				c1.9-6.4,3.7-12.5,5-18.7c5.4-25.2,18.8-41.5,39.9-48.4c3.1-1,7-1.6,10.8-1.6c3.5,0,9.8,0.5,13.4,3.9c4.7,4.5,4.4,17.6,0.8,24.2
				c-17.4,31.4-40.3,48.8-69.9,53.2C941.5,354.3,941.4,354.3,941.3,354.3z"/>
			<path class="st1" d="M997.4,275.5c4.7,0,9.3,1,11.7,3.2c3.7,3.5,3.5,15.5,0.3,21.1c-14.9,26.9-35.8,47.2-68.1,51.9
				c2.8-10.1,5.8-19,7.8-28.2c4.8-22.3,16.2-39.3,38.3-46.6C990.2,276.1,993.9,275.5,997.4,275.5 M997.4,270.5L997.4,270.5
				c-4.1,0-8.2,0.6-11.6,1.7c-22,7.2-36,24.2-41.6,50.3c-1.3,6.1-3.1,12.1-5,18.5c-0.9,3-1.8,6.2-2.7,9.4c-0.5,1.6-0.1,3.4,1.1,4.6
				c1,1.1,2.3,1.7,3.8,1.7c0.2,0,0.5,0,0.7-0.1c30.4-4.4,53.9-22.2,71.7-54.4c3.7-6.7,4.9-21.4-1.2-27.2
				C1008.5,271.4,1002.1,270.5,997.4,270.5L997.4,270.5z"/>
		</g>
		<g>
			<path class="st0" d="M1029.8,280.5c-0.7-0.1-1.3-0.4-1.8-0.9l-17.5-21.9c-0.8-1-0.7-2.3,0.1-3.2c1.8-2.1,4-4.5,6.5-7.3
				c8.7-9.9,20.5-23.4,33-36.5c2.9-3,8.9-5.5,13.3-5.5c1.4,0,2.6,0.2,3.6,0.7c5,2.3,12.3,9.7,11.8,15.6c-0.6,7.2-3.5,17.3-9.8,23.9
				c-10,10.5-20.8,20-29.5,27.6c-2.9,2.5-5.6,4.9-7.9,7c-0.5,0.4-1.1,0.7-1.7,0.7C1029.9,280.5,1029.8,280.5,1029.8,280.5z"/>
			<path class="st1" d="M1063.3,207.6c1,0,1.9,0.1,2.6,0.5c4.7,2.1,10.7,8.8,10.4,13.1c-0.7,7.8-3.8,16.8-9.1,22.4
				c-13.3,14-28.4,26.4-37.2,34.5c-6.2-7.7-11.4-14.2-17.5-21.9c8.1-9.1,23.3-26.9,39.4-43.8
				C1054.3,209.7,1059.5,207.6,1063.3,207.6 M1063.3,202.6L1063.3,202.6c-5.2,0-11.7,2.7-15.1,6.3c-12.5,13.2-24.4,26.7-33.1,36.6
				c-2.5,2.8-4.6,5.3-6.4,7.3c-1.6,1.8-1.7,4.5-0.2,6.5l17.5,21.9c0.9,1.1,2.1,1.7,3.5,1.9c0.1,0,0.3,0,0.4,0c1.2,0,2.4-0.5,3.4-1.3
				c2.2-2,5-4.4,7.8-6.9c8.7-7.7,19.6-17.2,29.6-27.8c6.7-7.1,9.8-17.8,10.4-25.4c0.6-7.1-7.5-15.4-13.3-18.1
				C1066.6,202.9,1065.1,202.6,1063.3,202.6L1063.3,202.6z"/>
		</g>
		<g>
			<path class="st0" d="M978.9,128.1c-16.7-0.2-28.8-12.8-28.8-30c0.1-16.8,12.8-30,29.1-30c7.3,0,14.8,3.4,20.6,9.4
				c5.9,6,9.3,13.7,9.2,21c-0.2,15.8-14.1,29.6-29.8,29.6H978.9z M978.5,79.9c-11,0.1-17,6.1-18.5,18.2c-0.5,4.3,0.7,8.3,3.5,11.5
				c4,4.6,10.8,7.1,18.9,7.1c9.6-0.2,15.7-7.6,15.6-18.8c-0.1-11.7-7-18.2-19.2-18.2L978.5,79.9z"/>
			<path class="st1" d="M979.2,70.6L979.2,70.6c13.9,0,27.5,13.9,27.3,27.9c-0.2,14.4-13.1,27.2-27.3,27.2c-0.1,0-0.2,0-0.3,0
				c-15.2-0.2-26.4-11.8-26.3-27.5C952.7,82.6,964.3,70.6,979.2,70.6 M982.5,119.3c10.5-0.2,18.3-8.2,18.1-21.3
				c-0.1-13-7.9-20.6-21.7-20.6c-0.1,0-0.3,0-0.4,0c-13.6,0.2-19.5,8.8-21,20.4C956.1,109.8,966.3,119.2,982.5,119.3 M979.2,65.6
				L979.2,65.6c-17.6,0-31.5,14.3-31.6,32.5c0,8.9,3.1,17.1,8.8,23.1c5.7,6,13.7,9.4,22.4,9.5h0.3c16.9,0,32-15,32.2-32.1
				c0.1-8-3.5-16.3-9.9-22.8C995.3,69.3,987.1,65.6,979.2,65.6C979.3,65.6,979.2,65.6,979.2,65.6L979.2,65.6z M982.4,114.3
				c-7.3,0-13.5-2.3-17-6.3c-2.4-2.7-3.4-6-2.9-9.6c1.7-14.2,10-16,16-16h0.4c11,0,16.6,5.3,16.7,15.7
				C995.7,107.9,990.7,114.1,982.4,114.3L982.4,114.3z"/>
		</g>
		<g>
			<path class="st0" d="M942.3,228.2c-7,0-14.5-3.6-20.5-9.8c-6.1-6.2-9.5-13.8-9.5-20.9c0.2-15.7,14.3-29.4,30.2-29.4h0.1
				c7.9,0,15.4,3.2,21,8.8c5.6,5.6,8.7,13.1,8.7,21c-0.1,15.3-14.9,30.2-29.9,30.2L942.3,228.2L942.3,228.2z M942.2,179.5
				c-11.6,0.1-17.7,6-18.1,17.5c-0.2,6.3,1.2,11.1,4.3,14.4c3,3.1,7.5,4.8,13.5,5c0.3,0,0.6,0,0.9,0c13.6,0,17.4-9,18.1-16.7
				c-0.3-13.7-6.1-20.1-18.4-20.1L942.2,179.5z"/>
			<path class="st1" d="M942.5,170.7L942.5,170.7c15.1,0.1,27.3,12.3,27.3,27.3c-0.1,13.9-13.7,27.7-27.4,27.7h-0.1
				c-13.3-0.1-27.7-14.7-27.5-28.1C914.9,183.3,927.9,170.7,942.5,170.7 M942.8,218.8c13.1,0,19.6-7.7,20.6-19.1
				c-0.3-15.5-7.5-22.7-20.9-22.7c-0.1,0-0.2,0-0.3,0c-12.6,0.1-20.1,6.9-20.5,19.9c-0.4,13.7,6.5,21.5,20.2,21.9
				C942.2,218.8,942.5,218.8,942.8,218.8 M942.5,165.7L942.5,165.7c-17.3,0-32.6,14.9-32.7,31.9c-0.1,7.7,3.6,16,10.2,22.6
				c6.5,6.6,14.6,10.5,22.3,10.5h0.1c7.8,0,16-3.7,22.4-10.1c6.3-6.4,10-14.6,10-22.6c0-8.6-3.3-16.7-9.4-22.8
				C959.3,169.1,951.2,165.7,942.5,165.7L942.5,165.7L942.5,165.7z M942.8,213.8c-0.3,0-0.5,0-0.8,0c-5.3-0.1-9.2-1.6-11.7-4.2
				c-2.6-2.7-3.8-7-3.6-12.6c0.3-10,5.4-15,15.6-15h0.3c10.8,0,15.6,5.2,15.9,17.5C957.4,209.2,952.3,213.8,942.8,213.8L942.8,213.8
				z"/>
		</g>
		<g>
			<path class="st0" d="M1093.6,104c-0.5,0-1,0-1.5-0.1c-15.6-1.2-28.9-16.6-27.9-32.2c1-15.9,13.8-27.9,29.8-27.9
				c0.5,0,1.1,0,1.6,0c7.7,0.4,15.4,4.3,21,10.7c5.3,6.1,8.1,13.6,7.5,20.7C1123,89.5,1107.6,104,1093.6,104z M1094.5,55
				c-0.5,0-1.1,0-1.6,0c-8.1,0.5-17.6,4-17.2,18.4c0.4,12.4,6.5,18.6,18.3,18.6h0.3c11.9-0.1,17.5-6.6,18.4-21.1
				C1111.6,64.9,1107.7,55,1094.5,55z"/>
			<path class="st1" d="M1094,46.4c0.5,0,1,0,1.5,0c14.4,0.7,27.3,14.8,26.1,28.7c-1.1,13.1-15.4,26.4-28.1,26.4
				c-0.5,0-0.9,0-1.3-0.1c-14.1-1.1-26.5-15.4-25.6-29.6C1067.6,57.1,1079.2,46.4,1094,46.4 M1094,94.6c0.1,0,0.2,0,0.4,0
				c13.8-0.1,20.1-8.6,20.9-23.8c-1.9-10.6-8.5-18.3-20.8-18.3c-0.6,0-1.2,0-1.8,0.1c-12.3,0.7-19.9,7.7-19.5,21
				C1073.5,87,1080.6,94.6,1094,94.6 M1094,41.4L1094,41.4c-8.4,0-16.3,3-22.3,8.6s-9.5,13.2-10.1,21.6
				c-1.1,16.9,13.3,33.5,30.2,34.8c0.6,0,1.2,0.1,1.7,0.1c15.4,0,31.8-15.4,33-31c0.6-7.7-2.3-15.9-8.1-22.5
				c-6.1-6.9-14.4-11.1-22.8-11.5C1095.2,41.4,1094.6,41.4,1094,41.4L1094,41.4z M1094,89.6c-10.5,0-15.5-5.1-15.8-16.2
				c-0.3-9.9,4.7-15.2,14.8-15.8c0.5,0,1,0,1.5,0c6,0,13.5,2.4,15.7,13.6c-1,16.1-8.6,18.4-15.9,18.5L1094,89.6L1094,89.6z"/>
		</g>
		<g>
			<path class="st0" d="M1194.2,222c-0.5,0-1.1,0-1.6,0c-8.1-0.4-15.9-4.1-21.3-10.3c-5.1-5.8-7.6-13-7.1-20.4
				c1.2-15.5,14.3-27.1,30.3-27.1c0.5,0,1,0,1.5,0c8.1,0.4,15.5,3.9,20.8,9.8c5.2,5.8,7.8,13.2,7.3,20.9
				C1223.3,210.3,1210.4,222,1194.2,222z M1192.8,173.5c-8.9,0-16.6,8.8-16.8,19.3c-0.3,6,1.2,10.7,4.3,14.1
				c3.2,3.4,8.1,5.3,14.1,5.4c0.2,0,0.4,0,0.6,0c10.7,0,17.2-6.5,17.7-17.9c0.6-12-5.3-18.8-17.9-20.7
				C1194.2,173.5,1193.5,173.5,1192.8,173.5z"/>
			<path class="st1" d="M1194.6,166.7c0.5,0,0.9,0,1.4,0c15.1,0.7,26.7,13.4,25.8,28.1c-0.9,14.2-12.7,24.7-27.5,24.7
				c-0.5,0-1,0-1.5,0c-15.1-0.7-27.1-13.7-26-27.9C1167.9,177.3,1179.9,166.7,1194.6,166.7 M1195,214.7c11.5,0,19.6-6.9,20.2-20.3
				c0.7-14.5-7.5-21.4-20-23.3c-0.8-0.1-1.6-0.2-2.4-0.2c-10.4,0-19.1,10.2-19.3,21.7c-0.6,14.5,8.4,21.8,20.9,22
				C1194.6,214.7,1194.8,214.7,1195,214.7 M1194.6,161.7L1194.6,161.7c-17.4,0-31.5,12.7-32.8,29.4c-0.6,8,2.1,15.9,7.7,22.2
				c5.9,6.7,14.3,10.7,23.1,11.1c0.6,0,1.2,0,1.7,0c17.5,0,31.5-12.6,32.5-29.4c0.5-8.4-2.3-16.4-8-22.7
				c-5.8-6.5-13.8-10.3-22.6-10.7C1195.7,161.7,1195.1,161.7,1194.6,161.7L1194.6,161.7z M1195,209.7c-0.2,0-0.3,0-0.5,0
				c-3.7-0.1-8.9-0.9-12.3-4.6c-2.7-2.8-3.9-6.9-3.7-12.2v-0.1c0.2-9,6.8-16.8,14.3-16.8c0.6,0,1.1,0,1.7,0.1
				c11.3,1.7,16.3,7.5,15.8,18.1C1209.8,204.4,1204.5,209.7,1195,209.7L1195,209.7z"/>
		</g>
	</g>
</g>
<g>
	<g>
		<path class="st0" d="M965.1-66.7c5.5,3.7,9.7,8.2,11.9,14.1c1.3,3.6,2,7.4,2.5,11.2c0.4,3.4-1.5,5.4-4.4,5.5c-3,0.1-4.8-1.8-5-5.1
			c-0.5-9.8-5.5-16.5-14.3-19.3c-9.1-2.9-19.6-0.2-24.6,7.2c-2.3,3.4-3.3,7.8-4.2,11.9c-0.8,3.8-1.7,5.3-4.7,5.3
			c-3,0-4.4-1.5-4.6-5.3c-0.6-9.2-4.9-15.7-13.8-18.7c-8.6-2.9-16.6-1.5-23.4,4.6c-4,3.6-5.8,8.4-6,13.8c-0.1,3.8-1.7,5.6-4.7,5.6
			c-3.1,0-4.7-1.7-4.8-5.5c-0.4-14.7-14.2-22.2-26.9-19.3c-10.2,2.4-15.3,8.6-16.3,19.7c-0.2,2.6-1.1,4.6-3.9,5.1
			c-3,0.5-5.1-1.2-5.4-4.5c-0.4-5.4-1.5-10.5-5.6-14.4c-7-6.6-15.2-8.1-24.2-5c-8.8,3.1-13.1,9.6-13.6,18.8
			c-0.2,3.4-1.9,5.2-4.8,5.1c-2.9-0.1-4.5-1.9-4.6-5.4c-0.4-10.5-7.5-18.4-17.7-19.8c-11.6-1.6-21.6,4.2-24.6,14.5
			c-0.6,2.1-0.9,4.4-1.1,6.7c-0.2,2.7-1.7,3.8-4.1,4c-2.5,0.2-4.1-1.1-4.6-3.5c-0.3-1.5-0.4-3-0.7-4.5c-2.1-12.4-14.1-20-26.6-16.8
			c-10.2,2.6-15.7,9.2-16.3,19.7c-0.2,3.5-2.1,5.4-5.2,5.2c-2.9-0.2-4.4-2.2-4.3-5.7c0.3-9.6,4.5-17.1,14.3-25.1c-1.3-1-2.5-2-3.7-3
			c-11-9.8-13.7-24.8-7-37.9c0.8-1.6,1.3-3.6,1.3-5.5c0.1-34.7,0.1-69.5,0.1-104.2c0-40.2,0.2-80.4-0.1-120.7
			c-0.1-13.5,10.7-22.8,22.7-22.8c42.5,0.3,85,0.1,127.5,0.1c46.9,0,93.7,0.1,140.6,0c8.4,0,15.1,2.8,19.9,9.7
			c2.7,3.9,3.6,8.4,3.6,13.1c-0.1,27.6-0.2,55.3-0.2,82.9c0,36.1,0.1,72.3,0.1,108.4c0,11.1,0,22.2,0,33.2c0,1.4,0.4,3,1.1,4.2
			c8.1,13.5,5.1,30.5-7.3,40.3C967-68.2,966.2-67.6,965.1-66.7z M710.1-258.4c0.2,0,0.4-0.1,0.7-0.1c0-4.1-0.1-8.1,0-12.2
			c0.1-3.8,1.1-5.1,4.9-5.4c3.6-0.3,7.3,0.1,10.9,0.1c16.4-0.1,32.9-0.3,49.3-0.3c4.2,0,5.9,1.7,5.9,5.9c0,5.6,0,11.2,0,16.8
			c0,5-1.5,7.3-4.8,7.2c-3.2-0.1-4.5-2.1-4.5-7.1c0-4.4,0-8.7,0-13.2c-17.9,0-35.2,0-52.6,0c0,33.3,0,66.4,0,99.6
			c1.3,0.1,2.2,0.2,3.1,0.2c15.3,0,30.5-0.1,45.8,0.1c3.1,0,3.7-1.1,3.7-3.9c-0.1-17.8-0.1-35.7,0-53.5c0-1.3-0.1-3.1,0.6-3.7
			c1.4-1.1,3.4-2.3,5.1-2.2c2.8,0.2,3.6,2.6,3.6,5.2c-0.1,18.2-0.2,36.3-0.3,54.5c0,2.4,0.8,3.6,3.5,3.6c21.4-0.1,42.8-0.1,64.2-0.2
			c0.9,0,1.8,0,2.9,0c0.1-1.1,0.1-1.8,0.1-2.6c0-24.4-0.1-48.8,0-73.2c0-3.5-1.1-5.3-4.1-6.9c-27.6-15.4-55-31-82.5-46.5
			c-16.5-9.3-33.1-18.6-49.9-28.1c-6.3,6.4-12.7,12.7-18.8,19.1c-0.6,0.7-0.7,2.4-0.4,3.4c3.4,11.4,6.9,22.8,10.4,34.2
			C707.9-264.6,709.1-261.5,710.1-258.4z M914.2-266.8c-1.4-0.1-2.3-0.2-3.3-0.2c-15.3,0-30.5,0.1-45.8-0.1c-2.9,0-3.6,0.7-3.6,3.6
			c0.1,29.8,0.1,59.6,0.1,89.4c0,6.7,0,6.7,6.8,7c3.4,0.1,5.1,1.9,4.9,5c-0.2,2.9-1.7,4.2-5.3,4.2c-10.1,0-20.2,0-30.3,0
			c-37.7,0-75.5,0-113.2,0c-1.5,0-2.9,0-4.4,0c0,13.4,0,26.4,0,39.7c7.6-5,15.5-6.6,24-5.1c8.7,1.6,15.1,6.6,20.3,13.7
			c6.6-9.2,15.2-14.3,26.4-14.3c11.1,0,19.6,5.2,26.2,14.2c6.6-9.1,15.1-14.2,26.3-14.2c11.3,0,19.8,5.2,26.2,14.1
			c12.4-15.3,27.1-18,44.1-9c0-13.1,0-26,0-39.2c-7,0-13.7,0-20.5,0c-4.9,0-6.6-1.2-6.7-4.5c0-3.3,1.8-4.7,6.5-4.7
			c6.1,0,12.3-0.1,18.4,0c2.1,0,2.9-0.6,2.8-2.7c-0.2-2.7-0.1-5.4-0.1-8.1c0.1-17.6,0.3-35.3,0.3-52.9c0-8.5-0.2-17-0.3-25.5
			C914.2-259.7,914.2-263.2,914.2-266.8z M735-325.4c-0.1,0.3-0.1,0.5-0.2,0.8c0.7,0.5,1.4,1,2.1,1.4c24.2,13.6,48.5,27.3,72.6,41
			c1.8,1,3.1,1.1,5,0.2c23.1-11.9,46.2-23.6,69.4-35.5c4.6-2.4,9.2-4.7,14.1-7.2c-0.6-0.4-0.8-0.6-0.9-0.6
			c-14-0.1-27.9-0.1-41.9-0.1c-8.3,0-16.6,0.1-24.8,0c-3.3,0-4.9-1.8-4.9-4.7c0-2.9,1.7-4.5,5-4.6c3.9,0,7.7,0,11.6,0
			c2.2,0,4.3,0,7.4,0c-5.1-5.3-9.4-10.1-14-14.5c-1.3-1.3-3.5-2.2-5.3-2.3c-8.5-0.2-17,0-25.5-0.1c-2.6,0-4.6,0.6-6.5,2.7
			c-3.6,4.1-7.5,7.9-11.3,11.9c-0.5,0.6-0.9,1.2-1.7,2.3c1.4,0,2.2,0,3.1,0c5.9,0,11.8-0.2,17.7,0.1c1.5,0.1,3.7,1.7,4.1,3.1
			c0.5,1.4-0.3,3.9-1.4,5.1c-0.9,1-3.2,1-4.8,1c-21.8,0.1-43.6,0-65.5,0C737.3-325.4,736.1-325.4,735-325.4z M923.4-260.3
			c0.2,0,0.5,0,0.7,0c0.2-0.3,0.4-0.5,0.5-0.8c4.3-13.6,8.7-27.2,12.8-40.8c0.3-1.1-0.4-2.9-1.3-3.8c-5-5.3-10.5-10.2-15.4-15.6
			c-2.4-2.6-4.3-2.4-7.1-1c-29.1,15-58.3,29.8-87.4,44.7c-1.3,0.6-2.5,1.4-4.2,2.4c10.3,5.8,19.9,11.2,30.1,16.9c0-3.9,0-7,0-10.2
			c0-6.8,1.1-7.9,7.8-7.9c18.7,0,37.4,0,56.1,0c1.1,0,2.2,0,3.2,0.2c2.8,0.5,4.3,2,4.1,5.1C923.3-267.5,923.4-263.9,923.4-260.3z
			 M710-113.6c0-0.3,0.1-1,0.1-1.8c0.2-35.5,0.3-70.9,0.4-106.4c0-1.9-0.3-3.9-0.8-5.7c-3.2-10.9-6.5-21.8-9.8-32.6
			c-1.3-4.2-2.9-8.4-4.3-12.6c-0.7,8.5-0.7,17-0.7,25.4c0,29.2,0.1,58.5,0.1,87.7c0,11.5,0,23,0.1,34.5c0,1,0.4,2.5,1.1,2.9
			C700.7-119.2,705.3-116.4,710-113.6z M923.5-112.6c4.2-2.9,8.4-6,12.8-8.6c1.6-1,2.3-1.8,2.3-3.6c0.1-44.3,0.2-88.6,0.3-132.9
			c0-4.5,0-9.1,0-13.6c-0.4,0-0.7,0-1.1-0.1c-0.3,0.9-0.7,1.7-0.9,2.6c-3.6,11.3-7.1,22.7-10.8,34c-2,5.9-2.7,11.8-2.6,18
			c0.1,34.1,0,68.2,0,102.3C923.4-113.6,923.5-112.8,923.5-112.6z M681.6-72.1c3.2-13.6,11.8-21.8,24.9-25.1
			c-2-10.3-11.6-17.8-21.6-17.3c-11.2,0.6-20.2,9.2-20.8,20C663.4-83.7,670.7-74.2,681.6-72.1z M953.2-72.4
			c10-1.6,17.4-11.4,16.9-22.1c-0.6-10.6-9.8-19.5-20.8-20c-10.1-0.5-20.1,7.4-21.5,17.1C945.1-90.5,947.7-88,953.2-72.4z
			 M943.3-312.1c6.3-6.3,12.7-12.2,18.6-18.8c4.4-4.9,3.3-12.1-1.9-16.7c-5.3-4.9-12.1-5-17.1-0.2c-3.6,3.5-7.1,7.1-10.7,10.7
			c-2.3,2.3-4.6,4.7-6.9,6.9C931.5-324,937.4-318.1,943.3-312.1z M690.3-312.6c5.8-5.8,11.7-11.6,18-18c-1.9-1.8-4-3.5-5.9-5.4
			c-4.1-4.1-8.1-8.3-12.4-12.2c-5-4.5-11.5-4.1-16.6,0.5c-5,4.6-6.3,11.9-2.1,16.5C677.4-324.6,684-318.7,690.3-312.6z M843.4-83.6
			c3.2-3,6-6.2,9.4-8.5c3.5-2.3,7.6-3.7,11.4-5.6c-1.3-9.3-11.2-17.2-21.2-16.8c-11.7,0.4-20.2,10-20.2,17.3
			C831.5-95.4,838.4-90.7,843.4-83.6z M769.9-97.9c4.2,1.9,8.3,3.2,11.8,5.6c3.6,2.4,6.5,5.7,9.8,8.7c4.7-7.3,11.8-11.6,20.2-13.6
			c-2.2-10.3-11.2-17.5-21.1-17.3C780.5-114.3,771.7-107.2,769.9-97.9z M738.1-83.7c3.3-3,6.1-6.2,9.6-8.5c3.4-2.3,7.4-3.7,11.3-5.5
			c-0.6-8.4-9.8-16.2-20.1-16.8c-10-0.6-19.8,7.2-21.6,17.3C726-95.5,733-90.9,738.1-83.7z M875.1-97.2c9,1.7,15.9,6.5,21.2,14
			c5.3-7.6,12.2-12.1,20.7-14c-2-10.1-11.2-17.5-21.3-17.4C885.7-114.4,876.4-106.7,875.1-97.2z M785.3-71c0-8.5-10.1-17-20.3-17.1
			c-10.4-0.1-20.7,8.3-20.9,17.2c8.4,2.1,15.3,6.5,20.3,14C769.6-64.6,776.6-69.2,785.3-71z M869.8-57.1c5.1-7.7,12.2-12.1,20.8-14
			c-0.4-9.1-11.1-17.5-21.4-17c-10,0.4-20.2,9.2-19.7,17.1C859.3-68,862.1-66.1,869.8-57.1z M733.2-71.2
			c-2.6-10.6-11.7-17.4-21.8-17c-9.9,0.4-18.6,7.8-20,17.1c8.5,1.9,15.4,6.5,20.6,14C717.2-64.8,724.3-69.3,733.2-71.2z M922.3-56.9
			c5.3-8,12.4-12.4,21.1-14.2c-1.4-9.6-10.9-17.2-21.1-17c-10.1,0.1-19.4,7.9-20.5,17.2C910.3-69.1,917.1-64.5,922.3-56.9z
			 M838.1-71.1c-1-9.6-11.4-17.7-21.8-17.1c-10.1,0.6-19.5,8.9-19.5,16.6c3.9,1.9,7.9,3.3,11.3,5.7c3.4,2.3,6.2,5.5,9.4,8.4
			C822.4-64.7,829.4-69.3,838.1-71.1z M701.4-351.2c-0.2,0.3-0.4,0.6-0.6,1c3.1,2.9,6.7,5.5,9.3,8.9c4.4,5.7,9.8,7.9,16.8,6.7
			c1.7-0.3,3.5-0.9,4.7-2c4.3-4.1,8.3-8.4,12.3-12.7c0.4-0.4,0.6-1,1-1.7C730.1-351.2,715.8-351.2,701.4-351.2z M963.5-275
			c0.3-0.1,0.5-0.3,0.8-0.4c0-14.5,0-29,0-43.5c-0.2-0.2-0.5-0.3-0.7-0.5c-3,3.2-5.9,6.4-9,9.5c-7,7.1-7,7.1-6.6,17
			c0,0.9,0.2,2,0.8,2.6C953.6-285.2,958.6-280.1,963.5-275z M787.6-351.4c-10,0-18.8,0-27.7,0.1c-0.9,0-2,0.8-2.7,1.5
			c-4.2,4.3-8.3,8.6-12.5,13c-0.4,0.5-0.7,1.1-1.4,2.1c9.4,0,18.3,0,27.2,0c0.6,0,1.3-0.3,1.7-0.7
			C777.2-340.5,782-345.6,787.6-351.4z M847.6-351.4c-0.1,0.3-0.3,0.5-0.4,0.8c4.3,4.5,8.7,8.8,12.8,13.4c1.7,2,3.6,2.6,6.1,2.6
			c7.3-0.2,14.6,0,21.9-0.1c0.8,0,1.6-0.2,3.1-0.3c-5.3-5.5-10.2-10.6-15.1-15.6c-0.5-0.5-1.4-0.7-2-0.7
			C865.2-351.4,856.4-351.4,847.6-351.4z M888.7-351.2c5.4,5.6,10.1,10.6,14.8,15.5c0.4,0.4,0.9,0.8,1.3,0.8
			c5.4-0.3,11.3,2.2,15.7-3.6c2.3-3.2,5.6-5.6,8.4-8.5c1.2-1.2,2.3-2.5,3.8-4.2C917.9-351.2,903.7-351.2,888.7-351.2z M948.4-235.8
			c-0.3,0.7-0.6,1-0.6,1.2c0,8.7,0.1,17.4,0.2,26.1c0,0.7,0.2,1.5,0.7,2c4.9,5.2,9.9,10.3,14.9,15.4c0.3-0.2,0.7-0.3,1-0.5
			c0-5.4-0.5-10.9,0.1-16.2c1.1-8.4-1.7-14.6-8.3-19.7C953.5-229.8,951.2-232.9,948.4-235.8z M963.2-232.7c0.4-0.3,0.8-0.6,1.1-0.8
			c0.1-0.3,0.3-0.6,0.3-0.9c0-8.5,0-16.9-0.1-25.4c0-1-0.7-2.2-1.5-2.9c-3.9-4.1-8-8.1-12-12.1c-0.9-0.9-1.5-2-2.3-3.1
			c-0.3,0.2-0.6,0.5-0.9,0.7c0,8.8,0,17.6,0,26.3c0,0.8,0.2,1.8,0.7,2.3C953.4-243.2,958.3-238,963.2-232.7z M963.7-149.2
			c0.3-0.1,0.6-0.2,0.9-0.3c0-8.9,0-17.8-0.1-26.7c0-0.9-0.9-1.9-1.6-2.6c-4.3-4.4-8.6-8.7-13-13c-0.5-0.5-1.1-0.8-2-1.4
			c0,9.4,0,18.2,0,27c0,0.7,0.4,1.5,0.8,2C953.8-159.3,958.7-154.3,963.7-149.2z M669.2-275.3c0.4,0.3,0.7,0.5,1.1,0.8
			c2.7-3,5.4-6,8.2-8.9c7.3-7.4,7.4-7.3,7.1-17.8c0-1.3-0.7-2.9-1.6-3.9c-4.1-4.4-8.4-8.6-12.7-12.8c-0.5-0.5-1.1-0.7-2-1.3
			C669.2-304.2,669.2-289.8,669.2-275.3z M668.8-191.3c0.5,0.3,1,0.6,1.4,0.9c2.4-2.7,4.5-5.9,7.3-8c6.7-5.1,9.1-11.5,8.1-19.7
			c-0.6-5.3-0.1-10.8-0.1-16.8c-5.6,5.4-10.8,10.3-15.9,15.3c-0.5,0.5-0.8,1.3-0.8,2C668.8-208.9,668.8-200.1,668.8-191.3z
			 M685.5-192.2c-0.3-0.1-0.5-0.3-0.8-0.4c-4.7,4.7-9.4,9.3-13.9,14.2c-1,1-1.7,2.8-1.7,4.2c-0.2,7.6-0.1,15.2-0.1,22.8
			c0,0.8,0.2,1.6,0.4,3.1c5.4-5.5,10.4-10.5,15.3-15.5c0.5-0.5,0.8-1.3,0.8-2C685.6-174.7,685.5-183.4,685.5-192.2z M669.1-233.3
			c0.4,0.3,0.9,0.6,1.3,0.8c4.8-5.1,9.7-10.2,14.5-15.4c0.5-0.6,0.7-1.8,0.7-2.7c0-8,0-15.9,0-23.9c0-0.7-0.2-1.3-0.5-3
			c-5.4,5.6-10.3,10.7-15.1,15.7c-0.5,0.5-0.8,1.3-0.8,2C669-250.9,669.1-242.1,669.1-233.3z M964.6-120.3c0-3-0.2-6.4,0.1-9.8
			c0.3-3.6-0.8-6.2-3.5-8.7c-4.3-4-8.1-8.4-12.2-12.6c-0.3,0.2-0.5,0.4-0.8,0.6c0,8.9,0,17.8,0,26.3
			C953.7-123.2,958.8-121.8,964.6-120.3z M669.1-120c5.7-1.6,10.9-3,16.2-4.5c0-8.4,0-17.2,0-25.9c-0.2-0.2-0.5-0.3-0.7-0.5
			c-4.9,5.1-9.8,10.1-14.6,15.2c-0.5,0.5-0.8,1.3-0.8,2C669-129.1,669.1-124.5,669.1-120z"/>
		<path class="st0" d="M764.1-192.8c0,9.8-8,18-17.9,18c-9.9,0.1-18.1-8-18.1-17.9c0-10,7.8-17.9,17.9-18
			C756-210.8,764-202.8,764.1-192.8z M746.1-201.2c-4.6,0-8.4,3.8-8.4,8.4c0,4.5,3.9,8.5,8.3,8.6c4.3,0,8.4-4.1,8.4-8.5
			C754.5-197.3,750.6-201.2,746.1-201.2z"/>
		<path class="st0" d="M746.2-254.8c10.1,0,17.9,7.9,17.9,18c0,10-8,17.7-18.3,17.6c-10-0.1-17.8-7.9-17.7-17.8
			C728.1-247.1,736-254.8,746.2-254.8z M746.1-228.5c4.4,0,8.4-4.1,8.4-8.6c0-4.4-4.1-8.5-8.5-8.5c-4.5,0.1-8.3,4.1-8.3,8.6
			C737.7-232.4,741.6-228.5,746.1-228.5z"/>
		<path class="st0" d="M869.9-192.9c0-9.9,7.8-17.8,17.8-17.8c10.2,0,18.3,7.9,18.2,17.8c-0.1,10.2-8.3,18.3-18.3,18.1
			C877.7-174.9,869.9-183,869.9-192.9z M879.5-193.3c0,5,3.5,8.9,8.2,9c4.4,0.1,8.4-3.8,8.5-8.4c0.1-4.6-3.7-8.5-8.2-8.5
			C883.4-201.3,879.5-197.6,879.5-193.3z"/>
		<path class="st0" d="M887.9-254.8c10,0,17.8,7.8,17.8,17.7c0,10.4-7.6,17.9-18.2,17.9c-10,0-17.7-7.7-17.7-17.8
			C869.9-247.1,877.7-254.8,887.9-254.8z M879.5-237c0,4.7,3.7,8.5,8.3,8.5c4.5,0,8.4-3.9,8.3-8.5c0-4.8-4-8.7-8.6-8.5
			C883.2-245.4,879.5-241.4,879.5-237z"/>
	</g>
</g>
<g>
	<g>
		<path class="st0" d="M-370.7,231.3c0-6.9,0-13.4,0-19.9c0-7,2.9-9.9,9.9-9.9c8.3,0,16.6-0.1,24.9,0c2.3,0,3.5-0.5,4.5-2.9
			c4.8-12.2,15.2-19.5,27.4-19.5c12.4,0,22.8,7.2,27.7,19.7c0.9,2.2,2,2.8,4.2,2.8c8.6-0.1,17.1-0.1,25.7,0
			c7.3,0,10.1,2.9,10.1,10.2c0,6.4,0,12.7,0,19.6c1.8,0,3.2,0,4.7,0c12.1,0,24.2,0,36.3,0c15.5,0,25.2,9.7,25.2,25.2
			c0,46.1,0,92.2,0,138.3c0,53.7,0,107.4,0,161.1c0,12.3-7.1,21.7-18.3,24.3c-2,0.4-4,0.5-6.1,0.5c-74.1,0-148.2,0-222.3,0
			c-14,0-24.2-10-24.2-24.2c0-100.3,0-200.7,0-301c0-14.1,10.1-24.1,24.2-24.2c13.7,0,27.5,0,41.2,0
			C-374.1,231.3-372.6,231.3-370.7,231.3z M-370.7,247.4c-1.9,0-3.4,0-4.8,0c-13.1,0-26.1,0-39.2,0c-7.9,0-10,2.1-10,10.2
			c0,98.7,0,197.4,0,296.1c0,9.1,1.8,11,10.9,11c72.3,0,144.7,0,217,0c8.6,0,10.6-2,10.6-10.5c0-47.5,0-94.9,0-142.4
			c0-51.5,0-103.1,0-154.6c0-7.7-2.2-9.9-10-9.9c-11.8,0-23.7,0-35.5,0c-1.4,0-2.9,0.1-4.1,0.2c-0.2,0.7-0.4,0.9-0.4,1.2
			c0,4.3,0,8.7-0.1,13c-0.1,6.6-3,9.6-9.4,9.6c-38.5,0-77,0-115.4,0c-6.5,0-9.5-3-9.6-9.4C-370.7,257.3-370.7,252.5-370.7,247.4z
			 M-252.6,217.6c-8.8,0-17.3,0-25.8,0c-9.3,0-10.8-1.3-12.1-10.3c-1.1-7-6.6-12.1-13.2-12.1c-7.3,0-12.7,5.4-13.6,14
			c-0.7,6-3.2,8.3-9.3,8.4c-4.1,0-8.2,0-12.2,0c-5.1,0-10.2,0-15.2,0c0,12.9,0,25.2,0,37.5c34,0,67.7,0,101.6,0
			C-252.6,242.6-252.6,230.4-252.6,217.6z"/>
		<path class="st0" d="M-276.3,393.7c20.5,0,41.1,0,61.6,0c4.2,0,7,1.9,8.3,5.9c1.1,3.6-0.1,6.7-3.1,8.5c-2,1.2-4.6,1.6-7,1.6
			c-21.8,0.1-43.5,0.1-65.3,0.1c-17.7,0-35.4,0-53,0c-1.4,0-2.7,0.1-4.1-0.1c-4.5-0.5-7.5-3.9-7.4-8.2c0.1-4.3,3.4-7.6,7.9-7.6
			c7.5-0.1,15,0,22.4,0C-302.7,393.7-289.5,393.7-276.3,393.7z"/>
		<path class="st0" d="M-276.4,479.4c-20.1,0-40.3,0-60.4,0c-3.3,0-6.2-0.8-8.1-3.7c-3.1-4.7-0.7-10.9,4.9-12.2
			c1.4-0.3,3-0.3,4.5-0.3c39.6,0,79.2,0,118.7,0c1.4,0,2.7-0.1,4.1,0.2c4,0.7,6.8,4.3,6.7,8.1c-0.1,3.9-3.1,7.2-7.1,7.8
			c-1.2,0.2-2.4,0.1-3.7,0.1C-236.7,479.4-256.6,479.4-276.4,479.4z"/>
		<path class="st0" d="M-276.1,340c-20.5,0-41.1,0-61.6,0c-5.1,0-8.5-3.2-8.6-7.8c-0.1-4.6,3.3-7.8,8.4-8.1c1.2-0.1,2.4,0,3.7,0
			c28.1,0,56.3,0,84.4,0c11.7,0,23.4-0.1,35.1,0c4.7,0,7.5,2.2,8.4,6.3c0.8,3.6-0.4,6.6-3.6,8.4c-1.8,1-4.1,1.3-6.2,1.3
			C-236.1,340.1-256.1,340-276.1,340z"/>
		<path class="st0" d="M-385,467c6.5-7.1,12.7-13.9,18.9-20.7c1-1.1,2-2.3,3.1-3.2c3.2-2.6,7.5-2.5,10.4,0.2c3.1,2.8,3.8,7.5,1,10.7
			c-9.6,10.9-19.4,21.7-29.4,32.2c-3.4,3.6-8.8,2.8-11.7-1.3c-3.9-5.6-7.5-11.3-11-17.1c-2.3-3.9-1.1-8.4,2.4-10.8
			c3.7-2.4,8.4-1.5,11.1,2.3C-388.4,461.7-386.8,464.2-385,467z"/>
		<path class="st0" d="M-385,327.7c7.1-7.8,14-15.3,20.8-22.8c2.4-2.6,5.3-3.7,8.8-2.6c3.2,1,5.3,3.3,5.3,6.5c0,2.2-0.8,5-2.2,6.6
			c-9,10.3-18.3,20.4-27.6,30.5c-4.1,4.5-9.7,4-13.1-1c-3.6-5.3-7-10.6-10.4-16.1c-2.6-4.2-1.5-9,2.3-11.4c3.8-2.4,8.2-1.4,11,2.6
			C-388.3,322.5-386.9,324.9-385,327.7z"/>
		<path class="st0" d="M-385,397.4c7.2-7.9,13.9-15.3,20.7-22.7c3.4-3.6,7.9-4.1,11.3-1.5c3.7,2.8,4.4,7.9,1.1,11.6
			c-9.4,10.6-18.9,21-28.6,31.4c-3.6,3.9-9.3,3.3-12.3-1.1c-3.8-5.5-7.3-11.1-10.8-16.8c-2.4-3.9-1.3-8.4,2.2-10.8
			c3.7-2.5,8.4-1.7,11.2,2.1C-388.4,391.9-386.9,394.5-385,397.4z"/>
	</g>
</g>
<g>
	<g>
		<path class="st2" d="M381.8,87.4c-1.2-1.2-3.3-2.6-6.6-2.6c-3.9,0-14.2,0-76.9,53.3c-1.3,1.1-2.5,2.2-3.8,3.3
			c-11.2-29.2-30.9-55.3-56.2-74.1c-29.1-21.6-63.7-33-100.1-33c0,0,0,0,0,0c-24.6,0-54.5,8.6-78,22.4
			c-28.8,16.9-44.7,39.6-44.7,63.8c0,29.2,16.5,41.4,29.7,51.3c10.8,8,19.3,14.3,19.3,28.2c0,13.9-8.5,20.2-19.3,28.2
			c-13.2,9.8-29.7,22-29.7,51.3c0,24.2,15.9,46.9,44.7,63.8c23.5,13.8,53.4,22.4,78,22.5c0,0,0,0,0,0c44.6,0,86.5-17.2,118.1-48.5
			c31.1-30.9,48.5-71.8,48.9-115.4c10.6-12,20.8-24,30.2-35.3c16-19.3,28.3-35.2,36.6-47.3C383,103.3,387.8,93.5,381.8,87.4z"/>
	</g>
	<g>
		<path class="st0" d="M111.8,255c-5.3-4.2-11.9-6.5-18.6-6.5c-9.1,0-17.7,4.1-23.4,11.1c-5,6.2-7.2,14-6.4,21.8
			c0.9,7.9,4.8,15,11.1,19.9c5.3,4.2,11.9,6.5,18.6,6.5c9.1,0,17.7-4.1,23.4-11.2c5-6.2,7.2-13.9,6.4-21.8
			C122,267,118.1,259.9,111.8,255z M105.9,288.2c-3.1,3.9-7.7,6.1-12.7,6.1c-3.7,0-7.2-1.2-10.2-3.5c-3.4-2.7-5.5-6.5-6-10.8
			c-0.5-4.2,0.7-8.4,3.4-11.8c3.1-3.9,7.7-6.1,12.7-6.1c3.7,0,7.2,1.2,10.2,3.5c3.4,2.7,5.5,6.5,6,10.8
			C109.9,280.7,108.6,284.8,105.9,288.2z"/>
		<path class="st0" d="M231.6,185.2c4.5,0,8.8-1,12.9-2.9c7.2-3.5,12.6-9.5,15.3-17c2.6-7.5,2.1-15.5-1.3-22.6
			c-5-10.2-15.5-16.8-26.9-16.8c-4.5,0-8.9,1-12.9,2.9c-7.2,3.4-12.6,9.5-15.3,17c-2.6,7.5-2.1,15.5,1.3,22.6
			C209.6,178.6,220.2,185.2,231.6,185.2z M216.1,150.3c1.4-4.1,4.4-7.3,8.3-9.2c2.2-1.1,4.6-1.6,7.1-1.6c6.2,0,12,3.6,14.7,9.1
			c1.9,3.8,2.1,8.2,0.7,12.2c-1.4,4.1-4.4,7.3-8.3,9.2c-2.2,1.1-4.6,1.6-7.1,1.6c-6.2,0-12-3.6-14.7-9.1
			C215,158.6,214.7,154.3,216.1,150.3z"/>
		<path class="st0" d="M157.5,137.1c2.2,0.5,4.4,0.7,6.7,0.7c14,0,26-9.5,29.1-23.1c1.8-7.7,0.4-15.6-3.8-22.3
			c-4.3-6.8-10.9-11.4-18.7-13.2c-2.2-0.5-4.5-0.8-6.7-0.8c-14,0-26,9.5-29.1,23.1c-1.8,7.7-0.4,15.6,3.8,22.3
			C143,130.6,149.6,135.3,157.5,137.1z M148.2,104.6c1.7-7.4,8.2-12.5,15.8-12.5c1.2,0,2.5,0.1,3.7,0.4c4.3,1,7.9,3.5,10.2,7.2
			c2.3,3.6,3,7.9,2.1,12c-1.7,7.2-8.3,12.5-15.9,12.5c-1.2,0-2.5-0.1-3.7-0.4c-4.3-1-7.9-3.5-10.2-7.2
			C148,113,147.3,108.7,148.2,104.6z"/>
		<path class="st0" d="M103.3,154.1c6.3-5,10.2-12,11.1-19.9c0.9-7.9-1.4-15.6-6.3-21.8c-5.7-7.1-14.2-11.1-23.4-11.1
			c-6.7,0-13.3,2.3-18.6,6.4c-6.3,4.9-10.2,12-11.1,19.9c-0.9,7.9,1.4,15.7,6.4,21.9c5.7,7.1,14.2,11.2,23.4,11.2
			C91.5,160.5,98.1,158.2,103.3,154.1z M72,140.8c-2.7-3.4-3.9-7.5-3.4-11.8c0.5-4.3,2.6-8.1,6-10.8c2.9-2.3,6.4-3.5,10.2-3.5
			c5,0,9.7,2.2,12.8,6.1c2.7,3.3,3.9,7.5,3.4,11.8c-0.5,4.3-2.6,8.1-6,10.8c-2.9,2.3-6.4,3.5-10.1,3.5
			C79.7,146.9,75.1,144.7,72,140.8z"/>
		<path class="st0" d="M381.8,87.4c-1.2-1.2-3.3-2.6-6.6-2.6c-3.9,0-14.2,0-76.9,53.3c-1.3,1.1-2.5,2.2-3.8,3.3
			c-11.2-29.2-30.9-55.3-56.2-74.1c-29.1-21.6-63.7-33-100.1-33c0,0,0,0,0,0c-24.6,0-54.5,8.6-78,22.4
			c-28.8,16.9-44.7,39.6-44.7,63.8c0,29.2,16.5,41.4,29.7,51.3c10.8,8,19.3,14.3,19.3,28.2c0,13.9-8.5,20.2-19.3,28.2
			c-13.2,9.8-29.7,22-29.7,51.3c0,24.2,15.9,46.9,44.7,63.8c23.5,13.8,53.4,22.4,78,22.5c0,0,0,0,0,0c44.6,0,86.5-17.2,118.1-48.5
			c31.1-30.9,48.5-71.8,48.9-115.4c10.6-12,20.8-24,30.2-35.3c16-19.3,28.3-35.2,36.6-47.3C383,103.3,387.8,93.5,381.8,87.4z
			 M246.9,307.6c-29,28.7-67.5,44.5-108.5,44.5c0,0,0,0,0,0c-43.9,0-109.1-30.5-109.1-72.7c0-22.4,11.8-31.1,24.2-40.3
			c11.6-8.6,24.8-18.4,24.8-39.1c0-20.7-13.2-30.5-24.8-39.1c-12.5-9.2-24.2-18-24.2-40.3c0-25.9,23.8-43.7,38-52.1
			c21.2-12.5,49.1-20.5,71.1-20.5c0,0,0,0,0,0c33.5,0,65.3,10.5,92,30.3c24.6,18.3,43.4,44,53.3,72.7
			c-29.5,25.8-61.5,55.5-85.3,79.4c-39.6,5.1-45,31.5-48.9,50.9c-3.4,16.5-5.5,24.5-18.3,25.5c-3.1,0.3-5.7,2.6-6.2,5.7
			c-0.5,3.1,1.2,6.1,4.1,7.4c0.8,0.3,20.3,8.3,43,8.3c0,0,0,0,0,0c15.9,0,29.5-3.8,40.4-11.4c13.5-9.3,22.7-24.1,27.3-44
			c15.6-15.7,33.3-34.7,50.9-54.3C286.6,252.1,271.4,283.2,246.9,307.6z M226.1,271.4c-7.2,28.6-25.4,43.1-54,43.1c0,0,0,0,0,0
			c-7.6,0-14.8-1-20.9-2.3c7.3-7.4,9.5-18.6,11.5-28.2c3.7-18.4,7.3-35.8,36.2-39.9L226.1,271.4z M320.1,163.8
			c-27,32.2-59.7,68.3-86.6,95.7l-4.2-4.2L211,236.9c24.4-24.3,55.7-53.2,84.9-78.6l0,0c3.4-3,6.8-5.9,10.1-8.7
			c33.9-28.9,51.6-41.5,60.7-46.9C361.2,111.8,348.8,129.6,320.1,163.8z"/>
	</g>
</g>
</svg>
