<?xml version="1.0" encoding="utf-8"?>
<!-- Generator: Adobe Illustrator 21.0.2, SVG Export Plug-In . SVG Version: 6.00 Build 0)  -->
<svg version="1.1" id="Capa_1" xmlns="http://www.w3.org/2000/svg" xmlns:xlink="http://www.w3.org/1999/xlink" x="0px" y="0px"
	 viewBox="0 0 250.7 247.8" style="enable-background:new 0 0 250.7 247.8;" xml:space="preserve">
<style type="text/css">
	.st0{fill:none;stroke:#FFFFFF;stroke-miterlimit:10;}
	.st1{fill:#FFFFFF;}
</style>
<g>
	<line class="st0" x1="144.5" y1="5.5" x2="145.9" y2="99"/>
	<g>
		<g>
			<path class="st1" d="M245.1,233.6c0.1-2.8,0-5.5-0.4-8.3c-0.3-2.8-0.9-5.5-1.6-8.2c-1.4-5.4-3.3-10.6-5.4-15.8
				c-4.4-10.2-9.7-20-15.2-29.5l-4.1-7.2c-1.4-2.4-2.8-4.8-4.1-7.2c-2.7-4.8-5.3-9.6-7.4-14.6c-1-2.5-1.9-5-2.4-7.4
				c-0.1-0.6-0.2-1.2-0.3-1.8c0-0.3,0-0.6,0-0.9c0-0.3,0-0.7,0-1c0-1.3,0.1-2.7,0.2-4c0.4-5.3,1.6-10.6,3-15.9
				c1.3-5.3,2.8-10.7,3.9-16.2c1.1-5.5,1.9-11.1,2.1-16.7c0.1-1.4,0.1-2.8,0.1-4.2l0-2.1c0-0.7,0-1.4-0.1-2.2
				c-0.1-1.4-0.2-2.9-0.5-4.3c-0.2-1.4-0.5-2.8-0.9-4.2c-1.5-5.6-4.2-10.8-7.6-15.3c-3.4-4.6-7.5-8.5-12.1-11.8
				c-4.6-3.3-9.6-6-14.8-8c-10.4-4-21.8-5.6-32.8-4.4c11-0.3,22,1.9,32,6.3c5,2.2,9.7,5,13.9,8.3c4.2,3.3,8.1,7.2,11.1,11.6
				c3.1,4.4,5.3,9.2,6.6,14.3c0.3,1.3,0.6,2.6,0.8,3.9c0.2,1.3,0.3,2.6,0.4,3.9c0,0.7,0,1.3,0,2l0,2c0,1.4-0.1,2.7-0.2,4.1
				c-0.4,5.4-1.1,10.8-2.2,16.1c-1.1,5.3-2.5,10.6-3.9,16c-1.3,5.4-2.5,10.9-3,16.6c-0.1,1.4-0.2,2.8-0.2,4.3c0,0.4,0,0.7,0,1.1
				c0,0.4,0,0.8,0.1,1.2c0.1,0.8,0.2,1.5,0.3,2.3c0.6,2.9,1.6,5.7,2.7,8.3c2.3,5.2,5,10,7.8,14.8c2.8,4.8,5.7,9.5,8.6,14.2
				c2.9,4.7,5.7,9.4,8.5,14.2c2.7,4.8,5.4,9.6,7.7,14.5c2.4,4.9,4.5,10,6.2,15.2c0.8,2.6,1.6,5.3,2.1,8
				C244.6,228.1,245,230.9,245.1,233.6z"/>
		</g>
		<g>
			<path class="st1" d="M5.6,234c-0.1-2.8,0-5.5,0.4-8.3c0.3-2.8,0.9-5.5,1.6-8.2c1.4-5.4,3.3-10.6,5.4-15.8
				c4.4-10.2,9.7-20,15.2-29.5l4.1-7.2c1.4-2.4,2.8-4.8,4.1-7.2c2.7-4.8,5.3-9.6,7.4-14.6c1-2.5,1.9-5,2.4-7.4
				c0.1-0.6,0.2-1.2,0.3-1.8c0-0.3,0-0.6,0-0.9c0-0.3,0-0.7,0-1c0-1.3-0.1-2.7-0.2-4c-0.4-5.3-1.6-10.6-3-15.9
				c-1.3-5.3-2.8-10.7-3.9-16.2c-1.1-5.5-1.9-11.1-2.1-16.7c-0.1-1.4-0.1-2.8-0.1-4.2l0-2.1c0-0.7,0-1.4,0.1-2.2
				c0.1-1.4,0.2-2.9,0.5-4.3c0.2-1.4,0.5-2.8,0.9-4.2c1.5-5.6,4.2-10.8,7.6-15.3c3.4-4.6,7.5-8.5,12.1-11.8c4.6-3.3,9.6-6,14.8-8
				c10.4-4,21.8-5.6,32.8-4.4c-11-0.3-22,1.9-32,6.3c-5,2.2-9.7,5-13.9,8.3C55.8,40.7,52,44.6,49,49c-3.1,4.4-5.3,9.2-6.6,14.3
				c-0.3,1.3-0.6,2.6-0.8,3.9c-0.2,1.3-0.3,2.6-0.4,3.9c0,0.7,0,1.3,0,2l0,2c0,1.4,0.1,2.7,0.2,4.1c0.4,5.4,1.1,10.8,2.2,16.1
				c1.1,5.3,2.5,10.6,3.9,16c1.3,5.4,2.5,10.9,3,16.6c0.1,1.4,0.2,2.8,0.2,4.3c0,0.4,0,0.7,0,1.1c0,0.4,0,0.8-0.1,1.2
				c-0.1,0.8-0.2,1.5-0.3,2.3c-0.6,2.9-1.6,5.7-2.7,8.3c-2.3,5.2-5,10-7.8,14.8c-2.8,4.8-5.7,9.5-8.6,14.2
				c-2.9,4.7-5.7,9.4-8.5,14.2c-2.7,4.8-5.4,9.6-7.7,14.5c-2.4,4.9-4.5,10-6.2,15.2c-0.8,2.6-1.6,5.3-2.1,8
				C6,228.5,5.7,231.2,5.6,234z"/>
		</g>
		<g>
			<path class="st1" d="M104.9,75C89,82.6,78,98.9,78,117.6c0,26.1,21.2,47.3,47.3,47.3c26.1,0,47.3-21.2,47.3-47.3
				c0-18.8-11-35-26.8-42.7l0-0.7c16.2,7.7,27.4,24.2,27.4,43.3c0,26.4-21.5,48-48,48c-26.4,0-48-21.5-48-48
				c0-19.1,11.2-35.6,27.4-43.3"/>
		</g>
		<g>
			
				<rect x="59" y="51.9" transform="matrix(1.952753e-02 -0.9998 0.9998 1.952753e-02 51.516 156.9621)" class="st1" width="93.5" height="0.7"/>
		</g>
		<g>
			<path class="st1" d="M105,89.2c3.4-0.4,6.8-0.6,10.2-0.7c1.7-0.1,3.4-0.1,5.1-0.2l5.1-0.1l5.1,0c1.7,0.1,3.4,0.1,5.1,0.2
				c3.4,0.1,6.8,0.3,10.2,0.7c-3.4,0.4-6.8,0.6-10.2,0.7c-1.7,0.1-3.4,0.1-5.1,0.2l-5.1,0l-5.1-0.1c-1.7,0-3.4-0.1-5.1-0.2
				C111.8,89.8,108.4,89.6,105,89.2z"/>
		</g>
		<g>
			<path class="st1" d="M105,79c3.4-0.4,6.8-0.6,10.2-0.7c1.7-0.1,3.4-0.1,5.1-0.2l5.1-0.1l5.1,0c1.7,0.1,3.4,0.1,5.1,0.2
				c3.4,0.1,6.8,0.3,10.2,0.7c-3.4,0.4-6.8,0.6-10.2,0.7c-1.7,0.1-3.4,0.1-5.1,0.2l-5.1,0l-5.1-0.1c-1.7,0-3.4-0.1-5.1-0.2
				C111.8,79.6,108.4,79.4,105,79z"/>
		</g>
		<g>
			<path class="st1" d="M105.5,67.8c3.4-0.4,6.3-0.5,9.7-0.7c1.7-0.1,3.4-0.1,5.1-0.2l5.1-0.1l5.1,0c1.7,0.1,3.4,0.1,5.1,0.2
				c3.4,0.1,6.5,0.4,9.9,0.8c-3.4,0.4-6.5,0.6-9.9,0.7c-1.7,0.1-3.4,0.1-5.1,0.2l-5.1,0l-5.1-0.1c-1.7,0-3.4-0.1-5.1-0.2
				C111.8,68.5,108.9,68.2,105.5,67.8z"/>
		</g>
		<g>
			<path class="st1" d="M105.7,56.8c3.4-0.4,6.1-0.6,9.5-0.7c1.7-0.1,3.4-0.1,5.1-0.2l5.1-0.1l5.1,0c1.7,0.1,3.4,0.1,5.1,0.2
				c3.4,0.1,6.3,0.3,9.7,0.7c-3.4,0.4-6.3,0.6-9.7,0.8c-1.7,0.1-3.4,0.1-5.1,0.2l-5.1,0l-5.1-0.1c-1.7,0-3.4-0.1-5.1-0.2
				C111.8,57.4,109.1,57.2,105.7,56.8z"/>
		</g>
		<g>
			<path class="st1" d="M105.8,43.8c3.4-0.4,6-0.6,9.4-0.7c1.7-0.1,3.4-0.1,5.1-0.2l5.1-0.1l5.1,0c1.7,0.1,3.4,0.1,5.1,0.2
				c3.4,0.1,6.3,0.3,9.7,0.7c-3.4,0.4-6.3,0.6-9.7,0.7c-1.7,0.1-3.4,0.1-5.1,0.2l-5.1,0l-5.1-0.1c-1.7,0-3.4-0.1-5.1-0.2
				C111.8,44.4,109.2,44.2,105.8,43.8z"/>
		</g>
		<g>
			<path class="st1" d="M106.3,29.6c3.4-0.4,5.5-0.7,8.9-0.8c1.7-0.1,3.4-0.1,5.1-0.2l5.1-0.1l5.1,0c1.7,0.1,3.4,0.1,5.1,0.2
				c3.4,0.1,5.9,0.4,9.3,0.8c-3.4,0.4-5.9,0.5-9.3,0.6c-1.7,0.1-3.4,0.1-5.1,0.2l-5.1,0l-5.1-0.1c-1.7,0-3.4-0.1-5.1-0.2
				C111.8,30.1,109.7,30,106.3,29.6z"/>
		</g>
		<g>
			<path class="st1" d="M107.6,15.1c3.4-0.4,4.2-0.6,7.6-0.7c1.7-0.1,3.4-0.1,5.1-0.2l5.1-0.1l5.1,0c1.7,0.1,3.4,0.1,5.1,0.2
				c3.4,0.1,5.7,0.4,9.1,0.8c-3.4,0.4-5.7,0.5-9.1,0.6c-1.7,0.1-3.4,0.1-5.1,0.2l-5.1,0l-5.1-0.1c-1.7,0-3.4-0.1-5.1-0.2
				C111.8,15.7,111,15.5,107.6,15.1z"/>
		</g>
		<path class="st1" d="M162.9,223.9c-11.6,0-68,0-77.3,0c-9.3,0-15.3,8.9-15.3,8.9s7.9,9.6,15.7,9.6c7.9,0,65.2,0,75.9,0
			c10.6,0,18.5-9.6,18.5-9.6S174.4,223.9,162.9,223.9z M159.2,239.1c-9.8,0-62.9,0-70.2,0s-12.4-6-12.4-6s3.4-5.6,12-5.6
			c8.6,0,60.8,0,71.5,0s14.3,5.6,14.3,5.6S169.1,239.1,159.2,239.1z"/>
		<g>
			<g>
				<rect x="107" y="5.5" class="st1" width="1.2" height="229.5"/>
			</g>
			<g>
				<rect x="113.9" y="5.5" class="st1" width="1.2" height="229.5"/>
			</g>
			<g>
				<rect x="120.8" y="5.5" class="st1" width="1.2" height="229.5"/>
			</g>
			<g>
				<rect x="128.3" y="5.5" class="st1" width="0.6" height="229.5"/>
			</g>
			<g>
				<rect x="135.3" y="5.5" class="st1" width="0.6" height="229.5"/>
			</g>
			<g>
				<rect x="142.2" y="5.5" class="st1" width="0.6" height="229.5"/>
			</g>
		</g>
		<rect x="96.9" y="226.8" class="st1" width="56.4" height="2.5"/>
		<g>
			<rect x="96.9" y="231.7" class="st1" width="56.4" height="4.4"/>
		</g>
		<g>
			<g>
				<path class="st1" d="M125.4,161.9c-24.4,0-44.3-19.9-44.3-44.3c0-16,10-31.7,23.9-39.6v2.7c-13.3,7.5-21.9,21.7-21.9,36.9
					c0,23.3,19,42.3,42.3,42.3s42.3-19,42.3-42.3c0-15.5-8.4-29.7-22-37.1l0-2.7c14.3,7.8,24.1,23.6,24.1,39.9
					C169.7,142,149.8,161.9,125.4,161.9z"/>
			</g>
		</g>
		<g>
			<path class="st1" d="M125.4,146.7c-16,0-29.1-13-29.1-29.1s13-29.1,29.1-29.1s29.1,13,29.1,29.1S141.4,146.7,125.4,146.7z
				 M125.4,90.2c-15.1,0-27.4,12.3-27.4,27.4s12.3,27.4,27.4,27.4c15.1,0,27.4-12.3,27.4-27.4S140.5,90.2,125.4,90.2z"/>
		</g>
	</g>
</g>
</svg>
