<?xml version="1.0" encoding="utf-8"?>
<!-- Generator: Adobe Illustrator 21.0.2, SVG Export Plug-In . SVG Version: 6.00 Build 0)  -->
<svg version="1.1" id="Capa_1" xmlns="http://www.w3.org/2000/svg" xmlns:xlink="http://www.w3.org/1999/xlink" x="0px" y="0px"
	 viewBox="0 0 400 400" style="enable-background:new 0 0 400 400;" xml:space="preserve">
<style type="text/css">
	.st0{fill:#FFFFFF;stroke:#FFFFFF;stroke-width:20;stroke-miterlimit:10;}
	.st1{fill:#27557C;}
</style>
<g>
	<g>
		<g>
			<path class="st0" d="M146.5,77.9c0-5.6,0-11,0-16.3c0-5.7,2.3-8.2,8.2-8.2c6.8,0,13.6-0.1,20.4,0c1.9,0,2.9-0.4,3.6-2.4
				c4-10,12.5-16,22.6-16c10.2,0,18.8,5.9,22.8,16.2c0.7,1.8,1.6,2.3,3.4,2.3c7-0.1,14.1-0.1,21.1,0c6,0,8.2,2.4,8.3,8.3
				c0,5.2,0,10.5,0,16.2c1.5,0,2.7,0,3.8,0c9.9,0,19.9,0,29.8,0c12.7,0,20.8,8,20.8,20.7c0,37.9,0,75.7,0,113.6
				c0,44.1,0,88.2,0,132.3c0,10.1-5.8,17.9-15,20c-1.6,0.3-3.3,0.4-4.9,0.4c-60.9,0-121.7,0-182.6,0c-11.5,0-19.9-8.2-19.9-19.9
				c0-82.4,0-164.9,0-247.3c0-11.6,8.3-19.8,19.9-19.9c11.3,0,22.6,0,33.9,0C143.7,77.9,144.9,77.9,146.5,77.9z"/>
		</g>
	</g>
	<g>
		<g>
			<path class="st1" d="M146.5,77.9c0-5.6,0-11,0-16.3c0-5.7,2.3-8.2,8.2-8.2c6.8,0,13.6-0.1,20.4,0c1.9,0,2.9-0.4,3.6-2.4
				c4-10,12.5-16,22.6-16c10.2,0,18.8,5.9,22.8,16.2c0.7,1.8,1.6,2.3,3.4,2.3c7-0.1,14.1-0.1,21.1,0c6,0,8.2,2.4,8.3,8.3
				c0,5.2,0,10.5,0,16.2c1.5,0,2.7,0,3.8,0c9.9,0,19.9,0,29.8,0c12.7,0,20.8,8,20.8,20.7c0,37.9,0,75.7,0,113.6
				c0,44.1,0,88.2,0,132.3c0,10.1-5.8,17.9-15,20c-1.6,0.3-3.3,0.4-4.9,0.4c-60.9,0-121.7,0-182.6,0c-11.5,0-19.9-8.2-19.9-19.9
				c0-82.4,0-164.9,0-247.3c0-11.6,8.3-19.8,19.9-19.9c11.3,0,22.6,0,33.9,0C143.7,77.9,144.9,77.9,146.5,77.9z M146.5,91.1
				c-1.6,0-2.8,0-4,0c-10.7,0-21.4,0-32.1,0c-6.5,0-8.2,1.7-8.2,8.4c0,81.1,0,162.2,0,243.3c0,7.5,1.5,9,8.9,9
				c59.4,0,118.9,0,178.3,0c7,0,8.7-1.6,8.7-8.6c0-39,0-78,0-117c0-42.4,0-84.7,0-127c0-6.3-1.8-8.1-8.2-8.1c-9.7,0-19.5,0-29.2,0
				c-1.2,0-2.3,0.1-3.4,0.2c-0.2,0.6-0.3,0.8-0.3,1c0,3.6,0,7.1-0.1,10.7c-0.1,5.4-2.4,7.8-7.7,7.9c-31.6,0-63.2,0-94.8,0
				c-5.4,0-7.8-2.4-7.8-7.7C146.4,99.3,146.5,95.4,146.5,91.1z M243.5,66.7c-7.2,0-14.2,0-21.2,0c-7.6,0-8.9-1-10-8.5
				c-0.9-5.8-5.4-9.9-10.9-9.9c-6,0-10.4,4.4-11.2,11.5c-0.5,4.9-2.7,6.9-7.6,6.9c-3.4,0-6.7,0-10.1,0c-4.2,0-8.4,0-12.5,0
				c0,10.6,0,20.7,0,30.8c28,0,55.6,0,83.5,0C243.5,87.2,243.5,77.3,243.5,66.7z"/>
			<path class="st1" d="M224.1,211.4c16.8,0,33.8,0,50.6,0c3.5,0,5.7,1.6,6.8,4.9c0.9,3-0.1,5.5-2.5,6.9c-1.6,1-3.8,1.3-5.7,1.3
				c-17.9,0.1-35.8,0.1-53.7,0.1c-14.5,0-29.1,0-43.6,0c-1.1,0-2.3,0.1-3.4-0.1c-3.7-0.4-6.2-3.2-6.1-6.8s2.8-6.3,6.5-6.3
				c6.2-0.1,12.3,0,18.4,0C202.3,211.4,213.2,211.4,224.1,211.4z"/>
			<path class="st1" d="M224,281.8c-16.5,0-33.1,0-49.6,0c-2.8,0-5.1-0.6-6.7-3c-2.6-3.8-0.5-8.9,4-10c1.2-0.3,2.4-0.3,3.6-0.3
				c32.5,0,65,0,97.5,0c1.1,0,2.3-0.1,3.3,0.2c3.3,0.6,5.6,3.5,5.5,6.7c-0.1,3.2-2.5,5.9-5.8,6.4c-1,0.2-2,0.1-3,0.1
				C256.6,281.8,240.3,281.8,224,281.8z"/>
			<path class="st1" d="M224.2,167.3c-16.8,0-33.8,0-50.6,0c-4.3,0-7-2.6-7-6.4c-0.1-3.8,2.7-6.4,6.9-6.7c1-0.1,2,0,3,0
				c23.1,0,46.3,0,69.4,0c9.6,0,19.2-0.1,28.8,0c3.8,0,6.2,1.8,6.9,5.1c0.7,3-0.3,5.5-3,6.9c-1.5,0.8-3.4,1-5.1,1
				C257.1,167.3,240.6,167.3,224.2,167.3z"/>
			<path class="st1" d="M134.8,271.6c5.3-5.8,10.4-11.5,15.5-17c0.9-0.9,1.6-1.9,2.5-2.6c2.6-2.2,6.1-2,8.6,0.2
				c2.5,2.3,3.1,6.2,0.9,8.8c-7.9,8.9-16,17.8-24.1,26.5c-2.8,3-7.3,2.3-9.6-1c-3.2-4.6-6.2-9.3-9-14.1c-1.9-3.2-1-6.9,2-8.9
				c3-2,6.9-1.2,9.1,1.9C132,267.2,133.2,269.3,134.8,271.6z"/>
			<path class="st1" d="M134.8,157.1c5.8-6.4,11.5-12.6,17.1-18.8c2-2.2,4.3-3,7.2-2.1c2.6,0.9,4.3,2.7,4.3,5.4
				c0,1.8-0.6,4.1-1.8,5.5c-7.4,8.5-15,16.8-22.7,25.1c-3.4,3.6-8,3.3-10.8-0.8c-3-4.3-5.7-8.8-8.5-13.2c-2.2-3.5-1.3-7.4,1.9-9.4
				c3.1-1.9,6.8-1.1,9,2.1C132,152.8,133.2,154.8,134.8,157.1z"/>
			<path class="st1" d="M134.8,214.4c5.9-6.4,11.4-12.6,17-18.7c2.8-3,6.4-3.4,9.3-1.2c3,2.3,3.6,6.5,1,9.5
				c-7.7,8.7-15.5,17.3-23.4,25.8c-3,3.2-7.6,2.7-10.2-1c-3.1-4.5-6.1-9.1-8.9-13.8c-1.9-3.2-1-6.9,1.8-8.9c3-2.1,6.9-1.4,9.2,1.7
				C131.9,209.9,133.2,212,134.8,214.4z"/>
		</g>
	</g>
</g>
</svg>
