<?xml version="1.0" encoding="utf-8"?>
<!-- Generator: Adobe Illustrator 21.0.2, SVG Export Plug-In . SVG Version: 6.00 Build 0)  -->
<svg version="1.1" id="Capa_1" xmlns="http://www.w3.org/2000/svg" xmlns:xlink="http://www.w3.org/1999/xlink" x="0px" y="0px"
	 viewBox="0 0 193.7 44.7" style="enable-background:new 0 0 193.7 44.7;" xml:space="preserve">
<style type="text/css">
	.st0{opacity:0.9;}
	.st1{fill:#1A1A1A;}
</style>
<g>
	<g class="st0">
		<g>
			<path class="st1" d="M0.7,22.2l1.7-0.3L9.8,3h1.7l7.1,18.9l1.8,0.3l-0.1,1.3h-6.4l0.2-1.3l2.5-0.1l-2.1-5.7H6.3L4.2,22l2.5,0.1
				l-0.1,1.3h-6L0.7,22.2z M13.9,14.8l-2.4-6.6l-1.1-2.9L9.3,8.3l-2.5,6.5H13.9z"/>
			<path class="st1" d="M20.7,24h-7.4l0.3-2.3l2.2-0.1l-1.8-4.8H6.7l-1.8,4.8l2.4,0.1L7,24H0l0.3-2.2l1.8-0.4L9.5,2.5h2.3l7.2,19
				l2,0.3L20.7,24z M14.5,23h5.4l0-0.4l-1.6-0.3L11.1,3.5h-1L2.8,22.3l-1.7,0.3l0,0.3h5l0-0.4l-2.7-0.2L6,15.8h8.8l2.5,6.7l-2.7,0.2
				L14.5,23z M14.6,15.3H6.1l2.8-7.2l1.6-4.2l1.5,4.2L14.6,15.3z M7.5,14.3h5.7L11,8.4l-0.6-1.7L9.8,8.5L7.5,14.3z"/>
		</g>
		<g>
			<path class="st1" d="M26.3,22.3l2-0.3V4.6l-2.5-0.3l0.1-1.1h6.9l0,1.4l-2.6,0.1V22h8.1l0.3-3.6h1.5l0,5H26.1L26.3,22.3z"/>
			<path class="st1" d="M40.4,24H25.6l0.2-2.1l1.9-0.3V5l-2.5-0.4l0.3-2.1h7.8l0,2.4l-2.6,0.1v16.5h7.1L38,18h2.4L40.4,24z M26.7,23
				h12.8l0-4h-0.5l-0.3,3.6h-9V4.1L32.3,4l0-0.4h-6l0,0.2l2.4,0.3v18.2l-2,0.3L26.7,23z"/>
		</g>
		<g>
			<path class="st1" d="M48.2,22.3l2.7-0.3V4.6h-5.5l-0.1,2.9h-1.4V2.5H45l0.1,0.6h13.5l0.1-0.6h1.2v4.9h-1.4l-0.1-2.9h-5.5v17.6
				l2.8-0.1l-0.1,1.4h-7.4L48.2,22.3z"/>
			<path class="st1" d="M55.9,24h-8.4l0.2-2.1l2.6-0.3V5.1h-4.6l-0.1,2.9h-2.4V2h2.1l0.1,0.6h12.6L58.3,2h2.1v5.9H58l-0.1-2.9h-4.6
				v16.6l2.9-0.1L55.9,24z M48.6,23H55l0-0.4l-2.7,0.1V4.1h6.5l0.1,2.9h0.5V3h-0.3l-0.1,0.6H44.7L44.6,3h-0.3v3.9h0.5l0.1-2.9h6.5
				v18.3l-2.7,0.3L48.6,23z"/>
		</g>
		<g>
			<path class="st1" d="M66,22.3l2.3-0.3V4.6l-2.5-0.3l0.1-1.3h6.7l-0.1,1.4l-2.3,0.1v17.5l2.5-0.1l-0.1,1.5h-6.7L66,22.3z"/>
			<path class="st1" d="M73,24h-7.6l0.1-2.1l2.3-0.3V5.1l-2.5-0.3l0.2-2.2h7.7L73,5L70.7,5v16.5l2.5-0.1L73,24z M66.4,23h5.7l0-0.5
				l-2.4,0.1V4.1L72.1,4l0-0.4h-5.8l0,0.3l2.4,0.3v18.2l-2.3,0.3L66.4,23z"/>
		</g>
		<g>
			<path class="st1" d="M79.5,22.2l2-0.3V4.7L79,4.3l0.1-1.2h7.6c2.5,0,4.3,0.5,5.5,1.5C93.4,5.7,94,7.1,94,9c0,1.8-0.6,3.3-1.8,4.5
				c-1.2,1.2-3.2,1.7-5.9,1.7h-3v6.8l3.1-0.1l-0.1,1.5h-6.9L79.5,22.2z M86,13.8c2.1,0,3.6-0.4,4.6-1.1c1-0.7,1.5-1.9,1.5-3.6
				c0-1.5-0.5-2.6-1.4-3.3c-0.9-0.7-2.3-1.1-4.2-1.1h-3.1v9.1H86z"/>
			<path class="st1" d="M86.8,24h-7.9l0.2-2.2l1.9-0.3V5.1l-2.5-0.4l0.2-2.1h8c2.6,0,4.5,0.6,5.8,1.6c1.3,1.1,2,2.7,2,4.8
				c0,1.9-0.7,3.6-2,4.8c-1.3,1.2-3.4,1.9-6.2,1.9h-2.5v5.8l3.1-0.1L86.8,24z M79.9,23h5.9l0-0.5l-3,0.1v-7.8h3.5
				c2.5,0,4.4-0.5,5.5-1.6c1.1-1.1,1.7-2.4,1.7-4.1c0-1.8-0.5-3.1-1.6-4c-1.1-0.9-2.9-1.4-5.2-1.4h-7.2l0,0.3l2.4,0.4v18l-2,0.3
				L79.9,23z M86,14.3h-3.1V4.1h3.6c2,0,3.5,0.4,4.5,1.2c1,0.8,1.5,2.1,1.5,3.7c0,1.8-0.6,3.2-1.7,4C89.7,13.9,88.1,14.3,86,14.3z
				 M83.9,13.3H86c1.9,0,3.4-0.3,4.3-1c0.9-0.6,1.3-1.7,1.3-3.2c0-1.3-0.4-2.3-1.2-3c-0.8-0.7-2.1-1-3.8-1h-2.6V13.3z"/>
		</g>
		<g>
			<path class="st1" d="M100.8,22.3l2-0.3V4.6l-2.5-0.3l0.1-1.1h6.9l0,1.4l-2.6,0.1V22h8.1l0.3-3.6h1.5l0,5h-13.8L100.8,22.3z"/>
			<path class="st1" d="M114.9,24h-14.8l0.2-2.1l1.9-0.3V5l-2.5-0.4l0.3-2.1h7.8l0,2.4l-2.6,0.1v16.5h7.1l0.3-3.6h2.4L114.9,24z
				 M101.2,23h12.8l0-4h-0.5l-0.3,3.6h-9V4.1l2.6-0.1l0-0.4h-6l0,0.2l2.4,0.3v18.2l-2,0.3L101.2,23z"/>
		</g>
		<g>
			<path class="st1" d="M119.7,22.2l1.7-0.3L128.7,3h1.7l7.1,18.9l1.8,0.3l-0.1,1.3h-6.4l0.2-1.3l2.5-0.1l-2.1-5.7h-8.1l-2.1,5.7
				l2.5,0.1l-0.1,1.3h-6L119.7,22.2z M132.9,14.8l-2.4-6.6l-1.1-2.9l-1.1,2.9l-2.5,6.5H132.9z"/>
			<path class="st1" d="M139.7,24h-7.4l0.3-2.3l2.2-0.1l-1.8-4.8h-7.4l-1.8,4.8l2.4,0.1L126,24h-7l0.3-2.2l1.8-0.4l7.3-18.9h2.3
				l7.2,19l2,0.3L139.7,24z M133.4,23h5.4l0-0.4l-1.6-0.3l-7.1-18.9h-1l-7.3,18.8l-1.7,0.3l0,0.3h5l0-0.4l-2.7-0.2l2.5-6.7h8.8
				l2.5,6.7l-2.7,0.2L133.4,23z M133.6,15.3H125l2.8-7.2l1.6-4.2l1.5,4.2L133.6,15.3z M126.5,14.3h5.7L130,8.4l-0.6-1.7l-0.6,1.7
				L126.5,14.3z"/>
		</g>
		<g>
			<path class="st1" d="M144.8,22.3l2.3-0.3V4.6l-2.5-0.3l0.1-1.2h4.3l11.6,17.6c0-0.1,0-0.6-0.1-1.5c0-0.9-0.1-1.8-0.1-2.5V4.6
				l-2.4-0.2l0.1-1.3h6.3l-0.1,1.4l-2.3,0v18.9h-2L148.6,5.8c0,0.1,0,0.6,0.1,1.6c0.1,1,0.1,1.9,0.1,2.7v12l2.6-0.1l-0.1,1.4h-6.5
				L144.8,22.3z"/>
			<path class="st1" d="M162.8,24H160L149.2,7.6c0,0.9,0.1,1.8,0.1,2.5v11.5l2.7-0.1l-0.2,2.4h-7.5l0.2-2.2l2.3-0.3V5.1l-2.5-0.3
				l0.2-2.2h5.1L160.2,19c0-0.8,0-1.6,0-2.3V5l-2.4-0.2l0.2-2.2h7.3L165.1,5l-2.3,0V24z M160.6,23h1.2V4.1l2.4,0l0-0.4h-5.4l0,0.3
				l2.4,0.2v12.6c0,0.8,0,1.6,0.1,2.5c0.1,1.2,0.1,1.5,0.1,1.5v1.6L148.9,3.6h-3.6l0,0.3l2.4,0.3v18.2l-2.4,0.3l0,0.3h5.6l0-0.4
				l-2.6,0.1V10.2c0-0.8,0-1.7-0.1-2.7c-0.1-1.5-0.1-1.6-0.1-1.6V4.2L160.6,23z"/>
		</g>
		<g>
			<path class="st1" d="M0.6,40.9l1.1-0.2v-9.1l-1.3-0.2l0.1-0.6h6.3l0-0.3h0.7v2.6H6.7l-0.1-1.5H2.7v4h3.7v0.8H2.7v4.5l1.6,0
				l-0.1,0.8H0.5L0.6,40.9z"/>
			<path class="st1" d="M4.3,41.7H0.4l0.1-0.8l1-0.2v-8.9l-1.3-0.2l0.1-0.8h6.3l0-0.3h0.9v2.8H6.6l-0.1-1.5H2.8v3.8h3.7v1H2.8v4.3
				l1.6,0L4.3,41.7z M0.6,41.5h3.5l0-0.6l-1.6,0v-4.7h3.7v-0.6H2.6v-4.2h4.1L6.8,33h0.6v-2.4H6.8l0,0.3H0.5l0,0.4l1.3,0.2v9.3
				L0.7,41L0.6,41.5z"/>
		</g>
		<g>
			<path class="st1" d="M9.8,40.7c-0.7-0.7-1-1.7-1-3c0-0.9,0.1-1.6,0.4-2.3c0.3-0.6,0.7-1.1,1.2-1.5c0.5-0.3,1.2-0.5,1.9-0.5
				c1,0,1.7,0.3,2.3,1c0.6,0.6,0.8,1.5,0.8,2.6v0.5l-1.1,0.1l-4.6,0c0,1.1,0.2,2,0.7,2.6c0.5,0.6,1.2,0.8,2.1,0.8
				c0.5,0,0.9,0,1.3-0.1c0.4-0.1,0.7-0.2,1.1-0.3l0.2,0.7c-0.4,0.2-0.8,0.3-1.2,0.4c-0.4,0.1-0.9,0.1-1.4,0.1
				C11.4,41.7,10.4,41.4,9.8,40.7z M14.4,36.8c0-0.8-0.2-1.4-0.5-1.9c-0.4-0.5-0.9-0.7-1.6-0.7c-0.7,0-1.3,0.2-1.7,0.7
				c-0.4,0.5-0.7,1.1-0.8,2H14.4z"/>
			<path class="st1" d="M12.5,41.8c-1.2,0-2.1-0.4-2.8-1.1c-0.7-0.7-1-1.8-1-3.1c0-0.9,0.1-1.6,0.4-2.3c0.3-0.7,0.7-1.2,1.3-1.5
				c0.5-0.4,1.2-0.5,1.9-0.5c1,0,1.8,0.3,2.4,1c0.6,0.7,0.9,1.6,0.9,2.7v0.6l-1.2,0.1l-4.5,0c0,1.1,0.3,1.9,0.7,2.4
				c0.5,0.5,1.1,0.8,2,0.8c0.5,0,0.9,0,1.2-0.1c0.4-0.1,0.7-0.2,1.1-0.3l0.1,0l0.2,0.9l-0.1,0c-0.4,0.2-0.8,0.3-1.2,0.4
				C13.6,41.8,13.1,41.8,12.5,41.8z M12.3,33.5c-0.7,0-1.3,0.2-1.8,0.5c-0.5,0.3-0.9,0.8-1.2,1.4C9,36,8.8,36.8,8.8,37.6
				c0,1.3,0.3,2.3,1,3l0,0c0.7,0.7,1.6,1,2.7,1c0.5,0,1,0,1.4-0.1c0.4-0.1,0.7-0.2,1.1-0.3l-0.1-0.5c-0.4,0.1-0.7,0.2-1,0.3
				c-0.4,0.1-0.8,0.1-1.3,0.1c-0.9,0-1.6-0.3-2.1-0.9c-0.5-0.6-0.8-1.5-0.8-2.6v-0.1l4.7,0l1-0.1V37c0-1.1-0.3-1.9-0.8-2.6
				C14,33.8,13.2,33.5,12.3,33.5z M14.5,36.9H9.7l0-0.1c0.1-0.9,0.3-1.5,0.8-2c0.5-0.5,1.1-0.7,1.8-0.7c0.7,0,1.3,0.3,1.7,0.8
				C14.4,35.3,14.5,36,14.5,36.9L14.5,36.9z M9.9,36.7h4.4c0-0.7-0.2-1.3-0.5-1.8c-0.4-0.5-0.8-0.7-1.5-0.7c-0.7,0-1.3,0.2-1.7,0.7
				C10.3,35.4,10,36,9.9,36.7z"/>
		</g>
		<g>
			<path class="st1" d="M17.3,41.2v-2H18l0.1,1.5c0.3,0.1,0.6,0.2,0.8,0.2c0.3,0.1,0.6,0.1,0.9,0.1c0.6,0,1.1-0.1,1.4-0.4
				c0.3-0.3,0.5-0.6,0.5-1c0-0.4-0.1-0.7-0.4-0.9c-0.3-0.3-0.8-0.5-1.6-0.8c-0.6-0.2-1.1-0.4-1.4-0.6c-0.4-0.2-0.6-0.4-0.8-0.7
				c-0.2-0.3-0.3-0.6-0.3-1.1c0-0.6,0.2-1.1,0.7-1.5c0.5-0.4,1.2-0.5,2-0.5c0.6,0,1.1,0.1,1.6,0.3l0.1-0.4h0.6l0.1,2.3h-0.7
				l-0.2-1.2c-0.5-0.2-0.9-0.3-1.5-0.3c-0.6,0-1,0.1-1.3,0.3c-0.3,0.2-0.5,0.5-0.5,0.9c0,0.3,0.1,0.5,0.2,0.7
				c0.1,0.2,0.3,0.4,0.6,0.5c0.3,0.2,0.7,0.3,1.3,0.5c0.9,0.3,1.5,0.6,1.9,1c0.4,0.3,0.6,0.8,0.6,1.4c0,0.7-0.3,1.3-0.8,1.7
				c-0.5,0.4-1.2,0.6-2.1,0.6C18.9,41.7,18,41.5,17.3,41.2z"/>
			<path class="st1" d="M19.9,41.8c-1.1-0.1-1.9-0.2-2.6-0.6l-0.1,0v-2.1h0.9l0.1,1.5c0.3,0.1,0.5,0.2,0.8,0.2
				c0.3,0.1,0.6,0.1,0.9,0.1c0.6,0,1.1-0.1,1.4-0.4c0.3-0.2,0.5-0.5,0.5-0.9c0-0.3-0.1-0.6-0.4-0.9c-0.3-0.2-0.8-0.5-1.5-0.8
				c-0.6-0.2-1.1-0.4-1.4-0.6c-0.4-0.2-0.6-0.5-0.8-0.8c-0.2-0.3-0.3-0.7-0.3-1.1c0-0.7,0.3-1.2,0.8-1.6c0.5-0.4,1.2-0.5,2.1-0.5
				c0.5,0,1,0.1,1.5,0.2l0.1-0.3h0.8l0.1,2.5h-0.9l-0.2-1.2c-0.4-0.2-0.9-0.2-1.4-0.2c-0.6,0-1,0.1-1.3,0.3
				c-0.3,0.2-0.4,0.5-0.4,0.8c0,0.2,0.1,0.4,0.2,0.6c0.1,0.2,0.3,0.3,0.6,0.5c0.3,0.2,0.7,0.3,1.3,0.5c0.9,0.3,1.5,0.7,1.9,1
				c0.4,0.4,0.6,0.9,0.6,1.5c0,0.8-0.3,1.4-0.8,1.8C21.6,41.6,20.8,41.8,19.9,41.8z M17.4,41.1c0.7,0.3,1.5,0.5,2.5,0.5
				c0.9,0,1.6-0.2,2.1-0.6c0.5-0.4,0.7-0.9,0.7-1.6c0-0.6-0.2-1-0.5-1.3c-0.4-0.3-1-0.7-1.8-1c-0.6-0.2-1-0.4-1.3-0.6
				c-0.3-0.2-0.5-0.4-0.6-0.6c-0.1-0.2-0.2-0.4-0.2-0.7c0-0.4,0.2-0.7,0.5-0.9c0.3-0.2,0.8-0.3,1.4-0.3c0.6,0,1.1,0.1,1.5,0.3l0.1,0
				l0.2,1.2h0.5l-0.1-2.1h-0.5l-0.1,0.4l-0.1,0c-0.5-0.2-1-0.3-1.5-0.3c-0.8,0-1.5,0.2-2,0.5c-0.5,0.3-0.7,0.8-0.7,1.4
				c0,0.4,0.1,0.8,0.3,1c0.2,0.3,0.4,0.5,0.8,0.7c0.3,0.2,0.8,0.4,1.4,0.6c0.8,0.3,1.3,0.6,1.6,0.8c0.3,0.3,0.5,0.6,0.5,1
				c0,0.5-0.2,0.8-0.6,1.1c-0.4,0.3-0.9,0.4-1.5,0.4c-0.4,0-0.7,0-0.9-0.1c-0.3-0.1-0.6-0.1-0.9-0.2l-0.1,0l-0.1-1.4h-0.5V41.1z"/>
		</g>
		<g>
			<path class="st1" d="M25.6,41.2c-0.3-0.3-0.5-0.9-0.5-1.8v-5.1h-1.2l0-0.5l1.2-0.4l0.2-1.8l0.8,0v1.9h2.4l-0.1,0.8h-2.3v5
				c0,0.6,0.1,1,0.3,1.2c0.2,0.2,0.5,0.4,0.9,0.4c0.4,0,0.8-0.1,1.2-0.2l0.1,0.7c-0.2,0.1-0.4,0.2-0.7,0.2c-0.3,0.1-0.5,0.1-0.8,0.1
				C26.4,41.7,25.9,41.6,25.6,41.2z"/>
			<path class="st1" d="M27.1,41.8c-0.7,0-1.2-0.2-1.6-0.5c-0.4-0.4-0.5-1-0.5-1.8v-5h-1.2l0-0.7l1.2-0.4l0.2-1.8l1-0.1v1.9h2.4
				l-0.1,1h-2.3v4.9c0,0.5,0.1,0.9,0.3,1.1c0.2,0.2,0.5,0.3,0.8,0.3c0.4,0,0.7-0.1,1.1-0.2l0.1,0l0.1,0.9l-0.1,0
				c-0.2,0.1-0.4,0.2-0.7,0.2C27.6,41.8,27.3,41.8,27.1,41.8z M24,34.2h1.2v5.2c0,0.8,0.2,1.4,0.5,1.7h0c0.3,0.3,0.8,0.5,1.4,0.5
				c0.2,0,0.5,0,0.8-0.1c0.2,0,0.4-0.1,0.6-0.2l-0.1-0.5C28,41,27.6,41,27.3,41c-0.4,0-0.8-0.1-1-0.4c-0.2-0.3-0.3-0.7-0.3-1.3v-5.1
				h2.3l0.1-0.6H26v-1.9l-0.6,0l-0.2,1.8L24,33.9L24,34.2z"/>
		</g>
		<g>
			<path class="st1" d="M29.8,40.9l1.1-0.2v-6.3l-1.1-0.1l-0.1-0.7l2.2-0.2v7.4l1.3,0l-0.1,0.7h-3.4L29.8,40.9z M31,31.8
				c-0.1-0.1-0.2-0.3-0.2-0.5c0-0.2,0.1-0.4,0.2-0.5c0.1-0.1,0.3-0.2,0.5-0.2c0.2,0,0.3,0.1,0.4,0.2c0.1,0.1,0.2,0.3,0.2,0.5
				c0,0.2-0.1,0.4-0.2,0.5c-0.1,0.1-0.3,0.2-0.5,0.2C31.2,32,31.1,31.9,31,31.8z"/>
			<path class="st1" d="M33.2,41.7h-3.6l0.1-0.8l1.1-0.1v-6.1l-1.1-0.1l-0.1-0.9l2.4-0.2v7.4l1.3,0L33.2,41.7z M29.8,41.5H33
				l0.1-0.5l-1.3,0v-7.3l-2,0.1l0.1,0.5l1.1,0.1v6.5L29.9,41L29.8,41.5z M31.4,32.1c-0.2,0-0.4-0.1-0.5-0.2
				c-0.1-0.1-0.2-0.3-0.2-0.6c0-0.2,0.1-0.4,0.2-0.6c0.1-0.1,0.3-0.2,0.5-0.2c0.2,0,0.4,0.1,0.5,0.2c0.1,0.1,0.2,0.3,0.2,0.6
				c0,0.2-0.1,0.4-0.2,0.6C31.8,32,31.7,32.1,31.4,32.1z M31.5,30.7c-0.2,0-0.3,0-0.4,0.1c-0.1,0.1-0.1,0.2-0.1,0.4
				c0,0.2,0,0.4,0.1,0.5h0c0.1,0.1,0.2,0.1,0.4,0.1c0.2,0,0.3,0,0.4-0.1c0.1-0.1,0.1-0.3,0.1-0.4c0-0.2,0-0.4-0.1-0.4
				C31.7,30.8,31.6,30.7,31.5,30.7z"/>
		</g>
		<g>
			<path class="st1" d="M34.5,34.3l-0.8-0.1l0.1-0.7h2.8l-0.1,0.7l-1,0.1l1.6,4.6c0.1,0.4,0.3,1,0.5,1.7l0.6-1.7l1.7-4.6l-1-0.1
				l0.1-0.7h2.6l-0.1,0.7l-0.8,0.1l-2.7,7.2h-0.9L34.5,34.3z"/>
			<path class="st1" d="M38.2,41.7h-1.1l-2.7-7.2l-0.8-0.1l0.1-0.9h3l-0.1,0.9l-0.9,0.1l1.6,4.5c0.1,0.3,0.3,0.8,0.5,1.4l0.5-1.4
				l1.6-4.5l-1-0.1l0.1-0.9h2.8l-0.1,0.9l-0.8,0.1L38.2,41.7z M37.2,41.5H38l2.6-7.2l0.8-0.1l0.1-0.5h-2.4L39,34.2l1,0.1L38.3,39
				l-0.7,2l-0.1-0.3c-0.2-0.7-0.4-1.3-0.5-1.7l-1.7-4.7l1-0.1l0.1-0.5h-2.6l-0.1,0.5l0.7,0.1L37.2,41.5z"/>
		</g>
		<g>
			<path class="st1" d="M42.8,41.1c-0.5-0.4-0.7-1-0.7-1.7c0-0.8,0.3-1.4,1-1.8c0.6-0.4,1.6-0.7,2.8-0.7l1.5,0v-0.5
				c0-0.7-0.2-1.3-0.5-1.6c-0.3-0.4-0.8-0.6-1.4-0.6c-0.6,0-1.2,0.1-1.7,0.4l-0.1,1H43L42.9,34c0.4-0.2,0.9-0.3,1.3-0.5
				c0.4-0.1,0.9-0.2,1.4-0.2c0.9,0,1.6,0.2,2.1,0.7c0.4,0.5,0.7,1.2,0.7,2.1v4.6l1,0.1l-0.1,0.7l-2,0l0.1-1.3h-0.1
				c-0.4,0.5-0.8,0.8-1.2,1.1c-0.4,0.2-0.9,0.3-1.6,0.3C43.9,41.7,43.3,41.5,42.8,41.1z M46.7,40.3c0.5-0.4,0.7-1.1,0.7-1.9v-0.8
				l-1.3,0.1c-1.1,0-1.8,0.2-2.3,0.5c-0.4,0.3-0.7,0.8-0.7,1.3c0,0.5,0.1,0.9,0.4,1.1c0.3,0.3,0.7,0.4,1.2,0.4
				C45.6,40.9,46.2,40.7,46.7,40.3z"/>
			<path class="st1" d="M44.6,41.8c-0.8,0-1.4-0.2-1.9-0.6l0,0c-0.5-0.4-0.7-1-0.7-1.8c0-0.8,0.3-1.5,1-1.9c0.7-0.4,1.6-0.7,2.9-0.7
				l1.4,0v-0.4c0-0.7-0.1-1.2-0.4-1.6c-0.3-0.3-0.7-0.5-1.3-0.5c-0.6,0-1.1,0.1-1.6,0.3l-0.1,1h-0.9L42.8,34l0.1,0
				c0.4-0.2,0.9-0.3,1.3-0.5c0.4-0.1,0.9-0.2,1.5-0.2c1,0,1.7,0.3,2.1,0.8c0.5,0.5,0.7,1.2,0.7,2.2v4.5l1,0.1l-0.1,0.8l-2.1,0
				l0.1-1.1c-0.3,0.4-0.7,0.7-1.1,0.9C45.8,41.7,45.3,41.8,44.6,41.8z M42.9,41.1c0.4,0.4,1,0.6,1.7,0.6c0.6,0,1.1-0.1,1.5-0.3
				c0.4-0.2,0.8-0.6,1.1-1l0,0h0.2l-0.1,1.3l1.8,0l0.1-0.5l-1-0.1v-4.6c0-0.9-0.2-1.6-0.6-2.1c-0.4-0.5-1.1-0.7-2-0.7
				c-0.5,0-1,0.1-1.4,0.2c-0.4,0.1-0.8,0.3-1.2,0.4l0.1,1.3h0.5l0.1-0.9l0,0c0.6-0.3,1.2-0.4,1.8-0.4c0.7,0,1.2,0.2,1.5,0.6
				c0.3,0.4,0.5,1,0.5,1.7v0.6l-1.6,0c-1.2,0-2.2,0.3-2.8,0.7c-0.6,0.4-0.9,1-0.9,1.7C42.2,40.1,42.5,40.7,42.9,41.1L42.9,41.1z
				 M44.8,41c-0.5,0-1-0.1-1.3-0.4c-0.3-0.3-0.5-0.7-0.5-1.2c0-0.6,0.2-1.1,0.7-1.4c0.5-0.3,1.2-0.5,2.3-0.5l1.4-0.1v0.9
				c0,0.9-0.3,1.5-0.8,2C46.3,40.8,45.6,41,44.8,41z M47.3,37.6l-1.2,0.1c-1,0-1.8,0.2-2.2,0.5c-0.4,0.3-0.6,0.7-0.6,1.3
				c0,0.5,0.1,0.8,0.4,1c0.3,0.2,0.7,0.4,1.1,0.4c0.7,0,1.3-0.2,1.8-0.6v0c0.5-0.4,0.7-1.1,0.7-1.9V37.6z"/>
		</g>
		<g>
			<path class="st1" d="M50.9,40.9l0.9-0.2v-9.7l-1.2-0.1l-0.1-0.7l2.2-0.2v10.7l1.3,0l-0.1,0.7h-3.3L50.9,40.9z"/>
			<path class="st1" d="M54.1,41.7h-3.5l0.1-0.8l0.9-0.1v-9.5L50.6,31l-0.1-0.8l2.4-0.2v10.7l1.3,0L54.1,41.7z M50.9,41.5H54
				l0.1-0.5l-1.3,0V30.2l-2,0.1l0.1,0.5l1.2,0.1v9.9L51,41L50.9,41.5z"/>
		</g>
		<g>
			<path class="st1" d="M60.2,40.7c-0.6-0.7-0.9-1.7-0.9-3.1c0-1.4,0.3-2.5,0.9-3.2c0.6-0.7,1.4-1.1,2.5-1.1c1.1,0,2,0.5,2.6,1.6h0
				c0-0.1,0-0.3,0-0.6c0-0.3,0-0.6,0-1v-2.2L64,30.9L64,30.3l2.3-0.2v10.7l1.1,0.2l-0.1,0.6l-2,0l0.1-1.4h-0.1
				c-0.3,0.4-0.6,0.8-1,1.1c-0.4,0.3-0.9,0.4-1.5,0.4C61.6,41.7,60.8,41.4,60.2,40.7z M64.1,40.6c0.4-0.2,0.6-0.5,0.8-0.9
				c0.2-0.4,0.3-0.7,0.3-1.1v-2.2c0-0.4-0.1-0.7-0.3-1.1c-0.2-0.4-0.5-0.7-0.8-0.9c-0.4-0.2-0.8-0.4-1.3-0.4c-0.8,0-1.4,0.3-1.8,0.9
				c-0.4,0.6-0.6,1.5-0.6,2.6c0,1.1,0.2,1.9,0.6,2.5c0.4,0.6,1,0.8,1.8,0.8C63.3,40.9,63.8,40.8,64.1,40.6z"/>
			<path class="st1" d="M62.7,41.8c-1.1,0-2-0.3-2.6-1h0c-0.6-0.7-0.9-1.7-0.9-3.1c0-1.5,0.3-2.6,0.9-3.3c0.6-0.7,1.4-1.1,2.6-1.1
				c1.1,0,1.9,0.5,2.5,1.3c0-0.1,0-0.2,0-0.3c0-0.3,0-0.6,0-1v-2.2L64,31l-0.1-0.8l2.5-0.2v10.7l1.2,0.2l-0.1,0.8l-2.2,0l0.1-1.2
				c-0.3,0.4-0.6,0.7-0.9,0.9C63.8,41.7,63.3,41.8,62.7,41.8z M62.7,33.5c-1.1,0-1.9,0.3-2.4,1c-0.6,0.7-0.8,1.7-0.8,3.2
				c0,1.3,0.3,2.4,0.8,3h0c0.6,0.6,1.4,1,2.4,1c0.6,0,1.1-0.1,1.5-0.4c0.4-0.3,0.8-0.6,1-1l0,0h0.2l-0.1,1.4l1.8,0l0.1-0.5l-1.1-0.2
				V30.2l-2.1,0.1l0.1,0.5l1.2,0.2v2.3c0,0.3,0,0.7,0,1c0,0.3,0,0.5,0,0.6l0,0.1h-0.2l0,0C64.6,34,63.8,33.5,62.7,33.5z M62.8,41
				c-0.8,0-1.5-0.3-1.9-0.9c-0.4-0.6-0.6-1.4-0.6-2.5c0-1.1,0.2-2,0.6-2.6c0.4-0.6,1.1-0.9,1.9-0.9c0.5,0,1,0.1,1.4,0.4
				c0.4,0.2,0.7,0.6,0.9,0.9c0.2,0.4,0.3,0.7,0.3,1.1v2.2c0,0.4-0.1,0.8-0.3,1.1c-0.2,0.4-0.5,0.7-0.9,0.9
				C63.8,40.9,63.3,41,62.8,41z M62.8,34.3c-0.8,0-1.3,0.3-1.7,0.8c-0.4,0.6-0.6,1.4-0.6,2.5c0,1.1,0.2,1.9,0.6,2.4
				c0.4,0.5,1,0.8,1.8,0.8c0.5,0,0.9-0.1,1.3-0.3l0,0c0.3-0.2,0.6-0.5,0.8-0.8c0.2-0.3,0.3-0.7,0.3-1.1v-2.2c0-0.3-0.1-0.7-0.3-1
				c-0.2-0.3-0.5-0.6-0.8-0.9C63.7,34.4,63.3,34.3,62.8,34.3z"/>
		</g>
		<g>
			<path class="st1" d="M69.5,40.7c-0.7-0.7-1-1.7-1-3c0-0.9,0.1-1.6,0.4-2.3c0.3-0.6,0.7-1.1,1.2-1.5c0.5-0.3,1.2-0.5,1.9-0.5
				c1,0,1.7,0.3,2.3,1c0.6,0.6,0.8,1.5,0.8,2.6v0.5l-1.1,0.1l-4.6,0c0,1.1,0.2,2,0.7,2.6c0.5,0.6,1.2,0.8,2.1,0.8
				c0.5,0,0.9,0,1.3-0.1c0.4-0.1,0.7-0.2,1.1-0.3l0.2,0.7c-0.4,0.2-0.8,0.3-1.2,0.4c-0.4,0.1-0.9,0.1-1.4,0.1
				C71.1,41.7,70.2,41.4,69.5,40.7z M74.2,36.8c0-0.8-0.2-1.4-0.5-1.9c-0.4-0.5-0.9-0.7-1.6-0.7c-0.7,0-1.3,0.2-1.7,0.7
				c-0.4,0.5-0.7,1.1-0.8,2H74.2z"/>
			<path class="st1" d="M72.3,41.8c-1.2,0-2.1-0.4-2.8-1.1c-0.7-0.7-1-1.8-1-3.1c0-0.9,0.1-1.6,0.4-2.3c0.3-0.7,0.7-1.2,1.3-1.5
				c0.5-0.4,1.2-0.5,1.9-0.5c1,0,1.8,0.3,2.4,1c0.6,0.7,0.9,1.6,0.9,2.7v0.6l-1.2,0.1l-4.5,0c0,1.1,0.3,1.9,0.7,2.4
				c0.5,0.5,1.1,0.8,2,0.8c0.5,0,0.9,0,1.2-0.1c0.4-0.1,0.7-0.2,1.1-0.3l0.1,0l0.2,0.9l-0.1,0c-0.4,0.2-0.8,0.3-1.2,0.4
				C73.3,41.8,72.9,41.8,72.3,41.8z M72.1,33.5c-0.7,0-1.3,0.2-1.8,0.5c-0.5,0.3-0.9,0.8-1.2,1.4c-0.3,0.6-0.4,1.4-0.4,2.2
				c0,1.3,0.3,2.3,1,3l0,0c0.7,0.7,1.6,1,2.7,1c0.5,0,1,0,1.4-0.1c0.4-0.1,0.7-0.2,1.1-0.3l-0.1-0.5c-0.4,0.1-0.7,0.2-1,0.3
				c-0.4,0.1-0.8,0.1-1.3,0.1c-0.9,0-1.6-0.3-2.1-0.9c-0.5-0.6-0.8-1.5-0.8-2.6v-0.1l4.7,0l1-0.1V37c0-1.1-0.3-1.9-0.8-2.6
				C73.8,33.8,73,33.5,72.1,33.5z M74.3,36.9h-4.8l0-0.1c0.1-0.9,0.3-1.5,0.8-2c0.5-0.5,1.1-0.7,1.8-0.7c0.7,0,1.3,0.3,1.7,0.8
				C74.1,35.3,74.3,36,74.3,36.9L74.3,36.9z M69.7,36.7h4.4c0-0.7-0.2-1.3-0.5-1.8c-0.4-0.5-0.8-0.7-1.5-0.7c-0.7,0-1.3,0.2-1.7,0.7
				C70,35.4,69.8,36,69.7,36.7z"/>
		</g>
		<g>
			<path class="st1" d="M79.5,44.2l-0.1-1.6h0.7l0.2,0.8c0.1,0.1,0.4,0.1,0.7,0.1c0.3,0,0.5-0.1,0.7-0.4c0.2-0.3,0.3-0.7,0.3-1.2
				V31.6l-1.4-0.2l0.1-0.6h3.5L84,31.6l-1.1,0v10.2c0,0.9-0.2,1.5-0.6,2c-0.4,0.4-0.9,0.6-1.5,0.6C80.4,44.4,80,44.3,79.5,44.2z"/>
			<path class="st1" d="M80.9,44.7c-0.5,0-1-0.1-1.5-0.2l-0.2,0L79,42.4h1.2l0.2,0.8c0.1,0,0.2,0,0.5,0c0.1,0,0.3,0,0.5-0.3
				c0.2-0.2,0.2-0.6,0.2-1v-10l-1.5-0.2l0.1-1.2h4.1l-0.1,1.3l-1,0v9.9c0,1-0.2,1.7-0.7,2.2C82.1,44.4,81.6,44.7,80.9,44.7z
				 M79.8,44c0.4,0.1,0.8,0.1,1.2,0.1c0.5,0,0.9-0.2,1.3-0.5c0.3-0.4,0.5-0.9,0.5-1.7V31.3l1.1,0l0-0.2h-2.9l0,0.1l1.4,0.2v10.5
				c0,0.6-0.1,1-0.3,1.4c-0.3,0.4-0.6,0.5-1,0.5c-0.5,0-0.7-0.1-0.8-0.1L80,43.6l-0.2-0.7h-0.1L79.8,44z"/>
		</g>
		<g>
			<path class="st1" d="M85.9,41.1c-0.5-0.4-0.7-1-0.7-1.7c0-0.8,0.3-1.4,1-1.8c0.6-0.4,1.6-0.7,2.8-0.7l1.5,0v-0.5
				c0-0.7-0.2-1.3-0.5-1.6c-0.3-0.4-0.8-0.6-1.4-0.6c-0.6,0-1.2,0.1-1.7,0.4l-0.1,1h-0.7L86,34c0.4-0.2,0.9-0.3,1.3-0.5
				c0.4-0.1,0.9-0.2,1.4-0.2c0.9,0,1.6,0.2,2.1,0.7c0.4,0.5,0.7,1.2,0.7,2.1v4.6l1,0.1l-0.1,0.7l-2,0l0.1-1.3h-0.1
				c-0.4,0.5-0.8,0.8-1.2,1.1c-0.4,0.2-0.9,0.3-1.6,0.3C87,41.7,86.4,41.5,85.9,41.1z M89.8,40.3c0.5-0.4,0.7-1.1,0.7-1.9v-0.8
				l-1.3,0.1c-1.1,0-1.8,0.2-2.3,0.5c-0.4,0.3-0.7,0.8-0.7,1.3c0,0.5,0.1,0.9,0.4,1.1c0.3,0.3,0.7,0.4,1.2,0.4
				C88.7,40.9,89.3,40.7,89.8,40.3z"/>
			<path class="st1" d="M87.7,42c-0.8,0-1.5-0.2-2-0.7l0,0c-0.5-0.4-0.8-1.1-0.8-2c0-0.9,0.4-1.6,1.1-2.1c0.7-0.5,1.7-0.7,3-0.8
				l1.2,0v-0.2c0-0.7-0.1-1.1-0.4-1.5c-0.2-0.3-0.6-0.4-1.2-0.4c-0.5,0-1,0.1-1.4,0.3l-0.1,1.1h-1.2l-0.1-1.9l0.2-0.1
				c0.4-0.2,0.9-0.4,1.3-0.5c0.5-0.1,1-0.2,1.5-0.2c1,0,1.8,0.3,2.3,0.8c0.5,0.5,0.7,1.3,0.7,2.3v4.3l1.1,0.1l-0.2,1.2l-2.5,0l0-0.8
				c-0.2,0.2-0.5,0.4-0.8,0.6C89,41.9,88.4,42,87.7,42z M86.1,40.9c0.4,0.3,0.9,0.5,1.6,0.5c0.6,0,1.1-0.1,1.4-0.3
				c0.2-0.1,0.4-0.3,0.7-0.5c-0.5,0.4-1.1,0.6-1.9,0.6c-0.6,0-1.1-0.2-1.4-0.5C86.2,40.4,86,40,86,39.4c0-0.7,0.3-1.2,0.8-1.6
				c0.5-0.3,1.3-0.5,2.4-0.6l1.6-0.1v1.1c0,0.7-0.1,1.3-0.4,1.7h0.5l-0.1,1.3l1.4,0l0-0.1l-1-0.1v-4.8c0-0.9-0.2-1.5-0.6-1.9
				c-0.4-0.4-1-0.6-1.8-0.6c-0.5,0-1,0.1-1.4,0.2c-0.4,0.1-0.7,0.2-1.1,0.4l0.1,1h0.2l0.1-0.9l0.1-0.1c0.6-0.3,1.2-0.4,1.8-0.4
				c0.7,0,1.3,0.2,1.6,0.7c0.3,0.4,0.5,1,0.5,1.8v0.8L89,37.2c-1.2,0-2.1,0.2-2.7,0.6c-0.6,0.4-0.8,0.9-0.8,1.6
				C85.5,40.1,85.7,40.6,86.1,40.9L86.1,40.9z M90.2,37.8l-1,0c-1,0-1.7,0.2-2.1,0.5c-0.4,0.3-0.5,0.6-0.5,1.1
				c0,0.4,0.1,0.7,0.3,0.9c0.2,0.2,0.6,0.3,1,0.3c0.7,0,1.2-0.2,1.7-0.6l0,0c0.4-0.4,0.6-1,0.6-1.7V37.8z"/>
		</g>
		<g>
			<path class="st1" d="M98.9,41.6h-5.3V41l4.6-6.6h-3.5l-0.2,1.3h-0.7l0.1-2.4h0.6l0.1,0.3h4.7v0.6l-4.6,6.6h4l0.1-1.6h0.7v2.6
				h-0.7L98.9,41.6z"/>
			<path class="st1" d="M99.9,42.1h-1.2l0-0.2h-5.4v-1l4.3-6.3h-2.7l-0.2,1.3h-1.3l0.1-3h1.1l0.1,0.3h4.8v1l-4.3,6.2h3.2l0.1-1.6
				h1.3V42.1z M99.1,41.5h0.2v-2h-0.1l-0.1,1.6h-4.9l4.9-7v-0.2h-4.6l-0.1-0.3h-0.2l-0.1,1.8h0.1l0.2-1.3h4.3l-4.9,7v0.2h5.2
				L99.1,41.5z"/>
		</g>
		<g>
			<path class="st1" d="M106.2,41.6h-5.3V41l4.6-6.6h-3.5l-0.2,1.3h-0.7l0.1-2.4h0.6l0.1,0.3h4.7v0.6l-4.6,6.6h4l0.1-1.6h0.7v2.6
				h-0.7L106.2,41.6z"/>
			<path class="st1" d="M107.3,42.1h-1.2l0-0.2h-5.4v-1l4.3-6.3h-2.7l-0.2,1.3h-1.3l0.1-3h1.1l0.1,0.3h4.8v1l-4.3,6.2h3.2l0.1-1.6
				h1.3V42.1z M106.5,41.5h0.2v-2h-0.1l-0.1,1.6h-4.9l4.9-7v-0.2h-4.6l-0.1-0.3h-0.2l-0.1,1.8h0.1l0.2-1.3h4.3l-4.9,7v0.2h5.2
				L106.5,41.5z"/>
		</g>
		<g>
			<path class="st1" d="M113.1,40.7c-0.6-0.7-0.9-1.7-0.9-3.1c0-1.4,0.3-2.5,0.9-3.2c0.6-0.7,1.4-1.1,2.5-1.1c1.1,0,2,0.5,2.6,1.6h0
				c0-0.1,0-0.3,0-0.6c0-0.3,0-0.6,0-1v-2.2l-1.2-0.2l-0.1-0.7l2.3-0.2v10.7l1.1,0.2l-0.1,0.6l-2,0l0.1-1.4h-0.1
				c-0.3,0.4-0.6,0.8-1,1.1c-0.4,0.3-0.9,0.4-1.5,0.4C114.5,41.7,113.7,41.4,113.1,40.7z M117.1,40.6c0.4-0.2,0.6-0.5,0.8-0.9
				c0.2-0.4,0.3-0.7,0.3-1.1v-2.2c0-0.4-0.1-0.7-0.3-1.1c-0.2-0.4-0.5-0.7-0.8-0.9c-0.4-0.2-0.8-0.4-1.3-0.4c-0.8,0-1.4,0.3-1.8,0.9
				c-0.4,0.6-0.6,1.5-0.6,2.6c0,1.1,0.2,1.9,0.6,2.5c0.4,0.6,1,0.8,1.8,0.8C116.3,40.9,116.7,40.8,117.1,40.6z"/>
			<path class="st1" d="M115.6,41.8c-1.1,0-2-0.3-2.6-1c-0.6-0.7-0.9-1.7-0.9-3.1c0-1.5,0.3-2.6,0.9-3.3c0.6-0.7,1.4-1.1,2.6-1.1
				c1.1,0,1.9,0.5,2.5,1.3c0-0.1,0-0.2,0-0.3c0-0.3,0-0.6,0-1v-2.2l-1.2-0.1l-0.1-0.8l2.5-0.2v10.7l1.2,0.2l-0.1,0.8l-2.2,0l0.1-1.2
				c-0.3,0.4-0.6,0.7-1,0.9C116.8,41.7,116.2,41.8,115.6,41.8z M115.6,33.5c-1.1,0-1.9,0.3-2.4,1c-0.6,0.7-0.8,1.7-0.8,3.2
				c0,1.3,0.3,2.4,0.8,3l0,0c0.6,0.6,1.4,1,2.4,1c0.6,0,1.1-0.1,1.5-0.4c0.4-0.3,0.8-0.6,1-1l0,0h0.2l-0.1,1.4l1.8,0l0.1-0.5
				l-1.1-0.2V30.2l-2,0.1l0.1,0.5l1.2,0.2v2.3c0,0.3,0,0.7,0,1c0,0.3,0,0.5,0,0.6l0,0.1h-0.2l0,0C117.5,34,116.7,33.5,115.6,33.5z
				 M115.7,41c-0.8,0-1.5-0.3-1.9-0.9c-0.4-0.6-0.6-1.4-0.6-2.5c0-1.1,0.2-2,0.6-2.6c0.4-0.6,1.1-0.9,1.9-0.9c0.5,0,1,0.1,1.4,0.4
				c0.4,0.2,0.7,0.6,0.9,0.9c0.2,0.4,0.3,0.7,0.3,1.1v2.2c0,0.4-0.1,0.8-0.3,1.1c-0.2,0.4-0.5,0.7-0.9,0.9
				C116.8,40.9,116.3,41,115.7,41z M115.7,34.3c-0.8,0-1.3,0.3-1.7,0.8c-0.4,0.6-0.6,1.4-0.6,2.5c0,1.1,0.2,1.9,0.6,2.4
				c0.4,0.5,1,0.8,1.8,0.8c0.5,0,0.9-0.1,1.3-0.3l0,0c0.3-0.2,0.6-0.5,0.8-0.8c0.2-0.3,0.3-0.7,0.3-1.1v-2.2c0-0.3-0.1-0.7-0.3-1
				c-0.2-0.3-0.5-0.6-0.8-0.9C116.7,34.4,116.2,34.3,115.7,34.3z"/>
		</g>
		<g>
			<path class="st1" d="M122.5,40.7c-0.7-0.7-1-1.7-1-3c0-0.9,0.1-1.6,0.4-2.3c0.3-0.6,0.7-1.1,1.2-1.5c0.5-0.3,1.2-0.5,1.9-0.5
				c1,0,1.7,0.3,2.3,1c0.6,0.6,0.8,1.5,0.8,2.6v0.5l-1.1,0.1l-4.6,0c0,1.1,0.2,2,0.7,2.6c0.5,0.6,1.2,0.8,2.1,0.8
				c0.5,0,0.9,0,1.3-0.1c0.4-0.1,0.7-0.2,1.1-0.3l0.2,0.7c-0.4,0.2-0.8,0.3-1.2,0.4c-0.4,0.1-0.9,0.1-1.4,0.1
				C124.1,41.7,123.2,41.4,122.5,40.7z M127.2,36.8c0-0.8-0.2-1.4-0.5-1.9c-0.4-0.5-0.9-0.7-1.6-0.7c-0.7,0-1.3,0.2-1.7,0.7
				c-0.4,0.5-0.7,1.1-0.8,2H127.2z"/>
			<path class="st1" d="M125.3,41.8c-1.2,0-2.1-0.4-2.8-1.1h0c-0.7-0.7-1-1.8-1-3.1c0-0.9,0.2-1.6,0.4-2.3c0.3-0.7,0.7-1.2,1.3-1.5
				c0.5-0.4,1.2-0.5,1.9-0.5c1,0,1.8,0.3,2.4,1c0.6,0.7,0.9,1.6,0.9,2.7v0.6l-1.2,0.1l-4.5,0c0,1.1,0.3,1.9,0.7,2.4
				c0.5,0.5,1.1,0.8,2,0.8c0.5,0,0.9,0,1.2-0.1c0.4-0.1,0.7-0.2,1.1-0.3l0.1,0l0.2,0.9l-0.1,0c-0.4,0.2-0.8,0.3-1.2,0.4
				C126.3,41.8,125.8,41.8,125.3,41.8z M125,33.5c-0.7,0-1.3,0.2-1.8,0.5c-0.5,0.3-0.9,0.8-1.2,1.4c-0.3,0.6-0.4,1.4-0.4,2.2
				c0,1.3,0.3,2.3,1,3h0c0.7,0.7,1.6,1,2.7,1c0.5,0,1,0,1.4-0.1c0.4-0.1,0.7-0.2,1.1-0.3l-0.1-0.5c-0.4,0.1-0.7,0.2-1,0.3
				c-0.4,0.1-0.8,0.1-1.3,0.1c-0.9,0-1.6-0.3-2.1-0.9c-0.5-0.6-0.8-1.5-0.8-2.6v-0.1l4.7,0l1-0.1V37c0-1.1-0.3-1.9-0.8-2.6
				C126.7,33.8,126,33.5,125,33.5z M127.3,36.9h-4.8l0-0.1c0.1-0.9,0.3-1.5,0.8-2c0.5-0.5,1.1-0.7,1.8-0.7c0.7,0,1.3,0.3,1.7,0.8
				C127.1,35.3,127.3,36,127.3,36.9L127.3,36.9z M122.7,36.7h4.4c0-0.7-0.2-1.3-0.5-1.8c-0.4-0.5-0.8-0.7-1.5-0.7
				c-0.7,0-1.3,0.2-1.7,0.7C123,35.4,122.7,36,122.7,36.7z"/>
		</g>
		<g>
			<path class="st1" d="M130.1,40.9l0.9-0.2v-9.7l-1.2-0.1l-0.1-0.7l2.2-0.2v10.7l1.3,0l-0.1,0.7H130L130.1,40.9z"/>
			<path class="st1" d="M133.3,41.7h-3.5l0.1-0.8l0.9-0.1v-9.5l-1.2-0.1l-0.1-0.8l2.4-0.2v10.7l1.3,0L133.3,41.7z M130.1,41.5h3.1
				l0.1-0.5l-1.3,0V30.2l-2,0.1l0.1,0.5l1.2,0.1v9.9l-1,0.2L130.1,41.5z"/>
		</g>
		<g>
			<path class="st1" d="M140.8,41c-0.7-0.5-1.3-1.1-1.7-2c-0.4-0.8-0.6-1.8-0.6-2.9c0-1.1,0.2-2.1,0.6-2.9c0.4-0.8,0.9-1.5,1.7-1.9
				c0.7-0.5,1.6-0.7,2.7-0.7c1,0,1.9,0.2,2.6,0.7c0.7,0.5,1.3,1.1,1.7,1.9c0.4,0.8,0.6,1.8,0.6,2.9s-0.2,2.1-0.6,2.9
				c-0.4,0.8-0.9,1.5-1.7,1.9c-0.7,0.5-1.6,0.7-2.6,0.7S141.5,41.5,140.8,41z M146.3,39.7c0.6-0.8,0.9-2,0.9-3.5s-0.3-2.6-0.9-3.5
				c-0.6-0.8-1.6-1.3-2.8-1.3c-1.2,0-2.2,0.4-2.8,1.3c-0.6,0.8-1,2-1,3.5c0,1.5,0.3,2.6,1,3.5c0.6,0.8,1.6,1.3,2.8,1.3
				C144.7,40.9,145.6,40.5,146.3,39.7z"/>
			<path class="st1" d="M143.5,41.8c-1,0-2-0.2-2.7-0.7c-0.7-0.5-1.3-1.1-1.7-2c-0.4-0.8-0.6-1.8-0.6-3c0-1.1,0.2-2.1,0.6-2.9
				c0.4-0.8,0.9-1.5,1.7-2c0.7-0.5,1.7-0.7,2.7-0.7c1,0,1.9,0.2,2.7,0.7c0.7,0.5,1.3,1.1,1.7,2c0.4,0.8,0.6,1.8,0.6,3
				c0,1.1-0.2,2.1-0.6,3c-0.4,0.8-1,1.5-1.7,2C145.4,41.6,144.5,41.8,143.5,41.8z M143.5,30.8c-1,0-1.9,0.2-2.6,0.7
				c-0.7,0.4-1.3,1.1-1.6,1.9c-0.4,0.8-0.5,1.8-0.5,2.8c0,1.1,0.2,2.1,0.5,2.9c0.4,0.8,0.9,1.5,1.6,1.9l0,0c0.7,0.4,1.6,0.7,2.6,0.7
				c1,0,1.9-0.2,2.6-0.7c0.7-0.4,1.3-1.1,1.6-1.9c0.4-0.8,0.6-1.8,0.6-2.9c0-1.1-0.2-2.1-0.6-2.9c-0.4-0.8-0.9-1.4-1.6-1.9
				C145.3,31,144.5,30.8,143.5,30.8z M143.5,41c-1.3,0-2.2-0.4-2.9-1.3c-0.6-0.9-1-2-1-3.5c0-1.5,0.3-2.7,1-3.5
				c0.7-0.9,1.6-1.3,2.9-1.3c1.3,0,2.2,0.4,2.9,1.3c0.6,0.9,1,2,1,3.5c0,1.5-0.3,2.7-1,3.5l0,0C145.7,40.6,144.7,41,143.5,41z
				 M143.5,31.6c-1.2,0-2.1,0.4-2.7,1.2c-0.6,0.8-1,2-1,3.4c0,1.4,0.3,2.6,0.9,3.4c0.6,0.8,1.5,1.2,2.7,1.2c1.2,0,2.1-0.4,2.7-1.2
				l0,0c0.6-0.8,0.9-2,0.9-3.4c0-1.4-0.3-2.6-0.9-3.4C145.6,32,144.7,31.6,143.5,31.6z"/>
		</g>
		<g>
			<path class="st1" d="M150.3,40.9l0.9-0.2v-6.3l-1.2-0.1l-0.1-0.7l2.3-0.2l-0.1,1.6h0.1c0.5-1.1,1.3-1.7,2.4-1.7
				c0.3,0,0.6,0,0.9,0.1l-0.1,1.8h-0.7l-0.1-1c-0.1,0-0.2,0-0.4,0c-0.4,0-0.7,0.1-1,0.3c-0.3,0.2-0.5,0.5-0.7,0.9
				c-0.2,0.4-0.3,0.8-0.3,1.3v4l1.6,0l-0.1,0.7h-3.5L150.3,40.9z"/>
			<path class="st1" d="M153.8,41.7h-3.7l0.1-0.8l0.9-0.1v-6.1l-1.2-0.1l-0.1-0.8l2.5-0.2l-0.1,1.4c0.5-1,1.3-1.5,2.4-1.5
				c0.3,0,0.6,0,0.9,0.1l0.1,0l-0.1,1.9h-0.9l-0.1-1c-0.1,0-0.2,0-0.3,0c-0.4,0-0.7,0.1-1,0.3c-0.3,0.2-0.5,0.5-0.7,0.9
				c-0.2,0.4-0.2,0.8-0.2,1.2v3.9l1.7,0L153.8,41.7z M150.3,41.5h3.3l0.1-0.5l-1.6,0v-4.1c0-0.5,0.1-0.9,0.3-1.3
				c0.2-0.4,0.4-0.7,0.7-1c0.3-0.2,0.7-0.4,1.1-0.4c0.2,0,0.3,0,0.4,0l0.1,0l0.1,0.9h0.5l0.1-1.6c-0.3-0.1-0.5-0.1-0.8-0.1
				c-1.1,0-1.8,0.5-2.3,1.7l0,0.1H152l0.1-1.6l-2.1,0.2l0.1,0.5l1.2,0.1v6.5l-0.9,0.2L150.3,41.5z"/>
		</g>
		<g>
			<path class="st1" d="M156.6,40.9l1.1-0.2v-6.3l-1.1-0.1l-0.1-0.7l2.2-0.2v7.4l1.3,0l-0.1,0.7h-3.4L156.6,40.9z M157.7,31.8
				c-0.1-0.1-0.2-0.3-0.2-0.5c0-0.2,0.1-0.4,0.2-0.5c0.1-0.1,0.3-0.2,0.5-0.2c0.2,0,0.3,0.1,0.4,0.2c0.1,0.1,0.2,0.3,0.2,0.5
				c0,0.2-0.1,0.4-0.2,0.5c-0.1,0.1-0.3,0.2-0.5,0.2C158,32,157.8,31.9,157.7,31.8z"/>
			<path class="st1" d="M160,41.7h-3.6l0.1-0.8l1.1-0.1v-6.1l-1.1-0.1l-0.1-0.9l2.4-0.2v7.4l1.3,0L160,41.7z M156.6,41.5h3.2
				l0.1-0.5l-1.3,0v-7.3l-2,0.1l0.1,0.5l1.1,0.1v6.5l-1.1,0.2L156.6,41.5z M158.2,32.1c-0.2,0-0.4-0.1-0.5-0.2l0,0
				c-0.1-0.1-0.2-0.3-0.2-0.6c0-0.2,0.1-0.4,0.2-0.6c0.1-0.1,0.3-0.2,0.5-0.2c0.2,0,0.4,0.1,0.5,0.2c0.1,0.1,0.2,0.3,0.2,0.6
				c0,0.2-0.1,0.4-0.2,0.6C158.6,32,158.4,32.1,158.2,32.1z M158.2,30.7c-0.2,0-0.3,0-0.4,0.1c-0.1,0.1-0.1,0.2-0.1,0.4
				c0,0.2,0,0.4,0.1,0.5l0,0c0.1,0.1,0.2,0.1,0.4,0.1c0.2,0,0.3,0,0.4-0.1c0.1-0.1,0.1-0.3,0.1-0.4c0-0.2,0-0.4-0.1-0.4
				C158.5,30.8,158.4,30.7,158.2,30.7z"/>
		</g>
		<g>
			<path class="st1" d="M162.2,40.7c-0.7-0.7-1-1.7-1-3c0-0.9,0.1-1.6,0.4-2.3c0.3-0.6,0.7-1.1,1.2-1.5c0.5-0.3,1.2-0.5,1.9-0.5
				c1,0,1.7,0.3,2.3,1c0.6,0.6,0.8,1.5,0.8,2.6v0.5l-1.1,0.1l-4.6,0c0,1.1,0.2,2,0.7,2.6c0.5,0.6,1.2,0.8,2.1,0.8
				c0.5,0,0.9,0,1.3-0.1c0.4-0.1,0.7-0.2,1.1-0.3l0.2,0.7c-0.4,0.2-0.8,0.3-1.2,0.4c-0.4,0.1-0.9,0.1-1.4,0.1
				C163.8,41.7,162.9,41.4,162.2,40.7z M166.9,36.8c0-0.8-0.2-1.4-0.5-1.9c-0.4-0.5-0.9-0.7-1.6-0.7c-0.7,0-1.3,0.2-1.7,0.7
				s-0.7,1.1-0.8,2H166.9z"/>
			<path class="st1" d="M165,41.8c-1.2,0-2.1-0.4-2.8-1.1l0,0c-0.7-0.7-1-1.8-1-3.1c0-0.9,0.2-1.6,0.4-2.3c0.3-0.7,0.7-1.2,1.3-1.5
				c0.5-0.4,1.2-0.5,1.9-0.5c1,0,1.8,0.3,2.4,1c0.6,0.7,0.9,1.6,0.9,2.7v0.6l-1.2,0.1l-4.5,0c0,1.1,0.3,1.9,0.7,2.4
				c0.5,0.5,1.1,0.8,2,0.8c0.5,0,0.9,0,1.2-0.1c0.4-0.1,0.7-0.2,1.1-0.3l0.1,0l0.2,0.9l-0.1,0c-0.4,0.2-0.8,0.3-1.2,0.4
				C166,41.8,165.5,41.8,165,41.8z M164.8,33.5c-0.7,0-1.3,0.2-1.8,0.5c-0.5,0.3-0.9,0.8-1.2,1.4c-0.3,0.6-0.4,1.4-0.4,2.2
				c0,1.3,0.3,2.3,1,3l0,0c0.7,0.7,1.6,1,2.7,1c0.5,0,1,0,1.4-0.1c0.4-0.1,0.7-0.2,1.1-0.3l-0.1-0.5c-0.4,0.1-0.7,0.2-1,0.3
				c-0.4,0.1-0.8,0.1-1.3,0.1c-0.9,0-1.6-0.3-2.1-0.9c-0.5-0.6-0.8-1.5-0.8-2.6v-0.1l4.7,0l1-0.1V37c0-1.1-0.3-1.9-0.8-2.6
				C166.5,33.8,165.7,33.5,164.8,33.5z M167,36.9h-4.8l0-0.1c0.1-0.9,0.3-1.5,0.8-2c0.5-0.5,1.1-0.7,1.8-0.7c0.7,0,1.3,0.3,1.7,0.8
				C166.8,35.3,167,36,167,36.9L167,36.9z M162.4,36.7h4.4c0-0.7-0.2-1.3-0.5-1.8c-0.4-0.5-0.8-0.7-1.5-0.7c-0.7,0-1.3,0.2-1.7,0.7
				C162.7,35.4,162.5,36,162.4,36.7z"/>
		</g>
		<g>
			<path class="st1" d="M169.8,40.9l1-0.2v-6.3l-1.2-0.1l-0.1-0.7l2.3-0.2l-0.1,1.4h0c0.3-0.5,0.6-0.9,1.1-1.1
				c0.5-0.3,1-0.4,1.6-0.4c0.8,0,1.5,0.2,1.9,0.7c0.4,0.5,0.6,1.2,0.6,2.2v4.6l1.1,0l-0.1,0.7H175L175,41l1-0.2v-4.3
				c0-0.8-0.1-1.3-0.4-1.7c-0.3-0.4-0.7-0.5-1.3-0.5c-0.5,0-1,0.1-1.3,0.3c-0.4,0.2-0.7,0.5-0.9,0.9c-0.2,0.4-0.3,0.8-0.3,1.2v4.2
				l1.4,0l-0.1,0.7h-3.4L169.8,40.9z"/>
			<path class="st1" d="M178.2,41.7h-3.3l0.1-0.8l1-0.2v-4.2c0-0.7-0.1-1.3-0.4-1.6c-0.3-0.3-0.7-0.5-1.3-0.5
				c-0.5,0-0.9,0.1-1.3,0.3c-0.4,0.2-0.7,0.5-0.9,0.9c-0.2,0.4-0.3,0.8-0.3,1.2v4.1l1.4,0l-0.1,0.9h-3.6l0.1-0.8l1-0.1v-6.1
				l-1.2-0.1l-0.1-0.8l2.5-0.2l-0.1,1.2c0.3-0.4,0.6-0.7,1-0.9c0.5-0.3,1-0.4,1.7-0.4c0.9,0,1.5,0.2,2,0.7c0.4,0.5,0.7,1.3,0.7,2.3
				v4.4l1.2,0L178.2,41.7z M175.1,41.5h2.9l0.1-0.5l-1.1,0v-4.7c0-1-0.2-1.7-0.6-2.2c-0.4-0.4-1-0.7-1.8-0.7c-0.6,0-1.2,0.1-1.6,0.4
				c-0.4,0.3-0.8,0.6-1,1.1l0,0.1h-0.2l0.1-1.4l-2.1,0.2l0.1,0.5l1.2,0.1v6.5l-1,0.2l-0.1,0.5h3.2l0.1-0.5l-1.4,0v-4.3
				c0-0.5,0.1-0.9,0.3-1.3c0.2-0.4,0.5-0.7,0.9-0.9c0.4-0.2,0.9-0.3,1.4-0.3c0.6,0,1.1,0.2,1.4,0.6c0.3,0.4,0.4,1,0.4,1.8v4.4
				l-1,0.2L175.1,41.5z"/>
		</g>
		<g>
			<path class="st1" d="M180.5,41.2c-0.3-0.3-0.5-0.9-0.5-1.8v-5.1h-1.2l0-0.5l1.2-0.4l0.2-1.8l0.8,0v1.9h2.4l-0.1,0.8H181v5
				c0,0.6,0.1,1,0.3,1.2c0.2,0.2,0.5,0.4,0.9,0.4c0.4,0,0.8-0.1,1.2-0.2l0.1,0.7c-0.2,0.1-0.4,0.2-0.7,0.2c-0.3,0.1-0.5,0.1-0.8,0.1
				C181.4,41.7,180.9,41.6,180.5,41.2z"/>
			<path class="st1" d="M182,41.8c-0.7,0-1.2-0.2-1.6-0.5c-0.4-0.4-0.5-1-0.5-1.8v-5h-1.2l0-0.7l1.2-0.4l0.2-1.8l1-0.1v1.9h2.4
				l-0.1,1h-2.3v4.9c0,0.5,0.1,0.9,0.3,1.1c0.2,0.2,0.5,0.3,0.8,0.3c0.4,0,0.7-0.1,1.1-0.2l0.1,0l0.1,0.9l-0.1,0
				c-0.2,0.1-0.4,0.2-0.7,0.2C182.5,41.8,182.3,41.8,182,41.8z M178.9,34.2h1.2v5.2c0,0.8,0.2,1.4,0.5,1.7l0,0
				c0.3,0.3,0.8,0.5,1.4,0.5c0.2,0,0.5,0,0.8-0.1c0.2,0,0.4-0.1,0.6-0.2l-0.1-0.5c-0.4,0.1-0.7,0.2-1.1,0.2c-0.4,0-0.8-0.1-1-0.4
				c-0.2-0.3-0.3-0.7-0.3-1.3v-5.1h2.3l0.1-0.6h-2.4v-1.9l-0.6,0l-0.2,1.8l-1.2,0.4L178.9,34.2z"/>
		</g>
		<g>
			<path class="st1" d="M185.7,40.7c-0.7-0.7-1-1.7-1-3c0-0.9,0.1-1.6,0.4-2.3c0.3-0.6,0.7-1.1,1.2-1.5c0.5-0.3,1.2-0.5,1.9-0.5
				c1,0,1.7,0.3,2.3,1c0.6,0.6,0.8,1.5,0.8,2.6v0.5l-1.1,0.1l-4.6,0c0,1.1,0.2,2,0.7,2.6c0.5,0.6,1.2,0.8,2.1,0.8
				c0.5,0,0.9,0,1.3-0.1c0.4-0.1,0.7-0.2,1.1-0.3l0.2,0.7c-0.4,0.2-0.8,0.3-1.2,0.4c-0.4,0.1-0.9,0.1-1.4,0.1
				C187.3,41.7,186.4,41.4,185.7,40.7z M190.4,36.8c0-0.8-0.2-1.4-0.5-1.9c-0.4-0.5-0.9-0.7-1.6-0.7c-0.7,0-1.3,0.2-1.7,0.7
				s-0.7,1.1-0.8,2H190.4z"/>
			<path class="st1" d="M188.5,41.8c-1.2,0-2.1-0.4-2.8-1.1c-0.7-0.7-1-1.8-1-3.1c0-0.9,0.2-1.6,0.4-2.3c0.3-0.7,0.7-1.2,1.3-1.5
				c0.5-0.4,1.2-0.5,1.9-0.5c1,0,1.8,0.3,2.4,1c0.6,0.7,0.9,1.6,0.9,2.7v0.6l-1.2,0.1l-4.5,0c0,1.1,0.3,1.9,0.7,2.4
				c0.5,0.5,1.1,0.8,2,0.8c0.5,0,0.9,0,1.2-0.1c0.4-0.1,0.7-0.2,1.1-0.3l0.1,0l0.2,0.9l-0.1,0c-0.4,0.2-0.8,0.3-1.2,0.4
				C189.5,41.8,189,41.8,188.5,41.8z M188.3,33.5c-0.7,0-1.3,0.2-1.8,0.5c-0.5,0.3-0.9,0.8-1.2,1.4c-0.3,0.6-0.4,1.4-0.4,2.2
				c0,1.3,0.3,2.3,1,3l0,0c0.7,0.7,1.6,1,2.7,1c0.5,0,1,0,1.4-0.1c0.4-0.1,0.7-0.2,1.1-0.3l-0.1-0.5c-0.4,0.1-0.7,0.2-1,0.3
				c-0.4,0.1-0.8,0.1-1.3,0.1c-0.9,0-1.6-0.3-2.1-0.9c-0.5-0.6-0.8-1.5-0.8-2.6v-0.1l4.7,0l1-0.1V37c0-1.1-0.3-1.9-0.8-2.6
				C190,33.8,189.2,33.5,188.3,33.5z M190.5,36.9h-4.8l0-0.1c0.1-0.9,0.3-1.5,0.8-2c0.5-0.5,1.1-0.7,1.8-0.7c0.7,0,1.3,0.3,1.7,0.8
				C190.3,35.3,190.5,36,190.5,36.9L190.5,36.9z M185.9,36.7h4.4c0-0.7-0.2-1.3-0.5-1.8c-0.4-0.5-0.8-0.7-1.5-0.7
				c-0.7,0-1.3,0.2-1.7,0.7C186.2,35.4,186,36,185.9,36.7z"/>
		</g>
	</g>
	<g>
		<g class="st0">
			<path class="st1" d="M167.9,0.1v26.4h25.7V0.1H167.9z M189.3,19c-0.7,1.7-1.9,3-3.3,3.9c-1.4,0.9-3.2,1.4-5.3,1.4
				c-2,0-3.8-0.5-5.3-1.4c-1.5-0.9-2.6-2.2-3.3-3.9c-0.7-1.6-1.1-3.6-1.1-5.7c0-2.1,0.4-4,1.1-5.7c0.7-1.6,1.8-3,3.3-3.9
				c1.4-0.9,3.2-1.4,5.3-1.4c2,0,3.8,0.5,5.2,1.4c1.5,0.9,2.6,2.2,3.3,3.9c0.7,1.6,1.1,3.6,1.1,5.7C190.4,15.4,190,17.4,189.3,19z"
				/>
			<path class="st1" d="M193.7,26.6h-25.9V0h25.9V26.6z M168,26.4h25.5V0.2H168V26.4z M180.7,24.3c-2.1,0-3.8-0.5-5.3-1.4
				c-1.5-0.9-2.6-2.3-3.3-3.9c-0.7-1.7-1.1-3.6-1.1-5.8c0-2.1,0.4-4.1,1.1-5.7c0.7-1.7,1.9-3,3.3-3.9c1.5-0.9,3.3-1.4,5.3-1.4
				c2,0,3.8,0.5,5.3,1.4c1.5,0.9,2.6,2.2,3.4,3.9c0.7,1.6,1.1,3.6,1.1,5.8c0,2.2-0.4,4.1-1.1,5.8l0,0c-0.8,1.7-1.9,3-3.4,3.9
				C184.6,23.9,182.8,24.3,180.7,24.3z M180.7,2.4c-2,0-3.8,0.5-5.2,1.4c-1.4,0.9-2.5,2.2-3.3,3.8c-0.7,1.6-1.1,3.5-1.1,5.6
				c0,2.1,0.4,4,1.1,5.7c0.7,1.6,1.8,2.9,3.3,3.9c1.4,0.9,3.2,1.4,5.2,1.4c2,0,3.8-0.5,5.2-1.4c1.4-0.9,2.5-2.2,3.3-3.8l0,0
				c0.7-1.6,1.1-3.5,1.1-5.7c0-2.2-0.4-4.1-1.1-5.7c-0.7-1.6-1.8-2.9-3.3-3.8C184.5,2.9,182.8,2.4,180.7,2.4z"/>
		</g>
		<g class="st0">
			<path class="st1" d="M180.7,4.8c-2.2,0-3.8,0.7-5,2.2c-1.2,1.5-1.7,3.6-1.7,6.3c0,2.7,0.6,4.8,1.7,6.3c1.1,1.5,2.7,2.2,5,2.2
				c2.2,0,3.9-0.7,5-2.2h0c1.1-1.5,1.7-3.6,1.7-6.3c0-2.7-0.6-4.8-1.7-6.3C184.6,5.5,183,4.8,180.7,4.8z"/>
			<path class="st1" d="M180.7,21.9c-2.2,0-3.9-0.7-5-2.2c-1.2-1.5-1.7-3.7-1.7-6.4c0-2.7,0.6-4.8,1.8-6.3c1.2-1.5,2.8-2.3,5-2.3
				c2.2,0,3.9,0.7,5,2.2c1.1,1.5,1.7,3.7,1.7,6.4c0,2.7-0.6,4.8-1.7,6.4C184.6,21.1,183,21.9,180.7,21.9z M180.7,4.9
				c-2.2,0-3.8,0.7-4.9,2.2c-1.1,1.5-1.7,3.6-1.7,6.2c0,2.7,0.6,4.8,1.7,6.2c1.1,1.5,2.7,2.2,4.9,2.2c2.2,0,3.8-0.7,4.9-2.2
				c1.1-1.5,1.7-3.6,1.7-6.2c0-2.7-0.6-4.8-1.7-6.2C184.5,5.6,182.9,4.9,180.7,4.9z"/>
		</g>
	</g>
</g>
</svg>
