<?xml version="1.0" encoding="utf-8"?>
<!-- Generator: Adobe Illustrator 21.0.2, SVG Export Plug-In . SVG Version: 6.00 Build 0)  -->
<svg version="1.1" id="Capa_1" xmlns="http://www.w3.org/2000/svg" xmlns:xlink="http://www.w3.org/1999/xlink" x="0px" y="0px"
	 viewBox="0 0 100 100" style="enable-background:new 0 0 100 100;" xml:space="preserve">
<style type="text/css">
	.st0{fill:#FFFFFF;}
</style>
<g>
	<path class="st0" d="M46.7,99.9V65.5H34.4V51.1h12.4V50c0-2.9-0.1-5.8,0-8.7c0.1-1.9,0.1-3.7,0.5-5.6c0.8-4.4,2.8-8.1,6.5-10.8
		c3.2-2.3,6.9-3.2,10.8-3.3c2.6-0.1,5.1,0.1,7.7,0.2c1.4,0.1,2.8,0.3,4.1,0.4v13h-1c-2.5,0-5-0.1-7.5,0c-3.4,0.1-5.9,1.4-6.1,5.7
		c-0.1,3.1-0.1,10.3-0.1,10.3s8,0,11.5,0h2.8c-0.6,5-1.3,9.7-1.9,14.5H61.7v34.3H46.7z"/>
</g>
</svg>
