<?xml version="1.0" encoding="utf-8"?>
<!-- Generator: Adobe Illustrator 21.0.2, SVG Export Plug-In . SVG Version: 6.00 Build 0)  -->
<svg version="1.1" id="Capa_1" xmlns="http://www.w3.org/2000/svg" xmlns:xlink="http://www.w3.org/1999/xlink" x="0px" y="0px"
	 viewBox="0 0 100 100" style="enable-background:new 0 0 100 100;" xml:space="preserve">
<style type="text/css">
	.st0{fill:#FFFFFF;}
</style>
<g>
	<ellipse class="st0" cx="50" cy="38.6" rx="10.1" ry="10.1"/>
	<path class="st0" d="M96,30.6c-2.6-6.1-6.2-11.4-10.7-15.9C80.8,10.2,75.6,6.6,69.4,4C63.3,1.3,56.9,0,50,0c-4.6,0-9,0.6-13.3,1.8
		c-4.3,1.2-8.2,2.9-11.9,5c-3.7,2.2-7.1,4.8-10.1,7.8c-3,3-5.6,6.4-7.8,10.1C4.7,28.5,3,32.4,1.8,36.7C0.6,41,0,45.4,0,50
		c0,4.6,0.6,9,1.8,13.3c1.2,4.3,2.9,8.2,5.1,12c2.2,3.7,4.8,7.1,7.8,10.1c3,3,6.4,5.6,10.1,7.8c3.7,2.2,7.7,3.8,11.9,5
		C41,99.4,45.4,100,50,100c4.6,0,9-0.6,13.3-1.8c4.3-1.2,8.3-2.9,11.9-5c3.7-2.2,7.1-4.8,10.1-7.8c3-3,5.6-6.4,7.8-10.1
		c2.2-3.7,3.8-7.7,5.1-12C99.4,59,100,54.6,100,50C100,43.1,98.7,36.7,96,30.6z M61,60.3c-4,7.2-8,13.2-8.1,13.4L50,78.1l-2.9-4.4
		c-0.2-0.3-4.1-6.2-8.1-13.4c-5.7-10.2-8.4-17.2-8.4-21.5c0-10.7,8.7-19.4,19.4-19.4c10.7,0,19.4,8.7,19.4,19.4
		C69.4,43.1,66.7,50.1,61,60.3z"/>
</g>
</svg>
