<?xml version="1.0" encoding="utf-8"?>
<!-- Generator: Adobe Illustrator 21.0.2, SVG Export Plug-In . SVG Version: 6.00 Build 0)  -->
<svg version="1.1" id="Capa_1" xmlns="http://www.w3.org/2000/svg" xmlns:xlink="http://www.w3.org/1999/xlink" x="0px" y="0px"
	 viewBox="0 0 100 100" style="enable-background:new 0 0 100 100;" xml:space="preserve">
<style type="text/css">
	.st0{fill:#FFFFFF;}
</style>
<path class="st0" d="M50,19.4c-10.7,0-19.4,8.7-19.4,19.4c0,4.3,2.7,11.3,8.4,21.5c4,7.2,7.9,13.1,8.1,13.4l2.9,4.4l2.9-4.4
	C53,73.5,57,67.5,61,60.3c5.7-10.2,8.4-17.2,8.4-21.5C69.4,28.1,60.7,19.4,50,19.4z M50,48.7c-5.6,0-10.1-4.5-10.1-10.1
	c0-5.6,4.5-10.1,10.1-10.1S60.1,33,60.1,38.6C60.1,44.2,55.6,48.7,50,48.7z"/>
</svg>
