<?xml version="1.0" encoding="utf-8"?>
<!-- Generator: Adobe Illustrator 21.0.2, SVG Export Plug-In . SVG Version: 6.00 Build 0)  -->
<svg version="1.1" id="Capa_1" xmlns="http://www.w3.org/2000/svg" xmlns:xlink="http://www.w3.org/1999/xlink" x="0px" y="0px"
	 viewBox="0 0 100 100" style="enable-background:new 0 0 100 100;" xml:space="preserve">
<style type="text/css">
	.st0{fill:#18242C;}
</style>
<g>
	<g>
		
			<ellipse transform="matrix(2.467770e-03 -1 1 2.467770e-03 33.3009 99.9379)" class="st0" cx="66.7" cy="33.3" rx="3.8" ry="3.8"/>
		<path class="st0" d="M80.9,34.4c-0.4-4.1-2-7.8-5.1-10.7c-3.2-3.1-7.2-4.4-11.5-4.7c-7.4-0.4-24.9-0.7-31.1,0.3
			c-7,1.1-11.6,5.3-13.6,12.2c-1.5,5.3-1.2,30-0.3,35.3c1.2,7.2,5.5,11.9,12.6,13.7c5,1.3,29.3,1.1,34.8,0.2
			c7.2-1.2,11.9-5.4,13.8-12.6C81.9,62.7,81.4,39.3,80.9,34.4z M75.1,65.7c-0.8,5.5-4.5,8.9-10,9.5c-5.1,0.6-27.7,0.9-32.4-0.5
			c-4.5-1.3-7.1-4.3-7.8-8.9c-0.7-4.3-0.9-25.9,0-31.7c0.8-5.4,4.5-8.8,10-9.4c5.6-0.6,25.6-0.7,30.9,0.1c5.5,0.8,8.9,4.5,9.5,10
			C75.8,40.1,76,60.2,75.1,65.7z"/>
	</g>
	<path class="st0" d="M50,33.9c-8.9,0-16.1,7.2-16.1,16.1c0,8.9,7.2,16.1,16.1,16.1c8.9,0,16.1-7.2,16.1-16.1
		C66.1,41.1,58.9,33.9,50,33.9z M49.9,60.4c-5.8-0.1-10.4-4.8-10.3-10.5c0.1-5.8,4.8-10.4,10.5-10.3c5.8,0.1,10.4,4.8,10.3,10.5
		C60.4,55.8,55.6,60.5,49.9,60.4z"/>
</g>
</svg>
