<?xml version="1.0" encoding="utf-8"?>
<!-- Generator: Adobe Illustrator 21.0.2, SVG Export Plug-In . SVG Version: 6.00 Build 0)  -->
<svg version="1.1" id="Capa_1" xmlns="http://www.w3.org/2000/svg" xmlns:xlink="http://www.w3.org/1999/xlink" x="0px" y="0px"
	 viewBox="0 0 250 250" style="enable-background:new 0 0 250 250;" xml:space="preserve">
<style type="text/css">
	.st0{clip-path:url(#SVGID_5_);}
	.st1{clip-path:url(#SVGID_6_);}
	.st2{fill:#009389;}
	.st3{clip-path:url(#SVGID_9_);}
	.st4{clip-path:url(#SVGID_10_);}
	.st5{fill:#FFFFFF;}
	.st6{clip-path:url(#SVGID_13_);}
	.st7{clip-path:url(#SVGID_14_);}
	.st8{fill:#8B411E;}
	.st9{clip-path:url(#SVGID_17_);}
	.st10{clip-path:url(#SVGID_18_);}
	.st11{clip-path:url(#SVGID_21_);}
	.st12{clip-path:url(#SVGID_22_);}
	.st13{clip-path:url(#SVGID_25_);}
	.st14{clip-path:url(#SVGID_26_);}
	.st15{fill:none;stroke:#009389;stroke-width:8;stroke-miterlimit:10;}
</style>
<g>
	<g>
		<g>
			<defs>
				<circle id="SVGID_1_" cx="125" cy="125" r="122.8"/>
			</defs>
			<clipPath id="SVGID_2_">
				<use xlink:href="#SVGID_1_"  style="overflow:visible;"/>
			</clipPath>
		</g>
		<g>
			<defs>
				<circle id="SVGID_3_" cx="125" cy="125" r="122.8"/>
			</defs>
			<defs>
				<circle id="SVGID_4_" cx="125" cy="125" r="122.8"/>
			</defs>
			<clipPath id="SVGID_5_">
				<use xlink:href="#SVGID_3_"  style="overflow:visible;"/>
			</clipPath>
			<clipPath id="SVGID_6_" class="st0">
				<use xlink:href="#SVGID_4_"  style="overflow:visible;"/>
			</clipPath>
			<g class="st1">
				<g>
					<circle class="st2" cx="125" cy="125" r="122.8"/>
				</g>
			</g>
		</g>
		<g>
			<defs>
				<circle id="SVGID_7_" cx="125" cy="125" r="122.8"/>
			</defs>
			<defs>
				<circle id="SVGID_8_" cx="125" cy="125" r="122.8"/>
			</defs>
			<clipPath id="SVGID_9_">
				<use xlink:href="#SVGID_7_"  style="overflow:visible;"/>
			</clipPath>
			<clipPath id="SVGID_10_" class="st3">
				<use xlink:href="#SVGID_8_"  style="overflow:visible;"/>
			</clipPath>
			<g class="st4">
				<path class="st5" d="M226.8,56.2l-5.9-8.8c-0.1-0.1-0.2-0.2-0.3-0.2c-0.1,0-0.3,0-0.4,0.1c-0.2,0.1-4.8,3.4-13.2,15.1
					c0.6-5.1,2.3-18.6,5.6-24.2c0.1-0.2,0.1-0.5-0.1-0.6l-6.9-6.3c-0.1-0.1-0.3-0.1-0.4-0.1s-0.3,0.1-0.4,0.2
					c-0.3,0.3-6.8,8.6-14.6,36c-0.3,1-5.4,23.7-6.1,27c-0.6,0.8-6.9,7.7-27,0.2c-0.4-0.8-2.1-4.7-1.9-11c0.5-12,7.8-23,13.8-30.1
					c0.2-0.2,20.2-19.7,31.4-24.5c0.2-0.1,0.3-0.3,0.3-0.4c0-0.2-0.1-0.4-0.2-0.5l-10.8-7.6c-0.2-0.1-0.4-0.1-0.6-0.1
					c-0.2,0.1-16.3,8.6-25.7,18.3c3.3-6.1,10.3-18,17-22.7c0.1-0.1,0.1-0.1,0.1-0.1c0.6-0.9,0.1-1.4,0-1.4s-0.1-0.1-0.1-0.1
					l-8.8-3.5c-0.2-0.1-0.4,0-0.6,0.1c-0.1,0.1-6.3,7.1-12.5,15.4c-8.4,11.2-12.9,19.3-13.3,24.1c-0.6,5.9-1.9,12.1-3.1,17.6
					c-0.5,2.2-0.9,4.2-1.3,5.9c-0.9-13.2-2.2-48.9,6.9-68.9c0.1-0.1,0.1-0.3,0-0.4s-0.2-0.3-0.4-0.3l-9.4-1.7c-0.1,0-1-0.1-2.2,0.9
					c-3.4,3.1-8.5,15.9-4.9,65.7c-3.6-9.2-13.3-35-13-40.4l-0.4-26.4c0-0.1-0.1-0.3-0.2-0.4c-0.1-0.1-0.2-0.1-0.4-0.1l-7.9,0.7
					c-0.3,0-0.5,0.3-0.5,0.5v28.8c0,0.1,0,0.1,0,0.1c0.1,0.4,8.9,35.2,7.6,46.1v0.1c0,0.6,0.3,13.5-20.6,18.3
					c-0.8-0.1-8.1-0.9-11.8-6.4c-2.8-4.1-2.9-10-0.4-17.2l7.3-26.9c0.1-0.1,4.3-14.6,7.1-21.7V24C98,23.4,101,9.7,100,4.8
					c0-0.1-0.1-0.3-0.3-0.3c-0.1-0.1-0.3-0.1-0.4-0.1l-8.1,2.3C91,6.7,90.8,7,90.8,7.2c0,0.1,0.8,8.5-0.5,11.5v0.1l-7.8,24.1
					c-0.8,1.6-14,27.6-14.7,32.5c-0.1,0.6-2.1,14.3,0.9,24.4c-3.2-3.2-11-12.3-15.8-29.5C48.3,57.7,41,37.1,41.3,35.4
					c0.2-0.5-0.2-0.7-0.3-0.8c-0.5-0.3-0.8-0.4-10.4,11.3c-4.6,5.6-9.2,11.3-9.3,11.4c-0.1,0.1-0.1,0.2-0.1,0.3L21.1,59
					c0,0.1,0,0.1,0,0.2c0.5,1.8,3.1,10.2,4.9,11.6l11.1,19l6.6,12.3c-5.1-4.9-17.7-16.1-33-23.5c-0.1-0.1-0.3-0.1-0.4,0
					c-0.1,0.1-0.3,0.2-0.3,0.3L6.8,89.6c-0.1,0.1,0,0.3,0.1,0.4c0.1,0.1,0.2,0.2,0.3,0.3c0.1,0,11.1,3.1,20.3,15.3
					c0.1,0.1,4.5,6.1,10.2,12.3c7.6,8.4,13.7,13.1,18,14.1c0.9,0.4,10.1,4.3,30.9-5.9c0.1,0,7.9-3,13.8-0.3c2.7,1.3,4.6,3.6,5.7,6.8
					c0.1,0.9,2.4,16.3-4.6,25.3c-0.1,0.1-0.1,0.4-0.1,0.6c0.1,0.2,0.3,0.3,0.4,0.3l43.2,0.4l0,0c0.2,0,0.3-0.1,0.4-0.3
					c0.1-0.1,0.1-0.3,0.1-0.5c-0.1-0.3-12.1-31.6,0.6-41.5c0,0,0,0,0.1-0.1c0.1-0.1,3.4-3.2,9.5-4.8c10.3-2.6,20.3,1.3,27,4.9
					c3.3,1.8,6.3,2.2,8.9,1.1c7.1-2.8,10.9-15.2,15-28.3c4.7-15.2,9.6-30.9,19.7-33.1c0.2-0.1,0.3-0.1,0.4-0.3
					C226.9,56.5,226.8,56.3,226.8,56.2z"/>
			</g>
		</g>
		<g>
			<defs>
				<circle id="SVGID_11_" cx="125" cy="125" r="122.8"/>
			</defs>
			<defs>
				<circle id="SVGID_12_" cx="125" cy="125" r="122.8"/>
			</defs>
			<clipPath id="SVGID_13_">
				<use xlink:href="#SVGID_11_"  style="overflow:visible;"/>
			</clipPath>
			<clipPath id="SVGID_14_" class="st6">
				<use xlink:href="#SVGID_12_"  style="overflow:visible;"/>
			</clipPath>
			<g class="st7">
				<rect x="3.2" y="158.5" class="st8" width="242.8" height="91.6"/>
			</g>
		</g>
		<g>
			<defs>
				<circle id="SVGID_15_" cx="125" cy="125" r="122.8"/>
			</defs>
			<defs>
				<circle id="SVGID_16_" cx="125" cy="125" r="122.8"/>
			</defs>
			<clipPath id="SVGID_17_">
				<use xlink:href="#SVGID_15_"  style="overflow:visible;"/>
			</clipPath>
			<clipPath id="SVGID_18_" class="st9">
				<use xlink:href="#SVGID_16_"  style="overflow:visible;"/>
			</clipPath>
			<g class="st10">
				<g>
					<path class="st5" d="M50.8,170.4c-0.5-2.4-2.4-3.6-4.8-3.6c-4.1,0-5.8,3.4-5.8,6.9c0,3.9,1.8,7.2,5.8,7.2c3,0,4.8-2.1,4.9-4.9
						h2.3c-0.4,4.3-3.1,6.9-7.4,6.9c-5.3,0-7.9-3.9-7.9-8.9c0-4.9,2.8-9,8.1-9c3.6,0,6.5,1.9,7.1,5.6L50.8,170.4L50.8,170.4z"/>
				</g>
				<g>
					<path class="st5" d="M63.3,164.9c5.4,0,8.2,4.3,8.2,9c0,4.6-2.8,9-8.2,9s-8.2-4.3-8.2-9C55.1,169.2,57.9,164.9,63.3,164.9z
						 M63.3,180.9c4.2,0,5.9-3.6,5.9-7.1c0-3.4-1.8-7.1-5.9-7.1s-5.9,3.6-5.9,7.1C57.3,177.3,59.2,180.9,63.3,180.9z"/>
				</g>
				<g>
					<path class="st5" d="M74.3,165.3h8.1c3.2,0,5.2,1.8,5.2,4.5c0,2.1-0.9,3.8-3,4.4v0.1c2,0.4,2.4,1.9,2.6,3.5
						c0.1,1.7,0.1,3.6,1,4.8h-2.6c-0.6-0.7-0.3-2.6-0.6-4.3c-0.3-1.7-0.6-3.1-2.9-3.1h-5.6v7.3h-2.2V165.3z M81.4,173.2
						c2.1,0,3.9-0.6,3.9-3.1c0-1.7-0.9-2.9-3.1-2.9h-5.7v6H81.4z"/>
				</g>
				<g>
					<path class="st5" d="M90.8,165.3h7.5c3.4,0,5.3,1.9,5.3,5.1c0,3.2-1.9,5.1-5.3,5.1h-5.2v7h-2.3L90.8,165.3L90.8,165.3z
						 M93.1,173.5h4.4c2.6,0,3.8-1.1,3.8-3.1c0-2.1-1.2-3.1-3.8-3.1h-4.4V173.5z"/>
				</g>
				<g>
					<path class="st5" d="M113.6,164.9c5.4,0,8.2,4.3,8.2,9c0,4.6-2.8,9-8.2,9c-5.4,0-8.2-4.3-8.2-9
						C105.4,169.2,108.2,164.9,113.6,164.9z M113.6,180.9c4.2,0,5.9-3.6,5.9-7.1c0-3.4-1.8-7.1-5.9-7.1s-5.9,3.6-5.9,7.1
						C107.7,177.3,109.4,180.9,113.6,180.9z"/>
				</g>
				<g>
					<path class="st5" d="M124.6,165.3h8.1c3.2,0,5.2,1.8,5.2,4.5c0,2.1-0.9,3.8-3,4.4v0.1c2,0.4,2.4,1.9,2.6,3.5
						c0.1,1.7,0.1,3.6,1,4.8h-2.6c-0.6-0.7-0.3-2.6-0.6-4.3c-0.3-1.7-0.6-3.1-2.9-3.1h-5.5v7.3h-2.3V165.3z M131.6,173.2
						c2.1,0,3.9-0.6,3.9-3.1c0-1.7-0.9-2.9-3.1-2.9h-5.6v6H131.6z"/>
				</g>
				<g>
					<path class="st5" d="M145.7,165.3h2.5l6.7,17.1h-2.5l-1.9-5.2h-7.3l-1.9,5.2H139L145.7,165.3z M144,175.4h5.8l-2.9-8h-0.1
						L144,175.4z"/>
				</g>
				<g>
					<path class="st5" d="M168.7,170.4c-0.5-2.4-2.4-3.6-4.8-3.6c-4.1,0-5.8,3.4-5.8,6.9c0,3.9,1.8,7.2,5.8,7.2c3,0,4.8-2.1,4.9-4.9
						h2.3c-0.4,4.3-3.1,6.9-7.4,6.9c-5.3,0-7.9-3.9-7.9-8.9c0-4.9,2.8-9,8.1-9c3.6,0,6.5,1.9,7.1,5.6L168.7,170.4L168.7,170.4z"/>
				</g>
				<g>
					<path class="st5" d="M174.1,165.3h2.3v17.1h-2.3V165.3z"/>
				</g>
				<g>
					<path class="st5" d="M187.5,164.9c5.4,0,8.2,4.3,8.2,9c0,4.6-2.8,9-8.2,9s-8.2-4.3-8.2-9C179.3,169.2,182,164.9,187.5,164.9z
						 M187.5,180.9c4.2,0,5.9-3.6,5.9-7.1c0-3.4-1.8-7.1-5.9-7.1s-5.9,3.6-5.9,7.1C181.5,177.3,183.3,180.9,187.5,180.9z
						 M188.1,160.6h2.6l-3.1,3.4H186L188.1,160.6z"/>
				</g>
				<g>
					<path class="st5" d="M198.5,165.3h2.4l9,13.9h0.1v-13.9h2.2v17.1h-2.5l-8.9-13.8h-0.1v13.8h-2.2V165.3z"/>
				</g>
			</g>
		</g>
		<g>
			<defs>
				<circle id="SVGID_19_" cx="125" cy="125" r="122.8"/>
			</defs>
			<defs>
				<circle id="SVGID_20_" cx="125" cy="125" r="122.8"/>
			</defs>
			<clipPath id="SVGID_21_">
				<use xlink:href="#SVGID_19_"  style="overflow:visible;"/>
			</clipPath>
			<clipPath id="SVGID_22_" class="st11">
				<use xlink:href="#SVGID_20_"  style="overflow:visible;"/>
			</clipPath>
			<g class="st12">
				<g>
					<path class="st5" d="M37.9,186.4H47v16.8h14v6.2H37.9V186.4z"/>
				</g>
				<g>
					<path class="st5" d="M63.5,186.4h9.1v22.9h-9.1V186.4z"/>
				</g>
				<g>
					<path class="st5" d="M106.7,200.3c-0.6,3-1.6,5.4-3.9,7.1c-2.2,1.7-5.7,2.6-11.2,2.6c-5.5,0-15.6-0.4-15.6-12.3
						c0-11.9,10.2-12.3,15.6-12.3c5.4,0,13.9,0.7,15.1,9.8H96.5c-0.3-1.6-1.4-4-4.8-4c-3.7,0-6,1.8-6,6.5c0,4.6,2.3,6.5,5.6,6.5
						c2.9,0,4.6-1.2,5.3-3.9L106.7,200.3L106.7,200.3z"/>
				</g>
				<g>
					<path class="st5" d="M116.3,186.4h11.1l9.8,22.9h-9.6l-0.9-2.6h-9.4l-0.9,2.6h-9.6L116.3,186.4z M121.9,193.3L121.9,193.3
						l-2.8,7.8h5.4L121.9,193.3z"/>
				</g>
				<g>
					<path class="st5" d="M138.3,186.4h10.3l9.2,12.7h0.1v-12.7h8.7v22.9h-10l-9.6-12.8H147v12.8h-8.7V186.4z"/>
				</g>
				<g>
					<path class="st5" d="M171.2,186.4h9.1v22.9h-9.1V186.4z"/>
				</g>
				<g>
					<path class="st5" d="M191.3,186.4h11.1l9.8,22.9h-9.6l-0.9-2.6h-9.4l-0.9,2.6h-9.6L191.3,186.4z M196.8,193.3L196.8,193.3
						l-2.8,7.8h5.4L196.8,193.3z"/>
				</g>
			</g>
		</g>
		<g>
			<defs>
				<circle id="SVGID_23_" cx="125" cy="125" r="122.8"/>
			</defs>
			<defs>
				<circle id="SVGID_24_" cx="125" cy="125" r="122.8"/>
			</defs>
			<clipPath id="SVGID_25_">
				<use xlink:href="#SVGID_23_"  style="overflow:visible;"/>
			</clipPath>
			<clipPath id="SVGID_26_" class="st13">
				<use xlink:href="#SVGID_24_"  style="overflow:visible;"/>
			</clipPath>
			<g class="st14">
				<g>
					<path class="st5" d="M69.8,213.4h1.5l6.7,16h0.1l6.6-16h1.5v17.1h-1.1v-15.8h-0.1l-6.5,15.8h-1.1l-6.6-15.8h-0.1v15.8h-1.1
						L69.8,213.4L69.8,213.4z"/>
				</g>
				<g>
					<path class="st5" d="M95.5,213.4l6.8,17.1h-1.1L99,225h-8.2l-2.2,5.5h-1.1l6.9-17.1H95.5z M98.7,224.1l-3.7-9.7l0,0l-3.8,9.7
						H98.7z"/>
				</g>
				<g>
					<path class="st5" d="M103.5,213.4h7.1c3,0,5.4,1.1,5.4,4.4c0,2.3-1.4,4-3.7,4.4v0.1c2.6,0.3,3.2,1.9,3.3,3.7
						c0.2,1.8-0.1,3.7,0.6,4.6h-1.2c-0.6-1.2-0.3-3.1-0.4-4.8c-0.2-1.6-1.1-3-4.1-3h-6.1v7.8h-1.1v-17.2H103.5z M110.7,221.8
						c2.5,0,4.4-1.2,4.4-3.9c0-2.6-2.1-3.6-4.4-3.6h-6.1v7.5H110.7z"/>
				</g>
				<g>
					<path class="st5" d="M118.7,213.4h1.1v17.1h-1.1V213.4z"/>
				</g>
				<g>
					<path class="st5" d="M122.7,213.4h1.3l10.8,15.8h0.1v-15.8h1.1v17.1h-1.3l-10.9-15.8h-0.1v15.8h-1.1L122.7,213.4L122.7,213.4z"
						/>
				</g>
				<g>
					<path class="st5" d="M139,213.4h1.1v17.1H139V213.4z"/>
				</g>
				<g>
					<path class="st5" d="M143.1,213.4h1.1v16.3h9.8v0.9h-10.8V213.4z"/>
				</g>
				<g>
					<path class="st5" d="M155.1,213.4h1.1v16.3h9.8v0.9h-10.8L155.1,213.4L155.1,213.4z"/>
				</g>
				<g>
					<path class="st5" d="M173.4,213.4l6.8,17.1H179l-2.2-5.5h-8.2l-2.2,5.5h-1.1l6.9-17.1H173.4z M176.6,224.1l-3.7-9.7h-0.1
						l-3.8,9.7H176.6z"/>
				</g>
			</g>
		</g>
	</g>
	<g>
		<path class="st15" d="M125,247.8"/>
	</g>
	<g>
		<g>
			<path class="st2" d="M4.8,159c-3.1-11-4.7-22.5-4.7-34c0-33.4,13-64.7,36.5-88.3C60.3,13.2,91.6,0.2,125,0.2s64.7,13,88.3,36.5
				c23.6,23.6,36.5,54.9,36.5,88.3c0,11.6-1.6,23-4.7,34l-4-1.1c3-10.6,4.6-21.7,4.6-32.9c0-32.2-12.6-62.6-35.4-85.4
				S157.2,4.3,125,4.3S62.4,16.9,39.6,39.6C16.9,62.5,4.3,92.8,4.3,125c0,11.2,1.5,22.3,4.6,32.9L4.8,159z"/>
		</g>
	</g>
	<g>
		<g>
			<path class="st8" d="M125,249.9c-27.7,0-54-8.9-76-25.7c-21.3-16.3-36.9-39.4-44.2-65l-0.2-0.6c0,0,4.2,0,4.3,0
				c7.1,24.5,22.2,46.7,42.6,62.3c21.2,16.3,46.6,24.9,73.4,24.9c26.8,0,52.2-8.6,73.4-24.9c20.4-15.6,35.5-37.7,42.6-62.3
				c0.1,0,4.3,0,4.3,0l-0.2,0.6c-7.3,25.7-23,48.8-44.2,65C179,241,152.7,249.9,125,249.9z"/>
		</g>
	</g>
</g>
</svg>
