<?xml version="1.0" encoding="utf-8"?>
<!-- Generator: Adobe Illustrator 21.0.2, SVG Export Plug-In . SVG Version: 6.00 Build 0)  -->
<svg version="1.1" xmlns="http://www.w3.org/2000/svg" xmlns:xlink="http://www.w3.org/1999/xlink" x="0px" y="0px"
	 viewBox="0 0 1024.8 1025.8" style="enable-background:new 0 0 1024.8 1025.8;" xml:space="preserve">
<style type="text/css">
	.st0{display:none;}
	.st1{display:inline;}
	.st2{clip-path:url(#SVGID_3_);}
	.st3{clip-path:url(#SVGID_4_);}
	.st4{fill:#808080;}
	.st5{fill:#FFFFFF;}
	.st6{fill:#333333;}
	.st7{fill:none;stroke:#009389;stroke-width:8;stroke-miterlimit:10;}
	.st8{clip-path:url(#SVGID_7_);}
	.st9{clip-path:url(#SVGID_8_);}
	.st10{clip-path:url(#SVGID_11_);}
	.st11{clip-path:url(#SVGID_12_);}
	.st12{clip-path:url(#SVGID_15_);}
	.st13{clip-path:url(#SVGID_16_);}
	.st14{fill:#009389;}
	.st15{fill:#8B411E;}
	.st16{clip-path:url(#SVGID_19_);}
	.st17{clip-path:url(#SVGID_20_);}
	.st18{clip-path:url(#SVGID_20_);fill:#FFFFFF;}
	.st19{clip-path:url(#SVGID_20_);fill:#8B411E;}
	.st20{font-family:'HelveticaNeueLTStd-Th';}
	.st21{font-size:93.8074px;}
	.st22{font-family:'HelveticaNeueLTStd-BlkEx';}
	.st23{font-size:126.2223px;}
	.st24{font-family:'HelveticaNeueLTStd-Roman';}
	.st25{font-size:94.4567px;}
</style>
<g id="Escala_de_Grises" class="st0">
	<g class="st1">
		<g>
			<defs>
				<circle id="SVGID_1_" cx="512.4" cy="512.4" r="482.6"/>
			</defs>
			<defs>
				<circle id="SVGID_2_" cx="512.4" cy="512.4" r="482.6"/>
			</defs>
			<clipPath id="SVGID_3_">
				<use xlink:href="#SVGID_1_"  style="overflow:visible;"/>
			</clipPath>
			<clipPath id="SVGID_4_" class="st2">
				<use xlink:href="#SVGID_2_"  style="overflow:visible;"/>
			</clipPath>
			<g class="st3">
				<g>
					<circle class="st4" cx="512.4" cy="512.4" r="482.6"/>
				</g>
			</g>
			<g class="st3">
				<path class="st5" d="M912.4,241.7L889,207.1c-0.3-0.4-0.8-0.8-1.3-0.9c-0.5-0.1-1.1,0-1.5,0.3c-0.8,0.5-18.9,13.4-52,59.3
					c2.2-19.9,9-73.2,21.8-95.3c0.5-0.8,0.3-1.9-0.4-2.5l-27-24.9c-0.4-0.4-1-0.6-1.5-0.5c-0.6,0-1.1,0.3-1.4,0.7
					c-1.1,1.3-26.6,33.6-57.4,141.7c-0.9,3.8-21.4,92.9-23.8,105.9c-2.5,3.2-27,30.3-106,0.7c-1.6-3.2-8.4-18.6-7.3-43.3
					c2.1-46.9,30.6-90.4,54.1-118.4c0.8-0.8,79.1-77.3,123.5-96.2c0.7-0.3,1.1-0.9,1.2-1.7c0.1-0.7-0.2-1.4-0.8-1.9l-42.2-30
					c-0.6-0.4-1.5-0.5-2.1-0.1c-0.7,0.4-63.9,34.1-100.9,71.8c13.1-24,40.7-70.7,66.9-89.2c0.2-0.2,0.4-0.3,0.5-0.6
					c2.3-3.7,0.3-5.5,0.1-5.7c-0.2-0.1-0.4-0.3-0.6-0.3l-34.6-13.7c-0.8-0.3-1.7-0.1-2.3,0.5c-0.2,0.3-24.5,27.9-48.9,60.6
					c-33,44.1-50.6,76-52.3,94.7c-2.1,23.3-7.6,47.8-12.4,69.4c-1.9,8.7-3.7,16.6-5,23.4c-3.4-51.9-8.6-192,27.3-270.8
					c0.3-0.6,0.2-1.2,0-1.8c-0.3-0.6-0.8-0.9-1.4-1.1l-37-6.5c-0.4-0.1-4-0.5-8.5,3.7c-13.4,12.3-33.4,62.4-19.3,258.3
					c-13.9-36-52.3-137.6-51.2-158.9l-1.4-103.8c0-0.6-0.3-1.1-0.7-1.5c-0.4-0.4-1-0.6-1.5-0.5l-31.2,2.7c-1.1,0.1-1.9,1-1.9,2
					v113.3c0,0.2,0,0.3,0.1,0.5c0.4,1.4,35.1,138.5,30,180.9c0,0.1,0,0.2,0,0.3c0.1,2.2,1,52.8-81,71.9c-3.2-0.3-31.7-3.6-46.2-25.3
					c-10.9-16.3-11.5-39.1-1.8-67.7L378,201c0.2-0.6,17.1-57.6,27.8-85.3c0-0.1,0.1-0.2,0.1-0.3c0.5-2.3,12.3-56.3,8.1-75.5
					c-0.1-0.5-0.5-1-0.9-1.3c-0.5-0.3-1.1-0.4-1.6-0.2l-31.9,8.8c-1,0.3-1.6,1.2-1.5,2.2c0,0.3,3.3,33.5-1.9,45.1
					c0,0.1-0.1,0.1-0.1,0.2l-30.5,94.8c-3.1,6.2-55.1,108.4-57.8,128c-0.4,2.4-8.3,56.2,3.6,95.9c-12.7-12.5-43.3-48.2-62.1-116
					C210.9,248,182,167,183.4,160.4c0.6-1.9-0.7-2.8-0.9-2.9c-2-1.1-3-1.6-40.8,44.3c-18.2,22.1-36.2,44.6-36.4,44.8
					c-0.2,0.3-0.4,0.6-0.4,1l-0.7,5.4c0,0.3,0,0.6,0.1,0.8c2,6.8,12.3,40.1,19.4,45.6l43.8,74.8l26.1,48.3
					c-20.2-19.3-69.6-63.1-129.9-92.5c-0.5-0.3-1.2-0.3-1.7,0c-0.5,0.2-1,0.7-1.1,1.3l-12.9,42c-0.2,0.5-0.1,1.1,0.2,1.6
					c0.3,0.5,0.7,0.8,1.3,1c0.4,0.1,43.9,12,79.6,60.3c0.2,0.2,17.8,23.9,40.1,48.4c30,32.9,53.8,51.5,70.8,55.4
					c3.6,1.7,39.7,16.8,121.5-23.1c0.3-0.1,31.1-11.9,54.3-1c10.6,5,18.1,14,22.3,26.7c0.5,3.4,9.7,64-17.9,99.3
					c-0.5,0.6-0.6,1.4-0.2,2.1c0.3,0.7,1,1.1,1.8,1.2l169.9,1.6c0,0,0,0,0,0c0.7,0,1.3-0.3,1.7-0.9c0.4-0.6,0.5-1.3,0.2-1.9
					c-0.5-1.2-47.4-124.1,2.5-163.1c0.1,0,0.1-0.1,0.2-0.1c0.1-0.1,13.3-12.6,37.5-18.8c40.4-10.3,80,4.9,106.1,19.4
					c12.9,7.2,24.7,8.7,35.2,4.5c27.7-11.1,42.8-59.7,58.8-111.1c18.6-59.7,37.8-121.5,77.5-130.2c0.7-0.1,1.2-0.6,1.5-1.2
					C912.8,243,912.7,242.3,912.4,241.7z"/>
			</g>
			<g class="st3">
				<rect x="33.7" y="644.1" class="st6" width="954.5" height="360"/>
			</g>
			<g class="st3">
				<g>
					<path class="st5" d="M220.6,691.1c-1.9-9.5-9.5-14.4-18.9-14.4c-16.1,0-22.9,13.2-22.9,27.3c0,15.4,6.8,28.2,23,28.2
						c11.8,0,18.6-8.3,19.5-19.5h9c-1.7,16.8-12.2,27-29.2,27c-21,0-31.2-15.5-31.2-35.1c0-19.6,11.1-35.5,31.9-35.5
						c14.1,0,25.7,7.6,27.8,21.9H220.6z"/>
				</g>
				<g>
					<path class="st5" d="M269.9,669.2c21.4,0,32.3,17,32.3,35.3c0,18.3-10.9,35.3-32.3,35.3s-32.3-17-32.3-35.3
						C237.6,686.2,248.5,669.2,269.9,669.2z M269.9,732.3c16.4,0,23.3-14.2,23.3-27.8c0-13.6-6.9-27.8-23.3-27.8
						s-23.3,14.2-23.3,27.8C246.6,718.1,253.5,732.3,269.9,732.3z"/>
				</g>
				<g>
					<path class="st5" d="M313.2,670.8h31.7c12.7,0,20.5,6.9,20.5,17.7c0,8.1-3.6,14.8-11.7,17.1v0.2c7.8,1.5,9.4,7.3,10.1,13.9
						c0.6,6.6,0.2,14,4,18.6h-10c-2.6-2.7-1.1-10-2.5-16.6c-0.9-6.6-2.5-12.2-11.2-12.2h-21.9v28.8h-9V670.8z M340.9,701.9
						c8.4,0,15.6-2.2,15.6-12c0-6.6-3.6-11.5-12-11.5h-22.3v23.5H340.9z"/>
				</g>
				<g>
					<path class="st5" d="M377.9,670.8h29.6c13.4,0,20.7,7.5,20.7,19.9c0,12.5-7.3,20-20.7,19.9h-20.6v27.6h-9V670.8z M386.9,703.1
						h17.6c10.1,0.1,14.7-4.3,14.7-12.4c0-8-4.6-12.4-14.7-12.4h-17.6V703.1z"/>
				</g>
				<g>
					<path class="st5" d="M467.6,669.2c21.4,0,32.3,17,32.3,35.3c0,18.3-10.9,35.3-32.3,35.3c-21.4,0-32.3-17-32.3-35.3
						C435.3,686.2,446.2,669.2,467.6,669.2z M467.6,732.3c16.4,0,23.3-14.2,23.3-27.8c0-13.6-6.9-27.8-23.3-27.8
						s-23.3,14.2-23.3,27.8C444.3,718.1,451.2,732.3,467.6,732.3z"/>
				</g>
				<g>
					<path class="st5" d="M510.9,670.8h31.7c12.7,0,20.5,6.9,20.5,17.7c0,8.1-3.6,14.8-11.7,17.1v0.2c7.8,1.5,9.4,7.3,10.1,13.9
						c0.6,6.6,0.2,14,4,18.6h-10c-2.6-2.7-1.1-10-2.5-16.6c-0.9-6.6-2.6-12.2-11.2-12.2h-21.9v28.8h-9V670.8z M538.6,701.9
						c8.4,0,15.6-2.2,15.6-12c0-6.6-3.6-11.5-12-11.5h-22.3v23.5H538.6z"/>
				</g>
				<g>
					<path class="st5" d="M593.9,670.8h9.9l26.4,67.4h-9.9l-7.4-20.3h-28.5l-7.6,20.3h-9.3L593.9,670.8z M587.2,710.4h22.9
						l-11.2-31.5h-0.2L587.2,710.4z"/>
				</g>
				<g>
					<path class="st5" d="M684.2,691.1c-1.9-9.5-9.5-14.4-18.9-14.4c-16.1,0-22.9,13.2-22.9,27.3c0,15.4,6.8,28.2,23,28.2
						c11.8,0,18.6-8.3,19.5-19.5h9c-1.7,16.8-12.2,27-29.2,27c-21,0-31.2-15.5-31.2-35.1c0-19.6,11.1-35.5,31.9-35.5
						c14.1,0,25.7,7.6,27.8,21.9H684.2z"/>
				</g>
				<g>
					<path class="st5" d="M705.4,670.8h9v67.4h-9V670.8z"/>
				</g>
				<g>
					<path class="st5" d="M758,669.2c21.4,0,32.3,17,32.3,35.3c0,18.3-10.9,35.3-32.3,35.3s-32.3-17-32.3-35.3
						C725.7,686.2,736.5,669.2,758,669.2z M758,732.3c16.4,0,23.3-14.2,23.3-27.8c0-13.6-6.9-27.8-23.3-27.8
						c-16.4,0-23.3,14.2-23.3,27.8C734.7,718.1,741.5,732.3,758,732.3z M760.3,652.5h10.3L758.3,666h-6L760.3,652.5z"/>
				</g>
				<g>
					<path class="st5" d="M801.1,670.8h9.5l35.5,54.7h0.2v-54.7h8.5v67.4h-9.8l-35.2-54.1h-0.2v54.1h-8.5V670.8z"/>
				</g>
			</g>
			<g class="st3">
				<g>
					<path class="st5" d="M170,753.6h35.6v65.9h55.2v24.2H170V753.6z"/>
				</g>
				<g>
					<path class="st5" d="M270.8,753.6h35.6v90.1h-35.6V753.6z"/>
				</g>
				<g>
					<path class="st5" d="M440.2,808.7c-2.3,11.9-6.3,21.5-15.1,28c-8.7,6.6-22.3,10.2-44.1,10.2c-21.6,0-61.6-1.5-61.6-48.2
						c0-46.7,40-48.2,61.6-48.2c21.5,0,54.5,2.8,59.2,38.5h-40.1c-1-6.4-5.3-15.8-19.1-15.8c-14.5,0-23.7,7.2-23.7,25.5
						c0,18.3,9,25.5,22,25.5c11.2,0,17.9-4.7,20.8-15.5H440.2z"/>
				</g>
				<g>
					<path class="st5" d="M478.3,753.6H522l38.4,90.1h-37.9l-3.8-10.4h-37.1l-3.8,10.4H440L478.3,753.6z M500.3,780.9H500
						l-10.6,30.5h21.5L500.3,780.9z"/>
				</g>
				<g>
					<path class="st5" d="M564.9,753.6h40.6l36.1,50h0.4v-50h34.1v90.1h-39l-37.9-50.5H599v50.5h-34.1V753.6z"/>
				</g>
				<g>
					<path class="st5" d="M693.9,753.6h35.6v90.1h-35.6V753.6z"/>
				</g>
				<g>
					<path class="st5" d="M772.8,753.6h43.7l38.4,90.1H817l-3.8-10.4h-37.1l-3.8,10.4h-37.9L772.8,753.6z M794.8,780.9h-0.3
						l-10.6,30.5h21.5L794.8,780.9z"/>
				</g>
			</g>
			<g class="st3">
				<g>
					<path class="st5" d="M295.5,859.8h6l26.4,62.8h0.2l26.1-62.8h6v67.4h-4.2v-62.3h-0.2L330,927.2h-4.2l-26-62.3h-0.2v62.3h-4.2
						V859.8z"/>
				</g>
				<g>
					<path class="st5" d="M396.5,859.8l26.6,67.4h-4.4l-8.5-21.6h-32.3l-8.6,21.6h-4.4l27.1-67.4H396.5z M408.9,902l-14.5-38.2h-0.2
						l-15,38.2H408.9z"/>
				</g>
				<g>
					<path class="st5" d="M428,859.8h28.1c11.8,0,21.3,4.3,21.3,17.4c0,9.1-5.5,15.8-14.5,17.3v0.2c10,1.1,12.5,7.5,13.1,14.5
						c0.7,7-0.5,14.5,2.3,18.1h-4.6c-2.5-4.6-1-12.4-1.8-18.9c-0.9-6.5-4.1-11.8-15.9-11.8h-24v30.7H428V859.8z M456.1,892.9
						c9.8,0,17.2-4.6,17.2-15.5c0-10.2-8.1-14.1-17.2-14.1h-24v29.6H456.1z"/>
				</g>
				<g>
					<path class="st5" d="M487.5,859.8h4.2v67.4h-4.2V859.8z"/>
				</g>
				<g>
					<path class="st5" d="M503.5,859.8h5.2l42.6,61.9h0.2v-61.9h4.2v67.4h-4.9l-42.9-62.3h-0.2v62.3h-4.2V859.8z"/>
				</g>
				<g>
					<path class="st5" d="M567.6,859.8h4.2v67.4h-4.2V859.8z"/>
				</g>
				<g>
					<path class="st5" d="M583.6,859.8h4.2v63.8H626v3.6h-42.4V859.8z"/>
				</g>
				<g>
					<path class="st5" d="M630.8,859.8h4.2v63.8h38.3v3.6h-42.4V859.8z"/>
				</g>
				<g>
					<path class="st5" d="M702.6,859.8l26.6,67.4h-4.4l-8.5-21.6H684l-8.6,21.6H671l27.1-67.4H702.6z M715,902l-14.5-38.2h-0.2
						l-15,38.2H715z"/>
				</g>
			</g>
		</g>
		<g>
			<path class="st7" d="M512.4,995"/>
		</g>
		<g>
			<g>
				<path class="st4" d="M40.1,646.3C27.9,603,21.7,557.9,21.7,512.4c0-131.1,51-254.3,143.7-347c92.7-92.7,215.9-143.7,347-143.7
					c131.1,0,254.3,51,347,143.7c92.7,92.7,143.7,215.9,143.7,347c0,45.5-6.2,90.5-18.5,133.9l-15.7-4.4
					c11.9-41.9,17.9-85.5,17.9-129.4c0-126.7-49.4-245.9-139-335.5C758.3,87.3,639.1,38,512.4,38s-245.9,49.4-335.5,139
					c-89.6,89.6-139,208.8-139,335.5c0,44,6,87.5,17.9,129.5L40.1,646.3z"/>
			</g>
		</g>
		<g>
			<g>
				<path class="st6" d="M512.4,1003.2c-109,0-212.2-35-298.5-101.2C130.4,837.9,68.7,747.1,40.1,646.3l-0.7-2.2c0,0,16.4,0,17,0
					c27.8,96.5,87.2,183.5,167.4,245c83.4,64,183.2,97.8,288.6,97.8c105.4,0,205.2-33.8,288.6-97.8c80.2-61.5,139.5-148.4,167.4-245
					c0.5,0,16.9,0,16.9,0l-0.6,2.2C956.2,747.1,894.5,837.9,810.9,902C724.7,968.2,621.4,1003.2,512.4,1003.2z"/>
			</g>
		</g>
	</g>
</g>
<g id="Logo_una_sola_tinta" class="st0">
	<g class="st1">
		<g>
			<g>
				<defs>
					<circle id="SVGID_5_" cx="512.4" cy="512.9" r="482.6"/>
				</defs>
				<defs>
					<circle id="SVGID_6_" cx="512.4" cy="512.9" r="482.6"/>
				</defs>
				<clipPath id="SVGID_7_">
					<use xlink:href="#SVGID_5_"  style="overflow:visible;"/>
				</clipPath>
				<clipPath id="SVGID_8_" class="st8">
					<use xlink:href="#SVGID_6_"  style="overflow:visible;"/>
				</clipPath>
				<g class="st9">
					<g>
						<g>
							<path d="M885.9,207.2c-9.8-11.9-20.1-23.4-30.9-34.3c-12.2,23.1-18.7,74.1-20.8,93.4C865.6,222.6,883.5,208.9,885.9,207.2z"
								/>
						</g>
					</g>
					<g>
						<g>
							<path d="M744.5,391.5c2.5-13,23-102.1,23.8-105.9c28-98.2,51.6-133.9,56.5-140.5c-4.9-4.2-9.8-8.2-14.9-12.2
								c-0.1,0.6-0.5,1.2-1.1,1.5c-44.4,19-122.7,95.5-123.5,96.2c-23.4,28-52,71.5-54.1,118.4c-1.1,24.7,5.7,40.1,7.3,43.3
								C717.5,421.7,741.9,394.7,744.5,391.5z"/>
						</g>
					</g>
					<g>
						<g>
							<path d="M575.4,311.5c1.3-6.8,3.1-14.7,5-23.4c4.8-21.6,10.2-46.1,12.4-69.4c1.7-18.7,19.3-50.6,52.3-94.7
								c21.1-28.2,42-52.6,47.5-59c-28.7-11.6-58.8-20.5-90-26.3c0,0.1,0.1,0.1,0.2,0.2c0.3,0.6,0.3,1.2,0,1.8
								C566.8,119.5,572,259.6,575.4,311.5z"/>
						</g>
					</g>
					<g>
						<g>
							<path d="M663.9,172.4C698.8,136.8,757,104.8,764,101c-10.6-6.5-21.6-12.6-32.7-18.3c-0.1,0.2-0.3,0.4-0.5,0.5
								C704.6,101.8,677,148.4,663.9,172.4z"/>
						</g>
					</g>
					<g>
						<g>
							<path d="M485.3,134.4c-1.1,21.3,37.3,122.9,51.2,158.9c-14.1-195.9,5.9-246,19.3-258.3c1.2-1.1,2.4-1.9,3.4-2.5
								c-15.4-1.5-31-2.3-46.8-2.3c-9.6,0-19.1,0.3-28.5,0.9L485.3,134.4z"/>
						</g>
					</g>
					<g>
						<g>
							<path d="M193.5,423.2l-26.1-48.3L123.6,300c-6.9-5.3-16.8-37.1-19.2-45c-15.3,24.1-28.4,49.6-39.3,76.4
								C124.7,360.8,173.5,404.1,193.5,423.2z"/>
						</g>
					</g>
					<g>
						<g>
							<path d="M345.7,190l30.5-94.8c0-0.1,0-0.1,0.1-0.2c5.1-11.6,1.9-44.8,1.9-45.1c0-0.2,0-0.5,0.1-0.7
								c-73.7,21.3-140,59.6-194.6,110.5c0,0.3,0,0.7-0.2,1.2c-1.4,6.6,27.6,87.6,46.1,137c18.8,67.7,49.4,103.5,62.1,116
								c-11.9-39.7-4-93.5-3.6-95.9C290.6,298.4,342.6,196.1,345.7,190z"/>
						</g>
					</g>
					<g>
						<g>
							<path d="M414,40.3c0,0,0,0.1,0,0.1c4.1,19.2-7.6,73.2-8.1,75.5c0,0.1-0.1,0.2-0.1,0.3c-10.7,27.7-27.6,84.7-27.8,85.3
								l-28.5,105.7c-9.7,28.6-9.1,51.4,1.8,67.7c14.5,21.8,43.1,25,46.2,25.3c82-19,81.1-69.7,81-71.9c0-0.1,0-0.2,0-0.3
								c5.1-42.5-29.6-179.6-30-180.9c0-0.2-0.1-0.3-0.1-0.5V34.5C437,36,425.4,38,414,40.3z"/>
						</g>
					</g>
				</g>
				<g class="st9">
					<g>
						<g>
							<path d="M976.8,644.6c11.8-41.9,18.2-86,18.2-131.7c0-99.9-30.4-192.7-82.3-269.7c0,0.3,0,0.6-0.1,0.9
								c-0.3,0.6-0.8,1.1-1.5,1.2c-39.7,8.7-58.9,70.5-77.5,130.2c-16,51.4-31.1,100-58.8,111.1c-10.5,4.2-22.3,2.7-35.2-4.5
								c-26.1-14.5-65.6-29.7-106.1-19.4c-24.2,6.1-37.4,18.6-37.5,18.8c-0.1,0-0.1,0.1-0.2,0.1c-49.5,38.7-3.8,159.8-2.6,163H976.8
								z"/>
						</g>
					</g>
					<g>
						<g>
							<path d="M419.7,644.6c-0.3-0.7-0.2-1.5,0.2-2c27.6-35.3,18.5-95.9,17.9-99.3c-4.2-12.7-11.7-21.7-22.3-26.7
								c-23.3-11-54,0.8-54.3,1c-81.8,39.9-117.9,24.8-121.5,23.1c-17-3.9-40.8-22.5-70.8-55.4c-22.3-24.5-39.9-48.2-40.1-48.4
								c-35.7-48.2-79-60.1-79.6-60.3c-12.7,43.3-19.6,89-19.6,136.4c0,45.6,6.3,89.8,18.2,131.7H419.7z"/>
						</g>
					</g>
				</g>
			</g>
			<g>
				<g>
					<path class="st7" d="M512.4,995.5"/>
				</g>
			</g>
			<g>
				<g>
					<g>
						<path d="M40.1,646.8c-12.3-43.4-18.5-88.4-18.5-133.9c0-131.1,51-254.3,143.7-347c92.7-92.7,215.9-143.7,347-143.7
							c131.1,0,254.3,51,347,143.7c92.7,92.7,143.7,215.9,143.7,347c0,45.5-6.2,90.5-18.5,133.9l-15.7-4.4
							c11.9-41.9,17.9-85.5,17.9-129.4c0-126.7-49.4-245.9-139-335.5c-89.6-89.6-208.8-139-335.5-139s-245.9,49.4-335.5,139
							c-89.6,89.6-139,208.8-139,335.5c0,44,6,87.5,17.9,129.5L40.1,646.8z"/>
					</g>
				</g>
			</g>
			<g>
				<g>
					<g>
						<path d="M512.4,1003.6c-109,0-212.2-35-298.5-101.2C130.4,838.3,68.7,747.5,40.1,646.8l-0.7-2.2c0,0,16.4,0,17,0
							c27.8,96.5,87.2,183.5,167.4,245c83.4,64,183.2,97.8,288.6,97.8c105.4,0,205.2-33.8,288.6-97.8
							c80.2-61.5,139.5-148.4,167.4-245c0.5,0,16.9,0,16.9,0l-0.6,2.2c-28.5,100.8-90.2,191.6-173.7,255.7
							C724.7,968.6,621.4,1003.6,512.4,1003.6z"/>
					</g>
				</g>
			</g>
		</g>
		<g>
			<g>
				<g>
					<g>
						<path d="M220.6,691.5c-1.9-9.5-9.5-14.4-18.9-14.4c-16.1,0-22.9,13.2-22.9,27.3c0,15.4,6.8,28.2,23,28.2
							c11.8,0,18.6-8.3,19.5-19.5h9c-1.7,16.8-12.2,27-29.2,27c-21,0-31.2-15.5-31.2-35.1c0-19.6,11.1-35.5,31.9-35.5
							c14.1,0,25.7,7.6,27.8,21.9H220.6z"/>
					</g>
				</g>
				<g>
					<g>
						<path d="M269.9,669.6c21.4,0,32.3,17,32.3,35.3c0,18.3-10.9,35.3-32.3,35.3c-21.4,0-32.3-17-32.3-35.3
							C237.6,686.6,248.5,669.6,269.9,669.6z M269.9,732.7c16.4,0,23.3-14.2,23.3-27.8c0-13.6-6.9-27.8-23.3-27.8
							c-16.4,0-23.3,14.2-23.3,27.8C246.6,718.6,253.5,732.7,269.9,732.7z"/>
					</g>
				</g>
				<g>
					<g>
						<path d="M313.2,671.2h31.7c12.7,0,20.5,6.9,20.5,17.7c0,8.1-3.6,14.8-11.7,17.1v0.2c7.8,1.5,9.4,7.3,10.1,13.9
							c0.6,6.6,0.2,14,4,18.6h-10c-2.6-2.7-1.1-10-2.5-16.6c-0.9-6.6-2.5-12.2-11.2-12.2h-21.9v28.8h-9V671.2z M340.9,702.3
							c8.4,0,15.6-2.2,15.6-12c0-6.6-3.6-11.5-12-11.5h-22.3v23.5H340.9z"/>
					</g>
				</g>
				<g>
					<g>
						<path d="M377.9,671.2h29.6c13.4,0,20.7,7.5,20.7,19.9s-7.3,20-20.7,19.9h-20.6v27.6h-9V671.2z M386.9,703.5h17.6
							c10.1,0.1,14.7-4.3,14.7-12.4c0-8-4.6-12.4-14.7-12.4h-17.6V703.5z"/>
					</g>
				</g>
				<g>
					<g>
						<path d="M467.6,669.6c21.4,0,32.3,17,32.3,35.3c0,18.3-10.9,35.3-32.3,35.3c-21.4,0-32.3-17-32.3-35.3
							C435.3,686.6,446.2,669.6,467.6,669.6z M467.6,732.7c16.4,0,23.3-14.2,23.3-27.8c0-13.6-6.9-27.8-23.3-27.8
							c-16.4,0-23.3,14.2-23.3,27.8C444.3,718.6,451.2,732.7,467.6,732.7z"/>
					</g>
				</g>
				<g>
					<g>
						<path d="M510.9,671.2h31.7c12.7,0,20.5,6.9,20.5,17.7c0,8.1-3.6,14.8-11.7,17.1v0.2c7.8,1.5,9.4,7.3,10.1,13.9
							c0.6,6.6,0.2,14,4,18.6h-10c-2.6-2.7-1.1-10-2.5-16.6c-0.9-6.6-2.6-12.2-11.2-12.2h-21.9v28.8h-9V671.2z M538.6,702.3
							c8.4,0,15.6-2.2,15.6-12c0-6.6-3.6-11.5-12-11.5h-22.3v23.5H538.6z"/>
					</g>
				</g>
				<g>
					<g>
						<path d="M593.9,671.2h9.9l26.4,67.4h-9.9l-7.4-20.3h-28.5l-7.6,20.3h-9.3L593.9,671.2z M587.2,710.8h22.9l-11.2-31.5h-0.2
							L587.2,710.8z"/>
					</g>
				</g>
				<g>
					<g>
						<path d="M684.2,691.5c-1.9-9.5-9.5-14.4-18.9-14.4c-16.1,0-22.9,13.2-22.9,27.3c0,15.4,6.8,28.2,23,28.2
							c11.8,0,18.6-8.3,19.5-19.5h9c-1.7,16.8-12.2,27-29.2,27c-21,0-31.2-15.5-31.2-35.1c0-19.6,11.1-35.5,31.9-35.5
							c14.1,0,25.7,7.6,27.8,21.9H684.2z"/>
					</g>
				</g>
				<g>
					<g>
						<path d="M705.4,671.2h9v67.4h-9V671.2z"/>
					</g>
				</g>
				<g>
					<g>
						<path d="M758,669.6c21.4,0,32.3,17,32.3,35.3c0,18.3-10.9,35.3-32.3,35.3s-32.3-17-32.3-35.3
							C725.7,686.6,736.5,669.6,758,669.6z M758,732.7c16.4,0,23.3-14.2,23.3-27.8c0-13.6-6.9-27.8-23.3-27.8s-23.3,14.2-23.3,27.8
							C734.7,718.6,741.5,732.7,758,732.7z M760.3,652.9h10.3l-12.4,13.5h-6L760.3,652.9z"/>
					</g>
				</g>
				<g>
					<g>
						<path d="M801.1,671.2h9.5l35.5,54.7h0.2v-54.7h8.5v67.4h-9.8l-35.2-54.1h-0.2v54.1h-8.5V671.2z"/>
					</g>
				</g>
			</g>
			<g>
				<g>
					<g>
						<path d="M170,754.1h35.6V820h55.2v24.2H170V754.1z"/>
					</g>
				</g>
				<g>
					<g>
						<path d="M270.8,754.1h35.6v90.1h-35.6V754.1z"/>
					</g>
				</g>
				<g>
					<g>
						<path d="M440.2,809.1c-2.3,11.9-6.3,21.5-15.1,28c-8.7,6.6-22.3,10.2-44.1,10.2c-21.6,0-61.6-1.5-61.6-48.2
							c0-46.7,40-48.2,61.6-48.2c21.5,0,54.5,2.8,59.2,38.5h-40.1c-1-6.4-5.3-15.8-19.1-15.8c-14.5,0-23.7,7.2-23.7,25.5
							c0,18.3,9,25.5,22,25.5c11.2,0,17.9-4.7,20.8-15.5H440.2z"/>
					</g>
				</g>
				<g>
					<g>
						<path d="M478.3,754.1H522l38.4,90.1h-37.9l-3.8-10.4h-37.1l-3.8,10.4H440L478.3,754.1z M500.3,781.4H500l-10.6,30.5h21.5
							L500.3,781.4z"/>
					</g>
				</g>
				<g>
					<g>
						<path d="M564.9,754.1h40.6l36.1,50h0.4v-50h34.1v90.1h-39l-37.9-50.5H599v50.5h-34.1V754.1z"/>
					</g>
				</g>
				<g>
					<g>
						<path d="M693.9,754.1h35.6v90.1h-35.6V754.1z"/>
					</g>
				</g>
				<g>
					<g>
						<path d="M772.8,754.1h43.7l38.4,90.1H817l-3.8-10.4h-37.1l-3.8,10.4h-37.9L772.8,754.1z M794.8,781.4h-0.3l-10.6,30.5h21.5
							L794.8,781.4z"/>
					</g>
				</g>
			</g>
			<g>
				<g>
					<g>
						<path d="M295.5,860.2h6l26.4,62.8h0.2l26.1-62.8h6v67.4h-4.2v-62.3h-0.2L330,927.7h-4.2l-26-62.3h-0.2v62.3h-4.2V860.2z"/>
					</g>
				</g>
				<g>
					<g>
						<path d="M396.5,860.2l26.6,67.4h-4.4l-8.5-21.6h-32.3l-8.6,21.6h-4.4l27.1-67.4H396.5z M408.9,902.4l-14.5-38.2h-0.2l-15,38.2
							H408.9z"/>
					</g>
				</g>
				<g>
					<g>
						<path d="M428,860.2h28.1c11.8,0,21.3,4.3,21.3,17.4c0,9.1-5.5,15.8-14.5,17.3v0.2c10,1.1,12.5,7.5,13.1,14.5
							c0.7,7-0.5,14.5,2.3,18.1h-4.6c-2.5-4.6-1-12.4-1.8-18.9c-0.9-6.5-4.1-11.8-15.9-11.8h-24v30.7H428V860.2z M456.1,893.4
							c9.8,0,17.2-4.6,17.2-15.5c0-10.2-8.1-14.1-17.2-14.1h-24v29.6H456.1z"/>
					</g>
				</g>
				<g>
					<g>
						<path d="M487.5,860.2h4.2v67.4h-4.2V860.2z"/>
					</g>
				</g>
				<g>
					<g>
						<path d="M503.5,860.2h5.2l42.6,61.9h0.2v-61.9h4.2v67.4h-4.9l-42.9-62.3h-0.2v62.3h-4.2V860.2z"/>
					</g>
				</g>
				<g>
					<g>
						<path d="M567.6,860.2h4.2v67.4h-4.2V860.2z"/>
					</g>
				</g>
				<g>
					<g>
						<path d="M583.6,860.2h4.2v63.9H626v3.6h-42.4V860.2z"/>
					</g>
				</g>
				<g>
					<g>
						<path d="M630.8,860.2h4.2v63.9h38.3v3.6h-42.4V860.2z"/>
					</g>
				</g>
				<g>
					<g>
						<path d="M702.6,860.2l26.6,67.4h-4.4l-8.5-21.6H684l-8.6,21.6H671l27.1-67.4H702.6z M715,902.4l-14.5-38.2h-0.2l-15,38.2H715z
							"/>
					</g>
				</g>
			</g>
		</g>
	</g>
</g>
<g id="logo_White">
	<g>
		<g>
			<g>
				<defs>
					<circle id="SVGID_9_" cx="512.4" cy="512.9" r="482.6"/>
				</defs>
				<defs>
					<circle id="SVGID_10_" cx="512.4" cy="512.9" r="482.6"/>
				</defs>
				<clipPath id="SVGID_11_">
					<use xlink:href="#SVGID_9_"  style="overflow:visible;"/>
				</clipPath>
				<clipPath id="SVGID_12_" class="st10">
					<use xlink:href="#SVGID_10_"  style="overflow:visible;"/>
				</clipPath>
				<g class="st11">
					<g>
						<g>
							<path class="st5" d="M885.9,207.2c-9.8-11.9-20.1-23.4-30.9-34.3c-12.2,23.1-18.7,74.1-20.8,93.4
								C865.6,222.6,883.5,208.9,885.9,207.2z"/>
						</g>
					</g>
					<g>
						<g>
							<path class="st5" d="M744.5,391.5c2.5-13,23-102.1,23.8-105.9c28-98.2,51.6-133.9,56.5-140.5c-4.9-4.2-9.8-8.2-14.9-12.2
								c-0.1,0.6-0.5,1.2-1.1,1.5c-44.4,19-122.7,95.5-123.5,96.2c-23.4,28-52,71.5-54.1,118.4c-1.1,24.7,5.7,40.1,7.3,43.3
								C717.5,421.7,741.9,394.7,744.5,391.5z"/>
						</g>
					</g>
					<g>
						<g>
							<path class="st5" d="M575.4,311.5c1.3-6.8,3.1-14.7,5-23.4c4.8-21.6,10.2-46.1,12.4-69.4c1.7-18.7,19.3-50.6,52.3-94.7
								c21.1-28.2,42-52.6,47.5-59c-28.7-11.6-58.8-20.5-90-26.3c0,0.1,0.1,0.1,0.2,0.2c0.3,0.6,0.3,1.2,0,1.8
								C566.8,119.5,572,259.6,575.4,311.5z"/>
						</g>
					</g>
					<g>
						<g>
							<path class="st5" d="M663.9,172.4C698.8,136.8,757,104.8,764,101c-10.6-6.5-21.6-12.6-32.7-18.3c-0.1,0.2-0.3,0.4-0.5,0.5
								C704.6,101.8,677,148.4,663.9,172.4z"/>
						</g>
					</g>
					<g>
						<g>
							<path class="st5" d="M485.3,134.4c-1.1,21.3,37.3,122.9,51.2,158.9c-14.1-195.9,5.9-246,19.3-258.3c1.2-1.1,2.4-1.9,3.4-2.5
								c-15.4-1.5-31-2.3-46.8-2.3c-9.6,0-19.1,0.3-28.5,0.9L485.3,134.4z"/>
						</g>
					</g>
					<g>
						<g>
							<path class="st5" d="M193.5,423.2l-26.1-48.3L123.6,300c-6.9-5.3-16.8-37.1-19.2-45c-15.3,24.1-28.4,49.6-39.3,76.4
								C124.7,360.8,173.5,404.1,193.5,423.2z"/>
						</g>
					</g>
					<g>
						<g>
							<path class="st5" d="M345.7,190l30.5-94.8c0-0.1,0-0.1,0.1-0.2c5.1-11.6,1.9-44.8,1.9-45.1c0-0.2,0-0.5,0.1-0.7
								c-73.7,21.3-140,59.6-194.6,110.5c0,0.3,0,0.7-0.2,1.2c-1.4,6.6,27.6,87.6,46.1,137c18.8,67.7,49.4,103.5,62.1,116
								c-11.9-39.7-4-93.5-3.6-95.9C290.6,298.4,342.6,196.1,345.7,190z"/>
						</g>
					</g>
					<g>
						<g>
							<path class="st5" d="M414,40.3c0,0,0,0.1,0,0.1c4.1,19.2-7.6,73.2-8.1,75.5c0,0.1-0.1,0.2-0.1,0.3
								c-10.7,27.7-27.6,84.7-27.8,85.3l-28.5,105.7c-9.7,28.6-9.1,51.4,1.8,67.7c14.5,21.8,43.1,25,46.2,25.3
								c82-19,81.1-69.7,81-71.9c0-0.1,0-0.2,0-0.3c5.1-42.5-29.6-179.6-30-180.9c0-0.2-0.1-0.3-0.1-0.5V34.5
								C437,36,425.4,38,414,40.3z"/>
						</g>
					</g>
				</g>
				<g class="st11">
					<g>
						<g>
							<path class="st5" d="M976.8,644.6c11.8-41.9,18.2-86,18.2-131.7c0-99.9-30.4-192.7-82.3-269.7c0,0.3,0,0.6-0.1,0.9
								c-0.3,0.6-0.8,1.1-1.5,1.2c-39.7,8.7-58.9,70.5-77.5,130.2c-16,51.4-31.1,100-58.8,111.1c-10.5,4.2-22.3,2.7-35.2-4.5
								c-26.1-14.5-65.6-29.7-106.1-19.4c-24.2,6.1-37.4,18.6-37.5,18.8c-0.1,0-0.1,0.1-0.2,0.1c-49.5,38.7-3.8,159.8-2.6,163H976.8
								z"/>
						</g>
					</g>
					<g>
						<g>
							<path class="st5" d="M419.7,644.6c-0.3-0.7-0.2-1.5,0.2-2c27.6-35.3,18.5-95.9,17.9-99.3c-4.2-12.7-11.7-21.7-22.3-26.7
								c-23.3-11-54,0.8-54.3,1c-81.8,39.9-117.9,24.8-121.5,23.1c-17-3.9-40.8-22.5-70.8-55.4c-22.3-24.5-39.9-48.2-40.1-48.4
								c-35.7-48.2-79-60.1-79.6-60.3c-12.7,43.3-19.6,89-19.6,136.4c0,45.6,6.3,89.8,18.2,131.7H419.7z"/>
						</g>
					</g>
				</g>
			</g>
			<g>
				<g>
					<path class="st7" d="M512.4,995.5"/>
				</g>
			</g>
			<g>
				<g>
					<g>
						<path class="st5" d="M40.1,646.8c-12.3-43.4-18.5-88.4-18.5-133.9c0-131.1,51-254.3,143.7-347
							c92.7-92.7,215.9-143.7,347-143.7c131.1,0,254.3,51,347,143.7c92.7,92.7,143.7,215.9,143.7,347c0,45.5-6.2,90.5-18.5,133.9
							l-15.7-4.4c11.9-41.9,17.9-85.5,17.9-129.4c0-126.7-49.4-245.9-139-335.5c-89.6-89.6-208.8-139-335.5-139
							s-245.9,49.4-335.5,139c-89.6,89.6-139,208.8-139,335.5c0,44,6,87.5,17.9,129.5L40.1,646.8z"/>
					</g>
				</g>
			</g>
			<g>
				<g>
					<g>
						<path class="st5" d="M512.4,1003.6c-109,0-212.2-35-298.5-101.2C130.4,838.3,68.7,747.5,40.1,646.8l-0.7-2.2c0,0,16.4,0,17,0
							c27.8,96.5,87.2,183.5,167.4,245c83.4,64,183.2,97.8,288.6,97.8c105.4,0,205.2-33.8,288.6-97.8
							c80.2-61.5,139.5-148.4,167.4-245c0.5,0,16.9,0,16.9,0l-0.6,2.2c-28.5,100.8-90.2,191.6-173.7,255.7
							C724.7,968.6,621.4,1003.6,512.4,1003.6z"/>
					</g>
				</g>
			</g>
		</g>
		<g>
			<g>
				<g>
					<g>
						<path class="st5" d="M220.6,691.5c-1.9-9.5-9.5-14.4-18.9-14.4c-16.1,0-22.9,13.2-22.9,27.3c0,15.4,6.8,28.2,23,28.2
							c11.8,0,18.6-8.3,19.5-19.5h9c-1.7,16.8-12.2,27-29.2,27c-21,0-31.2-15.5-31.2-35.1c0-19.6,11.1-35.5,31.9-35.5
							c14.1,0,25.7,7.6,27.8,21.9H220.6z"/>
					</g>
				</g>
				<g>
					<g>
						<path class="st5" d="M269.9,669.6c21.4,0,32.3,17,32.3,35.3c0,18.3-10.9,35.3-32.3,35.3c-21.4,0-32.3-17-32.3-35.3
							C237.6,686.6,248.5,669.6,269.9,669.6z M269.9,732.7c16.4,0,23.3-14.2,23.3-27.8c0-13.6-6.9-27.8-23.3-27.8
							c-16.4,0-23.3,14.2-23.3,27.8C246.6,718.6,253.5,732.7,269.9,732.7z"/>
					</g>
				</g>
				<g>
					<g>
						<path class="st5" d="M313.2,671.2h31.7c12.7,0,20.5,6.9,20.5,17.7c0,8.1-3.6,14.8-11.7,17.1v0.2c7.8,1.5,9.4,7.3,10.1,13.9
							c0.6,6.6,0.2,14,4,18.6h-10c-2.6-2.7-1.1-10-2.5-16.6c-0.9-6.6-2.5-12.2-11.2-12.2h-21.9v28.8h-9V671.2z M340.9,702.3
							c8.4,0,15.6-2.2,15.6-12c0-6.6-3.6-11.5-12-11.5h-22.3v23.5H340.9z"/>
					</g>
				</g>
				<g>
					<g>
						<path class="st5" d="M377.9,671.2h29.6c13.4,0,20.7,7.5,20.7,19.9s-7.3,20-20.7,19.9h-20.6v27.6h-9V671.2z M386.9,703.5h17.6
							c10.1,0.1,14.7-4.3,14.7-12.4c0-8-4.6-12.4-14.7-12.4h-17.6V703.5z"/>
					</g>
				</g>
				<g>
					<g>
						<path class="st5" d="M467.6,669.6c21.4,0,32.3,17,32.3,35.3c0,18.3-10.9,35.3-32.3,35.3c-21.4,0-32.3-17-32.3-35.3
							C435.3,686.6,446.2,669.6,467.6,669.6z M467.6,732.7c16.4,0,23.3-14.2,23.3-27.8c0-13.6-6.9-27.8-23.3-27.8
							c-16.4,0-23.3,14.2-23.3,27.8C444.3,718.6,451.2,732.7,467.6,732.7z"/>
					</g>
				</g>
				<g>
					<g>
						<path class="st5" d="M510.9,671.2h31.7c12.7,0,20.5,6.9,20.5,17.7c0,8.1-3.6,14.8-11.7,17.1v0.2c7.8,1.5,9.4,7.3,10.1,13.9
							c0.6,6.6,0.2,14,4,18.6h-10c-2.6-2.7-1.1-10-2.5-16.6c-0.9-6.6-2.6-12.2-11.2-12.2h-21.9v28.8h-9V671.2z M538.6,702.3
							c8.4,0,15.6-2.2,15.6-12c0-6.6-3.6-11.5-12-11.5h-22.3v23.5H538.6z"/>
					</g>
				</g>
				<g>
					<g>
						<path class="st5" d="M593.9,671.2h9.9l26.4,67.4h-9.9l-7.4-20.3h-28.5l-7.6,20.3h-9.3L593.9,671.2z M587.2,710.8h22.9
							l-11.2-31.5h-0.2L587.2,710.8z"/>
					</g>
				</g>
				<g>
					<g>
						<path class="st5" d="M684.2,691.5c-1.9-9.5-9.5-14.4-18.9-14.4c-16.1,0-22.9,13.2-22.9,27.3c0,15.4,6.8,28.2,23,28.2
							c11.8,0,18.6-8.3,19.5-19.5h9c-1.7,16.8-12.2,27-29.2,27c-21,0-31.2-15.5-31.2-35.1c0-19.6,11.1-35.5,31.9-35.5
							c14.1,0,25.7,7.6,27.8,21.9H684.2z"/>
					</g>
				</g>
				<g>
					<g>
						<path class="st5" d="M705.4,671.2h9v67.4h-9V671.2z"/>
					</g>
				</g>
				<g>
					<g>
						<path class="st5" d="M758,669.6c21.4,0,32.3,17,32.3,35.3c0,18.3-10.9,35.3-32.3,35.3s-32.3-17-32.3-35.3
							C725.7,686.6,736.5,669.6,758,669.6z M758,732.7c16.4,0,23.3-14.2,23.3-27.8c0-13.6-6.9-27.8-23.3-27.8s-23.3,14.2-23.3,27.8
							C734.7,718.6,741.5,732.7,758,732.7z M760.3,652.9h10.3l-12.4,13.5h-6L760.3,652.9z"/>
					</g>
				</g>
				<g>
					<g>
						<path class="st5" d="M801.1,671.2h9.5l35.5,54.7h0.2v-54.7h8.5v67.4h-9.8l-35.2-54.1h-0.2v54.1h-8.5V671.2z"/>
					</g>
				</g>
			</g>
			<g>
				<g>
					<g>
						<path class="st5" d="M170,754.1h35.6V820h55.2v24.2H170V754.1z"/>
					</g>
				</g>
				<g>
					<g>
						<path class="st5" d="M270.8,754.1h35.6v90.1h-35.6V754.1z"/>
					</g>
				</g>
				<g>
					<g>
						<path class="st5" d="M440.2,809.1c-2.3,11.9-6.3,21.5-15.1,28c-8.7,6.6-22.3,10.2-44.1,10.2c-21.6,0-61.6-1.5-61.6-48.2
							c0-46.7,40-48.2,61.6-48.2c21.5,0,54.5,2.8,59.2,38.5h-40.1c-1-6.4-5.3-15.8-19.1-15.8c-14.5,0-23.7,7.2-23.7,25.5
							c0,18.3,9,25.5,22,25.5c11.2,0,17.9-4.7,20.8-15.5H440.2z"/>
					</g>
				</g>
				<g>
					<g>
						<path class="st5" d="M478.3,754.1H522l38.4,90.1h-37.9l-3.8-10.4h-37.1l-3.8,10.4H440L478.3,754.1z M500.3,781.4H500
							l-10.6,30.5h21.5L500.3,781.4z"/>
					</g>
				</g>
				<g>
					<g>
						<path class="st5" d="M564.9,754.1h40.6l36.1,50h0.4v-50h34.1v90.1h-39l-37.9-50.5H599v50.5h-34.1V754.1z"/>
					</g>
				</g>
				<g>
					<g>
						<path class="st5" d="M693.9,754.1h35.6v90.1h-35.6V754.1z"/>
					</g>
				</g>
				<g>
					<g>
						<path class="st5" d="M772.8,754.1h43.7l38.4,90.1H817l-3.8-10.4h-37.1l-3.8,10.4h-37.9L772.8,754.1z M794.8,781.4h-0.3
							l-10.6,30.5h21.5L794.8,781.4z"/>
					</g>
				</g>
			</g>
			<g>
				<g>
					<g>
						<path class="st5" d="M295.5,860.2h6l26.4,62.8h0.2l26.1-62.8h6v67.4h-4.2v-62.3h-0.2L330,927.7h-4.2l-26-62.3h-0.2v62.3h-4.2
							V860.2z"/>
					</g>
				</g>
				<g>
					<g>
						<path class="st5" d="M396.5,860.2l26.6,67.4h-4.4l-8.5-21.6h-32.3l-8.6,21.6h-4.4l27.1-67.4H396.5z M408.9,902.4l-14.5-38.2
							h-0.2l-15,38.2H408.9z"/>
					</g>
				</g>
				<g>
					<g>
						<path class="st5" d="M428,860.2h28.1c11.8,0,21.3,4.3,21.3,17.4c0,9.1-5.5,15.8-14.5,17.3v0.2c10,1.1,12.5,7.5,13.1,14.5
							c0.7,7-0.5,14.5,2.3,18.1h-4.6c-2.5-4.6-1-12.4-1.8-18.9c-0.9-6.5-4.1-11.8-15.9-11.8h-24v30.7H428V860.2z M456.1,893.4
							c9.8,0,17.2-4.6,17.2-15.5c0-10.2-8.1-14.1-17.2-14.1h-24v29.6H456.1z"/>
					</g>
				</g>
				<g>
					<g>
						<path class="st5" d="M487.5,860.2h4.2v67.4h-4.2V860.2z"/>
					</g>
				</g>
				<g>
					<g>
						<path class="st5" d="M503.5,860.2h5.2l42.6,61.9h0.2v-61.9h4.2v67.4h-4.9l-42.9-62.3h-0.2v62.3h-4.2V860.2z"/>
					</g>
				</g>
				<g>
					<g>
						<path class="st5" d="M567.6,860.2h4.2v67.4h-4.2V860.2z"/>
					</g>
				</g>
				<g>
					<g>
						<path class="st5" d="M583.6,860.2h4.2v63.9H626v3.6h-42.4V860.2z"/>
					</g>
				</g>
				<g>
					<g>
						<path class="st5" d="M630.8,860.2h4.2v63.9h38.3v3.6h-42.4V860.2z"/>
					</g>
				</g>
				<g>
					<g>
						<path class="st5" d="M702.6,860.2l26.6,67.4h-4.4l-8.5-21.6H684l-8.6,21.6H671l27.1-67.4H702.6z M715,902.4l-14.5-38.2h-0.2
							l-15,38.2H715z"/>
					</g>
				</g>
			</g>
		</g>
	</g>
</g>
<g id="Logo_Color" class="st0">
	<g class="st1">
		<g>
			<defs>
				<circle id="SVGID_13_" cx="512.4" cy="512.4" r="482.6"/>
			</defs>
			<defs>
				<circle id="SVGID_14_" cx="512.4" cy="512.4" r="482.6"/>
			</defs>
			<clipPath id="SVGID_15_">
				<use xlink:href="#SVGID_13_"  style="overflow:visible;"/>
			</clipPath>
			<clipPath id="SVGID_16_" class="st12">
				<use xlink:href="#SVGID_14_"  style="overflow:visible;"/>
			</clipPath>
			<g class="st13">
				<g>
					<circle class="st14" cx="512.4" cy="512.4" r="482.6"/>
				</g>
			</g>
			<g class="st13">
				<path class="st5" d="M912.4,241.7L889,207.1c-0.3-0.4-0.8-0.8-1.3-0.9c-0.5-0.1-1.1,0-1.5,0.3c-0.8,0.5-18.9,13.4-52,59.3
					c2.2-19.9,9-73.2,21.8-95.3c0.5-0.8,0.3-1.9-0.4-2.5l-27-24.9c-0.4-0.4-1-0.6-1.5-0.5c-0.6,0-1.1,0.3-1.4,0.7
					c-1.1,1.3-26.6,33.6-57.4,141.7c-0.9,3.8-21.4,92.9-23.8,105.9c-2.5,3.2-27,30.3-106,0.7c-1.6-3.2-8.4-18.6-7.3-43.3
					c2.1-46.9,30.6-90.4,54.1-118.4c0.8-0.8,79.1-77.3,123.5-96.2c0.7-0.3,1.1-0.9,1.2-1.7c0.1-0.7-0.2-1.4-0.8-1.9l-42.2-30
					c-0.6-0.4-1.5-0.5-2.1-0.1c-0.7,0.4-63.9,34.1-100.9,71.8c13.1-24,40.7-70.7,66.9-89.2c0.2-0.2,0.4-0.3,0.5-0.6
					c2.3-3.7,0.3-5.5,0.1-5.7c-0.2-0.1-0.4-0.3-0.6-0.3l-34.6-13.7c-0.8-0.3-1.7-0.1-2.3,0.5c-0.2,0.3-24.5,27.9-48.9,60.6
					c-33,44.1-50.6,76-52.3,94.7c-2.1,23.3-7.6,47.8-12.4,69.4c-1.9,8.7-3.7,16.6-5,23.4c-3.4-51.9-8.6-192,27.3-270.8
					c0.3-0.6,0.2-1.2,0-1.8c-0.3-0.6-0.8-0.9-1.4-1.1l-37-6.5c-0.4-0.1-4-0.5-8.5,3.7c-13.4,12.3-33.4,62.4-19.3,258.3
					c-13.9-36-52.3-137.6-51.2-158.9l-1.4-103.8c0-0.6-0.3-1.1-0.7-1.5c-0.4-0.4-1-0.6-1.5-0.5l-31.2,2.7c-1.1,0.1-1.9,1-1.9,2
					v113.3c0,0.2,0,0.3,0.1,0.5c0.4,1.4,35.1,138.5,30,180.9c0,0.1,0,0.2,0,0.3c0.1,2.2,1,52.8-81,71.9c-3.2-0.3-31.7-3.6-46.2-25.3
					c-10.9-16.3-11.5-39.1-1.8-67.7L378,201c0.2-0.6,17.1-57.6,27.8-85.3c0-0.1,0.1-0.2,0.1-0.3c0.5-2.3,12.3-56.3,8.1-75.5
					c-0.1-0.5-0.5-1-0.9-1.3c-0.5-0.3-1.1-0.4-1.6-0.2l-31.9,8.8c-1,0.3-1.6,1.2-1.5,2.2c0,0.3,3.3,33.5-1.9,45.1
					c0,0.1-0.1,0.1-0.1,0.2l-30.5,94.8c-3.1,6.2-55.1,108.4-57.8,128c-0.4,2.4-8.3,56.2,3.6,95.9c-12.7-12.5-43.3-48.2-62.1-116
					C210.9,248,182,167,183.4,160.4c0.6-1.9-0.7-2.8-0.9-2.9c-2-1.1-3-1.6-40.8,44.3c-18.2,22.1-36.2,44.6-36.4,44.8
					c-0.2,0.3-0.4,0.6-0.4,1l-0.7,5.4c0,0.3,0,0.6,0.1,0.8c2,6.8,12.3,40.1,19.4,45.6l43.8,74.8l26.1,48.3
					c-20.2-19.3-69.6-63.1-129.9-92.5c-0.5-0.3-1.2-0.3-1.7,0c-0.5,0.2-1,0.7-1.1,1.3l-12.9,42c-0.2,0.5-0.1,1.1,0.2,1.6
					c0.3,0.5,0.7,0.8,1.3,1c0.4,0.1,43.9,12,79.6,60.3c0.2,0.2,17.8,23.9,40.1,48.4c30,32.9,53.8,51.5,70.8,55.4
					c3.6,1.7,39.7,16.8,121.5-23.1c0.3-0.1,31.1-11.9,54.3-1c10.6,5,18.1,14,22.3,26.7c0.5,3.4,9.7,64-17.9,99.3
					c-0.5,0.6-0.6,1.4-0.2,2.1c0.3,0.7,1,1.1,1.8,1.2l169.9,1.6c0,0,0,0,0,0c0.7,0,1.3-0.3,1.7-0.9c0.4-0.6,0.5-1.3,0.2-1.9
					c-0.5-1.2-47.4-124.1,2.5-163.1c0.1,0,0.1-0.1,0.2-0.1c0.1-0.1,13.3-12.6,37.5-18.8c40.4-10.3,80,4.9,106.1,19.4
					c12.9,7.2,24.7,8.7,35.2,4.5c27.7-11.1,42.8-59.7,58.8-111.1c18.6-59.7,37.8-121.5,77.5-130.2c0.7-0.1,1.2-0.6,1.5-1.2
					C912.8,243,912.7,242.3,912.4,241.7z"/>
			</g>
			<g class="st13">
				<rect x="33.7" y="644.1" class="st15" width="954.5" height="360"/>
			</g>
			<g class="st13">
				<g>
					<path class="st5" d="M220.6,691.1c-1.9-9.5-9.5-14.4-18.9-14.4c-16.1,0-22.9,13.2-22.9,27.3c0,15.4,6.8,28.2,23,28.2
						c11.8,0,18.6-8.3,19.5-19.5h9c-1.7,16.8-12.2,27-29.2,27c-21,0-31.2-15.5-31.2-35.1c0-19.6,11.1-35.5,31.9-35.5
						c14.1,0,25.7,7.6,27.8,21.9H220.6z"/>
				</g>
				<g>
					<path class="st5" d="M269.9,669.2c21.4,0,32.3,17,32.3,35.3c0,18.3-10.9,35.3-32.3,35.3s-32.3-17-32.3-35.3
						C237.6,686.2,248.5,669.2,269.9,669.2z M269.9,732.3c16.4,0,23.3-14.2,23.3-27.8c0-13.6-6.9-27.8-23.3-27.8
						s-23.3,14.2-23.3,27.8C246.6,718.1,253.5,732.3,269.9,732.3z"/>
				</g>
				<g>
					<path class="st5" d="M313.2,670.8h31.7c12.7,0,20.5,6.9,20.5,17.7c0,8.1-3.6,14.8-11.7,17.1v0.2c7.8,1.5,9.4,7.3,10.1,13.9
						c0.6,6.6,0.2,14,4,18.6h-10c-2.6-2.7-1.1-10-2.5-16.6c-0.9-6.6-2.5-12.2-11.2-12.2h-21.9v28.8h-9V670.8z M340.9,701.9
						c8.4,0,15.6-2.2,15.6-12c0-6.6-3.6-11.5-12-11.5h-22.3v23.5H340.9z"/>
				</g>
				<g>
					<path class="st5" d="M377.9,670.8h29.6c13.4,0,20.7,7.5,20.7,19.9c0,12.5-7.3,20-20.7,19.9h-20.6v27.6h-9V670.8z M386.9,703.1
						h17.6c10.1,0.1,14.7-4.3,14.7-12.4c0-8-4.6-12.4-14.7-12.4h-17.6V703.1z"/>
				</g>
				<g>
					<path class="st5" d="M467.6,669.2c21.4,0,32.3,17,32.3,35.3c0,18.3-10.9,35.3-32.3,35.3c-21.4,0-32.3-17-32.3-35.3
						C435.3,686.2,446.2,669.2,467.6,669.2z M467.6,732.3c16.4,0,23.3-14.2,23.3-27.8c0-13.6-6.9-27.8-23.3-27.8
						s-23.3,14.2-23.3,27.8C444.3,718.1,451.2,732.3,467.6,732.3z"/>
				</g>
				<g>
					<path class="st5" d="M510.9,670.8h31.7c12.7,0,20.5,6.9,20.5,17.7c0,8.1-3.6,14.8-11.7,17.1v0.2c7.8,1.5,9.4,7.3,10.1,13.9
						c0.6,6.6,0.2,14,4,18.6h-10c-2.6-2.7-1.1-10-2.5-16.6c-0.9-6.6-2.6-12.2-11.2-12.2h-21.9v28.8h-9V670.8z M538.6,701.9
						c8.4,0,15.6-2.2,15.6-12c0-6.6-3.6-11.5-12-11.5h-22.3v23.5H538.6z"/>
				</g>
				<g>
					<path class="st5" d="M593.9,670.8h9.9l26.4,67.4h-9.9l-7.4-20.3h-28.5l-7.6,20.3h-9.3L593.9,670.8z M587.2,710.4h22.9
						l-11.2-31.5h-0.2L587.2,710.4z"/>
				</g>
				<g>
					<path class="st5" d="M684.2,691.1c-1.9-9.5-9.5-14.4-18.9-14.4c-16.1,0-22.9,13.2-22.9,27.3c0,15.4,6.8,28.2,23,28.2
						c11.8,0,18.6-8.3,19.5-19.5h9c-1.7,16.8-12.2,27-29.2,27c-21,0-31.2-15.5-31.2-35.1c0-19.6,11.1-35.5,31.9-35.5
						c14.1,0,25.7,7.6,27.8,21.9H684.2z"/>
				</g>
				<g>
					<path class="st5" d="M705.4,670.8h9v67.4h-9V670.8z"/>
				</g>
				<g>
					<path class="st5" d="M758,669.2c21.4,0,32.3,17,32.3,35.3c0,18.3-10.9,35.3-32.3,35.3s-32.3-17-32.3-35.3
						C725.7,686.2,736.5,669.2,758,669.2z M758,732.3c16.4,0,23.3-14.2,23.3-27.8c0-13.6-6.9-27.8-23.3-27.8
						c-16.4,0-23.3,14.2-23.3,27.8C734.7,718.1,741.5,732.3,758,732.3z M760.3,652.5h10.3L758.3,666h-6L760.3,652.5z"/>
				</g>
				<g>
					<path class="st5" d="M801.1,670.8h9.5l35.5,54.7h0.2v-54.7h8.5v67.4h-9.8l-35.2-54.1h-0.2v54.1h-8.5V670.8z"/>
				</g>
			</g>
			<g class="st13">
				<g>
					<path class="st5" d="M170,753.6h35.6v65.9h55.2v24.2H170V753.6z"/>
				</g>
				<g>
					<path class="st5" d="M270.8,753.6h35.6v90.1h-35.6V753.6z"/>
				</g>
				<g>
					<path class="st5" d="M440.2,808.7c-2.3,11.9-6.3,21.5-15.1,28c-8.7,6.6-22.3,10.2-44.1,10.2c-21.6,0-61.6-1.5-61.6-48.2
						c0-46.7,40-48.2,61.6-48.2c21.5,0,54.5,2.8,59.2,38.5h-40.1c-1-6.4-5.3-15.8-19.1-15.8c-14.5,0-23.7,7.2-23.7,25.5
						c0,18.3,9,25.5,22,25.5c11.2,0,17.9-4.7,20.8-15.5H440.2z"/>
				</g>
				<g>
					<path class="st5" d="M478.3,753.6H522l38.4,90.1h-37.9l-3.8-10.4h-37.1l-3.8,10.4H440L478.3,753.6z M500.3,780.9H500
						l-10.6,30.5h21.5L500.3,780.9z"/>
				</g>
				<g>
					<path class="st5" d="M564.9,753.6h40.6l36.1,50h0.4v-50h34.1v90.1h-39l-37.9-50.5H599v50.5h-34.1V753.6z"/>
				</g>
				<g>
					<path class="st5" d="M693.9,753.6h35.6v90.1h-35.6V753.6z"/>
				</g>
				<g>
					<path class="st5" d="M772.8,753.6h43.7l38.4,90.1H817l-3.8-10.4h-37.1l-3.8,10.4h-37.9L772.8,753.6z M794.8,780.9h-0.3
						l-10.6,30.5h21.5L794.8,780.9z"/>
				</g>
			</g>
			<g class="st13">
				<g>
					<path class="st5" d="M295.5,859.8h6l26.4,62.8h0.2l26.1-62.8h6v67.4h-4.2v-62.3h-0.2L330,927.2h-4.2l-26-62.3h-0.2v62.3h-4.2
						V859.8z"/>
				</g>
				<g>
					<path class="st5" d="M396.5,859.8l26.6,67.4h-4.4l-8.5-21.6h-32.3l-8.6,21.6h-4.4l27.1-67.4H396.5z M408.9,902l-14.5-38.2h-0.2
						l-15,38.2H408.9z"/>
				</g>
				<g>
					<path class="st5" d="M428,859.8h28.1c11.8,0,21.3,4.3,21.3,17.4c0,9.1-5.5,15.8-14.5,17.3v0.2c10,1.1,12.5,7.5,13.1,14.5
						c0.7,7-0.5,14.5,2.3,18.1h-4.6c-2.5-4.6-1-12.4-1.8-18.9c-0.9-6.5-4.1-11.8-15.9-11.8h-24v30.7H428V859.8z M456.1,892.9
						c9.8,0,17.2-4.6,17.2-15.5c0-10.2-8.1-14.1-17.2-14.1h-24v29.6H456.1z"/>
				</g>
				<g>
					<path class="st5" d="M487.5,859.8h4.2v67.4h-4.2V859.8z"/>
				</g>
				<g>
					<path class="st5" d="M503.5,859.8h5.2l42.6,61.9h0.2v-61.9h4.2v67.4h-4.9l-42.9-62.3h-0.2v62.3h-4.2V859.8z"/>
				</g>
				<g>
					<path class="st5" d="M567.6,859.8h4.2v67.4h-4.2V859.8z"/>
				</g>
				<g>
					<path class="st5" d="M583.6,859.8h4.2v63.8H626v3.6h-42.4V859.8z"/>
				</g>
				<g>
					<path class="st5" d="M630.8,859.8h4.2v63.8h38.3v3.6h-42.4V859.8z"/>
				</g>
				<g>
					<path class="st5" d="M702.6,859.8l26.6,67.4h-4.4l-8.5-21.6H684l-8.6,21.6H671l27.1-67.4H702.6z M715,902l-14.5-38.2h-0.2
						l-15,38.2H715z"/>
				</g>
			</g>
		</g>
		<g>
			<path class="st7" d="M512.4,995"/>
		</g>
		<g>
			<g>
				<path class="st14" d="M40.1,646.3C27.9,603,21.7,557.9,21.7,512.4c0-131.1,51-254.3,143.7-347c92.7-92.7,215.9-143.7,347-143.7
					c131.1,0,254.3,51,347,143.7c92.7,92.7,143.7,215.9,143.7,347c0,45.5-6.2,90.5-18.5,133.9l-15.7-4.4
					c11.9-41.9,17.9-85.5,17.9-129.4c0-126.7-49.4-245.9-139-335.5C758.3,87.3,639.1,38,512.4,38s-245.9,49.4-335.5,139
					c-89.6,89.6-139,208.8-139,335.5c0,44,6,87.5,17.9,129.5L40.1,646.3z"/>
			</g>
		</g>
		<g>
			<g>
				<path class="st15" d="M512.4,1003.2c-109,0-212.2-35-298.5-101.2C130.4,837.9,68.7,747.1,40.1,646.3l-0.7-2.2c0,0,16.4,0,17,0
					c27.8,96.5,87.2,183.5,167.4,245c83.4,64,183.2,97.8,288.6,97.8c105.4,0,205.2-33.8,288.6-97.8c80.2-61.5,139.5-148.4,167.4-245
					c0.5,0,16.9,0,16.9,0l-0.6,2.2C956.2,747.1,894.5,837.9,810.9,902C724.7,968.2,621.4,1003.2,512.4,1003.2z"/>
			</g>
		</g>
	</g>
</g>
<g id="Logo_Fuentes" class="st0">
	<g class="st1">
		<g>
			<g>
				<defs>
					<circle id="SVGID_17_" cx="512.4" cy="512.4" r="482.6"/>
				</defs>
				<defs>
					<circle id="SVGID_18_" cx="512.4" cy="512.4" r="482.6"/>
				</defs>
				<clipPath id="SVGID_19_">
					<use xlink:href="#SVGID_17_"  style="overflow:visible;"/>
				</clipPath>
				<clipPath id="SVGID_20_" class="st16">
					<use xlink:href="#SVGID_18_"  style="overflow:visible;"/>
				</clipPath>
				<g class="st17">
					<circle class="st14" cx="512.4" cy="512.4" r="482.6"/>
				</g>
				<path class="st18" d="M912.4,241.7L889,207.1c-0.3-0.4-0.8-0.8-1.3-0.9c-0.5-0.1-1.1,0-1.5,0.3c-0.8,0.5-18.9,13.4-52,59.3
					c2.2-19.9,9-73.2,21.8-95.3c0.5-0.8,0.3-1.9-0.4-2.5l-27-24.9c-0.4-0.4-1-0.6-1.5-0.5c-0.6,0-1.1,0.3-1.4,0.7
					c-1.1,1.3-26.6,33.6-57.4,141.7c-0.9,3.8-21.4,92.9-23.8,105.9c-2.5,3.2-27,30.3-106,0.7c-1.6-3.2-8.4-18.6-7.3-43.3
					c2.1-46.9,30.6-90.4,54.1-118.4c0.8-0.8,79.1-77.3,123.5-96.2c0.7-0.3,1.1-0.9,1.2-1.7c0.1-0.7-0.2-1.4-0.8-1.9l-42.2-30
					c-0.6-0.4-1.5-0.5-2.1-0.1c-0.7,0.4-63.9,34.1-100.9,71.8c13.1-24,40.7-70.7,66.9-89.2c0.2-0.2,0.4-0.3,0.5-0.6
					c2.3-3.7,0.3-5.5,0.1-5.7c-0.2-0.1-0.4-0.3-0.6-0.3l-34.6-13.7c-0.8-0.3-1.7-0.1-2.3,0.5c-0.2,0.3-24.5,27.9-48.9,60.6
					c-33,44.1-50.6,76-52.3,94.7c-2.1,23.3-7.6,47.8-12.4,69.4c-1.9,8.7-3.7,16.6-5,23.4c-3.4-51.9-8.6-192,27.3-270.8
					c0.3-0.6,0.2-1.2,0-1.8c-0.3-0.6-0.8-0.9-1.4-1.1l-37-6.5c-0.4-0.1-4-0.5-8.5,3.7c-13.4,12.3-33.4,62.4-19.3,258.3
					c-13.9-36-52.3-137.6-51.2-158.9l-1.4-103.8c0-0.6-0.3-1.1-0.7-1.5c-0.4-0.4-1-0.6-1.5-0.5l-31.2,2.7c-1.1,0.1-1.9,1-1.9,2
					v113.3c0,0.2,0,0.3,0.1,0.5c0.4,1.4,35.1,138.5,30,180.9c0,0.1,0,0.2,0,0.3c0.1,2.2,1,52.8-81,71.9c-3.2-0.3-31.7-3.6-46.2-25.3
					c-10.9-16.3-11.5-39.1-1.8-67.7L378,201c0.2-0.6,17.1-57.6,27.8-85.3c0-0.1,0.1-0.2,0.1-0.3c0.5-2.3,12.3-56.3,8.1-75.5
					c-0.1-0.5-0.5-1-0.9-1.3c-0.5-0.3-1.1-0.4-1.6-0.2l-31.9,8.8c-1,0.3-1.6,1.2-1.5,2.2c0,0.3,3.3,33.5-1.9,45.1
					c0,0.1-0.1,0.1-0.1,0.2l-30.5,94.8c-3.1,6.2-55.1,108.4-57.8,128c-0.4,2.4-8.3,56.2,3.6,95.9c-12.7-12.5-43.3-48.2-62.1-116
					C210.9,248,182,167,183.4,160.4c0.6-1.9-0.7-2.8-0.9-2.9c-2-1.1-3-1.6-40.8,44.3c-18.2,22.1-36.2,44.6-36.4,44.8
					c-0.2,0.3-0.4,0.6-0.4,1l-0.7,5.4c0,0.3,0,0.6,0.1,0.8c2,6.8,12.3,40.1,19.4,45.6l43.8,74.8l26.1,48.3
					c-20.2-19.3-69.6-63.1-129.9-92.5c-0.5-0.3-1.2-0.3-1.7,0c-0.5,0.2-1,0.7-1.1,1.3l-12.9,42c-0.2,0.5-0.1,1.1,0.2,1.6
					c0.3,0.5,0.7,0.8,1.3,1c0.4,0.1,43.9,12,79.6,60.3c0.2,0.2,17.8,23.9,40.1,48.4c30,32.9,53.8,51.5,70.8,55.4
					c3.6,1.7,39.7,16.8,121.5-23.1c0.3-0.1,31.1-11.9,54.3-1c10.6,5,18.1,14,22.3,26.7c0.5,3.4,9.7,64-17.9,99.3
					c-0.5,0.6-0.6,1.4-0.2,2.1c0.3,0.7,1,1.1,1.8,1.2l169.9,1.6c0,0,0,0,0,0c0.7,0,1.3-0.3,1.7-0.9c0.4-0.6,0.5-1.3,0.2-1.9
					c-0.5-1.2-47.4-124.1,2.5-163.1c0.1,0,0.1-0.1,0.2-0.1c0.1-0.1,13.3-12.6,37.5-18.8c40.4-10.3,80,4.9,106.1,19.4
					c12.9,7.2,24.7,8.7,35.2,4.5c27.7-11.1,42.8-59.7,58.8-111.1c18.6-59.7,37.8-121.5,77.5-130.2c0.7-0.1,1.2-0.6,1.5-1.2
					C912.8,243,912.7,242.3,912.4,241.7z"/>
				<rect x="33.7" y="644.1" class="st19" width="954.5" height="360"/>
			</g>
			<path class="st7" d="M512.4,995"/>
			<g>
				<path class="st14" d="M40.1,646.3C27.9,603,21.7,557.9,21.7,512.4c0-131.1,51-254.3,143.7-347c92.7-92.7,215.9-143.7,347-143.7
					c131.1,0,254.3,51,347,143.7c92.7,92.7,143.7,215.9,143.7,347c0,45.5-6.2,90.5-18.5,133.9l-15.7-4.4
					c11.9-41.9,17.9-85.5,17.9-129.4c0-126.7-49.4-245.9-139-335.5C758.3,87.3,639.1,38,512.4,38s-245.9,49.4-335.5,139
					c-89.6,89.6-139,208.8-139,335.5c0,44,6,87.5,17.9,129.5L40.1,646.3z"/>
			</g>
			<g>
				<path class="st15" d="M512.4,1003.2c-109,0-212.2-35-298.5-101.2C130.4,837.9,68.7,747.1,40.1,646.3l-0.7-2.2c0,0,16.4,0,17,0
					c27.8,96.5,87.2,183.5,167.4,245c83.4,64,183.2,97.8,288.6,97.8c105.4,0,205.2-33.8,288.6-97.8c80.2-61.5,139.5-148.4,167.4-245
					c0.5,0,16.9,0,16.9,0l-0.6,2.2C956.2,747.1,894.5,837.9,810.9,902C724.7,968.2,621.4,1003.2,512.4,1003.2z"/>
			</g>
		</g>
		<g>
			<text transform="matrix(1.0067 0 0 1 289.5829 927.0233)" class="st5 st20 st21">MARINILLA</text>
			<text transform="matrix(1 0 0 1 161.2005 843.806)" class="st5 st22 st23">LICANIA</text>
			<text transform="matrix(1 0 0 1 165.8574 738.2302)" class="st5 st24 st25">CORPORACIÓN</text>
		</g>
	</g>
</g>
</svg>
