<?xml version="1.0" encoding="utf-8"?>
<!-- Generator: Adobe Illustrator 21.0.2, SVG Export Plug-In . SVG Version: 6.00 Build 0)  -->
<svg version="1.1" id="Capa_1" xmlns="http://www.w3.org/2000/svg" xmlns:xlink="http://www.w3.org/1999/xlink" x="0px" y="0px"
	 viewBox="0 0 400 400" style="enable-background:new 0 0 400 400;" xml:space="preserve">
<style type="text/css">
	.st0{clip-path:url(#SVGID_3_);}
	.st1{clip-path:url(#SVGID_4_);}
	.st2{fill:#009389;}
	.st3{fill:#FFFFFF;}
	.st4{fill:#8B411E;}
	.st5{fill:none;stroke:#009389;stroke-width:8;stroke-miterlimit:10;}
</style>
<g>
	<g>
		<defs>
			<circle id="SVGID_1_" cx="200" cy="199.8" r="196.2"/>
		</defs>
		<defs>
			<circle id="SVGID_2_" cx="200" cy="199.8" r="196.2"/>
		</defs>
		<clipPath id="SVGID_3_">
			<use xlink:href="#SVGID_1_"  style="overflow:visible;"/>
		</clipPath>
		<clipPath id="SVGID_4_" class="st0">
			<use xlink:href="#SVGID_2_"  style="overflow:visible;"/>
		</clipPath>
		<g class="st1">
			<g>
				<circle class="st2" cx="200" cy="199.8" r="196.2"/>
			</g>
		</g>
		<g class="st1">
			<path class="st3" d="M362.6,89.8l-9.5-14.1c-0.1-0.2-0.3-0.3-0.5-0.3c-0.2,0-0.4,0-0.6,0.1c-0.3,0.2-7.7,5.4-21.1,24.1
				c0.9-8.1,3.7-29.8,8.9-38.7c0.2-0.3,0.1-0.8-0.2-1l-11-10.1c-0.2-0.2-0.4-0.2-0.6-0.2c-0.2,0-0.4,0.1-0.6,0.3
				c-0.4,0.5-10.8,13.7-23.3,57.6c-0.4,1.6-8.7,37.8-9.7,43.1c-1,1.3-11,12.3-43.1,0.3c-0.6-1.3-3.4-7.5-3-17.6
				c0.8-19.1,12.4-36.7,22-48.1c0.3-0.3,32.2-31.4,50.2-39.1c0.3-0.1,0.5-0.4,0.5-0.7c0-0.3-0.1-0.6-0.3-0.8l-17.2-12.2
				c-0.3-0.2-0.6-0.2-0.9-0.1c-0.3,0.2-26,13.8-41,29.2c5.3-9.8,16.5-28.7,27.2-36.3c0.1-0.1,0.2-0.1,0.2-0.2c1-1.5,0.1-2.2,0-2.3
				c-0.1-0.1-0.1-0.1-0.2-0.1l-14.1-5.6c-0.3-0.1-0.7,0-0.9,0.2c-0.1,0.1-10,11.3-19.9,24.6c-13.4,17.9-20.6,30.9-21.3,38.5
				c-0.9,9.5-3.1,19.4-5,28.2c-0.8,3.5-1.5,6.7-2,9.5c-1.4-21.1-3.5-78.1,11.1-110.1c0.1-0.2,0.1-0.5,0-0.7
				c-0.1-0.2-0.3-0.4-0.6-0.4l-15-2.7c-0.2,0-1.6-0.2-3.5,1.5c-5.4,5-13.6,25.4-7.8,105C204.1,95.9,188.5,54.6,189,46l-0.6-42.2
				c0-0.2-0.1-0.4-0.3-0.6C188,3,187.8,3,187.5,3l-12.7,1.1c-0.4,0-0.8,0.4-0.8,0.8v46c0,0.1,0,0.1,0,0.2
				c0.1,0.6,14.3,56.3,12.2,73.6c0,0,0,0.1,0,0.1c0,0.9,0.4,21.5-32.9,29.2c-1.3-0.1-12.9-1.4-18.8-10.3c-4.4-6.6-4.7-15.9-0.7-27.5
				l11.6-43c0.1-0.2,6.9-23.4,11.3-34.7c0,0,0-0.1,0-0.1c0.2-0.9,5-22.9,3.3-30.7c0-0.2-0.2-0.4-0.4-0.5c-0.2-0.1-0.4-0.2-0.6-0.1
				l-13,3.6c-0.4,0.1-0.6,0.5-0.6,0.9c0,0.1,1.3,13.6-0.8,18.3c0,0,0,0.1,0,0.1l-12.4,38.5c-1.3,2.5-22.4,44.1-23.5,52
				c-0.1,1-3.4,22.8,1.5,39c-5.1-5.1-17.6-19.6-25.2-47.1c-7.5-20.1-19.3-53-18.7-55.7c0.3-0.8-0.3-1.1-0.4-1.2
				c-0.8-0.5-1.2-0.7-16.6,18c-7.4,9-14.7,18.1-14.8,18.2c-0.1,0.1-0.2,0.3-0.2,0.4L34,94.4c0,0.1,0,0.2,0,0.3
				c0.8,2.8,5,16.3,7.9,18.5l17.8,30.4l10.6,19.7c-8.2-7.8-28.3-25.7-52.8-37.6c-0.2-0.1-0.5-0.1-0.7,0c-0.2,0.1-0.4,0.3-0.5,0.5
				l-5.2,17.1c-0.1,0.2,0,0.4,0.1,0.6c0.1,0.2,0.3,0.3,0.5,0.4c0.2,0,17.8,4.9,32.4,24.5c0.1,0.1,7.2,9.7,16.3,19.7
				c12.2,13.4,21.9,21,28.8,22.5c1.5,0.7,16.1,6.8,49.4-9.4c0.1,0,12.6-4.8,22.1-0.4c4.3,2,7.3,5.7,9.1,10.8
				c0.2,1.4,3.9,26-7.3,40.4c-0.2,0.2-0.2,0.6-0.1,0.9c0.1,0.3,0.4,0.5,0.7,0.5l69.1,0.7c0,0,0,0,0,0c0.3,0,0.5-0.1,0.7-0.4
				c0.2-0.2,0.2-0.5,0.1-0.8c-0.2-0.5-19.3-50.5,1-66.3c0,0,0,0,0.1-0.1c0.1-0.1,5.4-5.1,15.2-7.6c16.4-4.2,32.5,2,43.1,7.9
				c5.2,2.9,10.1,3.5,14.3,1.8c11.3-4.5,17.4-24.3,23.9-45.2c7.5-24.3,15.4-49.4,31.5-52.9c0.3-0.1,0.5-0.2,0.6-0.5
				C362.8,90.3,362.7,90,362.6,89.8z"/>
		</g>
		<g class="st1">
			<rect x="5.4" y="253.3" class="st4" width="388" height="146.3"/>
		</g>
		<g class="st1">
			<g>
				<path class="st3" d="M81.4,272.4c-0.8-3.9-3.9-5.8-7.7-5.8c-6.5,0-9.3,5.4-9.3,11.1c0,6.3,2.8,11.5,9.3,11.5
					c4.8,0,7.6-3.4,7.9-7.9h3.6c-0.7,6.8-5,11-11.9,11c-8.5,0-12.7-6.3-12.7-14.3c0-7.9,4.5-14.4,13-14.4c5.7,0,10.4,3.1,11.3,8.9
					H81.4z"/>
			</g>
			<g>
				<path class="st3" d="M101.4,263.5c8.7,0,13.1,6.9,13.1,14.4c0,7.4-4.4,14.4-13.1,14.4s-13.1-6.9-13.1-14.4
					C88.3,270.4,92.7,263.5,101.4,263.5z M101.4,289.2c6.7,0,9.5-5.8,9.5-11.3s-2.8-11.3-9.5-11.3s-9.5,5.8-9.5,11.3
					S94.8,289.2,101.4,289.2z"/>
			</g>
			<g>
				<path class="st3" d="M119,264.2h12.9c5.1,0,8.3,2.8,8.3,7.2c0,3.3-1.5,6-4.8,7v0.1c3.2,0.6,3.8,3,4.1,5.6
					c0.2,2.7,0.1,5.7,1.6,7.6h-4.1c-1-1.1-0.5-4.1-1-6.8c-0.4-2.7-1-5-4.6-5h-8.9v11.7H119V264.2z M130.3,276.8
					c3.4,0,6.3-0.9,6.3-4.9c0-2.7-1.5-4.7-4.9-4.7h-9.1v9.6H130.3z"/>
			</g>
			<g>
				<path class="st3" d="M145.3,264.2h12c5.5,0,8.4,3,8.4,8.1c0,5.1-3,8.1-8.4,8.1H149v11.2h-3.6V264.2z M149,277.3h7.1
					c4.1,0,6-1.8,6-5c0-3.3-1.9-5-6-5H149V277.3z"/>
			</g>
			<g>
				<path class="st3" d="M181.8,263.5c8.7,0,13.1,6.9,13.1,14.4c0,7.4-4.4,14.4-13.1,14.4c-8.7,0-13.1-6.9-13.1-14.4
					C168.7,270.4,173.1,263.5,181.8,263.5z M181.8,289.2c6.7,0,9.5-5.8,9.5-11.3s-2.8-11.3-9.5-11.3c-6.7,0-9.5,5.8-9.5,11.3
					S175.1,289.2,181.8,289.2z"/>
			</g>
			<g>
				<path class="st3" d="M199.4,264.2h12.9c5.1,0,8.3,2.8,8.3,7.2c0,3.3-1.5,6-4.8,7v0.1c3.2,0.6,3.8,3,4.1,5.6
					c0.2,2.7,0.1,5.7,1.6,7.6h-4.1c-1-1.1-0.5-4.1-1-6.8c-0.4-2.7-1-5-4.6-5H203v11.7h-3.6V264.2z M210.6,276.8
					c3.4,0,6.3-0.9,6.3-4.9c0-2.7-1.5-4.7-4.9-4.7H203v9.6H210.6z"/>
			</g>
			<g>
				<path class="st3" d="M233.1,264.2h4l10.7,27.4h-4l-3-8.3h-11.6l-3.1,8.3h-3.8L233.1,264.2z M230.4,280.3h9.3l-4.6-12.8h-0.1
					L230.4,280.3z"/>
			</g>
			<g>
				<path class="st3" d="M269.8,272.4c-0.8-3.9-3.9-5.8-7.7-5.8c-6.5,0-9.3,5.4-9.3,11.1c0,6.3,2.8,11.5,9.3,11.5
					c4.8,0,7.6-3.4,7.9-7.9h3.6c-0.7,6.8-5,11-11.9,11c-8.5,0-12.7-6.3-12.7-14.3c0-7.9,4.5-14.4,13-14.4c5.7,0,10.4,3.1,11.3,8.9
					H269.8z"/>
			</g>
			<g>
				<path class="st3" d="M278.4,264.2h3.6v27.4h-3.6V264.2z"/>
			</g>
			<g>
				<path class="st3" d="M299.8,263.5c8.7,0,13.1,6.9,13.1,14.4c0,7.4-4.4,14.4-13.1,14.4c-8.7,0-13.1-6.9-13.1-14.4
					C286.7,270.4,291.1,263.5,299.8,263.5z M299.8,289.2c6.7,0,9.5-5.8,9.5-11.3s-2.8-11.3-9.5-11.3s-9.5,5.8-9.5,11.3
					S293.2,289.2,299.8,289.2z M300.8,256.7h4.2l-5,5.5h-2.5L300.8,256.7z"/>
			</g>
			<g>
				<path class="st3" d="M317.4,264.2h3.9l14.4,22.2h0.1v-22.2h3.5v27.4h-4l-14.3-22h-0.1v22h-3.5V264.2z"/>
			</g>
		</g>
		<g class="st1">
			<g>
				<path class="st3" d="M60.8,297.9h14.5v26.8h22.4v9.9H60.8V297.9z"/>
			</g>
			<g>
				<path class="st3" d="M101.8,297.9h14.5v36.6h-14.5V297.9z"/>
			</g>
			<g>
				<path class="st3" d="M170.7,320.2c-0.9,4.8-2.6,8.7-6.2,11.4c-3.5,2.7-9.1,4.2-17.9,4.2c-8.8,0-25-0.6-25-19.6
					c0-19,16.3-19.6,25-19.6c8.7,0,22.2,1.1,24.1,15.6h-16.3c-0.4-2.6-2.2-6.4-7.7-6.4c-5.9,0-9.6,2.9-9.6,10.4
					c0,7.4,3.6,10.4,8.9,10.4c4.6,0,7.3-1.9,8.5-6.3H170.7z"/>
			</g>
			<g>
				<path class="st3" d="M186.1,297.9h17.8l15.6,36.6h-15.4l-1.5-4.2h-15.1l-1.5,4.2h-15.4L186.1,297.9z M195.1,309H195l-4.3,12.4
					h8.7L195.1,309z"/>
			</g>
			<g>
				<path class="st3" d="M221.3,297.9h16.5l14.7,20.3h0.2v-20.3h13.9v36.6h-15.9L235.3,314h-0.1v20.5h-13.9V297.9z"/>
			</g>
			<g>
				<path class="st3" d="M273.8,297.9h14.5v36.6h-14.5V297.9z"/>
			</g>
			<g>
				<path class="st3" d="M305.9,297.9h17.8l15.6,36.6h-15.4l-1.5-4.2h-15.1l-1.5,4.2h-15.4L305.9,297.9z M314.8,309h-0.1l-4.3,12.4
					h8.7L314.8,309z"/>
			</g>
		</g>
		<g class="st1">
			<g>
				<path class="st3" d="M111.8,341h2.4l10.7,25.5h0.1l10.6-25.5h2.4v27.4h-1.7v-25.3h-0.1l-10.4,25.3h-1.7l-10.6-25.3h-0.1v25.3
					h-1.7V341z"/>
			</g>
			<g>
				<path class="st3" d="M152.9,341l10.8,27.4h-1.8l-3.5-8.8h-13.1l-3.5,8.8H140l11-27.4H152.9z M157.9,358.2l-5.9-15.5H152
					l-6.1,15.5H157.9z"/>
			</g>
			<g>
				<path class="st3" d="M165.7,341h11.4c4.8,0,8.7,1.8,8.7,7.1c0,3.7-2.2,6.4-5.9,7v0.1c4.1,0.5,5.1,3,5.3,5.9
					c0.3,2.8-0.2,5.9,0.9,7.4h-1.9c-1-1.9-0.4-5-0.7-7.7c-0.3-2.6-1.7-4.8-6.5-4.8h-9.8v12.5h-1.7V341z M177.1,354.5
					c4,0,7-1.9,7-6.3c0-4.1-3.3-5.7-7-5.7h-9.8v12H177.1z"/>
			</g>
			<g>
				<path class="st3" d="M189.9,341h1.7v27.4h-1.7V341z"/>
			</g>
			<g>
				<path class="st3" d="M196.4,341h2.1l17.3,25.2h0.1V341h1.7v27.4h-2l-17.4-25.3h-0.1v25.3h-1.7V341z"/>
			</g>
			<g>
				<path class="st3" d="M222.4,341h1.7v27.4h-1.7V341z"/>
			</g>
			<g>
				<path class="st3" d="M229,341h1.7v26h15.6v1.5H229V341z"/>
			</g>
			<g>
				<path class="st3" d="M248.1,341h1.7v26h15.6v1.5h-17.2V341z"/>
			</g>
			<g>
				<path class="st3" d="M277.3,341l10.8,27.4h-1.8l-3.5-8.8h-13.1l-3.5,8.8h-1.8l11-27.4H277.3z M282.4,358.2l-5.9-15.5h-0.1
					l-6.1,15.5H282.4z"/>
			</g>
		</g>
	</g>
	<g>
		<path class="st5" d="M200,396"/>
	</g>
	<g>
		<g>
			<path class="st2" d="M8,254.2c-5-17.6-7.5-35.9-7.5-54.4c0-53.3,20.8-103.4,58.4-141.1C96.6,21.1,146.7,0.3,200,0.3
				c53.3,0,103.4,20.8,141.1,58.4c37.7,37.7,58.4,87.8,58.4,141.1c0,18.5-2.5,36.8-7.5,54.4l-6.4-1.8c4.8-17,7.3-34.7,7.3-52.6
				c0-51.5-20.1-100-56.5-136.4C300,27,251.5,6.9,200,6.9S100,27,63.6,63.4C27.2,99.9,7.1,148.3,7.1,199.8c0,17.9,2.4,35.6,7.3,52.6
				L8,254.2z"/>
		</g>
	</g>
	<g>
		<g>
			<path class="st4" d="M200,399.3c-44.3,0-86.3-14.2-121.4-41.1c-34-26.1-59-63-70.6-103.9l-0.3-0.9c0,0,6.7,0,6.9,0
				c11.3,39.2,35.5,74.6,68,99.6c33.9,26,74.5,39.8,117.3,39.8c42.9,0,83.4-13.8,117.3-39.8c32.6-25,56.7-60.3,68-99.6
				c0.2,0,6.9,0,6.9,0l-0.3,0.9c-11.6,41-36.7,77.9-70.6,103.9C286.3,385.1,244.3,399.3,200,399.3z"/>
		</g>
	</g>
</g>
</svg>
