<?xml version="1.0" encoding="utf-8"?>
<!-- Generator: Adobe Illustrator 21.0.2, SVG Export Plug-In . SVG Version: 6.00 Build 0)  -->
<svg version="1.1" id="Capa_1" xmlns="http://www.w3.org/2000/svg" xmlns:xlink="http://www.w3.org/1999/xlink" x="0px" y="0px"
	 viewBox="0 0 100 100" style="enable-background:new 0 0 100 100;" xml:space="preserve">
<style type="text/css">
	.st0{fill:#FFFFFF;}
</style>
<g>
	<path class="st0" d="M50,100c-4.6,0-9-0.6-13.3-1.8c-4.3-1.2-8.3-2.9-12-5.1c-3.7-2.2-7.1-4.8-10.1-7.8c-3-3-5.6-6.4-7.8-10.1
		C4.7,71.6,3,67.6,1.8,63.3C0.6,59,0,54.6,0,50s0.6-9,1.8-13.3c1.2-4.3,2.9-8.3,5.1-11.9c2.2-3.7,4.8-7.1,7.8-10.1
		c3-3,6.4-5.6,10.1-7.8c3.7-2.2,7.7-3.8,12-5C41,0.6,45.4,0,50,0c6.9,0,13.3,1.3,19.4,4c6.1,2.6,11.4,6.2,15.9,10.7
		c4.5,4.5,8.1,9.8,10.7,15.9c2.6,6.1,3.9,12.6,3.9,19.4c0,4.6-0.6,9-1.8,13.3c-1.2,4.3-2.9,8.3-5,11.9c-2.2,3.7-4.8,7.1-7.8,10.1
		c-3,3-6.4,5.6-10.1,7.8c-3.7,2.2-7.7,3.9-12,5.1C59,99.4,54.6,100,50,100L50,100z M76,27.8H24.8c-0.5,0-0.9,0.2-1.3,0.5
		C23.2,28.6,23,29,23,29.6v5.7c0,0.3,0.1,0.4,0.3,0.4l26.9,15.3l0.2,0.1c0.1,0,0.3,0,0.3-0.1l26-15.3c0.2-0.1,0.3-0.1,0.3-0.1
		c0.1,0,0.2,0,0.3-0.1c0.3,0,0.4-0.1,0.4-0.4v-5.5c0-0.6-0.2-1-0.5-1.4C76.9,27.9,76.5,27.8,76,27.8L76,27.8z M39.3,50.7
		c0.1-0.1,0.1-0.2,0.1-0.3c0-0.2-0.1-0.3-0.2-0.3l-15.4-8.9c-0.2-0.1-0.4-0.1-0.6,0c-0.1,0-0.2,0.1-0.2,0.3v23.2
		c0,0.2,0.1,0.4,0.3,0.4h0.2c0.1,0,0.2,0,0.2-0.1L39.3,50.7z M58.1,52.5c-0.1-0.2-0.2-0.3-0.5-0.1l-5.9,3.5c-0.7,0.4-1.5,0.4-2.3,0
		l-5.2-2.9c-0.2-0.1-0.4-0.1-0.5,0L23.9,71.3c-0.1,0.1-0.1,0.2-0.1,0.4c0,0.1,0.1,0.2,0.2,0.3c0.4,0.1,0.7,0.2,0.9,0.2h50.6
		c0.1,0,0.3-0.1,0.4-0.2c0-0.3,0-0.5-0.1-0.5L58.1,52.5z M77.5,40.8h-0.4l-14.7,8.7c-0.1,0-0.2,0.1-0.2,0.3
		c-0.1,0.1-0.1,0.2,0.1,0.3L77,66.1c0.1,0.1,0.3,0.2,0.3,0.2h0.2c0.2-0.2,0.3-0.4,0.3-0.4V41.3C77.8,41.1,77.7,41,77.5,40.8
		L77.5,40.8z M83.2,38.9"/>
</g>
</svg>
