<?xml version="1.0" encoding="utf-8"?>
<!-- Generator: Adobe Illustrator 21.0.2, SVG Export Plug-In . SVG Version: 6.00 Build 0)  -->
<svg version="1.1" id="Capa_1" xmlns="http://www.w3.org/2000/svg" xmlns:xlink="http://www.w3.org/1999/xlink" x="0px" y="0px"
	 viewBox="0 0 100 100" style="enable-background:new 0 0 100 100;" xml:space="preserve">
<style type="text/css">
	.st0{fill:#FFFFFF;}
</style>
<g>
	<path class="st0" d="M76,27.8H24.8c-0.5,0-0.9,0.2-1.3,0.5C23.2,28.6,23,29,23,29.6v5.7c0,0.3,0.1,0.4,0.3,0.4L50.2,51l0.2,0.1
		c0.1,0,0.3,0,0.3-0.1l26-15.3c0.2-0.1,0.3-0.1,0.3-0.1c0.1,0,0.2,0,0.3-0.1c0.3,0,0.4-0.1,0.4-0.4v-5.5c0-0.6-0.2-1-0.5-1.4
		C76.9,27.9,76.5,27.8,76,27.8L76,27.8z M39.3,50.7c0.1-0.1,0.1-0.2,0.1-0.3c0-0.2-0.1-0.3-0.2-0.3l-15.4-8.9
		c-0.2-0.1-0.4-0.1-0.6,0c-0.1,0-0.2,0.1-0.2,0.3v23.2c0,0.2,0.1,0.4,0.3,0.4h0.2c0.1,0,0.2,0,0.2-0.1L39.3,50.7z M58.1,52.5
		c-0.1-0.2-0.2-0.3-0.5-0.1l-5.9,3.5c-0.7,0.4-1.5,0.4-2.3,0L44.2,53c-0.2-0.1-0.4-0.1-0.5,0L23.9,71.3c-0.1,0.1-0.1,0.2-0.1,0.4
		c0,0.1,0.1,0.2,0.2,0.3c0.4,0.1,0.7,0.2,0.9,0.2h50.6c0.1,0,0.3-0.1,0.4-0.2c0-0.3,0-0.5-0.1-0.5L58.1,52.5z M77.5,40.8h-0.4
		l-14.7,8.7c-0.1,0-0.2,0.1-0.2,0.3c-0.1,0.1-0.1,0.2,0.1,0.3l14.7,16c0.1,0.1,0.3,0.2,0.3,0.2h0.2c0.2-0.2,0.3-0.4,0.3-0.4V41.3
		C77.8,41.1,77.7,41,77.5,40.8L77.5,40.8z"/>
</g>
</svg>
