<?xml version="1.0" encoding="utf-8"?>
<!-- Generator: Adobe Illustrator 21.0.2, SVG Export Plug-In . SVG Version: 6.00 Build 0)  -->
<svg version="1.1" id="Capa_1" xmlns="http://www.w3.org/2000/svg" xmlns:xlink="http://www.w3.org/1999/xlink" x="0px" y="0px"
	 viewBox="0 0 470 322.5" style="enable-background:new 0 0 470 322.5;" xml:space="preserve">
<style type="text/css">
	.st0{fill:url(#SVGID_1_);}
	.st1{fill:#AFE1E5;}
	.st2{fill:#F48C7F;}
	.st3{fill:#F8A42F;}
	.st4{fill:#2D2861;}
	.st5{fill:#7271AF;}
	.st6{fill:#F6C13F;}
	.st7{fill:#8BC832;}
	.st8{fill:#EFEFEF;}
	.st9{fill:#F01282;}
	.st10{fill:#279747;}
	.st11{fill:url(#SVGID_2_);}
	.st12{fill:#F7E2BF;}
	.st13{fill:#F1A391;}
	.st14{fill:#D6137A;}
	.st15{fill:#F77A11;}
	.st16{fill:#332E73;}
	.st17{fill:#F17458;}
	.st18{fill:#D3EBEC;}
	.st19{fill:#FFFFFF;}
	.st20{fill:#4EB6A1;}
	.st21{fill:#F19C8D;}
	.st22{fill:#3C8F7C;}
	.st23{fill:url(#SVGID_3_);}
	.st24{fill:url(#SVGID_4_);}
	.st25{fill:#505050;}
	.st26{fill:#179188;}
	.st27{fill:none;stroke:#179188;stroke-miterlimit:10;}
	.st28{fill:#C44A4A;}
</style>
<g>
	<linearGradient id="SVGID_1_" gradientUnits="userSpaceOnUse" x1="-303.4146" y1="148.0166" x2="-309.9763" y2="368.7296">
		<stop  offset="0" style="stop-color:#8FD5E0"/>
		<stop  offset="0.9898" style="stop-color:#F4F8E4"/>
	</linearGradient>
	<path class="st0" d="M-186.4,369.6c29.1-14.8,31-86.6-25.3-103.4c-56.3-16.8-45.9-59.2-93.2-90.9c-43.2-28.9-114.6-4.4-138.4,70.7
		c-17,53.6,2.8,120.8,16.3,123.6C-295.7,369.6-186.4,369.6-186.4,369.6z"/>
	<g>
		<g>
			<path class="st1" d="M-270.2,282.6c9.7-13.7,11.5-30.3,11.3-41.8c-0.2-12.5-2.8-21.8-2.8-21.9l0.7-0.2c0,0.1,2.6,9.5,2.8,22
				c0.2,11.6-1.6,28.3-11.5,42.2L-270.2,282.6z"/>
		</g>
		<g>
			<path class="st1" d="M-264.1,216.7c0.2,2.8,1.6,5.2,3.6,6.6c1.7-2,2.7-4.7,2.4-7.5c-0.2-2.8-1.6-5.2-3.6-6.6
				C-263.4,211.1-264.3,213.8-264.1,216.7z"/>
		</g>
		<g>
			<path class="st1" d="M-257.5,223.2c-1.6,2.4-2.2,5.2-1.6,7.6c2.5-0.5,5-2.1,6.6-4.6c1.6-2.4,2.2-5.2,1.6-7.6
				C-253.4,219.1-255.9,220.7-257.5,223.2z"/>
		</g>
		<g>
			<path class="st1" d="M-253.8,230.8c-2.6,1.5-4.3,3.8-5,6.3c2.4,0.6,5.3,0.2,7.8-1.3c2.6-1.5,4.3-3.8,5-6.3
				C-248.4,229-251.2,229.3-253.8,230.8z"/>
		</g>
		<g>
			<path class="st1" d="M-254.9,241.5c-2,1.2-3.3,3.2-3.6,5.5c2.1,0.8,4.5,0.7,6.5-0.5c2-1.2,3.3-3.2,3.6-5.5
				C-250.5,240.2-252.9,240.3-254.9,241.5z"/>
		</g>
		<g>
			<path class="st1" d="M-263.3,228.9c-2.3-1.1-4.8-1.2-7-0.4c0.6,2.1,2.1,4,4.4,5.1c2.3,1.1,4.8,1.2,7,0.4
				C-259.5,231.9-261,230-263.3,228.9z"/>
		</g>
		<g>
			<path class="st1" d="M-263,236.2c-2.3-1.1-4.8-1.2-7-0.4c0.6,2.1,2.1,4,4.4,5.1c2.3,1.1,4.8,1.2,7,0.4
				C-259.2,239.2-260.8,237.3-263,236.2z"/>
		</g>
		<g>
			<path class="st1" d="M-256.4,253.2c-1.2,0.3-2.2,1-2.8,1.9c0.9,0.6,2,0.9,3.2,0.7c1.2-0.3,2.2-1,2.8-1.9
				C-254,253.3-255.2,253-256.4,253.2z"/>
		</g>
	</g>
	<path class="st2" d="M-200.9,335.9c0,0-0.1-1.8-2.2-4.3c-1.3-1.6-2.4-5.1-3.2-4.1c-0.8,1,1.4,3.8,0.4,3.8c-0.9,0-5.8-5.6-6.5-4.7
		c-0.7,0.9,4.2,5.9,3.3,5.9c-0.8,0-4.8-5.1-5.9-3.8c-1,1.3,5.2,5.5,4.7,6.2c-0.5,0.7-4.4-2.1-5.2-1.1c-0.8,1,5.4,3.6,4.9,3.6
		c-0.5,0-4-0.2-4,0.6c0,0.8,7.5,1.6,8.7,3c1.2,1.4,16.8,14.9,20.3,14.2c3.4-0.7,15.7-15.3,16-19.1c0.3-3.8-2.2-7-4.6-7
		c-2.4,0-13.2,14.1-14,14.1S-200.9,335.9-200.9,335.9z"/>
	<path class="st3" d="M-164.3,322.1c-1.6-0.3-6.7,0.7-10.3,3.3c-3.5,2.6-10.6,11.7-10.6,11.7l11,9.1c0,0,9.8-9.7,12-14.4
		C-158.8,323.9-161.2,322.6-164.3,322.1z"/>
	<path class="st4" d="M-167,289.4c0,0-5.3-0.6-8.1,4.7c-2.8,5.3-2.8,5.3-2.8,5.3s-8.6,5.4-3.4,11.8c0,0-0.8,7.1,4.9,10.2
		c2.9,1.6,7.7,1.3,7.7,1.3s9.8,4,14.9,0.3c0,0,7-0.7,9.1-5.1c1-2.1-0.6-2.4,0.6-4c2-2.7,2-5.7-0.6-7.9c-2.3-1.9-3.4-4.2-4.2-7.1
		C-151.3,290.9-157.5,287.1-167,289.4z"/>
	<g>
		<g>
			<path class="st1" d="M-263.7,331.7c22.7-1.5,41.6-13.7,53.5-23.7c12.9-10.8,20.5-21.5,20.6-21.6l0.8,0.5
				c-0.1,0.1-7.8,10.8-20.8,21.7c-12,10.1-31.2,22.4-54.1,24L-263.7,331.7z"/>
		</g>
		<g>
			<path class="st1" d="M-189.2,281.9c-2.8,2.7-4.1,6.1-3.9,9.5c3.5,0.1,7.2-1.2,9.9-3.8c2.8-2.7,4.1-6.1,3.9-9.5
				C-182.8,278-186.5,279.3-189.2,281.9z"/>
		</g>
		<g>
			<path class="st1" d="M-190.5,294.4c-4,0.4-7.3,2.2-9.4,4.8c2.7,2.2,6.5,3.4,10.5,3c4-0.4,7.3-2.2,9.4-4.8
				C-182.7,295.2-186.5,294-190.5,294.4z"/>
		</g>
		<g>
			<path class="st1" d="M-195.3,304.8c-3.8-1.4-7.7-1.2-10.8,0.1c1.4,3.1,4.2,5.8,8,7.2c3.8,1.4,7.7,1.2,10.8-0.1
				C-188.8,308.9-191.6,306.2-195.3,304.8z"/>
		</g>
		<g>
			<path class="st1" d="M-205.6,313.4c-3.8-1.4-7.7-1.2-10.8,0.1c1.4,3.1,4.2,5.8,8,7.2c3.8,1.4,7.7,1.2,10.8-0.1
				C-199,317.5-201.8,314.8-205.6,313.4z"/>
		</g>
		<g>
			<path class="st1" d="M-200.5,297.3c0.7-3.4-0.1-6.7-1.8-9.3c-2.6,1.5-4.6,4.1-5.3,7.4c-0.7,3.4,0.1,6.7,1.8,9.3
				C-203.2,303.3-201.2,300.7-200.5,297.3z"/>
		</g>
		<g>
			<path class="st1" d="M-211.2,306.2c0.8-3.3,0-6.7-1.7-9.3c-2.6,1.4-4.7,4-5.4,7.4c-0.8,3.3,0,6.7,1.7,9.3
				C-214,312.2-211.9,309.6-211.2,306.2z"/>
		</g>
		<g>
			<path class="st1" d="M-221.1,321.2c-1.3-1-2.9-1.5-4.4-1.3c0.1,1.5,0.7,2.9,2,4c1.3,1,2.9,1.5,4.4,1.3
				C-219.1,323.7-219.8,322.2-221.1,321.2z"/>
		</g>
	</g>
	<path class="st5" d="M-512.4,247.2l0.2-4.5l-3.6-2.7c-0.4-0.3-0.3-0.9,0.2-1.1l4.3-1.2l1.4-4.2c0.2-0.5,0.8-0.6,1.1-0.1l2.5,3.7
		l4.5,0c0.5,0,0.8,0.6,0.5,1l-2.7,3.5l1.3,4.3c0.2,0.5-0.3,0.9-0.8,0.8l-4.2-1.5l-3.6,2.6C-511.9,248-512.4,247.7-512.4,247.2z"/>
	<path class="st6" d="M-229.4,218.8l0.2-4.4l-3.6-2.6c-0.4-0.3-0.3-0.9,0.2-1.1l4.3-1.2l1.4-4.2c0.2-0.5,0.8-0.6,1.1-0.1l2.5,3.7
		l4.4,0c0.5,0,0.8,0.6,0.5,1l-2.7,3.5l1.3,4.2c0.2,0.5-0.3,0.9-0.8,0.8l-4.2-1.5l-3.6,2.6C-228.9,219.6-229.4,219.3-229.4,218.8z"/>
	<path class="st6" d="M-364.3,145l0.2-4.4l-3.6-2.6c-0.4-0.3-0.3-0.9,0.2-1.1l4.3-1.2l1.4-4.2c0.2-0.5,0.8-0.6,1.1-0.1l2.5,3.7
		l4.4,0c0.5,0,0.8,0.6,0.5,1l-2.7,3.5l1.3,4.2c0.2,0.5-0.3,0.9-0.8,0.8l-4.2-1.5l-3.6,2.6C-363.7,145.9-364.3,145.6-364.3,145z"/>
	<polygon class="st7" points="-154.3,216.8 -150.5,216.8 -148.9,213.2 -144.5,213.4 -144,209.1 -139.1,209.1 -138.1,205.2 
		-133.4,204.4 -133.1,206.2 -136.6,206.8 -137.7,210.9 -142.4,210.9 -142.9,215.3 -147.7,215 -149.3,218.5 -152.9,218.6 
		-153.4,221.1 -155.2,220.7 	"/>
	<polygon class="st5" points="-138.7,262.8 -135.4,264.8 -132.2,262.6 -128.6,265.1 -125.9,261.7 -121.7,264.4 -118.8,261.5 
		-114.4,263.5 -115.1,265.1 -118.4,263.7 -121.5,266.7 -125.5,264.1 -128.3,267.6 -132.2,264.8 -135.4,266.9 -138.4,265.1 
		-140.2,266.9 -141.5,265.6 	"/>
	<g>
		<g>
			
				<ellipse transform="matrix(0.3527 -0.9357 0.9357 0.3527 -326.9513 21.2663)" class="st6" cx="-148.1" cy="246.9" rx="8.9" ry="8.9"/>
			<path class="st8" d="M-153.1,246.6c-0.9,2.5,0.3,5.2,2.8,6.2c2.5,0.9,5.2-0.3,6.1-2.8L-153.1,246.6z"/>
		</g>
	</g>
	<g>
		<circle class="st6" cx="-465.5" cy="247.1" r="5.8"/>
		<g>
			<path class="st6" d="M-468.4,230.2c0.2,1.7,0.3,3.5,0.8,5.1c0.4,1.4,2.6,1.1,2.6-0.3c0-1.8-0.4-3.7-0.7-5.5c-0.1-0.7-1-1.1-1.7-1
				C-468.2,228.7-468.5,229.5-468.4,230.2L-468.4,230.2z"/>
		</g>
		<g>
			<path class="st6" d="M-478.7,236.7c1.8,1.3,3.4,2.8,5.1,4.2c1.3,1.1,2.9-0.6,1.9-1.9c-1.5-1.9-3.5-3.4-5.5-4.8
				c-0.6-0.4-1.6-0.1-1.9,0.5C-479.7,235.4-479.4,236.2-478.7,236.7L-478.7,236.7z"/>
		</g>
		<g>
			<path class="st6" d="M-475.8,247.2c0.5-0.3,0.6-0.8,0.3-1.3c-0.6-1.2-2.2-1.3-3.4-1.3c-1.2,0-2.4,0.1-3.6,0.4
				c-1.7,0.5-1,3.2,0.7,2.7C-478.3,246.8-477.2,248.1-475.8,247.2z"/>
		</g>
		<g>
			<path class="st6" d="M-474.8,258.5c1.8-2.3,3.3-3.1,3.2-4.4c-0.1-0.8-0.7-1.2-1.4-1.1c-0.9,0.1-1.5,1.1-2.1,1.7
				c-0.6,0.6-1.1,1.2-1.6,1.9c-0.5,0.6-0.6,1.4,0,2C-476.3,259-475.3,259.1-474.8,258.5L-474.8,258.5z"/>
		</g>
		<g>
			<path class="st6" d="M-468.3,259.4c0.4,1.5,0.5,2.1,1.2,2.8c0.6,0.6,1.9,0.3,2-0.5c0.2-1,0-1.4-0.5-3c-0.2-0.7-1-1.2-1.7-1
				C-468,257.9-468.5,258.7-468.3,259.4L-468.3,259.4z"/>
		</g>
		<g>
			<path class="st6" d="M-461,256.3c2.3,2,2.7,2.6,3.7,2.5c0.6,0,1.2-0.5,1.1-1.1c-0.1-1.2-0.8-1.5-2.9-3.3c-0.6-0.5-1.4-0.6-1.9,0
				C-461.5,254.9-461.5,255.8-461,256.3L-461,256.3z"/>
		</g>
		<g>
			<path class="st6" d="M-450.7,248.6c1-0.4,0.7-2.1-0.3-2.3c-1-0.2-1.4-0.1-6.2,0.5c-0.8,0.1-1.4,0.6-1.4,1.4
				c0,0.7,0.6,1.5,1.4,1.4C-452.2,249-451.7,249-450.7,248.6z"/>
		</g>
		<g>
			<path class="st6" d="M-457.7,240.2c2.8-2.4,3.2-1.9,4.3-3.4c0.5-0.7-0.2-1.9-1-1.8c-1.1,0.1-1.4,0.3-2.8,1.3
				c-0.8,0.6-1.7,1.2-2.5,1.9c-0.6,0.5-0.5,1.5,0,2C-459.1,240.8-458.2,240.7-457.7,240.2L-457.7,240.2z"/>
		</g>
	</g>
	<polygon class="st9" points="-365.9,154.9 -368.5,150.9 -372.4,153 -375.1,149.1 -379.1,150.7 -381.6,148.1 -382.9,149.4 
		-379.5,152.8 -375.7,151.3 -373,155.4 -369.1,153.3 -366.8,156.9 	"/>
	<g>
		<path class="st9" d="M-180.8,165.7c0,0,2.1-1.1,4.7,0.1c2.3,1.1,2.9,3.7,1.9,5.8c-1.2,2.4-4.7,4.2-11.5,4c-4.3-5.2-5-9.1-3.8-11.5
			c1-2.1,3.5-3.1,5.7-2C-181.2,163.4-180.8,165.7-180.8,165.7z"/>
		<g>
			<path class="st9" d="M-200,157.5c2,1.4,3.7,2.5,5.4,3.4c0.6,0.3,1.5,1,2.1,0.8c0.3-0.1,0.5-0.4,0.5-0.8c-0.2-0.7-1.1-1-1.7-1.3
				c-1.7-1-3.7-2.1-5.5-3.4c-0.4-0.2-0.9-0.1-1.1,0.3C-200.5,156.8-200.3,157.3-200,157.5L-200,157.5z"/>
		</g>
		<g>
			<path class="st9" d="M-173.4,178.1c0.8,0.5,1.7,0.9,2.5,1.4c0.8,0.4,1.7,1.1,2.6,1.3c0.7,0.1,1.1-0.6,0.7-1.1
				c-0.6-0.7-1.6-1.1-2.4-1.5c-0.8-0.5-1.7-0.9-2.5-1.4C-173.5,176.3-174.3,177.6-173.4,178.1L-173.4,178.1z"/>
		</g>
		<g>
			<path class="st9" d="M-198.4,172.7c2-1.2,3.6-1,4.9-1.1c0.7-0.1,0.9-1,0.2-1.3c-1.9-0.7-4.2,0-5.9,1
				C-200,171.8-199.3,173.2-198.4,172.7L-198.4,172.7z"/>
		</g>
		<g>
			<path class="st9" d="M-191.2,182.4c0.4-0.9,1-1.6,1.8-2.3c0.5-0.4,2.2-1.2,1.4-2c-0.8-0.8-2.1,0.5-2.7,1
				c-0.8,0.7-1.4,1.5-1.9,2.5C-193.1,182.5-191.7,183.3-191.2,182.4L-191.2,182.4z"/>
		</g>
		<g>
			<path class="st9" d="M-181.3,181.1c0.3,0.6,0.5,1.2,0.8,1.8c0.3,0.6,0.4,1.3,1.1,1.5c0.4,0.1,0.7-0.1,0.8-0.5
				c0.2-0.6-0.3-1.3-0.6-1.9c-0.3-0.6-0.6-1.2-0.8-1.8c-0.2-0.4-0.8-0.5-1.1-0.3C-181.4,180.3-181.5,180.7-181.3,181.1L-181.3,181.1
				z"/>
		</g>
		<g>
			<path class="st9" d="M-183.7,157.5c0.6-5.2,0.7-5.2,0.5-5.8c-0.2-0.6-1-0.7-1.3-0.2c-0.3,0.5-0.2,0.4-0.9,5.9
				c0,0.4,0.4,0.8,0.8,0.8C-184,158.3-183.7,157.9-183.7,157.5L-183.7,157.5z"/>
		</g>
		<g>
			<path class="st9" d="M-176.1,161.6c0.7-0.5,1.3-1.2,1.8-1.8c0.5-0.6,1.4-1.5,1-2.4c-0.1-0.2-0.3-0.3-0.5-0.3
				c-0.8,0.1-1.2,1.1-1.7,1.7c-0.5,0.6-1.1,1.2-1.7,1.8c-0.3,0.3-0.3,0.8,0,1.1C-176.9,162-176.4,161.9-176.1,161.6L-176.1,161.6z"
				/>
		</g>
		<g>
			<path class="st9" d="M-165.8,168.3c0.3-0.3,0.2-0.7,0-1c-0.4-0.5-1.5-0.4-2.1-0.4c-0.7,0-1.5,0.1-2.2,0.2c-0.4,0.1-0.7,0.6-0.6,1
				c0.1,0.5,0.6,0.6,1,0.6C-166.9,168.3-166.5,169-165.8,168.3z"/>
		</g>
	</g>
	<path class="st7" d="M-296.6,331c0,0,13.3-82.6,26.7-82.6c12.1,0-2.5,30.6-1,37.1c1.5,6.6,13.3-20.1,25.3-32.6
		c12.1-12.4,19.4-5.6,12.5,9.5c-6.8,14.6-31.2,31.6-25.8,33.1c5.5,1.5,36.2-18.8,40.8-11.4c5.7,9.2-41.7,25.4-36.9,27.2
		c4.8,1.8,27.3-6.8,27.3,0.5s-31.2,9.1-30.4,12.3c1.3,5.1,30-5.6,31.6,1.5c1.6,7.3-35.7,5.5-34.7,11.1c0.6,3.3,36-0.9,37.3,3.6
		c2.9,10.2-77.1,15.7-77.1,15.7L-296.6,331z"/>
	<path class="st10" d="M-321.6,361.3c-8.9-4.1-56.3-30.5-63.6-27.5c-8.1,3.3-5.9,11.6-5.9,11.6s-22-15-30.2-6.3
		c-8.2,8.8-3.9,26,5.7,28.8c9.6,2.8,90.5,0.4,90.5,0.4l5-6.2C-320.1,362-320.6,361.7-321.6,361.3z"/>
	<g>
		<g>
			<g>
				<path class="st1" d="M-350.2,320.1l-1.2-0.1c1.7-27.7-9.6-53.8-19.3-70.7c-10.6-18.4-21.6-30.5-21.8-30.6l0.8-0.8
					c0.1,0.1,11.3,12.2,21.9,30.8C-359.9,265.8-348.5,292.1-350.2,320.1z"/>
			</g>
			<g>
				<path class="st1" d="M-397.5,217.1c2.6,4,6.4,6.5,10.3,7.2c0.7-4.2-0.3-8.9-2.9-12.9c-2.6-4-6.4-6.5-10.3-7.2
					C-401,208.4-400.1,213.1-397.5,217.1z"/>
			</g>
			<g>
				<path class="st1" d="M-383.3,222c-0.2,4.9,1.4,9.4,4.1,12.6c2.9-2.7,4.9-6.9,5.1-11.7c0.2-4.9-1.4-9.4-4.1-12.6
					C-381.2,212.9-383.1,217.1-383.3,222z"/>
			</g>
			<g>
				<path class="st1" d="M-372,230.6c-2.2,4.1-2.6,8.9-1.5,13c3.8-0.9,7.3-3.6,9.4-7.7c2.2-4.1,2.6-8.9,1.5-13
					C-366.4,223.8-369.9,226.5-372,230.6z"/>
			</g>
			<g>
				<path class="st1" d="M-364.3,251.9c-1,1.7-1.4,3.6-1,5.4c1.6-0.2,3.2-1.3,4.2-2.9c1-1.7,1.4-3.6,1-5.4
					C-361.7,249.2-363.2,250.2-364.3,251.9z"/>
			</g>
			<g>
				<path class="st1" d="M-360.9,259.5c-1,1.7-1.4,3.6-1,5.4c1.6-0.2,3.2-1.3,4.2-2.9s1.4-3.6,1-5.4
					C-358.3,256.8-359.9,257.9-360.9,259.5z"/>
			</g>
			<g>
				<path class="st1" d="M-386.4,234.7c-3.9,0.1-7.4,1.9-9.7,4.7c2.5,2.7,6.1,4.5,10.1,4.4c3.9-0.1,7.4-1.9,9.7-4.7
					C-378.8,236.4-382.4,234.7-386.4,234.7z"/>
			</g>
			<g>
				<path class="st1" d="M-380,245.5c-3.9,0.1-7.4,1.9-9.7,4.7c2.5,2.7,6.1,4.5,10.1,4.4c3.9-0.1,7.4-1.9,9.7-4.7
					C-372.4,247.2-376,245.5-380,245.5z"/>
			</g>
			<g>
				<path class="st1" d="M-369.4,260.3c-2.6,0-4.8,1.2-6.3,3c1.6,1.8,4,2.9,6.6,2.9c2.6,0,4.8-1.2,6.3-3
					C-364.4,261.3-366.8,260.2-369.4,260.3z"/>
			</g>
		</g>
	</g>
	<g>
		<g>
			<linearGradient id="SVGID_2_" gradientUnits="userSpaceOnUse" x1="-328.2729" y1="356.5931" x2="-378.0575" y2="294.7306">
				<stop  offset="0" style="stop-color:#329E44"/>
				<stop  offset="0.9898" style="stop-color:#90CA3A"/>
			</linearGradient>
			<path class="st11" d="M-313.5,359.7c0,0-56.9-9.5-69.2-19.6c-12.4-10.1-0.1-14.6-0.1-14.6s-28.6-14.6-28.2-24.6
				c0.3-10,14.5-4.9,14.5-4.9s-24.1-27.4-18.4-32.7c10.6-9.7,38.4,18.8,38.4,18.8s-8.3-13.6,0.4-15.7c13.1-3.2,22.8,30.2,22.8,30.2
				s-2.5-13.2,6.6-11.5C-330.4,288.4-313.5,359.7-313.5,359.7z"/>
		</g>
		<path class="st10" d="M-346.7,285.2c-9-1.9-6.6,11.5-6.6,11.5s-9.7-33.5-22.8-30.2c-8.7,2.1-0.4,15.7-0.4,15.7
			s-27.8-28.5-38.4-18.8l101.3,96.4C-315.5,350.5-335.4,287.5-346.7,285.2z"/>
	</g>
	<g>
		<path class="st7" d="M-296.9,366.9c0,0,20.5-20.8,30.8-23c10.3-2.2,8.5,5.2,8.5,5.2s20.5-17.9,25.2-13.6c4.7,4.3-0.4,8.5-0.4,8.5
			s17-3,19.5,2.6c3.8,8.6-24.3,13.3-24.3,13.3s11.7,0.8,9,6.2C-232.7,374.2-296.9,366.9-296.9,366.9z"/>
		<path class="st10" d="M-213.3,346.6c-2.4-5.6-19.5-2.6-19.5-2.6s5.1-4.2,0.4-8.5c-4.7-4.3-24.6,11.1-24.6,11.1s4.7-8.9-5.6-6.8
			c-10.3,2.2-34.2,27-34.2,27L-213.3,346.6z"/>
	</g>
	<g>
		<path class="st12" d="M-413.7,369.2L-413.7,369.2c0,0.8,0.7,1.4,1.5,1.4h234c0.9,0,1.5-0.6,1.5-1.4l0,0c0-0.8-0.7-1.4-1.5-1.4
			h-234C-413,367.9-413.7,368.5-413.7,369.2z"/>
	</g>
	<g>
		<path class="st13" d="M-234.5,272.3c-0.1-0.3-0.4-0.1-0.8,0.5c0.5-2.1,0.4-4.7,0-5c-0.5-0.3-0.8,3.4-1.8,5.4
			c-1.1,2-2.1,4.4-2.2,4.3c-0.2-0.2,1.3-2.8,2.3-4.9c1.1-2,0.3-11.4-0.7-4.7c-1,6.7-7.5,11.9-7.7,9.8c-0.2-2.1,0.9-5.2-0.4-4.7
			c-1.3,0.5-1.7,5.1-2.9,8.4c-0.1,0.4-0.1,1.6-0.1,2.9c0,0.7-0.4,1.4-1.1,1.6l-19.4,7l-2.8-17.4l-19.1,4.3c0,0,4.6,23.9,15.2,26.3
			c4.2,1,26.4-11.5,33.6-17.6C-235.3,282.5-233.9,273.7-234.5,272.3z"/>
		<path class="st14" d="M-281,259.5c4.5,2.1,19.4,24,19.4,24l-13.9,13l-8.9-13C-284.4,283.6-286.5,256.9-281,259.5z"/>
		<path class="st15" d="M-280.5,231.1c-0.9-5.7-1.9-11.5-7.5-15.9c-4.5-3.5-10-4.3-15.4-2.7c-15.2,4.6-5.8,13.3-25.9,23
			c-20.8,10-16.3,29.3-10.2,35.3c29.3,28.5,55.1-4.8,56.9-13.7C-281.1,250.5-279.9,234.8-280.5,231.1z"/>
		<path class="st14" d="M-315.4,257.3c0,0-2.5-0.1-9.1,2.9c-6.7,3-21,22.9-21,22.9l11.6,9.1l19.9-13
			C-313.9,279.1-311.4,257.3-315.4,257.3z"/>
		<path class="st9" d="M-279.8,322.8c-6.9,3.6-33.3,3.1-33.3,3.1c-0.7-6.9-2.9-24.3-4.4-39.1c-1.9-10.3,0-14.1,2.1-29.5
			c0-0.1,10.6-0.8,10.6-0.8l11.1,0.3c0,0,9.6,0.8,12.7,2.8c0.2,0.1,1.4,17.5,0.5,29.8c-0.6,8.4-1.6,15.1-1.5,20.7
			C-282,318-279.8,322.8-279.8,322.8z"/>
		<path class="st16" d="M-313.4,322.6l-24.2,20.8c0,0,47.6,24.9,64.1,20.2l4.5-22.5l-10.9-18.2L-313.4,322.6z"/>
		<path class="st4" d="M-316.6,350c0,0-18.2-2.8-29.2,6c-10.9,8.8-18,26.4-12.4,29.2c5.6,2.8,21.9-0.4,34.7-5.1
			C-310.5,375.3-306,352.6-316.6,350z"/>
		<path class="st2" d="M-357.3,368.2c-1.5,3.3-0.2,6.4,2.3,8.1c3.1,2.1,46.2,8.4,60.9,10.4c11.5,1.6,28.8,5.2,33.5,6.1
			c4.7,0.9,21.3,1.2,21.7,0.6c0.9-1.4-1.1-4.1-4.5-4.9c-3.4-0.9-5.8-0.2-12.4-4.7c-6.6-4.5-9.2-0.9-10.9,0.2
			c-1.7,1.1-77-24.2-77-24.2S-353.9,360.9-357.3,368.2z"/>
		<path class="st16" d="M-315.5,326.6c0,0-33.3,15.6-40.3,20.2c-13.2,8.5-5.7,33-3.8,36.8c0,0,3.8-21.8,15.8-23.7l2.1-10.3
			L-315.5,326.6z"/>
		<path class="st5" d="M-282,330.7c0,0-47-12.7-64.6,3.6c0,0-8.2,7.6-5.2,16.6c1.7,5.1,8,8.9,8,8.9s16.3-13.9,23-11.6
			c6.6,2.4,32.5,20.6,39.9,19.7C-269.4,366.7-255.9,340.1-282,330.7z"/>
		<path class="st13" d="M-311.5,351.6c-5-2.5-16.9-8.1-24.8-5.7c-7.9,2.4-11.1,8.8-7.5,13.9c2.1,3,71.4,23.8,74.6,25.7
			c3.2,1.9,16.5,4.7,20.6,4.7c4.1,0,11.6,1.5,12.2,0.4c0.6-1.1-3-4.7-7.5-5.6c-4.5-0.9-10.7-6.9-13.3-9c-2.6-2.1-3.4-4.1-8.2-1.1
			C-267.6,376.6-299.9,357.5-311.5,351.6z"/>
		<path class="st9" d="M-277.6,280.9c-0.2,6.6-8.7,12.9-20.7,12.9c-12,0-21.7-5.3-21.7-11.9c0-6.6,8-15.8,20-15.8
			C-288,266.1-277.3,272.5-277.6,280.9z"/>
		<path class="st13" d="M-302.2,240.2c0,0-0.2,1.7-0.6,4c-0.7,4.2-1,11.1-1.8,13.2c-0.7,1.8,3.3,19.7,5.8,15
			c4.8-8.8,5.6-11.7,5.8-14c0.2-2.2,0.8-9.9,1.2-15c0.2-2.8,0.4-4.8,0.4-4.8L-302.2,240.2z"/>
		<path class="st17" d="M-291.8,243.3c0.2-2.7,0.4-4.7,0.4-4.7l-10.7,1.6c0,0-0.3,1.6-0.6,3.8C-298.4,246.5-294.5,245.7-291.8,243.3
			z"/>
		<path class="st13" d="M-298.8,215.9c0,0-4.2,1-6.9,4.9c-2.6,4-4.4,15.7,4.2,21.2c8.6,5.5,15.3-2.3,15.4-9.8
			C-285.9,224.6-287.5,214.5-298.8,215.9z"/>
		
			<ellipse transform="matrix(0.3734 -0.9277 0.9277 0.3734 -391.6978 -121.7609)" class="st13" cx="-286" cy="229.1" rx="3.6" ry="2.1"/>
		<path class="st15" d="M-297.5,215.6c0,0-5.4,12.1-10.1,13.2c-4.7,1.1-4.7,7.2-4.7,7.2s0.1-14.1,4.6-17.3
			C-303.4,215.5-297.5,215.6-297.5,215.6z"/>
		
			<ellipse transform="matrix(0.9531 -0.3026 0.3026 0.9531 -84.6712 -82.3697)" class="st13" cx="-308.2" cy="232.1" rx="2.5" ry="3.7"/>
		<g>
			
				<rect x="-226.4" y="258.1" transform="matrix(0.4869 0.8735 -0.8735 0.4869 113.6666 323.915)" class="st9" width="15.1" height="1.2"/>
			
				<rect x="-226.6" y="258.5" transform="matrix(0.4869 0.8735 -0.8735 0.4869 113.6608 324.1686)" class="st9" width="15.1" height="0.7"/>
			
				<rect x="-231.3" y="260.7" transform="matrix(0.4868 0.8735 -0.8735 0.4868 113.3661 329.686)" class="st9" width="14.8" height="1.2"/>
			
				<rect x="-231.4" y="261" transform="matrix(0.4868 0.8735 -0.8735 0.4868 113.3625 329.8414)" class="st9" width="14.8" height="0.9"/>
			
				<rect x="-236.5" y="263.6" transform="matrix(0.4869 0.8735 -0.8735 0.4869 113.2298 335.7184)" class="st9" width="14.8" height="1.2"/>
			
				<rect x="-236.7" y="264" transform="matrix(0.4869 0.8735 -0.8735 0.4869 113.2245 335.9545)" class="st9" width="14.8" height="0.7"/>
			<path class="st6" d="M-315.8,348.9c4.7-4.3,7.6-13.1,9.4-16.7c0,0,2.3-4.7,9.2-4.8c6.9-0.1,14.6-4.2,18.1-12.1
				c3.5-7.9-5-19.8-5-19.8l-0.4-0.7c0,0-5.6-13.5-14.2-14.7c-8.6-1.2-16.1,3.2-19.8,9c-3.7,5.8-8.9,5.3-8.9,5.3
				c-4-0.4-13.1-2.6-19.2-0.8c-5.7,1.6-10.2,5.8-13,11.2c-3,5.8-3.5,13.7,0.8,23.6c0.2,0.5,2.5,5.2,3.3,6.5c0.7,1.3,3.4,5.7,3.8,6.2
				c6.2,8.9,13.1,12.6,19.6,13.1C-326.1,354.5-320.2,352.9-315.8,348.9z"/>
			
				<ellipse transform="matrix(0.8735 -0.4869 0.4869 0.8735 -188.6395 -110.1834)" class="st3" cx="-306.3" cy="307.9" rx="11.6" ry="12.5"/>
			
				<ellipse transform="matrix(0.8735 -0.4868 0.4868 0.8735 -188.633 -110.1815)" class="st4" cx="-306.3" cy="307.9" rx="7.6" ry="8.1"/>
			<path class="st6" d="M-214.3,247.9l-20.1,12.5c-0.2,0.9-2.5,3.2-2.5,3.2l4.3,7.7c0,0,3.1-0.7,4-0.4l21.2-10.6l0-0.1
				C-207.1,255.1-209.8,250.3-214.3,247.9L-214.3,247.9z M-232.7,263.1L-232.7,263.1c-0.6-1-0.3-2.3,0.6-2.9l11.7-7.2
				c0.9-0.6,2.2-0.2,2.8,0.8v0c0.6,1,0.3,2.3-0.6,2.9l-11.7,7.2C-230.8,264.5-232.1,264.1-232.7,263.1z M-215.1,262.5l-12.3,6.2
				c-1,0.5-2.2,0-2.7-1l0,0c-0.5-1-0.2-2.3,0.8-2.8l12.3-6.2c1-0.5,2.2,0,2.7,1l0,0C-213.8,260.8-214.1,262-215.1,262.5z"/>
			<path class="st5" d="M-299.7,304.2c1.1,2,1.4,4.3,0.8,6.3l66.3-39.3l-4.3-7.7l-68.7,36.4C-303.2,300.3-301,301.8-299.7,304.2z"/>
			
				<rect x="-350.3" y="320.9" transform="matrix(0.4868 0.8735 -0.8735 0.4868 111.1213 457.5684)" class="st3" width="32.9" height="4.9"/>
			<path class="st5" d="M-234.6,258.6L-234.6,258.6c-0.2-0.4-0.1-0.8,0.2-0.9l2.5-1.4c0.3-0.2,0.7-0.1,0.9,0.3l0,0
				c0.2,0.3,0.1,0.7-0.3,0.9l-2.5,1.4C-234.1,259.1-234.5,258.9-234.6,258.6z"/>
			<path class="st5" d="M-229.4,255.7L-229.4,255.7c-0.2-0.4-0.1-0.8,0.2-0.9l2.5-1.4c0.3-0.2,0.7-0.1,0.9,0.3l0,0
				c0.2,0.3,0.1,0.7-0.3,0.9l-2.5,1.4C-228.8,256.1-229.2,256-229.4,255.7z"/>
			<path class="st5" d="M-224.6,252.7L-224.6,252.7c-0.2-0.4-0.1-0.8,0.2-0.9l2.5-1.4c0.3-0.2,0.7-0.1,0.9,0.3l0,0
				c0.2,0.3,0.1,0.7-0.3,0.9l-2.5,1.4C-224,253.2-224.4,253-224.6,252.7z"/>
			<path class="st5" d="M-217,266.3L-217,266.3c-0.2-0.4-0.1-0.8,0.2-0.9l2.5-1.4c0.3-0.2,0.7-0.1,0.9,0.3l0,0
				c0.2,0.3,0.1,0.7-0.3,0.9l-2.5,1.4C-216.4,266.8-216.8,266.7-217,266.3z"/>
			<path class="st5" d="M-222,269L-222,269c-0.2-0.4-0.1-0.8,0.2-0.9l2.5-1.4c0.3-0.2,0.7-0.1,0.9,0.3l0,0c0.2,0.3,0.1,0.7-0.3,0.9
				l-2.5,1.4C-221.5,269.4-221.9,269.3-222,269z"/>
			<path class="st5" d="M-227.1,271.8L-227.1,271.8c-0.2-0.4-0.1-0.8,0.2-0.9l2.5-1.4c0.3-0.2,0.7-0.1,0.9,0.3l0,0
				c0.2,0.3,0.1,0.7-0.3,0.9l-2.5,1.4C-226.5,272.2-226.9,272.1-227.1,271.8z"/>
			<polygon class="st18" points="-232.7,271.2 -236.9,263.6 -237.8,264 -233.5,271.7 			"/>
			<polygon class="st18" points="-238.5,274.7 -243,266.8 -243.3,267 -238.9,274.9 			"/>
			<polygon class="st18" points="-243.9,277.9 -248.5,269.7 -248.9,269.9 -244.3,278.1 			"/>
			<polygon class="st18" points="-248.5,280.6 -253.2,272.2 -253.6,272.4 -248.9,280.9 			"/>
			<polygon class="st18" points="-253.1,283.4 -258,274.7 -258.3,274.9 -253.5,283.6 			"/>
			<polygon class="st18" points="-257.4,285.9 -262.3,277 -262.7,277.2 -257.7,286.1 			"/>
			<polygon class="st18" points="-261.6,288.4 -266.7,279.3 -267,279.5 -262,288.6 			"/>
			<polygon class="st18" points="-265.2,290.5 -270.3,281.3 -270.7,281.5 -265.5,290.7 			"/>
			<polygon class="st18" points="-268.8,292.6 -274,283.2 -274.4,283.4 -269.1,292.8 			"/>
			<polygon class="st18" points="-272.2,294.7 -277.6,285.1 -277.9,285.3 -272.6,294.9 			"/>
			<polygon class="st18" points="-275.5,296.6 -280.9,286.9 -281.3,287.1 -275.8,296.8 			"/>
			<polygon class="st18" points="-278.5,298.4 -284,288.5 -284.4,288.7 -278.9,298.6 			"/>
			<polygon class="st18" points="-284.1,301.7 -289.7,291.5 -290.1,291.7 -284.4,301.9 			"/>
			<polygon class="st18" points="-286.8,303.3 -292.5,293 -292.9,293.2 -287.1,303.5 			"/>
			<polygon class="st18" points="-289,304.6 -294.7,294.2 -295.1,294.4 -289.3,304.8 			"/>
			<polygon class="st18" points="-291.3,306 -297.1,295.5 -297.5,295.7 -291.6,306.2 			"/>
			
				<rect x="-220.9" y="254.6" transform="matrix(0.4871 0.8734 -0.8734 0.4871 110.034 323.651)" class="st19" width="0.7" height="1.9"/>
			
				<rect x="-217.7" y="260.3" transform="matrix(0.4875 0.8731 -0.8731 0.4875 116.4951 323.7275)" class="st19" width="0.4" height="1.7"/>
			
				<rect x="-225.8" y="257.3" transform="matrix(0.4866 0.8736 -0.8736 0.4866 109.9157 329.6514)" class="st19" width="0.5" height="2"/>
			
				<rect x="-222.9" y="262.9" transform="matrix(0.487 0.8734 -0.8734 0.487 116.2055 329.7374)" class="st19" width="0.7" height="1.8"/>
			
				<rect x="-231" y="260.1" transform="matrix(0.4871 0.8734 -0.8734 0.4871 109.5933 335.407)" class="st19" width="0.6" height="1.8"/>
			
				<rect x="-227.6" y="266.5" transform="matrix(0.4866 0.8736 -0.8736 0.4866 116.7794 335.8886)" class="st19" width="0.3" height="1.6"/>
			<g>
				<polygon class="st18" points="-281.2,300 -286.8,290 -287.1,290.2 -281.5,300.2 				"/>
			</g>
		</g>
		<path class="st13" d="M-309.9,321c-0.1,0.2,2.3,0.7,4.5,1.3c2.2,0.6,5.7,0.6,5.6,1.2c-0.1,0.4-2.3,0.6-4.3,0.5
			c0.5,0.2,0.7,0.4,0.5,0.6c-1.1,0.7-7.4,0.3-13.2-2.2c-5.8-2.5-39.5-21-36.1-26.2c1.3-1.9,6.7-7.5,9.8-11.3l8.8,6.9l-4.5,5
			c7,7.5,17.6,15.6,18.2,16c1.5,1.1,4.3,0.1,5,0.1c3.5-0.1,8-0.1,8.8,1c0.8,1.2-2.5,0.8-4.5,1.4c-1.9,0.6,4.5,5.7,11.2,5.3
			c6.7-0.4-0.9,2.6-3.1,2C-305.6,321.9-309.8,320.7-309.9,321z"/>
		<path class="st13" d="M-234.5,272.3c-0.1-0.3-0.4-0.1-0.8,0.5c0.5-2.1,0.4-4.7,0-5c-0.5-0.3-0.8,3.4-1.8,5.4
			c-1.1,2-2.1,4.4-2.2,4.3c-0.2-0.2,1.3-2.8,2.3-4.9c1.1-2,0.3-11.4-0.7-4.7c-1,6.7-7.5,11.9-7.7,9.8c-0.2-2.1,0.9-5.2-0.4-4.7
			c-1.3,0.5-1.7,5.1-2.9,8.4c-0.1,0.4-0.1,1.6-0.1,2.9c0,0.7-0.4,1.4-1.1,1.6l4.1,5.2c1.3-0.9,2.5-1.8,3.4-2.6
			C-235.3,282.5-233.9,273.7-234.5,272.3z"/>
	</g>
	<path class="st7" d="M-398.8,178c0,0-0.3-2.1,1.5-3.8c1.6-1.4,3.9-1.1,5.4,0.5c1.6,1.8,2.1,5.4-0.2,10.8c-5.6,1.6-9.1,0.8-10.7-1
		c-1.4-1.6-1.5-3.9,0.1-5.4C-400.9,177.5-398.8,178-398.8,178z"/>
	<path class="st10" d="M-391.9,174.7c-1.4-1.6-3.8-2-5.4-0.5c-1.8,1.6-1.5,3.8-1.5,3.8s6.7,7.5,6.7,7.5
		C-389.8,180.1-390.3,176.5-391.9,174.7z"/>
	<path class="st10" d="M-360.1,201.6c0,0,0-2.2,2.1-3.5c1.8-1.2,4.1-0.5,5.2,1.3c1.4,2.1,1.3,5.6-1.7,10.6
		c-5.8,0.8-9.1-0.5-10.5-2.6c-1.2-1.8-0.9-4.1,0.9-5.3C-362.2,200.8-360.1,201.6-360.1,201.6z"/>
	<path class="st7" d="M-352.8,199.4c-1.2-1.8-3.4-2.5-5.2-1.3c-2,1.3-2.1,3.5-2.1,3.5s5.6,8.4,5.6,8.4
		C-351.6,205-351.5,201.4-352.8,199.4z"/>
	<g>
		<path class="st4" d="M-411.9,278.3c0,0,5.3-0.6,8.1,4.7c2.8,5.3,2.8,5.3,2.8,5.3s8.6,5.4,3.4,11.8c0,0,0.8,7.1-4.9,10.2
			c-2.9,1.6-7.7,1.3-7.7,1.3s-9.8,4-14.9,0.3c0,0-7-0.7-9.1-5.1c-1-2.1,0.6-2.4-0.6-4c-2-2.7-2-5.7,0.6-7.9c2.3-1.9,3.4-4.2,4.2-7.1
			C-427.6,279.9-421.4,276-411.9,278.3z"/>
		<path class="st13" d="M-397.4,282.7c0,0-2-0.1-4.6-2.2c-1.7-1.4-5.5-2.5-4.5-3.3c1-0.9,4.1,1.4,4.1,0.4c0-1-6.1-6.1-5.2-6.9
			c0.9-0.8,6.4,4.4,6.4,3.5c0-0.9-5.5-5.1-4.2-6.2c1.3-1.1,6,5.5,6.7,4.9c0.7-0.6-2.4-4.7-1.3-5.6c1.1-0.9,3.9,5.8,3.9,5.2
			c0-0.5-0.3-4.3,0.5-4.4c0.9,0,1.9,8,3.4,9.3c1.6,1.2,16.3,17.8,15.6,21.5c-0.7,3.7-16.1,17.1-20.2,17.6c-4,0.4-7.6-2.2-7.6-4.8
			c0-2.5,14.9-14.5,14.9-15.3C-389.4,295.5-397.4,282.7-397.4,282.7z"/>
		<path class="st14" d="M-413.2,318.6c-0.3-1.7,0-4.5,3.2-7.4c3.4-3.2,14.2-11.7,14.2-11.7l10,11.6c0,0-10.2,10.8-15.2,13.1
			C-409.4,328.2-412.6,322-413.2,318.6z"/>
		<g>
			<path class="st4" d="M-363,357.5c-7-6.8-32.7,0.1-32.7,0.1l-30.9,1.1l-4.3,10.9l13.3,16.7c0,0,20.6-5.3,22.5-10.6l30.5-8.3
				C-364.6,367.4-359.7,360.7-363,357.5z"/>
			<path class="st20" d="M-405.9,374.8l-2.2,5.7l-16.7,5.1c0,0-9-9.3-6.1-16c3-6.7,13.6-6.9,18.6-4.9
				C-407.3,366.6-405.9,374.8-405.9,374.8z"/>
			<path class="st9" d="M-416,310.8c4.2-1.1,8.9-0.7,12.6,1.7c4.3,2.8,5.4,8.4,6.5,13.2c1.4,6.4,2.2,12.9,2.5,19.4
				c0.1,1.5,0.8,16.9-0.8,17.2c0,0-25.5,4-32.5-2.8c0,0,3.3-6,2.9-13.4c-0.5-8.3-3.9-22-3.9-25.2c0-5.9,7.7-8.5,12.3-9.9
				C-416.3,310.9-416.1,310.8-416,310.8z"/>
			<path class="st16" d="M-408.1,347.1c0,0-21,16.2-22.8,22.1c-1.8,6,1.3,13.7,6.1,16.4c4.8,2.7,14.1-1,17-3.9
				c2.9-2.9,5.9-21.2,5.9-21.2L-408.1,347.1z"/>
			<path class="st2" d="M-374.8,359.7c-6.4,4.1-16.4,14.9-24,17.6c-7.6,2.7-12.2,5.7-12.2,5.7s-4.1,3.4-2.2,5.3
				c1.9,1.9,7.3,4.3,18.6-4.5c1.4-1.1,6.3-3.1,13-6c6.7-2.9,16.6-5.8,18.9-7.2c5.1-3.1,2.6-11.3-0.3-13.2
				C-365.9,355.6-370.4,356.9-374.8,359.7z"/>
			<path class="st21" d="M-365.1,395c0.4-3.3-10.7-8.3-14.5-12.4c-5.7-8.2-12.9-41-25.4-37h0c-1.9,0.4-3,1-4.1,2.2
				c-2.6,2.9-3,4.6-0.5,10c2.7,5.8,17.4,21.6,22,26c5.8,5.6,9.4,11.8,11.5,13.8C-373.1,400.7-365.2,396.1-365.1,395z"/>
		</g>
		<path class="st13" d="M-409.1,303.6c0,0-1.5,8.7,0.9,11.2c2.6,2.6-9.8,1.5-10.6-2.7c-0.4-2.3,1.7-12.1,1.7-12.1L-409.1,303.6z"/>
		<path class="st2" d="M-417.1,300l7.9,3.6c0,0-0.4,2.1-0.5,4.6c-2,0.2-4.2-0.3-6.6-1.8c-0.7-0.4-1.3-0.9-1.9-1.4
			C-417.6,302.4-417.1,300-417.1,300z"/>
		<path class="st13" d="M-413.3,281.6c0,0-3.8,0.9-6.2,4.5c-2.4,3.6-4,14.3,3.8,19.3c7.8,5,13.9-2.1,14-8.9
			C-401.6,289.6-404.4,280.7-413.3,281.6z"/>
		
			<ellipse transform="matrix(0.9531 -0.3026 0.3026 0.9531 -109.4516 -113.7682)" class="st13" cx="-421.9" cy="296.3" rx="2.3" ry="3.4"/>
		<path class="st4" d="M-410.8,281.5c0,0-0.5,8.3-10.7,11.8c-10.2,3.5-7.7,6.8-7.7,6.8s-2.9-5.4,2.1-10.3c4.9-4.9,6.5-6.4,8.4-8.3
			C-417,279.6-410.8,281.5-410.8,281.5z"/>
		<path class="st13" d="M-407.7,354c0,0,1.6-1.1,5-1.1c2.2,0,5.9-1.4,5.6-0.1c-0.3,1.3-4.1,1.4-3.5,2.2c0.6,0.8,8.6,1.1,8.3,2.2
			c-0.3,1.2-7.8,0.5-7.2,1.2c0.6,0.7,7.5,0.7,7.1,2.3c-0.4,1.7-8.1-0.7-8.3,0.3c-0.2,0.9,4.7,2.3,4.4,3.6c-0.3,1.4-6.6-2.2-6.3-1.7
			c0.3,0.4,2.9,3.3,2.3,3.8c-0.7,0.6-6.4-5.2-8.4-5.2c-2,0-23.8-4-25.5-7.4c-1.7-3.4,2.3-23.4,5.2-26.2c2.9-2.8,7.4-2.9,9-0.9
			c1.6,2-2.9,20.6-2.4,21.2C-421.8,348.8-407.7,354-407.7,354z"/>
		<path class="st14" d="M-416.2,314.9c1.3,1.2,2.7,3.5,2,7.8c-0.8,4.6-4.1,18-4.1,18l-15-3c0,0,1.5-14.8,4-19.7
			C-425,309.7-418.7,312.6-416.2,314.9z"/>
	</g>
	<g>
		<path class="st13" d="M-454.1,324.2c0,0-1-1.9-0.5-5.7c0.4-2.4-0.7-6.6,0.7-6.1c1.4,0.5,1,4.7,1.9,4.1c0.9-0.6,2.4-9.3,3.7-8.8
			c1.3,0.5-0.6,8.6,0.3,8c0.8-0.5,1.8-8.1,3.6-7.5c1.8,0.6-1.9,8.8-0.9,9.2c1,0.3,3.2-4.9,4.6-4.4c1.4,0.5-3.3,7-2.8,6.7
			c0.5-0.3,4-2.7,4.4-2c0.5,0.8-6.6,6.3-6.9,8.5c-0.3,2.2-7.8,25.5-11.7,26.9s-25.4-5.8-28-9.4c-2.7-3.6-2.1-8.5,0.3-9.9
			c2.4-1.5,22.1,6,22.9,5.6C-461.8,339-454.1,324.2-454.1,324.2z"/>
		<path class="st3" d="M-466.8,337.9c-2.2-2.2-19.9-9.4-24.9-9c-2.6,0.2-5,1.5-6.3,3.8c-1.7,2.9-1.2,5.6,0.3,8.1
			c3.4,5.4,27.3,13.1,28.2,11.6C-468.5,351-466.7,338-466.8,337.9z"/>
		<path class="st2" d="M-500.4,409.3c0,0,33.8,3.5,43.2,3.2c9.5-0.3,11.7-8.3,10.5-12.4c-1.7-6-7.2-9.2-7.2-9.2l-19.7,3.2
			c0,0,2.2,5.1,4,11c0.2,0.5-12.3-7-26.3-3.7c-3.1,0.7-6.2-3.1-7.9-2.9c-1.7,0.2-21.2,8.5-21,10
			C-524.7,410.2-500.4,409.3-500.4,409.3z"/>
		<path class="st10" d="M-508.6,384.7c0,0-0.4,6.3,0.8,7.8c8.8,11.9,38.2,12.7,38.2,12.7s9.6-9.3,13.8-11.8c2.7-1.6,5,0.4,5.4-0.9
			c2.6-9.2-36.4-11.8-36.4-11.8L-508.6,384.7z"/>
		<path class="st9" d="M-439.5,413.3h-27.8l-1.8-42.4c-0.1-2.1,1.6-3.9,3.7-3.9h23.8c2.1,0,3.8,1.8,3.7,3.9L-439.5,413.3z"/>
		<path class="st6" d="M-470.3,374.7h33.7l0.2-3.8c0.1-2.1-1.8-3.9-4.1-3.9h-25.9c-2.3,0-4.2,1.8-4.1,3.9L-470.3,374.7z"/>
		<path class="st22" d="M-459.3,401.7c0,0-11.6,15.7-20.4,10.6c-8.8-5.1-3.4-12-3.4-12l14.5-2L-459.3,401.7z"/>
		<path class="st13" d="M-510.8,413.3c0,0,33.2,6.9,42.7,7.6c9.4,0.7,12.5-7.1,11.7-11.2c-1.1-6.1-6.3-9.9-6.3-9.9l-19.9,1.1
			c0,0,1.6,5.2,2.9,11.4c0.1,0.5-11.5-8.3-25.8-6.3c-3.1,0.4-5.9-3.7-7.5-3.7c-1.7,0-17.7,11.5-17.7,13
			C-530.7,416.9-510.8,413.3-510.8,413.3z"/>
		<path class="st7" d="M-516.4,387.9c0,0-1,6.2,0,7.9c7.6,12.7,36.7,16.5,36.7,16.5s10.5-8.3,14.9-10.3c2.8-1.3,5.5-0.3,5.5-0.3
			l-31.5-24.6L-516.4,387.9z"/>
		<path class="st6" d="M-491.7,328.6c0,0-8.2-1.8-15.4,6c-6.9,7.5-14.1,56.9-14.1,56.9s19.5,5.7,27,0c7.5-5.7,8.6-8.1,8.6-8.1
			s4.2-14,4.8-18.6c0.6-4.6,3.8-18.5,0.8-29.4C-480.9,331.7-491.7,328.6-491.7,328.6z"/>
		<path class="st13" d="M-487.9,313.4l-0.5,5.9l-4.9,9.1c0,0,9.7,12.6,12.7,9.6c0.7-0.7,2.4-14,2.4-14L-487.9,313.4z"/>
		<path class="st2" d="M-488.4,319.3l-1,2c3,2.9,6.9,5.5,10.6,7c0.3-2.4,0.6-4.4,0.6-4.4l-9.6-10.6L-488.4,319.3z"/>
		<path class="st13" d="M-478,293.5c0,0,5.1,5.5,6,7c3.7,6,3.6,21.4,0.8,23.2c-4.6,3.1-15.6-0.2-22.2-5c-6.7-4.8-8.8-12.6-2.7-19.4
			C-490,292.5-478,293.5-478,293.5z"/>
		<path class="st4" d="M-495.2,292.8c4.6-1.8,9.5-3.1,14.4-3.9c1.2-0.2,2.4-0.3,3.6-0.1c2.2,0.4,3.8,2.6,3.9,4.8l0.1,5.2
			c0,0-3.9-2-6-0.7c-2.1,1.3-0.1,6.6-1.6,9c-1.5,2.4-4.1,2.4-4.7,4.7c-0.6,2.3,1.6,9.3-2.4,11.7c-3.9,2.3-7.6-0.4-9.9-3.5
			c-2.8-3.7-4.3-8.3-4.7-12.9C-503.6,297.5-501.3,295.2-495.2,292.8z"/>
		<path class="st13" d="M-483.4,310.2c0,0-1.7-5.1-4.4-3.1c-2.7,2,1.9,9,4.2,7.9C-481.2,314-483.4,310.2-483.4,310.2z"/>
		<path class="st13" d="M-467.9,360.2c0,0,0.9-2,4.2-3.8c2.1-1.2,4.8-4.6,5.3-3.2c0.5,1.4-3.1,3.6-2.1,4c1,0.4,8.8-3.7,9.2-2.5
			c0.4,1.3-7.2,4.7-6.2,5.1c0.9,0.4,7.5-3.5,8.1-1.7c0.6,1.8-8.1,3.9-7.8,4.8c0.3,1,5.8-0.5,6.3,1c0.5,1.5-7.5,1.6-7,1.8
			c0.5,0.2,4.6,1.5,4.3,2.3c-0.3,0.9-9-1.5-10.9-0.4c-1.9,1.1-25,9.3-28.5,7c-3.5-2.3-10.8-23.6-9.6-28c1.2-4.3,5.5-6.8,8.1-5.8
			c2.6,1,8.7,21.2,9.5,21.6C-484.3,363-467.9,360.2-467.9,360.2z"/>
		<path class="st3" d="M-507.5,335.6c-2.2,6,4.2,31.2,5.7,30.4c0,0,16.3-8.6,16.3-8.6c-0.6-3-5.6-20.6-9-24.3
			c-1.7-1.9-4.2-3-6.8-2.7C-504.6,330.9-506.5,332.9-507.5,335.6z"/>
		<path class="st2" d="M-450.9,318.3c0.5,0.4,0.9,0.8,1.3,1.4c0,0.1,1.2,1.7,0.6,3.9C-449.1,322.2-449.2,320.6-450.9,318.3z"/>
	</g>
	<path class="st2" d="M-203.2,377.7c0,0-10.3,8.2-12.3,11.3c-4.1,6.5,1.9,10.2,3.7,10.2c1.8,0,16.5-11.2,16.5-11.2L-203.2,377.7z"/>
	<path class="st13" d="M-189.6,380.5c0,0-24.4,10.7-24.4,18.9c0,8.1,9,8.1,10.9,7.8c22.8-3.6,32.3-10.9,35.4-10.5
		c2.2,0.2,0,4.3,0,4.3s-2.5,0.9-1.4,2c1.1,1.1,5.9,1.1,7-0.2c1-1.1,0.1-2.5,0.3-6c0.1-2,1.1-4.7-0.2-6.8c-0.7-1.2-28.8,4.4-29.9,3.3
		C-193,392.1-189.6,380.5-189.6,380.5z"/>
	<path class="st6" d="M-168.2,321.8c0,0-12.6,14.2-14.9,19.2c-2.3,5.1,1.2,25.3-1.2,26.8c-2.4,1.5-22.6,9.9-22.6,9.9
		s9.3,17.1,16.5,19.5c7.2,2.4,20.1-4.2,27.7-4.2c9.4,0,10.1-17,5.7-24.9c-3.4-6.1-3.9-13.7-2.2-19.2c1.6-5.5,6-18.2,3-22.7
		C-159.4,321.7-166.8,321.8-168.2,321.8z"/>
	<path class="st13" d="M-169.8,314.7c0,0,1.5,8.7-0.9,11.2c-2.6,2.6,9.8,1.5,10.6-2.7c0.4-2.3-1.7-12.1-1.7-12.1L-169.8,314.7z"/>
	<path class="st2" d="M-161.8,311.1l-7.9,3.6c0,0,0.4,2.1,0.5,4.6c2,0.2,4.2-0.3,6.6-1.8c0.7-0.4,1.3-0.9,1.9-1.4
		C-161.3,313.4-161.8,311.1-161.8,311.1z"/>
	<path class="st13" d="M-165.6,292.7c0,0,3.8,0.9,6.2,4.5c2.4,3.6,4,14.3-3.8,19.3c-7.8,5-13.9-2.1-14-8.9
		C-177.3,300.6-175.8,291.5-165.6,292.7z"/>
	
		<ellipse transform="matrix(0.3026 -0.9531 0.9531 0.3026 -402.5062 64.7084)" class="st13" cx="-157" cy="307.4" rx="3.4" ry="2.3"/>
	<path class="st13" d="M-196.8,342.7c0,0-0.1-1.8-2.2-4.3c-1.3-1.6-2.4-5.1-3.2-4.1c-0.8,1,1.4,3.8,0.4,3.8c-0.9,0-5.8-5.6-6.5-4.7
		c-0.7,0.9,4.2,5.9,3.3,5.9c-0.8,0-4.8-5.1-5.9-3.8c-1,1.3,5.2,5.5,4.7,6.2c-0.5,0.7-4.4-2.1-5.2-1.1c-0.8,1,5.4,3.6,4.9,3.6
		c-0.5,0-4-0.2-4,0.6c0,0.8,7.5,1.6,8.7,3c1.2,1.4,16.8,14.9,20.3,14.2c3.4-0.7,15.7-15.3,16-19.1c0.3-3.8-2.2-7-4.6-7
		c-2.4,0-13.2,14.1-14,14.1C-184.7,349.8-196.8,342.7-196.8,342.7z"/>
	<path class="st3" d="M-163.7,327.3c-1.6-0.3-4.1,0.1-6.9,3.1c-2.9,3.2-10.6,13.4-10.6,13.4l11,9.1c0,0,9.8-9.7,12-14.4
		C-154.7,330.7-160.5,327.8-163.7,327.3z"/>
	<path class="st10" d="M-455.6,213.7c0.9,1.7,2.7,2.4,4.2,1.7c1.5-0.7,1.9-2.7,1-4.5c-0.9-1.7-2.8-2.5-4.2-1.8
		c-0.4,0.2-0.7,0.5-0.9,0.8l-2.3-5l8.5-1.5l3.9,8.5h0c0,0,0,0,0,0c0.9,1.7,2.8,2.5,4.2,1.8c1.5-0.7,1.9-2.7,1-4.5
		c-0.9-1.7-2.8-2.5-4.2-1.8c-0.4,0.2-0.7,0.5-0.9,0.8l-4.2-9.1c-0.1-0.3-0.4-0.5-0.7-0.4l-10.5,2.1c-0.4,0.1-0.5,0.5-0.3,0.9
		L-455.6,213.7L-455.6,213.7z"/>
	<g>
		<g>
			<g>
				<g>
					<path class="st5" d="M-264.2,188.6c-0.1-0.1-7.3-5.3-19.4-7.1c-17.3-2.5-43.7,9.3-55.5-6.9c-2.1-2.9-2.7-5.4-2.7-5.5
						c-0.1-0.4,0.5-0.5,0.6-0.1l0,0c0,0,0.6,2.5,2.6,5.3c11.6,15.8,37.7,4.1,55.1,6.6c8.7,1.2,16.3,4.7,19.7,7.2
						C-263.5,188.4-263.9,188.9-264.2,188.6z"/>
				</g>
				<g>
					<path class="st5" d="M-265,185.6c-0.3-0.2-6.8-4.9-17.6-6.4c-11.8-1.7-28.5,2.6-39.5,0.1c-6.7-1.5-10.5-4.9-12.5-7.4
						c-2.2-2.8-2.8-5.1-2.8-5.2c-0.1-0.4,0.5-0.5,0.6-0.1c0,0,0.6,2.4,2.7,5c2,2.5,5.6,5.7,12.2,7.2c11,2.5,27.6-1.8,39.5-0.1
						c10.9,1.6,17.6,6.4,17.9,6.6c0.1,0.1,0.2,0.3,0.1,0.4C-264.7,185.7-264.9,185.7-265,185.6z"/>
				</g>
				<g>
					<path class="st5" d="M-265.8,182.6c-2.9-2.1-8.6-4.8-15.8-5.8c-11.4-1.7-25.8,1.3-35.6-0.7c-7-1.4-11-4.6-13-7
						c-2.3-2.6-2.9-4.9-2.9-5c-0.1-0.4,0.5-0.5,0.6-0.1l0,0c0,0,0.6,2.3,2.8,4.8c2,2.3,5.9,5.4,12.7,6.8c5,1,11.1,0.7,17.5,0.4
						c6.1-0.3,12.4-0.6,18,0.3c7.3,1.1,13.1,3.8,16.1,5.9C-265.2,182.4-265.5,182.8-265.8,182.6z"/>
				</g>
				<g>
					<path class="st5" d="M-266.7,179.6c-12.5-9.1-33.2-4.5-45.7-6.7c-7.3-1.3-11.4-4.3-13.5-6.6c-2.3-2.5-3-4.7-3-4.8
						c-0.1-0.4,0.5-0.5,0.6-0.2c0,0,0.6,2.2,2.9,4.6c2.1,2.2,6.1,5.2,13.2,6.4c12.5,2.2,33.2-2.5,45.9,6.8c0.1,0.1,0.2,0.3,0.1,0.4
						C-266.4,179.7-266.6,179.7-266.7,179.6z"/>
				</g>
			</g>
		</g>
		<g>
			<path class="st5" d="M-315.8,165.8L-315.8,165.8c-1.1-0.8-2.9-3.5-4-5c-1.4-2.1-1.2-1.7-1.6-1.8c-0.8,0-0.8-0.1-4.4,13.8
				c-3.2-2.8-9.6-0.1-8.9,3.8c0.4,2,2.9,3.4,5.7,2.8c2-0.4,3.6-1.7,4.1-3.2l0,0c0.1-0.4,1.7-6.4,3-11.3c1.4,2.8,5.2,4.2,7.1,2.4
				l0.6-0.6l-0.7-0.3C-315.2,166.3-315.8,165.9-315.8,165.8z"/>
			<path class="st5" d="M-273.6,169.9L-273.6,169.9c-1.2-0.1-3.8-1.3-5.3-2.1c-1.6-0.8-1.8-0.9-2.1-0.6c-0.7,0.4-0.6,0.4,2.7,12.6
				c-3.8-0.6-7.4,4.4-5.1,7c2.5,2.8,8.3-0.9,7.5-4.8l0,0c-0.1-0.4-1.5-5.7-2.7-9.9c2.3,1.4,5.9,0.8,6.5-1.5l0.2-0.8
				C-272.8,169.9-272.4,170-273.6,169.9z"/>
			<path class="st5" d="M-292.7,173.8c-0.1-0.5-1.6-6.1-3.5-13c-7.2,2.3-6.9,2.3-13.9,2.5c0.9,3.5,1.9,7.1,2.7,10
				c-3.8-0.6-7.4,4.4-5.1,7c2.5,2.8,8.3-0.9,7.5-4.8l0,0c-0.1-0.4-0.9-3.5-2.3-8.4l10.4-2c0.4,1.5,1,3.5,1.8,6.4
				c-3.8-0.6-7.4,4.4-5.1,7c1.3,1.4,3.9,1.3,5.8-0.4C-293.1,177-292.4,175.3-292.7,173.8L-292.7,173.8z"/>
		</g>
	</g>
	<polygon class="st6" points="-233.9,185.2 -233.7,180.5 -231.8,180.6 -231.9,183.2 -228.1,183 -228,184.9 	"/>
	<path class="st7" d="M-177.7,221.8L-177.7,221.8c-0.9-0.9-2-3.5-2.7-5c-0.7-1.6-0.8-1.8-1.2-1.9c-0.8-0.1-0.7-0.1-6.1,11.3
		c-2.4-2.9-8.5-1.5-8.4,2c0.1,3.8,6.9,4.8,8.8,1.2l0,0c0.2-0.3,2.5-5.3,4.4-9.3c0.8,2.6,3.9,4.4,5.9,3.1l0.7-0.4
		C-177.1,222.4-176.9,222.7-177.7,221.8z"/>
	<path class="st7" d="M-423.5,175.7c-0.1-0.5-1.6-6.1-3.5-13c-7.2,2.3-6.9,2.3-13.9,2.5c0.9,3.5,1.9,7.1,2.7,10
		c-3.8-0.6-7.4,4.4-5.1,7c2.5,2.8,8.3-0.9,7.5-4.8l0,0c-0.1-0.4-0.9-3.5-2.3-8.4l10.4-2c0.4,1.5,1,3.5,1.8,6.4
		c-3.8-0.6-7.4,4.4-5.1,7c1.3,1.4,3.9,1.3,5.8-0.4C-423.9,178.9-423.2,177.2-423.5,175.7L-423.5,175.7z"/>
</g>
<g>
	<linearGradient id="SVGID_3_" gradientUnits="userSpaceOnUse" x1="254.9243" y1="30.1004" x2="248.3626" y2="250.8135">
		<stop  offset="0" style="stop-color:#8FD5E0"/>
		<stop  offset="0.9898" style="stop-color:#F4F8E4"/>
	</linearGradient>
	<path class="st23" d="M371.9,251.7c29.1-14.8,31-86.6-25.3-103.4c-56.3-16.8-45.9-59.2-93.2-90.9c-43.2-28.9-114.6-4.4-138.4,70.7
		c-17,53.6,2.8,120.8,16.3,123.6C262.7,251.7,371.9,251.7,371.9,251.7z"/>
	<g>
		<g>
			<path class="st1" d="M288.1,164.7c9.7-13.7,11.5-30.3,11.3-41.8c-0.2-12.5-2.8-21.8-2.8-21.9l0.7-0.2c0,0.1,2.6,9.5,2.8,22
				c0.2,11.6-1.6,28.3-11.5,42.2L288.1,164.7z"/>
		</g>
		<g>
			<path class="st1" d="M294.3,98.7c0.2,2.8,1.6,5.2,3.6,6.6c1.7-2,2.7-4.7,2.4-7.5c-0.2-2.8-1.6-5.2-3.6-6.6
				C295,93.2,294,95.9,294.3,98.7z"/>
		</g>
		<g>
			<path class="st1" d="M300.8,105.3c-1.6,2.4-2.2,5.2-1.6,7.6c2.5-0.5,5-2.1,6.6-4.6c1.6-2.4,2.2-5.2,1.6-7.6
				C304.9,101.2,302.5,102.8,300.8,105.3z"/>
		</g>
		<g>
			<path class="st1" d="M304.6,112.9c-2.6,1.5-4.3,3.8-5,6.3c2.4,0.6,5.3,0.2,7.8-1.3c2.6-1.5,4.3-3.8,5-6.3
				C310,111,307.1,111.4,304.6,112.9z"/>
		</g>
		<g>
			<path class="st1" d="M303.4,123.6c-2,1.2-3.3,3.2-3.6,5.5c2.1,0.8,4.5,0.7,6.5-0.5c2-1.2,3.3-3.2,3.6-5.5
				C307.8,122.3,305.4,122.4,303.4,123.6z"/>
		</g>
		<g>
			<path class="st1" d="M295,110.9c-2.3-1.1-4.8-1.2-7-0.4c0.6,2.1,2.1,4,4.4,5.1c2.3,1.1,4.8,1.2,7,0.4
				C298.8,114,297.3,112,295,110.9z"/>
		</g>
		<g>
			<path class="st1" d="M295.3,118.3c-2.3-1.1-4.8-1.2-7-0.4c0.6,2.1,2.1,4,4.4,5.1c2.3,1.1,4.8,1.2,7,0.4
				C299.1,121.3,297.6,119.4,295.3,118.3z"/>
		</g>
		<g>
			<path class="st1" d="M301.9,135.3c-1.2,0.3-2.2,1-2.8,1.9c0.9,0.6,2,0.9,3.2,0.7c1.2-0.3,2.2-1,2.8-1.9
				C304.3,135.3,303.1,135.1,301.9,135.3z"/>
		</g>
	</g>
	<path class="st2" d="M357.4,218c0,0-0.1-1.8-2.2-4.3c-1.3-1.6-2.4-5.1-3.2-4.1c-0.8,1,1.4,3.8,0.4,3.8c-0.9,0-5.8-5.6-6.5-4.7
		c-0.7,0.9,4.2,5.9,3.3,5.9c-0.8,0-4.8-5.1-5.9-3.8c-1,1.3,5.2,5.5,4.7,6.2c-0.5,0.7-4.4-2.1-5.2-1.1c-0.8,1,5.4,3.6,4.9,3.6
		c-0.5,0-4-0.2-4,0.6c0,0.8,7.5,1.6,8.7,3c1.2,1.4,16.8,14.9,20.3,14.2c3.4-0.7,15.7-15.3,16-19.1c0.3-3.8-2.2-7-4.6-7
		c-2.4,0-13.2,14.1-14,14.1C369.4,225.2,357.4,218,357.4,218z"/>
	<path class="st3" d="M394,204.1c-1.6-0.3-6.7,0.7-10.3,3.3c-3.5,2.6-10.6,11.7-10.6,11.7l11,9.1c0,0,9.8-9.7,12-14.4
		C399.5,206,397.2,204.7,394,204.1z"/>
	<path class="st4" d="M391.3,171.5c0,0-5.3-0.6-8.1,4.7c-2.8,5.3-2.8,5.3-2.8,5.3s-8.6,5.4-3.4,11.8c0,0-0.8,7.1,4.9,10.2
		c2.9,1.6,7.7,1.3,7.7,1.3s9.8,4,14.9,0.3c0,0,7-0.7,9.1-5.1c1-2.1-0.6-2.4,0.6-4c2-2.7,2-5.7-0.6-7.9c-2.3-1.9-3.4-4.2-4.2-7.1
		C407.1,173,400.8,169.2,391.3,171.5z"/>
	<g>
		<g>
			<path class="st1" d="M294.6,213.8c22.7-1.5,41.6-13.7,53.5-23.7c12.9-10.8,20.5-21.5,20.6-21.6l0.8,0.5
				c-0.1,0.1-7.8,10.8-20.8,21.7c-12,10.1-31.2,22.4-54.1,24L294.6,213.8z"/>
		</g>
		<g>
			<path class="st1" d="M369.1,164c-2.8,2.7-4.1,6.1-3.9,9.5c3.5,0.1,7.2-1.2,9.9-3.8c2.8-2.7,4.1-6.1,3.9-9.5
				C375.5,160,371.9,161.3,369.1,164z"/>
		</g>
		<g>
			<path class="st1" d="M367.9,176.4c-4,0.4-7.3,2.2-9.4,4.8c2.7,2.2,6.5,3.4,10.5,3c4-0.4,7.3-2.2,9.4-4.8
				C375.6,177.3,371.8,176.1,367.9,176.4z"/>
		</g>
		<g>
			<path class="st1" d="M363,186.9c-3.8-1.4-7.7-1.2-10.8,0.1c1.4,3.1,4.2,5.8,8,7.2c3.8,1.4,7.7,1.2,10.8-0.1
				C369.6,191,366.8,188.3,363,186.9z"/>
		</g>
		<g>
			<path class="st1" d="M352.8,195.5c-3.8-1.4-7.7-1.2-10.8,0.1c1.4,3.1,4.2,5.8,8,7.2c3.8,1.4,7.7,1.2,10.8-0.1
				C359.4,199.6,356.5,196.9,352.8,195.5z"/>
		</g>
		<g>
			<path class="st1" d="M357.8,179.4c0.7-3.4-0.1-6.7-1.8-9.3c-2.6,1.5-4.6,4.1-5.3,7.4c-0.7,3.4,0.1,6.7,1.8,9.3
				C355.1,185.4,357.1,182.7,357.8,179.4z"/>
		</g>
		<g>
			<path class="st1" d="M347.2,188.3c0.8-3.3,0-6.7-1.7-9.3c-2.6,1.4-4.7,4-5.4,7.4c-0.8,3.3,0,6.7,1.7,9.3
				C344.4,194.3,346.4,191.7,347.2,188.3z"/>
		</g>
		<g>
			<path class="st1" d="M337.2,203.2c-1.3-1-2.9-1.5-4.4-1.3c0.1,1.5,0.7,2.9,2,4c1.3,1,2.9,1.5,4.4,1.3
				C339.2,205.7,338.5,204.3,337.2,203.2z"/>
		</g>
	</g>
	<path class="st5" d="M45.9,129.3l0.2-4.5l-3.6-2.7c-0.4-0.3-0.3-0.9,0.2-1.1l4.3-1.2l1.4-4.2c0.2-0.5,0.8-0.6,1.1-0.1l2.5,3.7
		l4.5,0c0.5,0,0.8,0.6,0.5,1l-2.7,3.5l1.3,4.3c0.2,0.5-0.3,0.9-0.8,0.8l-4.2-1.5l-3.6,2.6C46.5,130.1,45.9,129.8,45.9,129.3z"/>
	<path class="st6" d="M328.9,100.9l0.2-4.4l-3.6-2.6c-0.4-0.3-0.3-0.9,0.2-1.1l4.3-1.2l1.4-4.2c0.2-0.5,0.8-0.6,1.1-0.1l2.5,3.7
		l4.4,0c0.5,0,0.8,0.6,0.5,1l-2.7,3.5l1.3,4.2c0.2,0.5-0.3,0.9-0.8,0.8l-4.2-1.5l-3.6,2.6C329.5,101.7,328.9,101.4,328.9,100.9z"/>
	<path class="st6" d="M194,27.1l0.2-4.4l-3.6-2.6c-0.4-0.3-0.3-0.9,0.2-1.1l4.3-1.2l1.4-4.2c0.2-0.5,0.8-0.6,1.1-0.1l2.5,3.7l4.4,0
		c0.5,0,0.8,0.6,0.5,1l-2.7,3.5l1.3,4.2c0.2,0.5-0.3,0.9-0.8,0.8l-4.2-1.5l-3.6,2.6C194.6,27.9,194,27.6,194,27.1z"/>
	<polygon class="st7" points="404,98.9 407.9,98.8 409.5,95.3 413.8,95.5 414.3,91.1 419.2,91.2 420.2,87.2 425,86.5 425.2,88.3 
		421.7,88.9 420.7,93 415.9,93 415.4,97.4 410.6,97.1 409.1,100.6 405.5,100.7 404.9,103.2 403.2,102.8 	"/>
	<polygon class="st5" points="419.6,144.9 422.9,146.9 426.2,144.7 429.7,147.2 432.5,143.8 436.6,146.4 439.5,143.6 443.9,145.5 
		443.2,147.2 439.9,145.8 436.8,148.7 432.9,146.2 430,149.6 426.1,146.9 423,149 419.9,147.1 418.1,149 416.8,147.7 	"/>
	<g>
		<g>
			
				<ellipse transform="matrix(0.3527 -0.9357 0.9357 0.3527 144.8203 467.4004)" class="st6" cx="410.2" cy="129" rx="8.9" ry="8.9"/>
			<path class="st8" d="M405.3,128.7c-0.9,2.5,0.3,5.2,2.8,6.2c2.5,0.9,5.2-0.3,6.1-2.8L405.3,128.7z"/>
		</g>
	</g>
	<g>
		<circle class="st6" cx="92.8" cy="129.2" r="5.8"/>
		<g>
			<path class="st6" d="M90,112.3c0.2,1.7,0.3,3.5,0.8,5.1c0.4,1.4,2.6,1.1,2.6-0.3c0-1.8-0.4-3.7-0.7-5.5c-0.1-0.7-1-1.1-1.7-1
				C90.1,110.8,89.9,111.5,90,112.3L90,112.3z"/>
		</g>
		<g>
			<path class="st6" d="M79.6,118.7c1.8,1.3,3.4,2.8,5.1,4.2c1.3,1.1,2.9-0.6,1.9-1.9c-1.5-1.9-3.5-3.4-5.5-4.8
				c-0.6-0.4-1.6-0.1-1.9,0.5C78.7,117.5,79,118.3,79.6,118.7L79.6,118.7z"/>
		</g>
		<g>
			<path class="st6" d="M82.5,129.3c0.5-0.3,0.6-0.8,0.3-1.3c-0.6-1.2-2.2-1.3-3.4-1.3c-1.2,0-2.4,0.1-3.6,0.4
				c-1.7,0.5-1,3.2,0.7,2.7C80,128.9,81.2,130.2,82.5,129.3z"/>
		</g>
		<g>
			<path class="st6" d="M83.6,140.6c1.8-2.3,3.3-3.1,3.2-4.4c-0.1-0.8-0.7-1.2-1.4-1.1c-0.9,0.1-1.5,1.1-2.1,1.7
				c-0.6,0.6-1.1,1.2-1.6,1.9c-0.5,0.6-0.6,1.4,0,2C82.1,141.1,83.1,141.2,83.6,140.6L83.6,140.6z"/>
		</g>
		<g>
			<path class="st6" d="M90.1,141.5c0.4,1.5,0.5,2.1,1.2,2.8c0.6,0.6,1.9,0.3,2-0.5c0.2-1,0-1.4-0.5-3c-0.2-0.7-1-1.2-1.7-1
				C90.3,140,89.8,140.8,90.1,141.5L90.1,141.5z"/>
		</g>
		<g>
			<path class="st6" d="M97.4,138.4c2.3,2,2.7,2.6,3.7,2.5c0.6,0,1.2-0.5,1.1-1.1c-0.1-1.2-0.8-1.5-2.9-3.3c-0.6-0.5-1.4-0.6-1.9,0
				C96.9,137,96.8,137.9,97.4,138.4L97.4,138.4z"/>
		</g>
		<g>
			<path class="st6" d="M107.6,130.7c1-0.4,0.7-2.1-0.3-2.3c-1-0.2-1.4-0.1-6.2,0.5c-0.8,0.1-1.4,0.6-1.4,1.4c0,0.7,0.6,1.5,1.4,1.4
				C106.2,131.1,106.7,131.1,107.6,130.7z"/>
		</g>
		<g>
			<path class="st6" d="M100.7,122.3c2.8-2.4,3.2-1.9,4.3-3.4c0.5-0.7-0.2-1.9-1-1.8c-1.1,0.1-1.4,0.3-2.8,1.3
				c-0.8,0.6-1.7,1.2-2.5,1.9c-0.6,0.5-0.5,1.5,0,2C99.3,122.9,100.1,122.8,100.7,122.3L100.7,122.3z"/>
		</g>
	</g>
	<polygon class="st9" points="192.4,37 189.9,33 185.9,35.1 183.3,31.2 179.3,32.8 176.8,30.2 175.5,31.5 178.8,34.9 182.6,33.4 
		185.4,37.4 189.2,35.4 191.5,39 	"/>
	<g>
		<path class="st9" d="M377.5,47.8c0,0,2.1-1.1,4.7,0.1c2.3,1.1,2.9,3.7,1.9,5.8c-1.2,2.4-4.7,4.2-11.5,4c-4.3-5.2-5-9.1-3.8-11.5
			c1-2.1,3.5-3.1,5.7-2C377.1,45.4,377.5,47.8,377.5,47.8z"/>
		<g>
			<path class="st9" d="M358.4,39.6c2,1.4,3.7,2.5,5.4,3.4c0.6,0.3,1.5,1,2.1,0.8c0.3-0.1,0.5-0.4,0.5-0.8c-0.2-0.7-1.1-1-1.7-1.3
				c-1.7-1-3.7-2.1-5.5-3.4c-0.4-0.2-0.9-0.1-1.1,0.3C357.9,38.9,358,39.4,358.4,39.6L358.4,39.6z"/>
		</g>
		<g>
			<path class="st9" d="M384.9,60.2c0.8,0.5,1.7,0.9,2.5,1.4c0.8,0.4,1.7,1.1,2.6,1.3c0.7,0.1,1.1-0.6,0.7-1.1
				c-0.6-0.7-1.6-1.1-2.4-1.5c-0.8-0.5-1.7-0.9-2.5-1.4C384.8,58.4,384,59.7,384.9,60.2L384.9,60.2z"/>
		</g>
		<g>
			<path class="st9" d="M360,54.8c2-1.2,3.6-1,4.9-1.1c0.7-0.1,0.9-1,0.2-1.3c-1.9-0.7-4.2,0-5.9,1C358.3,53.9,359.1,55.3,360,54.8
				L360,54.8z"/>
		</g>
		<g>
			<path class="st9" d="M367.1,64.5c0.4-0.9,1-1.6,1.8-2.3c0.5-0.4,2.2-1.2,1.4-2c-0.8-0.8-2.1,0.5-2.7,1c-0.8,0.7-1.4,1.5-1.9,2.5
				C365.3,64.6,366.6,65.4,367.1,64.5L367.1,64.5z"/>
		</g>
		<g>
			<path class="st9" d="M377.1,63.2c0.3,0.6,0.5,1.2,0.8,1.8c0.3,0.6,0.4,1.3,1.1,1.5c0.4,0.1,0.7-0.1,0.8-0.5
				c0.2-0.6-0.3-1.3-0.6-1.9c-0.3-0.6-0.6-1.2-0.8-1.8c-0.2-0.4-0.8-0.5-1.1-0.3C376.9,62.4,376.9,62.8,377.1,63.2L377.1,63.2z"/>
		</g>
		<g>
			<path class="st9" d="M374.7,39.5c0.6-5.2,0.7-5.2,0.5-5.8c-0.2-0.6-1-0.7-1.3-0.2c-0.3,0.5-0.2,0.4-0.9,5.9
				c0,0.4,0.4,0.8,0.8,0.8C374.3,40.4,374.6,40,374.7,39.5L374.7,39.5z"/>
		</g>
		<g>
			<path class="st9" d="M382.3,43.7c0.7-0.5,1.3-1.2,1.8-1.8c0.5-0.6,1.4-1.5,1-2.4c-0.1-0.2-0.3-0.3-0.5-0.3
				c-0.8,0.1-1.2,1.1-1.7,1.7c-0.5,0.6-1.1,1.2-1.7,1.8c-0.3,0.3-0.3,0.8,0,1.1C381.5,44.1,381.9,44,382.3,43.7L382.3,43.7z"/>
		</g>
		<g>
			<path class="st9" d="M392.6,50.4c0.3-0.3,0.2-0.7,0-1c-0.4-0.5-1.5-0.4-2.1-0.4c-0.7,0-1.5,0.1-2.2,0.2c-0.4,0.1-0.7,0.6-0.6,1
				c0.1,0.5,0.6,0.6,1,0.6C391.4,50.4,391.8,51,392.6,50.4z"/>
		</g>
	</g>
	<path class="st7" d="M261.8,213.1c0,0,13.3-82.6,26.7-82.6c12.1,0-2.5,30.6-1,37.1c1.5,6.6,13.3-20.1,25.3-32.6
		c12.1-12.4,19.4-5.6,12.5,9.5c-6.8,14.6-31.2,31.6-25.8,33.1c5.5,1.5,36.2-18.8,40.8-11.4c5.7,9.2-41.7,25.4-36.9,27.2
		c4.8,1.8,27.3-6.8,27.3,0.5c0,7.3-31.2,9.1-30.4,12.3c1.3,5.1,30-5.6,31.6,1.5c1.6,7.3-35.7,5.5-34.7,11.1c0.6,3.3,36-0.9,37.3,3.6
		c2.9,10.2-77.1,15.7-77.1,15.7L261.8,213.1z"/>
	<path class="st10" d="M236.7,243.4c-8.9-4.1-56.3-30.5-63.6-27.5c-8.1,3.3-5.9,11.6-5.9,11.6s-22-15-30.2-6.3
		c-8.2,8.8-3.9,26,5.7,28.8c9.6,2.8,90.5,0.4,90.5,0.4l5-6.2C238.3,244.1,237.7,243.8,236.7,243.4z"/>
	<g>
		<g>
			<g>
				<path class="st1" d="M208.1,202.2l-1.2-0.1c1.7-27.7-9.6-53.8-19.3-70.7c-10.6-18.4-21.6-30.5-21.8-30.6l0.8-0.8
					c0.1,0.1,11.3,12.2,21.9,30.8C198.5,147.9,209.8,174.2,208.1,202.2z"/>
			</g>
			<g>
				<path class="st1" d="M160.9,99.2c2.6,4,6.4,6.5,10.3,7.2c0.7-4.2-0.3-8.9-2.9-12.9c-2.6-4-6.4-6.5-10.3-7.2
					C157.3,90.5,158.2,95.2,160.9,99.2z"/>
			</g>
			<g>
				<path class="st1" d="M175,104c-0.2,4.9,1.4,9.4,4.1,12.6c2.9-2.7,4.9-6.9,5.1-11.7c0.2-4.9-1.4-9.4-4.1-12.6
					C177.2,95,175.2,99.2,175,104z"/>
			</g>
			<g>
				<path class="st1" d="M186.3,112.7c-2.2,4.1-2.6,8.9-1.5,13c3.8-0.9,7.3-3.6,9.4-7.7c2.2-4.1,2.6-8.9,1.5-13
					C192,105.9,188.5,108.5,186.3,112.7z"/>
			</g>
			<g>
				<path class="st1" d="M194.1,134c-1,1.7-1.4,3.6-1,5.4c1.6-0.2,3.2-1.3,4.2-2.9c1-1.7,1.4-3.6,1-5.4
					C196.6,131.3,195.1,132.3,194.1,134z"/>
			</g>
			<g>
				<path class="st1" d="M197.4,141.6c-1,1.7-1.4,3.6-1,5.4c1.6-0.2,3.2-1.3,4.2-2.9c1-1.7,1.4-3.6,1-5.4
					C200,138.9,198.4,139.9,197.4,141.6z"/>
			</g>
			<g>
				<path class="st1" d="M172,116.8c-3.9,0.1-7.4,1.9-9.7,4.7c2.5,2.7,6.1,4.5,10.1,4.4c3.9-0.1,7.4-1.9,9.7-4.7
					C179.5,118.5,175.9,116.8,172,116.8z"/>
			</g>
			<g>
				<path class="st1" d="M178.4,127.6c-3.9,0.1-7.4,1.9-9.7,4.7c2.5,2.7,6.1,4.5,10.1,4.4c3.9-0.1,7.4-1.9,9.7-4.7
					C185.9,129.3,182.3,127.6,178.4,127.6z"/>
			</g>
			<g>
				<path class="st1" d="M189,142.3c-2.6,0-4.8,1.2-6.3,3c1.6,1.8,4,2.9,6.6,2.9c2.6,0,4.8-1.2,6.3-3
					C193.9,143.4,191.6,142.3,189,142.3z"/>
			</g>
		</g>
	</g>
	<g>
		<g>
			<linearGradient id="SVGID_4_" gradientUnits="userSpaceOnUse" x1="230.066" y1="238.6769" x2="180.2814" y2="176.8144">
				<stop  offset="0" style="stop-color:#329E44"/>
				<stop  offset="0.9898" style="stop-color:#90CA3A"/>
			</linearGradient>
			<path class="st24" d="M244.9,241.8c0,0-56.9-9.5-69.2-19.6c-12.4-10.1-0.1-14.6-0.1-14.6s-28.6-14.6-28.2-24.6
				c0.3-10,14.5-4.9,14.5-4.9s-24.1-27.4-18.4-32.7c10.6-9.7,38.4,18.8,38.4,18.8s-8.3-13.6,0.4-15.7c13.1-3.2,22.8,30.2,22.8,30.2
				s-2.5-13.2,6.6-11.5C227.9,170.4,244.9,241.8,244.9,241.8z"/>
		</g>
		<path class="st10" d="M211.7,167.3c-9-1.9-6.6,11.5-6.6,11.5s-9.7-33.5-22.8-30.2c-8.7,2.1-0.4,15.7-0.4,15.7
			s-27.8-28.5-38.4-18.8l101.3,96.4C242.9,232.6,222.9,169.6,211.7,167.3z"/>
	</g>
	<g>
		<path class="st7" d="M261.4,249c0,0,20.5-20.8,30.8-23c10.3-2.2,8.5,5.2,8.5,5.2s20.5-17.9,25.2-13.6c4.7,4.3-0.4,8.5-0.4,8.5
			s17-3,19.5,2.6c3.8,8.6-24.3,13.3-24.3,13.3s11.7,0.8,9,6.2C325.6,256.3,261.4,249,261.4,249z"/>
		<path class="st10" d="M345,228.7c-2.4-5.6-19.5-2.6-19.5-2.6s5.1-4.2,0.4-8.5c-4.7-4.3-24.6,11.1-24.6,11.1s4.7-8.9-5.6-6.8
			c-10.3,2.2-34.2,27-34.2,27L345,228.7z"/>
	</g>
	<g>
		<path class="st12" d="M144.7,251.3L144.7,251.3c0,0.8,0.7,1.4,1.5,1.4h234c0.9,0,1.5-0.6,1.5-1.4l0,0c0-0.8-0.7-1.4-1.5-1.4h-234
			C145.4,249.9,144.7,250.6,144.7,251.3z"/>
	</g>
	<g>
		<path class="st13" d="M323.9,154.3c-0.1-0.3-0.4-0.1-0.8,0.5c0.5-2.1,0.4-4.7,0-5c-0.5-0.3-0.8,3.4-1.8,5.4
			c-1.1,2-2.1,4.4-2.2,4.3c-0.2-0.2,1.3-2.8,2.3-4.9c1.1-2,0.3-11.4-0.7-4.7c-1,6.7-7.5,11.9-7.7,9.8c-0.2-2.1,0.9-5.2-0.4-4.7
			c-1.3,0.5-1.7,5.1-2.9,8.4c-0.1,0.4-0.1,1.6-0.1,2.9c0,0.7-0.4,1.4-1.1,1.6l-19.4,7l-2.8-17.4l-19.1,4.3c0,0,4.6,23.9,15.2,26.3
			c4.2,1,26.4-11.5,33.6-17.6C323.1,164.6,324.4,155.8,323.9,154.3z"/>
		<path class="st14" d="M277.3,141.6c4.5,2.1,19.4,24,19.4,24l-13.9,13l-8.9-13C273.9,165.7,271.9,139,277.3,141.6z"/>
		<path class="st15" d="M277.9,113.2c-0.9-5.7-1.9-11.5-7.5-15.9c-4.5-3.5-10-4.3-15.4-2.7c-15.2,4.6-5.8,13.3-25.9,23
			c-20.8,10-16.3,29.3-10.2,35.3c29.3,28.5,55.1-4.8,56.9-13.7C277.2,132.6,278.5,116.8,277.9,113.2z"/>
		<path class="st14" d="M242.9,139.4c0,0-2.5-0.1-9.1,2.9c-6.7,3-21,22.9-21,22.9l11.6,9.1l19.9-13
			C244.4,161.2,246.9,139.4,242.9,139.4z"/>
		<path class="st9" d="M278.5,204.9c-6.9,3.6-33.3,3.1-33.3,3.1c-0.7-6.9-2.9-24.3-4.4-39.1c-1.9-10.3,0-14.1,2.1-29.5
			c0-0.1,10.6-0.8,10.6-0.8l11.1,0.3c0,0,9.6,0.8,12.7,2.8c0.2,0.1,1.4,17.5,0.5,29.8c-0.6,8.4-1.6,15.1-1.5,20.7
			C276.4,200.1,278.5,204.9,278.5,204.9z"/>
		<path class="st16" d="M244.9,204.7l-24.2,20.8c0,0,47.6,24.9,64.1,20.2l4.5-22.5l-10.9-18.2L244.9,204.7z"/>
		<path class="st4" d="M241.8,232.1c0,0-18.2-2.8-29.2,6c-10.9,8.8-18,26.4-12.4,29.2c5.6,2.8,21.9-0.4,34.7-5.1
			C247.8,257.4,252.3,234.6,241.8,232.1z"/>
		<path class="st2" d="M201,250.3c-1.5,3.3-0.2,6.4,2.3,8.1c3.1,2.1,46.2,8.4,60.9,10.4c11.5,1.6,28.8,5.2,33.5,6.1
			c4.7,0.9,21.3,1.2,21.7,0.6c0.9-1.4-1.1-4.1-4.5-4.9c-3.4-0.9-5.8-0.2-12.4-4.7c-6.6-4.5-9.2-0.9-10.9,0.2
			c-1.7,1.1-77-24.2-77-24.2S204.4,243,201,250.3z"/>
		<path class="st16" d="M242.9,208.7c0,0-33.3,15.6-40.3,20.2c-13.2,8.5-5.7,33-3.8,36.8c0,0,3.8-21.8,15.8-23.7l2.1-10.3
			L242.9,208.7z"/>
		<path class="st5" d="M276.3,212.8c0,0-47-12.7-64.6,3.6c0,0-8.2,7.6-5.2,16.6c1.7,5.1,8,8.9,8,8.9s16.3-13.9,23-11.6
			c6.6,2.4,32.5,20.6,39.9,19.7C289,248.8,302.5,222.2,276.3,212.8z"/>
		<path class="st13" d="M246.8,233.7c-5-2.5-16.9-8.1-24.8-5.7c-7.9,2.4-11.1,8.8-7.5,13.9c2.1,3,71.4,23.8,74.6,25.7
			c3.2,1.9,16.5,4.7,20.6,4.7c4.1,0,11.6,1.5,12.2,0.4c0.6-1.1-3-4.7-7.5-5.6c-4.5-0.9-10.7-6.9-13.3-9c-2.6-2.1-3.4-4.1-8.2-1.1
			C290.8,258.6,258.4,239.5,246.8,233.7z"/>
		<path class="st9" d="M280.7,162.9c-0.2,6.6-8.7,12.9-20.7,12.9c-12,0-21.7-5.3-21.7-11.9c0-6.6,8-15.8,20-15.8
			C270.3,148.2,281,154.6,280.7,162.9z"/>
		<path class="st13" d="M256.2,122.3c0,0-0.2,1.7-0.6,4c-0.7,4.2-1,11.1-1.8,13.2c-0.7,1.8,3.3,19.7,5.8,15c4.8-8.8,5.6-11.7,5.8-14
			c0.2-2.2,0.8-9.9,1.2-15c0.2-2.8,0.4-4.8,0.4-4.8L256.2,122.3z"/>
		<path class="st17" d="M266.6,125.3c0.2-2.7,0.4-4.7,0.4-4.7l-10.7,1.6c0,0-0.3,1.6-0.6,3.8C260,128.6,263.9,127.8,266.6,125.3z"/>
		<path class="st13" d="M259.5,98c0,0-4.2,1-6.9,4.9c-2.6,4-4.4,15.7,4.2,21.2c8.6,5.5,15.3-2.3,15.4-9.8
			C272.4,106.7,270.8,96.6,259.5,98z"/>
		
			<ellipse transform="matrix(0.3734 -0.9277 0.9277 0.3734 67.5536 322.3089)" class="st13" cx="272.4" cy="111.1" rx="3.6" ry="2.1"/>
		<path class="st15" d="M260.8,97.7c0,0-5.4,12.1-10.1,13.2c-4.7,1.1-4.7,7.2-4.7,7.2s0.1-14.1,4.6-17.3
			C255,97.6,260.8,97.7,260.8,97.7z"/>
		
			<ellipse transform="matrix(0.9531 -0.3026 0.3026 0.9531 -22.8252 81.0347)" class="st13" cx="250.1" cy="114.2" rx="2.5" ry="3.7"/>
		<g>
			
				<rect x="331.9" y="140.2" transform="matrix(0.4869 0.8735 -0.8735 0.4869 297.178 -224.2927)" class="st9" width="15.1" height="1.2"/>
			
				<rect x="331.7" y="140.6" transform="matrix(0.4869 0.8735 -0.8735 0.4869 297.1722 -224.0392)" class="st9" width="15.1" height="0.7"/>
			
				<rect x="327" y="142.8" transform="matrix(0.4868 0.8735 -0.8735 0.4868 296.8805 -218.5244)" class="st9" width="14.8" height="1.2"/>
			
				<rect x="326.9" y="143" transform="matrix(0.4868 0.8735 -0.8735 0.4868 296.8769 -218.3689)" class="st9" width="14.8" height="0.9"/>
			
				<rect x="321.8" y="145.7" transform="matrix(0.4869 0.8735 -0.8735 0.4869 296.7409 -212.4892)" class="st9" width="14.8" height="1.2"/>
			
				<rect x="321.6" y="146.1" transform="matrix(0.4869 0.8735 -0.8735 0.4869 296.7357 -212.253)" class="st9" width="14.8" height="0.7"/>
			<path class="st6" d="M242.6,231c4.7-4.3,7.6-13.1,9.4-16.7c0,0,2.3-4.7,9.2-4.8c6.9-0.1,14.6-4.2,18.1-12.1
				c3.5-7.9-5-19.8-5-19.8l-0.4-0.7c0,0-5.6-13.5-14.2-14.7c-8.6-1.2-16.1,3.2-19.8,9c-3.7,5.8-8.9,5.3-8.9,5.3
				c-4-0.4-13.1-2.6-19.2-0.8c-5.7,1.6-10.2,5.8-13,11.2c-3,5.8-3.5,13.7,0.8,23.6c0.2,0.5,2.5,5.2,3.3,6.5c0.7,1.3,3.4,5.7,3.8,6.2
				c6.2,8.9,13.1,12.6,19.6,13.1C232.2,236.6,238.2,235,242.6,231z"/>
			
				<ellipse transform="matrix(0.8735 -0.4869 0.4869 0.8735 -60.5931 146.7269)" class="st3" cx="252" cy="189.9" rx="11.6" ry="12.5"/>
			
				<ellipse transform="matrix(0.8735 -0.4868 0.4868 0.8735 -60.5924 146.7221)" class="st4" cx="252" cy="189.9" rx="7.6" ry="8.1"/>
			<path class="st6" d="M344,130l-20.1,12.5c-0.2,0.9-2.5,3.2-2.5,3.2l4.3,7.7c0,0,3.1-0.7,4-0.4l21.2-10.6l0-0.1
				C351.2,137.1,348.5,132.3,344,130L344,130z M325.7,145.2L325.7,145.2c-0.6-1-0.3-2.3,0.6-2.9l11.7-7.2c0.9-0.6,2.2-0.2,2.8,0.8v0
				c0.6,1,0.3,2.3-0.6,2.9l-11.7,7.2C327.5,146.6,326.3,146.2,325.7,145.2z M343.2,144.6l-12.3,6.2c-1,0.5-2.2,0-2.7-1l0,0
				c-0.5-1-0.2-2.3,0.8-2.8l12.3-6.2c1-0.5,2.2,0,2.7,1l0,0C344.6,142.9,344.2,144.1,343.2,144.6z"/>
			<path class="st5" d="M258.6,186.3c1.1,2,1.4,4.3,0.8,6.3l66.3-39.3l-4.3-7.7L252.7,182C255.1,182.4,257.3,183.9,258.6,186.3z"/>
			
				<rect x="208" y="203" transform="matrix(0.4868 0.8735 -0.8735 0.4868 294.6403 -90.646)" class="st3" width="32.9" height="4.9"/>
			<path class="st5" d="M323.7,140.7L323.7,140.7c-0.2-0.4-0.1-0.8,0.2-0.9l2.5-1.4c0.3-0.2,0.7-0.1,0.9,0.3l0,0
				c0.2,0.3,0.1,0.7-0.3,0.9l-2.5,1.4C324.3,141.1,323.9,141,323.7,140.7z"/>
			<path class="st5" d="M328.9,137.8L328.9,137.8c-0.2-0.4-0.1-0.8,0.2-0.9l2.5-1.4c0.3-0.2,0.7-0.1,0.9,0.3l0,0
				c0.2,0.3,0.1,0.7-0.3,0.9l-2.5,1.4C329.5,138.2,329.1,138.1,328.9,137.8z"/>
			<path class="st5" d="M333.8,134.8L333.8,134.8c-0.2-0.4-0.1-0.8,0.2-0.9l2.5-1.4c0.3-0.2,0.7-0.1,0.9,0.3l0,0
				c0.2,0.3,0.1,0.7-0.3,0.9l-2.5,1.4C334.4,135.2,334,135.1,333.8,134.8z"/>
			<path class="st5" d="M341.4,148.4L341.4,148.4c-0.2-0.4-0.1-0.8,0.2-0.9l2.5-1.4c0.3-0.2,0.7-0.1,0.9,0.3l0,0
				c0.2,0.3,0.1,0.7-0.3,0.9l-2.5,1.4C341.9,148.9,341.5,148.7,341.4,148.4z"/>
			<path class="st5" d="M336.3,151.1L336.3,151.1c-0.2-0.4-0.1-0.8,0.2-0.9l2.5-1.4c0.3-0.2,0.7-0.1,0.9,0.3l0,0
				c0.2,0.3,0.1,0.7-0.3,0.9l-2.5,1.4C336.9,151.5,336.5,151.4,336.3,151.1z"/>
			<path class="st5" d="M331.2,153.9L331.2,153.9c-0.2-0.4-0.1-0.8,0.2-0.9l2.5-1.4c0.3-0.2,0.7-0.1,0.9,0.3l0,0
				c0.2,0.3,0.1,0.7-0.3,0.9l-2.5,1.4C331.8,154.3,331.4,154.2,331.2,153.9z"/>
			<polygon class="st18" points="325.7,153.3 321.4,145.6 320.5,146.1 324.8,153.8 			"/>
			<polygon class="st18" points="319.8,156.8 315.4,148.8 315,149 319.4,157 			"/>
			<polygon class="st18" points="314.4,160 309.8,151.8 309.5,152 314,160.2 			"/>
			<polygon class="st18" points="309.8,162.7 305.1,154.3 304.7,154.5 309.5,162.9 			"/>
			<polygon class="st18" points="305.2,165.4 300.4,156.8 300,157 304.9,165.7 			"/>
			<polygon class="st18" points="301,168 296,159.1 295.7,159.3 300.6,168.2 			"/>
			<polygon class="st18" points="296.7,170.5 291.7,161.4 291.3,161.6 296.4,170.7 			"/>
			<polygon class="st18" points="293.2,172.6 288,163.3 287.6,163.5 292.8,172.8 			"/>
			<polygon class="st18" points="289.6,174.7 284.3,165.3 284,165.5 289.2,174.9 			"/>
			<polygon class="st18" points="286.1,176.8 280.8,167.2 280.4,167.4 285.8,177 			"/>
			<polygon class="st18" points="282.9,178.7 277.4,168.9 277.1,169.1 282.5,178.9 			"/>
			<polygon class="st18" points="279.8,180.5 274.3,170.6 273.9,170.8 279.5,180.7 			"/>
			<polygon class="st18" points="274.3,183.8 268.6,173.6 268.3,173.8 273.9,184 			"/>
			<polygon class="st18" points="271.6,185.4 265.8,175.1 265.5,175.3 271.2,185.6 			"/>
			<polygon class="st18" points="269.4,186.7 263.6,176.3 263.2,176.5 269,186.9 			"/>
			<polygon class="st18" points="267.1,188.1 261.2,177.6 260.8,177.8 266.7,188.3 			"/>
			
				<rect x="337.5" y="136.6" transform="matrix(0.4871 0.8734 -0.8734 0.4871 293.4348 -224.4604)" class="st19" width="0.7" height="1.9"/>
			
				<rect x="340.6" y="142.3" transform="matrix(0.4875 0.8731 -0.8731 0.4875 299.6725 -224.1891)" class="st19" width="0.4" height="1.7"/>
			
				<rect x="332.6" y="139.4" transform="matrix(0.4866 0.8736 -0.8736 0.4866 293.5638 -218.6753)" class="st19" width="0.5" height="2"/>
			
				<rect x="335.4" y="145" transform="matrix(0.487 0.8734 -0.8734 0.487 299.648 -218.4104)" class="st19" width="0.7" height="1.8"/>
			
				<rect x="327.3" y="142.2" transform="matrix(0.4871 0.8734 -0.8734 0.4871 292.9979 -212.7078)" class="st19" width="0.6" height="1.8"/>
			
				<rect x="330.8" y="148.6" transform="matrix(0.4866 0.8736 -0.8736 0.4866 300.4129 -212.4256)" class="st19" width="0.3" height="1.6"/>
			<g>
				<polygon class="st18" points="277.2,182.1 271.6,172.1 271.2,172.2 276.8,182.3 				"/>
			</g>
		</g>
		<path class="st13" d="M248.5,203c-0.1,0.2,2.3,0.7,4.5,1.3c2.2,0.6,5.7,0.6,5.6,1.2c-0.1,0.4-2.3,0.6-4.3,0.5
			c0.5,0.2,0.7,0.4,0.5,0.6c-1.1,0.7-7.4,0.3-13.2-2.2c-5.8-2.5-39.5-21-36.1-26.2c1.3-1.9,6.7-7.5,9.8-11.3l8.8,6.9l-4.6,5
			c7,7.5,17.6,15.6,18.2,16c1.5,1.1,4.3,0.1,5,0.1c3.5-0.1,8-0.1,8.8,1c0.8,1.2-2.5,0.8-4.5,1.4c-1.9,0.6,4.5,5.7,11.2,5.3
			c6.7-0.4-0.9,2.6-3.1,2C252.8,204,248.6,202.8,248.5,203z"/>
		<path class="st13" d="M323.9,154.3c-0.1-0.3-0.4-0.1-0.8,0.5c0.5-2.1,0.4-4.7,0-5c-0.5-0.3-0.8,3.4-1.8,5.4
			c-1.1,2-2.1,4.4-2.2,4.3c-0.2-0.2,1.3-2.8,2.3-4.9c1.1-2,0.3-11.4-0.7-4.7c-1,6.7-7.5,11.9-7.7,9.8c-0.2-2.1,0.9-5.2-0.4-4.7
			c-1.3,0.5-1.7,5.1-2.9,8.4c-0.1,0.4-0.1,1.6-0.1,2.9c0,0.7-0.4,1.4-1.1,1.6l4.1,5.2c1.3-0.9,2.5-1.8,3.4-2.6
			C323.1,164.6,324.4,155.8,323.9,154.3z"/>
	</g>
	<path class="st7" d="M159.5,60c0,0-0.3-2.1,1.5-3.8c1.6-1.4,3.9-1.1,5.4,0.5c1.6,1.8,2.1,5.4-0.2,10.8c-5.6,1.6-9.1,0.8-10.7-1
		c-1.4-1.6-1.5-3.9,0.1-5.4C157.4,59.5,159.5,60,159.5,60z"/>
	<path class="st10" d="M166.4,56.8c-1.4-1.6-3.8-2-5.4-0.5c-1.8,1.6-1.5,3.8-1.5,3.8s6.7,7.5,6.7,7.5
		C168.5,62.2,168.1,58.6,166.4,56.8z"/>
	<path class="st10" d="M198.2,83.7c0,0,0-2.2,2.1-3.5c1.8-1.2,4.1-0.5,5.2,1.3c1.4,2.1,1.3,5.6-1.7,10.6c-5.8,0.8-9.1-0.5-10.5-2.6
		c-1.2-1.8-0.9-4.1,0.9-5.3C196.2,82.9,198.2,83.7,198.2,83.7z"/>
	<path class="st7" d="M205.5,81.5c-1.2-1.8-3.4-2.5-5.2-1.3c-2,1.3-2.1,3.5-2.1,3.5s5.6,8.4,5.6,8.4
		C206.8,87.1,206.9,83.5,205.5,81.5z"/>
	<g>
		<path class="st4" d="M146.4,160.4c0,0,5.3-0.6,8.1,4.7c2.8,5.3,2.8,5.3,2.8,5.3s8.6,5.4,3.4,11.8c0,0,0.8,7.1-4.9,10.2
			c-2.9,1.6-7.7,1.3-7.7,1.3s-9.8,4-14.9,0.3c0,0-7-0.7-9.1-5.1c-1-2.1,0.6-2.4-0.6-4c-2-2.7-2-5.7,0.6-7.9c2.3-1.9,3.4-4.2,4.2-7.1
			C130.7,161.9,136.9,158.1,146.4,160.4z"/>
		<path class="st13" d="M161,164.8c0,0-2-0.1-4.6-2.2c-1.7-1.4-5.5-2.5-4.5-3.3c1-0.9,4.1,1.4,4.1,0.4c0-1-6.1-6.1-5.2-6.9
			c0.9-0.8,6.4,4.4,6.4,3.5c0-0.9-5.5-5.1-4.2-6.2c1.3-1.1,6,5.5,6.7,4.9c0.7-0.6-2.4-4.7-1.3-5.6c1.1-0.9,3.9,5.8,3.9,5.2
			c0-0.5-0.3-4.3,0.5-4.4c0.9,0,1.9,8,3.4,9.3c1.6,1.2,16.3,17.8,15.6,21.5c-0.7,3.7-16.1,17.1-20.2,17.6c-4,0.4-7.6-2.2-7.6-4.8
			c0-2.5,14.9-14.5,14.9-15.3C168.9,177.6,161,164.8,161,164.8z"/>
		<path class="st14" d="M145.1,200.7c-0.3-1.7,0-4.5,3.2-7.4c3.4-3.2,14.2-11.7,14.2-11.7l10,11.6c0,0-10.2,10.8-15.2,13.1
			C148.9,210.3,145.7,204.1,145.1,200.7z"/>
		<g>
			<path class="st4" d="M195.4,239.5c-7-6.8-32.7,0.1-32.7,0.1l-30.9,1.1l-4.3,10.9l13.3,16.7c0,0,20.6-5.3,22.5-10.6l30.5-8.3
				C193.8,249.5,198.7,242.8,195.4,239.5z"/>
			<path class="st20" d="M152.4,256.9l-2.2,5.7l-16.7,5.1c0,0-9-9.3-6.1-16c3-6.7,13.6-6.9,18.6-4.9
				C151,248.7,152.4,256.9,152.4,256.9z"/>
			<path class="st9" d="M142.3,192.9c4.2-1.1,8.9-0.7,12.6,1.7c4.3,2.8,5.4,8.4,6.5,13.2c1.4,6.4,2.2,12.9,2.5,19.4
				c0.1,1.5,0.8,16.9-0.8,17.2c0,0-25.5,4-32.5-2.8c0,0,3.3-6,2.9-13.4c-0.5-8.3-3.9-22-3.9-25.2c0-5.9,7.7-8.5,12.3-9.9
				C142.1,193,142.2,192.9,142.3,192.9z"/>
			<path class="st16" d="M150.3,229.2c0,0-21,16.2-22.8,22.1c-1.8,6,1.3,13.7,6.1,16.4c4.8,2.7,14.1-1,17-3.9
				c2.9-2.9,5.9-21.2,5.9-21.2L150.3,229.2z"/>
			<path class="st2" d="M183.6,241.8c-6.4,4.1-16.4,14.9-24,17.6c-7.6,2.7-12.2,5.7-12.2,5.7s-4.1,3.4-2.2,5.3
				c1.9,1.9,7.3,4.3,18.6-4.5c1.4-1.1,6.3-3.1,13-6c6.7-2.9,16.6-5.8,18.9-7.2c5.1-3.1,2.6-11.3-0.3-13.2
				C192.4,237.7,187.9,239,183.6,241.8z"/>
			<path class="st21" d="M193.3,277.1c0.4-3.3-10.7-8.3-14.5-12.4c-5.7-8.2-12.9-41-25.4-37h0c-1.9,0.4-3,1-4.1,2.2
				c-2.6,2.9-3,4.6-0.5,10c2.7,5.8,17.4,21.6,22,26c5.8,5.6,9.4,11.8,11.5,13.8C185.2,282.8,193.1,278.2,193.3,277.1z"/>
		</g>
		<path class="st13" d="M149.2,185.7c0,0-1.5,8.7,0.9,11.2c2.6,2.6-9.8,1.5-10.6-2.7c-0.4-2.3,1.7-12.1,1.7-12.1L149.2,185.7z"/>
		<path class="st2" d="M141.2,182.1l7.9,3.6c0,0-0.4,2.1-0.5,4.6c-2,0.2-4.2-0.3-6.6-1.8c-0.7-0.4-1.3-0.9-1.9-1.4
			C140.8,184.4,141.2,182.1,141.2,182.1z"/>
		<path class="st13" d="M145,163.7c0,0-3.8,0.9-6.2,4.5c-2.4,3.6-4,14.3,3.8,19.3c7.8,5,13.9-2.1,14-8.9
			C156.7,171.6,154,162.8,145,163.7z"/>
		
			<ellipse transform="matrix(0.9531 -0.3026 0.3026 0.9531 -47.5932 49.6583)" class="st13" cx="136.5" cy="178.4" rx="2.3" ry="3.4"/>
		<path class="st4" d="M147.5,163.6c0,0-0.5,8.3-10.7,11.8c-10.2,3.5-7.7,6.8-7.7,6.8s-2.9-5.4,2.1-10.3c4.9-4.9,6.5-6.4,8.4-8.3
			C141.4,161.7,147.5,163.6,147.5,163.6z"/>
		<path class="st13" d="M150.7,236.1c0,0,1.6-1.1,5-1.1c2.2,0,5.9-1.4,5.6-0.1c-0.3,1.3-4.1,1.4-3.5,2.2c0.6,0.8,8.6,1.1,8.3,2.2
			s-7.8,0.5-7.2,1.2c0.6,0.7,7.5,0.7,7.1,2.3c-0.4,1.7-8.1-0.7-8.3,0.3c-0.2,0.9,4.7,2.3,4.4,3.6c-0.3,1.4-6.6-2.2-6.3-1.7
			c0.3,0.4,2.9,3.3,2.3,3.8c-0.7,0.6-6.4-5.2-8.4-5.2c-2,0-23.8-4-25.5-7.4c-1.7-3.4,2.3-23.4,5.2-26.2c2.9-2.8,7.4-2.9,9-0.9
			c1.6,2-2.9,20.6-2.4,21.2C136.5,230.8,150.7,236.1,150.7,236.1z"/>
		<path class="st14" d="M142.2,197c1.3,1.2,2.7,3.5,2,7.8c-0.8,4.6-4.1,18-4.1,18l-15-3c0,0,1.5-14.8,4-19.7
			C133.3,191.8,139.6,194.7,142.2,197z"/>
	</g>
	<g>
		<path class="st13" d="M104.3,206.3c0,0-1-1.9-0.5-5.7c0.4-2.4-0.7-6.6,0.7-6.1c1.4,0.5,1,4.7,1.9,4.1c0.9-0.6,2.4-9.3,3.7-8.8
			c1.3,0.5-0.6,8.6,0.3,8c0.8-0.5,1.8-8.1,3.6-7.5c1.8,0.6-1.9,8.8-0.9,9.2c1,0.3,3.2-4.9,4.6-4.4c1.4,0.5-3.3,7-2.8,6.7
			c0.5-0.3,4-2.7,4.4-2c0.5,0.8-6.6,6.3-6.9,8.5c-0.3,2.2-7.8,25.5-11.7,26.9c-3.9,1.4-25.4-5.8-28-9.4c-2.7-3.6-2.1-8.5,0.3-9.9
			c2.4-1.5,22.1,6,22.9,5.6S104.3,206.3,104.3,206.3z"/>
		<path class="st3" d="M91.6,220c-2.2-2.2-19.9-9.4-24.9-9c-2.6,0.2-5,1.5-6.3,3.8c-1.7,2.9-1.2,5.6,0.3,8.1
			c3.4,5.4,27.3,13.1,28.2,11.6C89.8,233.1,91.7,220.1,91.6,220z"/>
		<path class="st2" d="M57.9,291.4c0,0,33.8,3.5,43.2,3.2c9.5-0.3,11.7-8.3,10.5-12.4c-1.7-6-7.2-9.2-7.2-9.2l-19.7,3.2
			c0,0,2.2,5.1,4,11c0.2,0.5-12.3-7-26.3-3.7c-3.1,0.7-6.2-3.1-7.9-2.9c-1.7,0.2-21.2,8.5-21,10C33.7,292.3,57.9,291.4,57.9,291.4z"
			/>
		<path class="st10" d="M49.7,266.8c0,0-0.4,6.3,0.8,7.8c8.8,11.9,38.2,12.7,38.2,12.7s9.6-9.3,13.8-11.8c2.7-1.6,5,0.4,5.4-0.9
			c2.6-9.2-36.4-11.8-36.4-11.8L49.7,266.8z"/>
		<path class="st9" d="M118.9,295.4H91L89.3,253c-0.1-2.1,1.6-3.9,3.7-3.9h23.8c2.1,0,3.8,1.8,3.7,3.9L118.9,295.4z"/>
		<path class="st6" d="M88,256.8h33.7l0.2-3.8c0.1-2.1-1.8-3.9-4.1-3.9H91.9c-2.3,0-4.2,1.8-4.1,3.9L88,256.8z"/>
		<path class="st22" d="M99,283.8c0,0-11.6,15.7-20.4,10.6c-8.8-5.1-3.4-12-3.4-12l14.5-2L99,283.8z"/>
		<path class="st13" d="M47.6,295.4c0,0,33.2,6.9,42.7,7.6c9.4,0.7,12.5-7.1,11.7-11.2c-1.1-6.1-6.3-9.9-6.3-9.9L75.8,283
			c0,0,1.6,5.2,2.9,11.4c0.1,0.5-11.5-8.3-25.8-6.3c-3.1,0.4-5.9-3.7-7.5-3.7c-1.7,0-17.7,11.5-17.7,13
			C27.6,298.9,47.6,295.4,47.6,295.4z"/>
		<path class="st7" d="M41.9,270c0,0-1,6.2,0,7.9c7.6,12.7,36.7,16.5,36.7,16.5s10.5-8.3,14.9-10.3c2.8-1.3,5.5-0.3,5.5-0.3
			l-31.5-24.6L41.9,270z"/>
		<path class="st6" d="M66.7,210.7c0,0-8.2-1.8-15.4,6c-6.9,7.5-14.1,56.9-14.1,56.9s19.5,5.7,27,0c7.5-5.7,8.6-8.1,8.6-8.1
			s4.2-14,4.8-18.6c0.6-4.6,3.8-18.5,0.8-29.4C77.4,213.7,66.7,210.7,66.7,210.7z"/>
		<path class="st13" d="M70.5,195.5l-0.5,5.9l-4.9,9.1c0,0,9.7,12.6,12.7,9.6c0.7-0.7,2.4-14,2.4-14L70.5,195.5z"/>
		<path class="st2" d="M69.9,201.4l-1,2c3,2.9,6.9,5.5,10.6,7c0.3-2.4,0.6-4.4,0.6-4.4l-9.6-10.6L69.9,201.4z"/>
		<path class="st13" d="M80.3,175.6c0,0,5.1,5.5,6,7c3.7,6,3.6,21.4,0.8,23.2c-4.6,3.1-15.6-0.2-22.2-5c-6.7-4.8-8.8-12.6-2.7-19.4
			C68.3,174.6,80.3,175.6,80.3,175.6z"/>
		<path class="st4" d="M63.1,174.9c4.6-1.8,9.5-3.1,14.4-3.9c1.2-0.2,2.4-0.3,3.6-0.1c2.2,0.4,3.8,2.6,3.9,4.8l0.1,5.2
			c0,0-3.9-2-6-0.7c-2.1,1.3-0.1,6.6-1.6,9c-1.5,2.4-4.1,2.4-4.7,4.7c-0.6,2.3,1.6,9.3-2.4,11.7c-3.9,2.3-7.6-0.4-9.9-3.5
			c-2.8-3.7-4.3-8.3-4.7-12.9C54.8,179.6,57,177.3,63.1,174.9z"/>
		<path class="st13" d="M75,192.3c0,0-1.7-5.1-4.4-3.1c-2.7,2,1.9,9,4.2,7.9C77.2,196,75,192.3,75,192.3z"/>
		<path class="st13" d="M90.5,242.3c0,0,0.9-2,4.2-3.8c2.1-1.2,4.8-4.6,5.3-3.2c0.5,1.4-3.1,3.6-2.1,4c1,0.4,8.8-3.7,9.2-2.5
			c0.4,1.3-7.2,4.7-6.2,5.1c0.9,0.4,7.5-3.5,8.1-1.7c0.6,1.8-8.1,3.9-7.8,4.8c0.3,1,5.8-0.5,6.3,1c0.5,1.5-7.5,1.6-7,1.8
			c0.5,0.2,4.6,1.5,4.3,2.3c-0.3,0.9-9-1.5-10.9-0.4c-1.9,1.1-25,9.3-28.5,7c-3.5-2.3-10.8-23.6-9.6-28c1.2-4.3,5.5-6.8,8.1-5.8
			c2.6,1,8.7,21.2,9.5,21.6C74.1,245.1,90.5,242.3,90.5,242.3z"/>
		<path class="st3" d="M50.8,217.7c-2.2,6,4.2,31.2,5.7,30.4c0,0,16.3-8.6,16.3-8.6c-0.6-3-5.6-20.6-9-24.3c-1.7-1.9-4.2-3-6.8-2.7
			C53.8,212.9,51.9,215,50.8,217.7z"/>
		<path class="st2" d="M107.4,200.4c0.5,0.4,0.9,0.8,1.3,1.4c0,0.1,1.2,1.7,0.6,3.9C109.2,204.3,109.1,202.7,107.4,200.4z"/>
	</g>
	<path class="st2" d="M355.1,259.8c0,0-10.3,8.2-12.3,11.3c-4.1,6.5,1.9,10.2,3.7,10.2c1.8,0,16.5-11.2,16.5-11.2L355.1,259.8z"/>
	<path class="st13" d="M368.8,262.6c0,0-24.4,10.7-24.4,18.9c0,8.1,9,8.1,10.9,7.8c22.8-3.6,32.3-10.9,35.4-10.5
		c2.2,0.2,0,4.3,0,4.3s-2.5,0.9-1.4,2c1.1,1.1,5.9,1.1,7-0.2c1-1.1,0.1-2.5,0.3-6c0.1-2,1.1-4.7-0.2-6.8c-0.7-1.2-28.8,4.4-29.9,3.3
		C365.4,274.1,368.8,262.6,368.8,262.6z"/>
	<path class="st6" d="M390.1,203.9c0,0-12.6,14.2-14.9,19.2c-2.3,5.1,1.2,25.3-1.2,26.8c-2.4,1.5-22.6,9.9-22.6,9.9
		s9.3,17.1,16.5,19.5c7.2,2.4,20.1-4.2,27.7-4.2c9.4,0,10.1-17,5.7-24.9c-3.4-6.1-3.9-13.7-2.2-19.2c1.6-5.5,6-18.2,3-22.7
		C399,203.8,391.5,203.9,390.1,203.9z"/>
	<path class="st13" d="M388.6,196.8c0,0,1.5,8.7-0.9,11.2c-2.6,2.6,9.8,1.5,10.6-2.7c0.4-2.3-1.7-12.1-1.7-12.1L388.6,196.8z"/>
	<path class="st2" d="M396.5,193.2l-7.9,3.6c0,0,0.4,2.1,0.5,4.6c2,0.2,4.2-0.3,6.6-1.8c0.7-0.4,1.3-0.9,1.9-1.4
		C397,195.5,396.5,193.2,396.5,193.2z"/>
	<path class="st13" d="M392.8,174.8c0,0,3.8,0.9,6.2,4.5c2.4,3.6,4,14.3-3.8,19.3c-7.8,5-13.9-2.1-14-8.9
		C381.1,182.7,382.5,173.5,392.8,174.8z"/>
	
		<ellipse transform="matrix(0.3026 -0.9531 0.9531 0.3026 99.246 514.6342)" class="st13" cx="401.3" cy="189.5" rx="3.4" ry="2.3"/>
	<path class="st13" d="M361.5,224.8c0,0-0.1-1.8-2.2-4.3c-1.3-1.6-2.4-5.1-3.2-4.1c-0.8,1,1.4,3.8,0.4,3.8c-0.9,0-5.8-5.6-6.5-4.7
		c-0.7,0.9,4.2,5.9,3.3,5.9c-0.8,0-4.8-5.1-5.9-3.8c-1,1.3,5.2,5.5,4.7,6.2c-0.5,0.7-4.4-2.1-5.2-1.1c-0.8,1,5.4,3.6,4.9,3.6
		c-0.5,0-4-0.2-4,0.6c0,0.8,7.5,1.6,8.7,3c1.2,1.4,16.8,14.9,20.3,14.2c3.4-0.7,15.7-15.3,16-19.1c0.3-3.8-2.2-7-4.6-7
		s-13.2,14.1-14,14.1C373.6,231.9,361.5,224.8,361.5,224.8z"/>
	<path class="st3" d="M394.7,209.4c-1.6-0.3-4.1,0.1-6.9,3.1c-2.9,3.2-10.6,13.4-10.6,13.4l11,9.1c0,0,9.8-9.7,12-14.4
		C403.7,212.8,397.9,209.9,394.7,209.4z"/>
	<path class="st10" d="M102.7,95.8c0.9,1.7,2.7,2.4,4.2,1.7c1.5-0.7,1.9-2.7,1-4.5c-0.9-1.7-2.8-2.5-4.2-1.8
		c-0.4,0.2-0.7,0.5-0.9,0.8l-2.3-5l8.5-1.5l3.9,8.5h0c0,0,0,0,0,0c0.9,1.7,2.8,2.5,4.2,1.8c1.5-0.7,1.9-2.7,1-4.5
		c-0.9-1.7-2.8-2.5-4.2-1.8c-0.4,0.2-0.7,0.5-0.9,0.8l-4.2-9.1c-0.1-0.3-0.4-0.5-0.7-0.4l-10.5,2.1c-0.4,0.1-0.5,0.5-0.3,0.9
		L102.7,95.8L102.7,95.8z"/>
	<g>
		<g>
			<g>
				<g>
					<path class="st5" d="M294.2,70.7c-0.1-0.1-7.3-5.3-19.4-7.1c-17.3-2.5-43.7,9.3-55.5-6.9c-2.1-2.9-2.7-5.4-2.7-5.5
						c-0.1-0.4,0.5-0.5,0.6-0.1l0,0c0,0,0.6,2.5,2.6,5.3c11.6,15.8,37.7,4.1,55.1,6.6c8.7,1.2,16.3,4.7,19.7,7.2
						C294.8,70.5,294.5,70.9,294.2,70.7z"/>
				</g>
				<g>
					<path class="st5" d="M293.3,67.7c-0.3-0.2-6.8-4.9-17.6-6.4c-11.8-1.7-28.5,2.6-39.5,0.1c-6.7-1.5-10.5-4.9-12.5-7.4
						c-2.2-2.8-2.8-5.1-2.8-5.2c-0.1-0.4,0.5-0.5,0.6-0.1c0,0,0.6,2.4,2.7,5c2,2.5,5.6,5.7,12.2,7.2c11,2.5,27.6-1.8,39.5-0.1
						c10.9,1.6,17.6,6.4,17.9,6.6c0.1,0.1,0.2,0.3,0.1,0.4C293.6,67.8,293.5,67.8,293.3,67.7z"/>
				</g>
				<g>
					<path class="st5" d="M292.5,64.7c-2.9-2.1-8.6-4.8-15.8-5.8c-11.4-1.7-25.8,1.3-35.6-0.7c-7-1.4-11-4.6-13-7
						c-2.3-2.6-2.9-4.9-2.9-5c-0.1-0.4,0.5-0.5,0.6-0.1l0,0c0,0,0.6,2.3,2.8,4.8c2,2.3,5.9,5.4,12.7,6.8c5,1,11.1,0.7,17.5,0.4
						c6.1-0.3,12.4-0.6,18,0.3c7.3,1.1,13.1,3.8,16.1,5.9C293.2,64.5,292.8,64.9,292.5,64.7z"/>
				</g>
				<g>
					<path class="st5" d="M291.7,61.7c-12.5-9.1-33.2-4.5-45.7-6.7c-7.3-1.3-11.4-4.3-13.5-6.6c-2.3-2.5-3-4.7-3-4.8
						c-0.1-0.4,0.5-0.5,0.6-0.2c0,0,0.6,2.2,2.9,4.6c2.1,2.2,6.1,5.2,13.2,6.4c12.5,2.2,33.2-2.5,45.9,6.8c0.1,0.1,0.2,0.3,0.1,0.4
						C292,61.8,291.8,61.8,291.7,61.7z"/>
				</g>
			</g>
		</g>
		<g>
			<path class="st5" d="M242.5,47.9L242.5,47.9c-1.1-0.8-2.9-3.5-4-5c-1.4-2.1-1.2-1.7-1.6-1.8c-0.8,0-0.8-0.1-4.4,13.8
				c-3.2-2.8-9.6-0.1-8.9,3.8c0.4,2,2.9,3.4,5.7,2.8c2-0.4,3.6-1.7,4.1-3.2l0,0c0.1-0.4,1.7-6.4,3-11.3c1.4,2.8,5.2,4.2,7.1,2.4
				l0.6-0.6l-0.7-0.3C243.1,48.4,242.5,48,242.5,47.9z"/>
			<path class="st5" d="M284.7,52L284.7,52c-1.2-0.1-3.8-1.3-5.3-2.1c-1.6-0.8-1.8-0.9-2.1-0.6c-0.7,0.4-0.6,0.4,2.7,12.6
				c-3.8-0.6-7.4,4.4-5.1,7c2.5,2.8,8.3-0.9,7.5-4.8l0,0c-0.1-0.4-1.5-5.7-2.7-9.9c2.3,1.4,5.9,0.8,6.5-1.5l0.2-0.8
				C285.5,52,285.9,52.1,284.7,52z"/>
			<path class="st5" d="M265.6,55.9c-0.1-0.5-1.6-6.1-3.5-13c-7.2,2.3-6.9,2.3-13.9,2.5c0.9,3.5,1.9,7.1,2.7,10
				c-3.8-0.6-7.4,4.4-5.1,7c2.5,2.8,8.3-0.9,7.5-4.8l0,0c-0.1-0.4-0.9-3.5-2.3-8.4l10.4-2c0.4,1.5,1,3.5,1.8,6.4
				c-3.8-0.6-7.4,4.4-5.1,7c1.3,1.4,3.9,1.3,5.8-0.4C265.3,59.1,265.9,57.4,265.6,55.9L265.6,55.9z"/>
		</g>
	</g>
	<polygon class="st6" points="324.4,67.3 324.7,62.5 326.6,62.6 326.5,65.3 330.3,65.1 330.4,67 	"/>
	<path class="st7" d="M380.6,103.9L380.6,103.9c-0.9-0.9-2-3.5-2.7-5c-0.7-1.6-0.8-1.8-1.2-1.9c-0.8-0.1-0.7-0.1-6.1,11.3
		c-2.4-2.9-8.5-1.5-8.4,2c0.1,3.8,6.9,4.8,8.8,1.2l0,0c0.2-0.3,2.5-5.3,4.4-9.3c0.8,2.6,3.9,4.4,5.9,3.1l0.7-0.4
		C381.2,104.5,381.5,104.8,380.6,103.9z"/>
	<path class="st7" d="M134.8,57.8c-0.1-0.5-1.6-6.1-3.5-13c-7.2,2.3-6.9,2.3-13.9,2.5c0.9,3.5,1.9,7.1,2.7,10
		c-3.8-0.6-7.4,4.4-5.1,7c2.5,2.8,8.3-0.9,7.5-4.8l0,0c-0.1-0.4-0.9-3.5-2.3-8.4l10.4-2c0.4,1.5,1,3.5,1.8,6.4
		c-3.8-0.6-7.4,4.4-5.1,7c1.3,1.4,3.9,1.3,5.8-0.4C134.5,60.9,135.2,59.2,134.8,57.8L134.8,57.8z"/>
</g>
<text transform="matrix(1 0 0 1 -554.6495 479.7483)" class="st25" style="font-family:'Raleway-Black'; font-size:32.6733px;">ESTAMOS EN INSCRIPCIONES</text>
<g>
	<path class="st26" d="M-354.3,566.5h-152.4c-11,0-20-9-20-20v-19.1c0-11,9-20,20-20h152.4c11,0,20,9,20,20v19.1
		C-334.3,557.5-343.3,566.5-354.3,566.5z"/>
	<path class="st27" d="M-138.4,566.5h-152.4c-11,0-20-9-20-20v-19.1c0-11,9-20,20-20h152.4c11,0,20,9,20,20v19.1
		C-118.4,557.5-127.4,566.5-138.4,566.5z"/>
	<text transform="matrix(1 0 0 1 -518.7708 547.2449)" class="st19" style="font-family:'Raleway-Bold'; font-size:32.6733px;">Inscribirme</text>
	<text transform="matrix(1 0 0 1 -301.7982 547.2449)" class="st25" style="font-family:'Raleway-Bold'; font-size:32.6733px;">No, gracias</text>
</g>
<circle class="st28" cx="-107.6" cy="118.4" r="17"/>
<text transform="matrix(1 0 0 1 -115.0855 125.7747)" class="st19" style="font-family:'Raleway-SemiBold'; font-size:23.5094px;">X</text>
</svg>
