<?xml version="1.0" encoding="utf-8"?>
<!-- Generator: Adobe Illustrator 21.0.2, SVG Export Plug-In . SVG Version: 6.00 Build 0)  -->
<svg version="1.1" id="Capa_1" xmlns="http://www.w3.org/2000/svg" xmlns:xlink="http://www.w3.org/1999/xlink" x="0px" y="0px"
	 viewBox="0 0 136.4 274.3" style="enable-background:new 0 0 136.4 274.3;" xml:space="preserve">
<style type="text/css">
	.st0{fill:#FFFFFF;}
</style>
<g>
	<g>
		<g>
			<g>
				<polygon class="st0" points="34.1,209.2 34.1,209.7 34.1,209.8 34.1,210.2 34.1,210.3 34.1,210.7 34.1,210.8 34.1,211.2 
					34.1,211.3 34.1,211.7 34.1,211.8 34.1,212.2 34.1,212.3 34.1,212.8 102.5,212.8 102.5,212.3 102.5,212.2 102.5,211.8 
					102.5,211.7 102.5,211.3 102.5,211.2 102.5,210.8 102.5,210.7 102.5,210.3 102.5,210.2 102.5,209.8 102.5,209.7 102.5,209.2 
									"/>
				<polygon class="st0" points="34.1,237.7 34.1,237.9 34.1,237.9 34.1,238.1 34.1,238.1 34.1,238.2 34.1,238.3 34.1,238.4 
					34.1,238.4 34.1,238.6 34.1,238.6 34.1,238.8 34.1,238.8 34.1,239 102.5,239 102.5,238.8 102.5,238.8 102.5,238.6 102.5,238.6 
					102.5,238.4 102.5,238.4 102.5,238.3 102.5,238.2 102.5,238.1 102.5,238.1 102.5,237.9 102.5,237.9 102.5,237.7 				"/>
				<polygon class="st0" points="34.1,260.5 34.1,260.7 34.1,260.7 34.1,260.9 34.1,260.9 34.1,261.1 34.1,261.1 34.1,261.2 
					34.1,261.3 34.1,261.4 34.1,261.4 34.1,261.6 34.1,261.6 34.1,261.8 102.5,261.8 102.5,261.6 102.5,261.6 102.5,261.4 
					102.5,261.4 102.5,261.3 102.5,261.2 102.5,261.1 102.5,261.1 102.5,260.9 102.5,260.9 102.5,260.7 102.5,260.7 102.5,260.5 
									"/>
				<path class="st0" d="M35.7,269.7c-0.1-9.5-0.2-48.7-0.3-58.2c0-0.3-1.3-0.3-1.3,0l0,0c0.2,16.2,0,42,0.2,58.2"/>
				<path class="st0" d="M102.8,269.5c-0.1-9.4-0.1-48.6-0.2-58c0-0.3-1.3-0.3-1.3,0l0,0c0.2,16,0,42,0.2,58"/>
				<path class="st0" d="M102.4,210.1c2.2-3.4,4.5-6.9,6.7-10.3c1.8-2.7,2.9-4.1,2.7-7.3c-0.6-8.4-1.2-16.7-1.8-25.1
					c-1.2-16.7-2.4-33.4-3.5-50.1c-1.2-16.8-2.4-33.6-3.6-50.3c-0.6-8.2-1.2-16.5-1.7-24.7c-0.5-7.2-1.4-14.5-1.3-21.7
					c0-1.7,0-3.4-1.2-4.8c-1.6-2-4.6-3.1-7-3.6c-3.9-0.8-7.8-0.6-11.6-1.7C76,9.4,72.3,7.4,68.9,4.9c0,0.4,0,0.7,0,1.1
					c0.1-0.1,0.1-0.1,0.2-0.2c-0.3-0.3-0.5-0.7-0.8-1c-3.1,2.4-6.5,4.4-10.2,5.6c-3.6,1.2-7.2,1.5-11,1.9c-3.8,0.4-9.5,1.9-10.3,6.3
					c-0.4,1.9-0.1,4-0.2,5.9c-0.2,4-0.6,8-0.8,12c-0.6,8.2-1.2,16.4-1.7,24.6c-2.4,33.5-4.7,66.9-7.1,100.4
					c-0.7,9.4-1.3,18.7-2,28.1c-0.1,1.8-0.6,4-0.3,5.8c0.2,1.3,1,2.3,1.7,3.4c2.6,4,5.2,8,7.8,12c0.4,0.7,1.5,0,1.1-0.6
					c-2.2-3.3-4.3-6.6-6.5-9.9c-0.9-1.4-2.4-3-2.8-4.6c-0.5-1.8,0.1-4.1,0.2-6c0.6-8,1.1-16,1.7-24.1c1.1-16.2,2.3-32.4,3.4-48.6
					c1.1-15.9,2.3-31.9,3.4-47.8c0.6-7.9,1.1-15.8,1.7-23.7c0.5-7.4,1.5-14.9,1.5-22.3c0-2.1-0.4-4.5,1.1-6.2
					c2.9-3.1,7.6-3.1,11.5-3.5c6.9-0.6,13.2-3.3,18.6-7.6c0.6-0.4-0.2-1.4-0.8-1c-0.1,0.1-0.1,0.1-0.2,0.2c-0.4,0.3-0.4,0.8,0,1.1
					c5,3.7,10.7,6.2,16.9,6.8c3.8,0.4,7.5,0.3,10.8,2.4c2.2,1.3,2.7,2.8,2.7,5.3c0,6.8,0.7,13.6,1.2,20.4c0.6,7.9,1.1,15.8,1.7,23.7
					c2.2,31.6,4.5,63.3,6.7,94.9c0.6,9,1.3,18,1.9,27.1c0.2,2.2,0.3,4.3,0.5,6.5c0.1,2.2-0.6,3.1-1.7,4.9c-2.5,3.8-5,7.7-7.5,11.5
					C100.9,210.2,102,210.8,102.4,210.1L102.4,210.1z"/>
				<path class="st0" d="M22,184.7c-1.8-0.2-3.7-0.4-5.5-0.6c0.5-2.8,0.3-5.6-1.1-7.8c-0.9-1.6-2.4-2.9-4-3.4c0-0.5-0.5-1.1-1-1
					c-1,0.2-1.7,0.5-2.2,1.1c-0.4,0.2-0.7,0.4-1,0.7c0,0-0.1,0-0.1,0.1c-2.6,1.2-3.9,3.7-3.9,6.2c-0.5,1.9-0.8,3.9-0.7,5.9
					c0,0.4,0,0.8,0.1,1.1c-0.6,3.8-0.1,7.4,3.7,7.4c0.2,0,0.4,0,0.5,0c0.6,0.3,1.2,0.4,1.8,0.4c0.6,0.2,1.3,0.2,2-0.1
					c0.6-0.2,1.1-0.6,1.4-1c0.8-0.6,1.5-1.4,2.1-2.3c0.8-1.4,1.5-3.1,2-4.8c1.2,0.6,2.5,0.6,3.8,0.4c0,0,0,0,0,0
					c0.2,0,0.3,0,0.5-0.1c0,0,0.1,0,0.1,0c0.7,0.5,1.7,0.2,2.2-0.6C23,185.6,22.7,184.8,22,184.7z"/>
				<path class="st0" d="M24.5,156c-1.8-0.2-3.7-0.4-5.5-0.6c0.5-2.8,0.3-5.6-1.1-7.8c-0.9-1.6-2.4-2.9-4-3.4c0-0.5-0.5-1.1-1-1
					c-1,0.2-1.7,0.5-2.2,1.1c-0.4,0.2-0.7,0.4-1,0.7c0,0-0.1,0-0.1,0.1c-2.6,1.2-3.9,3.7-3.9,6.2c-0.5,1.9-0.8,3.9-0.7,5.9
					c0,0.4,0,0.8,0.1,1.1c-0.6,3.8-0.1,7.4,3.7,7.4c0.2,0,0.4,0,0.5,0c0.6,0.3,1.2,0.4,1.8,0.4c0.6,0.2,1.3,0.2,2-0.1
					c0.6-0.2,1.1-0.6,1.4-1c0.8-0.6,1.5-1.4,2.1-2.3c0.8-1.4,1.5-3.1,2-4.8c1.2,0.6,2.5,0.6,3.8,0.4c0,0,0,0,0,0
					c0.2,0,0.3,0,0.5-0.1c0,0,0.1,0,0.1,0c0.7,0.5,1.7,0.2,2.2-0.6C25.5,156.8,25.2,156,24.5,156z"/>
				<path class="st0" d="M27.1,127.2c-1.8-0.2-3.7-0.4-5.5-0.6c0.5-2.8,0.3-5.6-1.1-7.8c-0.9-1.6-2.4-2.9-4-3.4c0-0.5-0.5-1.1-1-1
					c-1,0.2-1.7,0.5-2.2,1.1c-0.4,0.2-0.7,0.4-1,0.7c0,0-0.1,0-0.1,0.1c-2.6,1.2-3.9,3.7-3.9,6.2c-0.5,1.9-0.8,3.9-0.7,5.9
					c0,0.4,0,0.8,0.1,1.1c-0.6,3.8-0.1,7.4,3.7,7.4c0.2,0,0.4,0,0.5,0c0.6,0.3,1.2,0.4,1.8,0.4c0.6,0.2,1.3,0.2,2-0.1
					c0.6-0.2,1.1-0.6,1.4-1c0.8-0.6,1.5-1.4,2.1-2.3c0.8-1.4,1.5-3.1,2-4.8c1.2,0.6,2.5,0.6,3.8,0.4c0,0,0,0,0,0
					c0.2,0,0.3,0,0.5-0.1c0,0,0.1,0,0.1,0c0.7,0.5,1.7,0.2,2.2-0.6C28,128,27.7,127.3,27.1,127.2z"/>
				<path class="st0" d="M29.6,98.4c-1.8-0.2-3.7-0.4-5.5-0.6c0.5-2.8,0.3-5.6-1.1-7.8c-0.9-1.6-2.4-2.9-4-3.4c0-0.5-0.5-1.1-1-1
					c-1,0.2-1.7,0.5-2.2,1.1c-0.4,0.2-0.7,0.4-1,0.7c0,0-0.1,0-0.1,0.1c-2.6,1.2-3.9,3.7-3.9,6.2c-0.5,1.9-0.8,3.9-0.7,5.9
					c0,0.4,0,0.8,0.1,1.1c-0.6,3.8-0.1,7.4,3.7,7.4c0.2,0,0.4,0,0.5,0c0.6,0.3,1.2,0.4,1.8,0.4c0.6,0.2,1.3,0.2,2-0.1
					c0.6-0.2,1.1-0.6,1.4-1c0.8-0.6,1.5-1.4,2.1-2.3c0.8-1.4,1.5-3.1,2-4.8c1.2,0.6,2.5,0.6,3.8,0.4c0,0,0,0,0,0
					c0.2,0,0.3,0,0.5-0.1c0,0,0.1,0,0.1,0c0.7,0.5,1.7,0.2,2.2-0.6C30.5,99.3,30.2,98.5,29.6,98.4z"/>
				<path class="st0" d="M32.1,69.6c-1.8-0.2-3.7-0.4-5.5-0.6c0.5-2.8,0.3-5.6-1.1-7.8c-0.9-1.6-2.4-2.9-4-3.4c0-0.5-0.5-1.1-1-1
					c-1,0.2-1.7,0.5-2.2,1.1c-0.4,0.2-0.7,0.4-1,0.7c0,0-0.1,0-0.1,0.1c-2.6,1.2-3.9,3.7-3.9,6.2c-0.5,1.9-0.8,3.9-0.7,5.9
					c0,0.4,0,0.8,0.1,1.1c-0.6,3.8-0.1,7.4,3.7,7.4c0.2,0,0.4,0,0.5,0c0.6,0.3,1.2,0.4,1.8,0.4c0.6,0.2,1.3,0.2,2-0.1
					c0.6-0.2,1.1-0.6,1.4-1c0.8-0.6,1.5-1.4,2.1-2.3c0.8-1.4,1.5-3.1,2-4.8c1.2,0.6,2.5,0.6,3.8,0.4c0,0,0,0,0,0
					c0.2,0,0.3,0,0.5-0.1c0,0,0.1,0,0.1,0c0.7,0.5,1.7,0.2,2.2-0.6C33,70.5,32.8,69.7,32.1,69.6z"/>
				<path class="st0" d="M34.6,40.9c-1.8-0.2-3.7-0.4-5.5-0.6c0.5-2.8,0.3-5.6-1.1-7.8c-0.9-1.6-2.4-2.9-4-3.4c0-0.5-0.5-1.1-1-1
					c-1,0.2-1.7,0.5-2.2,1.1c-0.4,0.2-0.7,0.4-1,0.7c0,0-0.1,0-0.1,0.1c-2.6,1.2-3.9,3.7-3.9,6.2c-0.5,1.9-0.8,3.9-0.7,5.9
					c0,0.4,0,0.8,0.1,1.1c-0.6,3.8-0.1,7.4,3.7,7.4c0.2,0,0.4,0,0.5,0c0.6,0.3,1.2,0.4,1.8,0.4c0.6,0.2,1.3,0.2,2-0.1
					c0.6-0.2,1.1-0.6,1.4-1c0.8-0.6,1.5-1.4,2.1-2.3c0.8-1.4,1.5-3.1,2-4.8c1.2,0.6,2.5,0.6,3.8,0.4c0,0,0,0,0,0
					c0.2,0,0.3,0,0.5-0.1c0,0,0.1,0,0.1,0c0.7,0.5,1.7,0.2,2.2-0.6C35.6,41.7,35.3,40.9,34.6,40.9z"/>
				<path class="st0" d="M114.4,184.7c1.8-0.2,3.7-0.4,5.5-0.6c-0.5-2.8-0.3-5.6,1.1-7.8c0.9-1.6,2.4-2.9,4-3.4c0-0.5,0.5-1.1,1-1
					c1,0.2,1.7,0.5,2.2,1.1c0.4,0.2,0.7,0.4,1,0.7c0,0,0.1,0,0.1,0.1c2.6,1.2,3.9,3.7,3.9,6.2c0.5,1.9,0.8,3.9,0.7,5.9
					c0,0.4,0,0.8-0.1,1.1c0.6,3.8,0.1,7.4-3.7,7.4c-0.2,0-0.4,0-0.5,0c-0.6,0.3-1.2,0.4-1.8,0.4c-0.6,0.2-1.3,0.2-2-0.1
					c-0.6-0.2-1.1-0.6-1.4-1c-0.8-0.6-1.5-1.4-2.1-2.3c-0.8-1.4-1.5-3.1-2-4.8c-1.2,0.6-2.5,0.6-3.8,0.4c0,0,0,0,0,0
					c-0.2,0-0.3,0-0.5-0.1c0,0-0.1,0-0.1,0c-0.7,0.5-1.7,0.2-2.2-0.6C113.5,185.6,113.8,184.8,114.4,184.7z"/>
				<path class="st0" d="M111.9,156c1.8-0.2,3.7-0.4,5.5-0.6c-0.5-2.8-0.3-5.6,1.1-7.8c0.9-1.6,2.4-2.9,4-3.4c0-0.5,0.5-1.1,1-1
					c1,0.2,1.7,0.5,2.2,1.1c0.4,0.2,0.7,0.4,1,0.7c0,0,0.1,0,0.1,0.1c2.6,1.2,3.9,3.7,3.9,6.2c0.5,1.9,0.8,3.9,0.7,5.9
					c0,0.4,0,0.8-0.1,1.1c0.6,3.8,0.1,7.4-3.7,7.4c-0.2,0-0.4,0-0.5,0c-0.6,0.3-1.2,0.4-1.8,0.4c-0.6,0.2-1.3,0.2-2-0.1
					c-0.6-0.2-1.1-0.6-1.4-1c-0.8-0.6-1.5-1.4-2.1-2.3c-0.8-1.4-1.5-3.1-2-4.8c-1.2,0.6-2.5,0.6-3.8,0.4c0,0,0,0,0,0
					c-0.2,0-0.3,0-0.5-0.1c0,0-0.1,0-0.1,0c-0.7,0.5-1.7,0.2-2.2-0.6C111,156.8,111.2,156,111.9,156z"/>
				<path class="st0" d="M109.4,127.2c1.8-0.2,3.7-0.4,5.5-0.6c-0.5-2.8-0.3-5.6,1.1-7.8c0.9-1.6,2.4-2.9,4-3.4c0-0.5,0.5-1.1,1-1
					c1,0.2,1.7,0.5,2.2,1.1c0.4,0.2,0.7,0.4,1,0.7c0,0,0.1,0,0.1,0.1c2.6,1.2,3.9,3.7,3.9,6.2c0.5,1.9,0.8,3.9,0.7,5.9
					c0,0.4,0,0.8-0.1,1.1c0.6,3.8,0.1,7.4-3.7,7.4c-0.2,0-0.4,0-0.5,0c-0.6,0.3-1.2,0.4-1.8,0.4c-0.6,0.2-1.3,0.2-2-0.1
					c-0.6-0.2-1.1-0.6-1.4-1c-0.8-0.6-1.5-1.4-2.1-2.3c-0.8-1.4-1.5-3.1-2-4.8c-1.2,0.6-2.5,0.6-3.8,0.4c0,0,0,0,0,0
					c-0.2,0-0.3,0-0.5-0.1c0,0-0.1,0-0.1,0c-0.7,0.5-1.7,0.2-2.2-0.6C108.4,128,108.7,127.3,109.4,127.2z"/>
				<path class="st0" d="M106.9,98.4c1.8-0.2,3.7-0.4,5.5-0.6c-0.5-2.8-0.3-5.6,1.1-7.8c0.9-1.6,2.4-2.9,4-3.4c0-0.5,0.5-1.1,1-1
					c1,0.2,1.7,0.5,2.2,1.1c0.4,0.2,0.7,0.4,1,0.7c0,0,0.1,0,0.1,0.1c2.6,1.2,3.9,3.7,3.9,6.2c0.5,1.9,0.8,3.9,0.7,5.9
					c0,0.4,0,0.8-0.1,1.1c0.6,3.8,0.1,7.4-3.7,7.4c-0.2,0-0.4,0-0.5,0c-0.6,0.3-1.2,0.4-1.8,0.4c-0.6,0.2-1.3,0.2-2-0.1
					c-0.6-0.2-1.1-0.6-1.4-1c-0.8-0.6-1.5-1.4-2.1-2.3c-0.8-1.4-1.5-3.1-2-4.8c-1.2,0.6-2.5,0.6-3.8,0.4c0,0,0,0,0,0
					c-0.2,0-0.3,0-0.5-0.1c0,0-0.1,0-0.1,0c-0.7,0.5-1.7,0.2-2.2-0.6C105.9,99.3,106.2,98.5,106.9,98.4z"/>
				<g>
					<path class="st0" d="M48.7,38.4c-3.9-0.4-6.6,3.8-6,7.4c0.1,0.3,0.1,0.5,0.2,0.8c0.3,1,0.8,1.9,1.6,2.6c0.8,0.7,1.7,1,2.6,1.1
						c2.6,0.5,5.3-1.2,6.4-3.9C54.9,43,52.5,38.8,48.7,38.4z M47.3,42.8c1.2-0.4,2,0.5,2.1,1.5c-0.3,1.2-1.8,2-2.4,0.4
						C46.9,44,47,43.3,47.3,42.8C47.3,42.8,47.3,42.8,47.3,42.8z"/>
					<path class="st0" d="M94.8,69.2c-2.4-3-6.8-2.5-8.8,0.7c-2.2,3.3-0.3,8.2,3.5,9.2c0.8,0.2,1.5,0.2,2.2,0.1
						c0.6-0.1,1.1-0.2,1.7-0.5c1.5-0.7,2.3-2.1,2.7-3.5C96.6,73.2,96.2,70.9,94.8,69.2z M91.7,71.7c0.1,0.3,0.2,0.6,0.2,1
						c0,2.3-2.4,1.7-2.5,0.1c0-0.1,0.1-0.2,0.1-0.3C90,71.6,91,71.4,91.7,71.7z"/>
				</g>
				<path class="st0" d="M104.3,69.6c1.8-0.2,3.7-0.4,5.5-0.6c-0.5-2.8-0.3-5.6,1.1-7.8c0.9-1.6,2.4-2.9,4-3.4c0-0.5,0.5-1.1,1-1
					c1,0.2,1.7,0.5,2.2,1.1c0.4,0.2,0.7,0.4,1,0.7c0,0,0.1,0,0.1,0.1c2.6,1.2,3.9,3.7,3.9,6.2c0.5,1.9,0.8,3.9,0.7,5.9
					c0,0.4,0,0.8-0.1,1.1c0.6,3.8,0.1,7.4-3.7,7.4c-0.2,0-0.4,0-0.5,0c-0.6,0.3-1.2,0.4-1.8,0.4c-0.6,0.2-1.3,0.2-2-0.1
					c-0.6-0.2-1.1-0.6-1.4-1c-0.8-0.6-1.5-1.4-2.1-2.3c-0.8-1.4-1.5-3.1-2-4.8c-1.2,0.6-2.5,0.6-3.8,0.4c0,0,0,0,0,0
					c-0.2,0-0.3,0-0.5-0.1c0,0-0.1,0-0.1,0c-0.7,0.5-1.7,0.2-2.2-0.6C103.4,70.5,103.7,69.7,104.3,69.6z"/>
				<g>
					<path class="st0" d="M36.1,182.3c-3.9-0.4-6.6,3.8-6,7.4c0.1,0.3,0.1,0.5,0.2,0.8c0.3,1,0.8,1.9,1.6,2.6c0.8,0.7,1.7,1,2.6,1.1
						c2.6,0.5,5.3-1.2,6.4-3.9C42.3,186.9,39.9,182.6,36.1,182.3z M34.7,186.7c1.2-0.4,2,0.5,2.1,1.5c-0.3,1.2-1.8,2-2.4,0.4
						C34.3,187.9,34.4,187.2,34.7,186.7C34.7,186.7,34.7,186.7,34.7,186.7z"/>
					<path class="st0" d="M38.6,153.5c-3.9-0.4-6.6,3.8-6,7.4c0.1,0.3,0.1,0.5,0.2,0.8c0.3,1,0.8,1.9,1.6,2.6c0.8,0.7,1.7,1,2.6,1.1
						c2.6,0.5,5.3-1.2,6.4-3.9C44.8,158.1,42.4,153.9,38.6,153.5z M37.2,157.9c1.2-0.4,2,0.5,2.1,1.5c-0.3,1.2-1.8,2-2.4,0.4
						C36.8,159.1,36.9,158.4,37.2,157.9C37.2,157.9,37.2,157.9,37.2,157.9z"/>
					<path class="st0" d="M41.1,124.7c-3.9-0.4-6.6,3.8-6,7.4c0.1,0.3,0.1,0.5,0.2,0.8c0.3,1,0.8,1.9,1.6,2.6c0.8,0.7,1.7,1,2.6,1.1
						c2.6,0.5,5.3-1.2,6.4-3.9C47.3,129.3,44.9,125.1,41.1,124.7z M39.8,129.1c1.2-0.4,2,0.5,2.1,1.5c-0.3,1.2-1.8,2-2.4,0.4
						C39.3,130.3,39.4,129.6,39.8,129.1C39.8,129.1,39.8,129.1,39.8,129.1z"/>
					<path class="st0" d="M43.6,96c-3.9-0.4-6.6,3.8-6,7.4c0.1,0.3,0.1,0.5,0.2,0.8c0.3,1,0.8,1.9,1.6,2.6c0.8,0.7,1.7,1,2.6,1.1
						c2.6,0.5,5.3-1.2,6.4-3.9C49.8,100.6,47.5,96.3,43.6,96z M42.3,100.3c1.2-0.4,2,0.5,2.1,1.5c-0.3,1.2-1.8,2-2.4,0.4
						C41.8,101.5,42,100.9,42.3,100.3C42.3,100.4,42.3,100.4,42.3,100.3z"/>
					<path class="st0" d="M46.2,67.2c-3.9-0.4-6.6,3.8-6,7.4c0.1,0.3,0.1,0.5,0.2,0.8c0.3,1,0.8,1.9,1.6,2.6c0.8,0.7,1.7,1,2.6,1.1
						c2.6,0.5,5.3-1.2,6.4-3.9C52.3,71.8,50,67.6,46.2,67.2z M44.8,71.6c1.2-0.4,2,0.5,2.1,1.5c-0.3,1.2-1.8,2-2.4,0.4
						C44.4,72.8,44.5,72.1,44.8,71.6C44.8,71.6,44.8,71.6,44.8,71.6z"/>
					<path class="st0" d="M104.9,184.3c-2.4-3-6.8-2.5-8.8,0.7c-2.2,3.3-0.3,8.2,3.5,9.2c0.8,0.2,1.5,0.2,2.2,0.1
						c0.6-0.1,1.1-0.2,1.7-0.5c1.5-0.7,2.3-2.1,2.7-3.5C106.7,188.2,106.3,186,104.9,184.3z M101.8,186.8c0.1,0.3,0.2,0.6,0.2,1
						c0,2.3-2.4,1.7-2.5,0.1c0-0.1,0.1-0.2,0.1-0.3C100.1,186.7,101.1,186.4,101.8,186.8z"/>
					<path class="st0" d="M99.3,165.5c0.6-0.1,1.1-0.2,1.7-0.5c1.5-0.7,2.3-2.1,2.7-3.5c0.6-2,0.1-4.2-1.2-5.9
						c-2.4-3-6.8-2.5-8.8,0.7c-2.2,3.3-0.3,8.2,3.5,9.2C97.8,165.6,98.6,165.6,99.3,165.5z M99.3,158c0.1,0.3,0.2,0.6,0.2,1
						c0,2.3-2.4,1.7-2.5,0.1c0-0.1,0.1-0.2,0.1-0.3C97.6,157.9,98.6,157.7,99.3,158z"/>
					<path class="st0" d="M96.8,136.7c0.6-0.1,1.1-0.2,1.7-0.5c1.5-0.7,2.3-2.1,2.7-3.5c0.6-2,0.1-4.2-1.2-5.9
						c-2.4-3-6.8-2.5-8.8,0.7c-2.2,3.3-0.3,8.2,3.5,9.2C95.3,136.9,96.1,136.9,96.8,136.7z M96.8,129.3c0.1,0.3,0.2,0.6,0.2,1
						c0,2.3-2.4,1.7-2.5,0.1c0-0.1,0.1-0.2,0.1-0.3C95.1,129.1,96,128.9,96.8,129.3z"/>
					<path class="st0" d="M94.3,107.9c0.6-0.1,1.1-0.2,1.7-0.5c1.5-0.7,2.3-2.1,2.7-3.5c0.6-2,0.1-4.2-1.2-5.9
						c-2.4-3-6.8-2.5-8.8,0.7c-2.2,3.3-0.3,8.2,3.5,9.2C92.8,108.1,93.5,108.1,94.3,107.9z M94.2,100.5c0.1,0.3,0.2,0.6,0.2,1
						c0,2.3-2.4,1.7-2.5,0.1c0-0.1,0.1-0.2,0.1-0.3C92.6,100.4,93.5,100.1,94.2,100.5z"/>
					<path class="st0" d="M89.2,50.4c0.6-0.1,1.1-0.2,1.7-0.5c1.5-0.7,2.3-2.1,2.7-3.5c0.6-2,0.1-4.2-1.2-5.9
						c-2.4-3-6.8-2.5-8.8,0.7c-2.2,3.3-0.3,8.2,3.5,9.2C87.8,50.5,88.5,50.6,89.2,50.4z M89.2,43c0.1,0.3,0.2,0.6,0.2,1
						c0,2.3-2.4,1.7-2.5,0.1c0-0.1,0.1-0.2,0.1-0.3C87.5,42.8,88.5,42.6,89.2,43z"/>
				</g>
				<path class="st0" d="M101.8,40.9c1.8-0.2,3.7-0.4,5.5-0.6c-0.5-2.8-0.3-5.6,1.1-7.8c0.9-1.6,2.4-2.9,4-3.4c0-0.5,0.5-1.1,1-1
					c1,0.2,1.7,0.5,2.2,1.1c0.4,0.2,0.7,0.4,1,0.7c0,0,0.1,0,0.1,0.1c2.6,1.2,3.9,3.7,3.9,6.2c0.5,1.9,0.8,3.9,0.7,5.9
					c0,0.4,0,0.8-0.1,1.1c0.6,3.8,0.1,7.4-3.7,7.4c-0.2,0-0.4,0-0.5,0c-0.6,0.3-1.2,0.4-1.8,0.4c-0.6,0.2-1.3,0.2-2-0.1
					c-0.6-0.2-1.1-0.6-1.4-1c-0.8-0.6-1.5-1.4-2.1-2.3c-0.8-1.4-1.5-3.1-2-4.8c-1.2,0.6-2.5,0.6-3.8,0.4c0,0,0,0,0,0
					c-0.2,0-0.3,0-0.5-0.1c0,0-0.1,0-0.1,0c-0.7,0.5-1.7,0.2-2.2-0.6C100.9,41.7,101.2,40.9,101.8,40.9z"/>
			</g>
		</g>
	</g>
</g>
</svg>
