<?xml version="1.0" encoding="utf-8"?>
<!-- Generator: Adobe Illustrator 21.0.2, SVG Export Plug-In . SVG Version: 6.00 Build 0)  -->
<svg version="1.1" id="Capa_1" xmlns="http://www.w3.org/2000/svg" xmlns:xlink="http://www.w3.org/1999/xlink" x="0px" y="0px"
	 viewBox="0 0 100 100" style="enable-background:new 0 0 100 100;" xml:space="preserve">
<style type="text/css">
	.st0{fill:#FFFFFF;}
</style>
<g>
	<g>
		<path d="M19.6,36.4c0,3.1,0.6,5.6,1.6,8.1c1.5,3.8,3.8,7,6.2,10.2c3.3,4.4,6.9,8.4,10.9,12.1c6.3,5.8,13.9,9,22,11.2
			c4.6,1.3,9,0.8,13.2-1.5C78,74,80.6,70.3,80.4,65c-0.1-2.2-1.3-3.8-3.3-4.7c-0.8-0.4-1.6-0.8-2.4-1.1c-2.8-1.4-5.5-2.9-8.4-4.2
			c-2.1-1-3.9-0.5-5.5,1.3c-1.1,1.2-2.1,2.5-3.1,3.8c-0.9,1.2-1.2,1.3-2.6,0.7c-7.1-3.2-12.5-8.3-16.6-14.9
			c-0.3-0.5-0.3-0.9,0.1-1.4c0.9-1.1,1.9-2.1,2.7-3.3c1.1-1.6,2-3.2,1-5.3c-0.8-1.7-1.3-3.4-2.1-5.1c-0.9-2.2-1.9-4.4-2.9-6.5
			c-0.9-1.9-2.6-2.9-4.8-2.8c-0.9,0-1.8,0-2.6,0.1c-2,0.2-3.8,1-5.1,2.4C21.6,27.6,19.6,31.8,19.6,36.4z"/>
		<path class="st0" d="M19.6,36.4c0-4.6,2-8.8,5.3-12.5c1.3-1.5,3.1-2.3,5.1-2.4c0.9-0.1,1.8-0.1,2.6-0.1c2.2-0.1,3.8,0.9,4.8,2.8
			c1,2.1,2,4.3,2.9,6.5c0.7,1.7,1.3,3.4,2.1,5.1c1,2.1,0,3.7-1,5.3c-0.8,1.2-1.7,2.3-2.7,3.3c-0.5,0.5-0.5,0.9-0.1,1.4
			c4.1,6.6,9.5,11.7,16.6,14.9c1.4,0.6,1.7,0.5,2.6-0.7c1-1.3,2-2.6,3.1-3.8c1.6-1.8,3.4-2.3,5.5-1.3c2.8,1.3,5.6,2.8,8.4,4.2
			c0.8,0.4,1.6,0.8,2.4,1.1c1.9,1,3.2,2.5,3.3,4.7c0.2,5.3-2.3,9-6.9,11.5c-4.2,2.3-8.6,2.7-13.2,1.5c-8.1-2.2-15.7-5.4-22-11.2
			c-4-3.7-7.6-7.7-10.9-12.1c-2.4-3.2-4.7-6.5-6.2-10.2C20.2,42,19.6,39.5,19.6,36.4z"/>
	</g>
</g>
</svg>
