<?xml version="1.0" encoding="utf-8"?>
<!-- Generator: Adobe Illustrator 21.0.2, SVG Export Plug-In . SVG Version: 6.00 Build 0)  -->
<svg version="1.1" id="Capa_1" xmlns="http://www.w3.org/2000/svg" xmlns:xlink="http://www.w3.org/1999/xlink" x="0px" y="0px"
	 viewBox="0 0 100 100" style="enable-background:new 0 0 100 100;" xml:space="preserve">
<style type="text/css">
	.st0{fill:#FFFFFF;}
</style>
<g>
	<g>
		<path d="M260.2,36.4c0,3.1,0.6,5.6,1.6,8.1c1.5,3.8,3.8,7,6.2,10.2c3.3,4.4,6.9,8.4,10.9,12.1c6.3,5.8,13.9,9,22,11.2
			c4.6,1.3,9,0.8,13.2-1.5c4.5-2.5,7.1-6.2,6.9-11.5c-0.1-2.2-1.3-3.8-3.3-4.7c-0.8-0.4-1.6-0.8-2.4-1.1c-2.8-1.4-5.5-2.9-8.4-4.2
			c-2.1-1-3.9-0.5-5.5,1.3c-1.1,1.2-2.1,2.5-3.1,3.8c-0.9,1.2-1.2,1.3-2.6,0.7c-7.1-3.2-12.5-8.3-16.6-14.9
			c-0.3-0.5-0.3-0.9,0.1-1.4c0.9-1.1,1.9-2.1,2.7-3.3c1.1-1.6,2-3.2,1-5.3c-0.8-1.7-1.3-3.4-2.1-5.1c-0.9-2.2-1.9-4.4-2.9-6.5
			c-0.9-1.9-2.6-2.9-4.8-2.8c-0.9,0-1.8,0-2.6,0.1c-2,0.2-3.8,1-5.1,2.4C262.2,27.6,260.2,31.8,260.2,36.4z"/>
		<path class="st0" d="M260.2,36.4c0-4.6,2-8.8,5.3-12.5c1.3-1.5,3.1-2.3,5.1-2.4c0.9-0.1,1.8-0.1,2.6-0.1c2.2-0.1,3.8,0.9,4.8,2.8
			c1,2.1,2,4.3,2.9,6.5c0.7,1.7,1.3,3.4,2.1,5.1c1,2.1,0,3.7-1,5.3c-0.8,1.2-1.7,2.3-2.7,3.3c-0.5,0.5-0.5,0.9-0.1,1.4
			c4.1,6.6,9.5,11.7,16.6,14.9c1.4,0.6,1.7,0.5,2.6-0.7c1-1.3,2-2.6,3.1-3.8c1.6-1.8,3.4-2.3,5.5-1.3c2.8,1.3,5.6,2.8,8.4,4.2
			c0.8,0.4,1.6,0.8,2.4,1.1c1.9,1,3.2,2.5,3.3,4.7c0.2,5.3-2.3,9-6.9,11.5c-4.2,2.3-8.6,2.7-13.2,1.5c-8.1-2.2-15.7-5.4-22-11.2
			c-4-3.7-7.6-7.7-10.9-12.1c-2.4-3.2-4.7-6.5-6.2-10.2C260.8,42,260.2,39.5,260.2,36.4z"/>
	</g>
</g>
<g>
	<g>
		<path class="st0" d="M11.2,89c0.1-0.5,0.2-0.7,0.3-1c1.7-6,3.3-12.1,5-18.2c0.1-0.5,0.1-1.1-0.2-1.5c-7.6-14.1-6.2-30.7,4-43
			c9.3-11.2,21.4-15.8,35.8-13.8c9.3,1.3,17,5.8,23.3,12.8C91.5,38.1,92,58.7,80.7,73.4c-11.1,14.4-31.4,19.1-47.6,11
			c-1-0.5-1.9-0.6-3-0.3c-5.9,1.6-11.9,3.1-17.9,4.7C11.9,88.8,11.6,88.9,11.2,89z M30.4,41c0.3,1.3,0.5,2.7,0.8,4
			c0.7,2.6,2.3,4.8,3.8,6.9c5.3,7.5,12.1,13.1,21.1,15.7c3.7,1.1,7.3,0.9,10.6-1.4c2.3-1.6,3.1-3.9,3-6.5c0-0.4-0.4-1.1-0.8-1.3
			c-2.6-1.3-5.2-2.6-7.8-3.8c-1-0.5-1.5-0.3-2.2,0.6c-0.9,1.2-1.8,2.3-2.8,3.4c-0.5,0.6-1.2,0.9-2,0.6c-5.8-2.3-10.2-6.1-13.3-11.5
			c-0.4-0.7-0.4-1.3,0.2-1.9c0.7-0.7,1.3-1.5,1.9-2.3c0.8-1,1-2.1,0.4-3.4c-0.8-1.8-1.6-3.7-2.3-5.5c-1.2-2.8-1.2-2.8-4.3-2.8
			c-1,0-1.9,0.3-2.7,1.1C31.8,35.1,30.5,37.7,30.4,41z"/>
	</g>
</g>
</svg>
